<?xml version="1.0" encoding="UTF-8" standalone="no"?>
<!-- Created with Inkscape (http://www.inkscape.org/) -->

<svg
   xmlns:dc="http://purl.org/dc/elements/1.1/"
   xmlns:cc="http://creativecommons.org/ns#"
   xmlns:rdf="http://www.w3.org/1999/02/22-rdf-syntax-ns#"
   xmlns:svg="http://www.w3.org/2000/svg"
   xmlns="http://www.w3.org/2000/svg"
   xmlns:sodipodi="http://sodipodi.sourceforge.net/DTD/sodipodi-0.dtd"
   xmlns:inkscape="http://www.inkscape.org/namespaces/inkscape"
   width="210mm"
   height="297mm"
   version="1.1"
   viewBox="0 0 210 297"
   id="svg919"
   sodipodi:docname="tortanuziale.svg"
   inkscape:version="0.92.2 (5c3e80d, 2017-08-06)">
  <defs
     id="defs923">
    <clipPath
       clipPathUnits="userSpaceOnUse"
       id="clipPath1470">
      <ellipse
         style="fill:#ffe680;fill-opacity:0.41860465;stroke-width:0.25721678"
         id="ellipse1472"
         cx="101.77913"
         cy="138.51086"
         rx="50.496292"
         ry="50.417633" />
    </clipPath>
    <clipPath
       clipPathUnits="userSpaceOnUse"
       id="clipPath827">
      <ellipse
         style="fill:#ffe680;fill-opacity:0.41860465;stroke-width:0.09030442"
         id="ellipse829"
         cx="101.8738"
         cy="138.57759"
         rx="50.369045"
         ry="50.348438" />
    </clipPath>
  </defs>
  <sodipodi:namedview
     pagecolor="#ffffff"
     bordercolor="#666666"
     borderopacity="1"
     objecttolerance="10"
     gridtolerance="10"
     guidetolerance="10"
     inkscape:pageopacity="0"
     inkscape:pageshadow="2"
     inkscape:window-width="958"
     inkscape:window-height="1008"
     id="namedview921"
     showgrid="false"
     inkscape:zoom="0.5"
     inkscape:cx="408.80126"
     inkscape:cy="598.05282"
     inkscape:window-x="-7"
     inkscape:window-y="0"
     inkscape:window-maximized="0"
     inkscape:current-layer="svg919" />
  <metadata
     id="metadata899">
    <rdf:RDF>
      <cc:Work
         rdf:about="">
        <dc:format>image/svg+xml</dc:format>
        <dc:type
           rdf:resource="http://purl.org/dc/dcmitype/StillImage" />
        <dc:title />
      </cc:Work>
    </rdf:RDF>
  </metadata>
  <g
     id="g917"
     clip-path="url(#clipPath827)"
     transform="matrix(2.9693122,0,0,2.9624951,-197.54509,-262.69244)"
     style="stroke-width:0.26458001">
    <path
       d="M 50.687,139.01 V 87.681 h 104.25 v 102.66 H 50.687 Z"
       id="path901"
       inkscape:connector-curvature="0"
       style="fill:#fefefd" />
    <path
       d="m 96.724,188.86 c -0.3638,-0.0621 -1.5544,-0.24121 -2.6458,-0.39792 -13.702,-1.9675 -26.507,-10.265 -34.468,-22.335 -3.7793,-5.7299 -6.3116,-12.261 -7.6427,-19.711 -0.47777,-2.6741 -0.47777,-12.936 0,-15.61 0.58039,-3.2485 1.6107,-7.1127 2.6102,-9.7896 5.7604,-15.427 19.067,-27.375 34.871,-31.308 4.8191,-1.1995 6.3476,-1.3677 12.435,-1.3677 6.0878,0 7.6163,0.1681 12.435,1.3677 15.803,3.9337 29.11,15.881 34.871,31.308 0.99952,2.6769 2.0298,6.5411 2.6102,9.7896 0.22545,1.2618 0.35454,4.1038 0.35454,7.8052 0,6.0878 -0.16811,7.6163 -1.3676,12.435 -3.9337,15.803 -15.886,29.115 -31.308,34.87 -2.7327,1.0197 -5.8136,1.859 -9.1281,2.4867 -2.0194,0.3824 -12.087,0.72058 -13.626,0.4577 z m 14.354,-43.701 c -4.5475,-0.0406 -11.989,-0.0406 -16.536,0 -4.547,0.0406 -0.82682,0.0738 8.2682,0.0738 9.095,0 12.816,-0.0332 8.2682,-0.0738 z m 0.5342,-5.2669 c -0.17913,-0.0725 -0.53632,-0.0769 -0.79375,-0.01 -0.25743,0.0671 -0.11087,0.12638 0.32569,0.13177 0.43657,0.005 0.64719,-0.0495 0.46806,-0.12197 z m -4.0889,-13.518 c -2.5735,-0.0433 -6.8598,-0.0434 -9.525,-1.6e-4 -2.6652,0.0432 -0.55958,0.0786 4.6792,0.0787 5.2388,9e-5 7.4194,-0.0352 4.8458,-0.0785 z"
       id="path903"
       inkscape:connector-curvature="0"
       style="fill:#fcf9db" />
    <path
       d="M 96.46,188.72 C 81.673,187.0574 68.323,178.9613 60.077,166.654 50.072,151.721 48.737,132.943 56.5319,116.78 c 5.0167,-10.402 13.122,-18.507 23.524,-23.524 16.163,-7.7953 34.941,-6.4606 49.874,3.5451 18.738,12.555 26.891,36.229 19.818,57.549 -6.2491,18.839 -22.886,32.216 -42.76,34.381 -2.9376,0.31999 -7.6229,0.3147 -10.528,-0.0119 z m 28.575,-21.787 v -2.7643 l -1.5674,0.007 c -1.8147,0.009 -3.6391,-0.68874 -4.6472,-1.7764 l -0.66215,-0.71448 -0.53146,0.67563 c -1.8899,2.4026 -6.9146,2.424 -9.1251,0.0388 l -0.66216,-0.71448 -0.53146,0.67563 c -1.8713,2.379 -6.8243,2.4361 -8.9693,0.1035 l -0.6347,-0.69023 -0.93356,0.81968 c -1.2886,1.1314 -2.5422,1.6002 -4.2793,1.6002 -1.7457,0 -3.2619,-0.57353 -4.3821,-1.6576 l -0.81024,-0.78411 -0.64497,0.70117 c -1.0191,1.1079 -2.7336,1.748 -4.6524,1.7369 l -1.6811,-0.01 v 5.5167 h 44.715 z m -40.159,-4.412 c 1.2626,-0.63987 1.6997,-1.4053 1.2656,-2.2164 -0.65499,-1.2239 0.85424,-2.4905 1.871,-1.5703 0.57219,0.51782 0.66893,1.4381 0.20043,1.9066 -0.23665,0.23665 -0.08185,0.52474 0.65575,1.2204 1.6678,1.5729 4.4972,1.7678 6.6198,0.45599 1.0522,-0.65027 1.4384,-1.4503 0.97175,-2.0126 -0.39969,-0.4816 -0.10832,-1.3786 0.56483,-1.7389 1.1302,-0.60485 2.4158,1.1659 1.5066,2.0751 -0.52273,0.52272 1.3711,2.0774 2.9407,2.414 1.5272,0.32753 2.6738,0.1681 3.9986,-0.556 1.2398,-0.67761 1.6757,-1.3748 1.2994,-2.078 -0.65591,-1.2256 0.60445,-2.4645 1.7461,-1.7164 0.70033,0.45888 0.79981,0.94647 0.36054,1.7673 -0.23925,0.44703 -0.1375,0.66653 0.65575,1.4147 1.938,1.8278 5.4341,1.7397 7.231,-0.18203 0.53394,-0.57103 0.55994,-0.71872 0.26459,-1.5026 -0.3004,-0.79724 -0.27578,-0.91125 0.29707,-1.3754 0.34354,-0.27835 0.7173,-0.5061 0.83058,-0.5061 0.11328,0 0.48704,0.22775 0.83059,0.5061 0.57718,0.46767 0.59898,0.57316 0.28705,1.3891 -0.32387,0.84714 -0.30119,0.91664 0.55901,1.7131 0.98588,0.91288 2.9056,1.4565 4.3426,1.2298 l 0.8599,-0.13567 v -3.8064 c 0,-3.4537 -0.049,-3.8555 -0.52917,-4.3356 -0.52035,-0.52035 -0.88194,-0.52917 -21.708,-0.52917 h -21.179 l -0.64943,0.64944 c -0.62758,0.62757 -0.64943,0.7739 -0.64943,4.348 v 3.6986 l 0.7276,0.11564 c 1.1243,0.17869 2.744,-0.0931 3.8276,-0.64223 z m 34.339,-19.38 v -2.2151 l -1.0514,-0.16814 c -0.61623,-0.0985 -1.4337,-0.50374 -1.9749,-0.97896 l -0.92349,-0.81084 -0.60477,0.57073 c -1.1648,1.0993 -2.0351,1.3807 -3.9373,1.2732 -1.5294,-0.0864 -1.9466,-0.22265 -2.8018,-0.91479 l -1.0048,-0.81325 -1.0122,0.81341 c -0.85992,0.69104 -1.2821,0.82865 -2.8064,0.91478 -1.9655,0.11107 -2.8665,-0.2013 -3.9614,-1.3734 l -0.63161,-0.67614 -0.5373,0.68306 c -0.71593,0.91016 -1.9957,1.4127 -3.5977,1.4127 -1.6055,0 -2.576,-0.34543 -3.5315,-1.257 l -0.7276,-0.69413 -0.7276,0.67863 c -0.95156,0.88751 -1.7267,1.2724 -2.5623,1.2724 -0.6755,0 -0.67885,0.0111 -0.67885,2.249 v 2.249 h 33.073 z m -30.929,-3.6863 c 0.71758,-0.4867 0.9037,-0.79374 0.92221,-1.5214 0.04033,-1.5856 0.05686,-1.6116 0.969,-1.5237 0.82896,0.0799 0.8599,0.12529 0.8599,1.2608 0,1.0438 0.10239,1.2472 0.89902,1.7859 1.0898,0.73706 3.0775,0.81749 4.4231,0.17898 1.128,-0.53529 1.268,-0.76278 1.2816,-2.0825 0.01026,-1.0002 0.05963,-1.065 0.87079,-1.1433 0.91042,-0.0878 0.92838,-0.0599 0.969,1.5055 0.06128,2.3615 4.4469,2.9549 6.3442,0.85842 0.39853,-0.44038 0.43464,-0.62874 0.17945,-0.93622 -0.51809,-0.62427 0.11055,-1.5286 0.99183,-1.4268 0.62833,0.0726 0.70981,0.19515 0.70981,1.0677 0,1.5716 1.0179,2.4019 3.1019,2.5302 1.4194,0.0874 1.7951,0.01 2.5866,-0.53307 0.67664,-0.46426 0.91189,-0.80898 0.87349,-1.28 -0.11036,-1.3537 0.14772,-1.8352 0.98364,-1.8352 0.81792,0 0.85932,0.0717 0.89781,1.5549 0.0267,1.0288 0.83445,1.7784 2.206,2.047 l 0.8599,0.16842 v -3.1211 c 0,-2.5329 -0.0825,-3.2123 -0.43789,-3.605 -0.41476,-0.45831 -1.2599,-0.48386 -16.007,-0.48386 -15.217,0 -15.581,0.012 -16.099,0.52917 -0.46782,0.46782 -0.52917,0.88194 -0.52917,3.5719 0,3.0182 0.005,3.0427 0.62233,3.0427 0.34228,0 1.0269,-0.27439 1.5214,-0.60976 z m 23.864,-14.141 c 0.0807,-0.69122 0.10598,-1.5544 0.0561,-1.9182 -0.0498,-0.3638 -0.10054,-0.75075 -0.11267,-0.85989 -0.0121,-0.10914 -0.44259,-0.19844 -0.95658,-0.19844 -1.1754,0 -2.6981,-0.62661 -3.5836,-1.4747 l -0.68164,-0.6529 -0.50898,0.57201 c -0.6666,0.74914 -2.4195,1.5428 -3.4194,1.5483 -1.3575,0.007 -2.8358,-0.5389 -3.6433,-1.3464 l -0.77462,-0.77462 -0.81985,0.80156 c -0.86821,0.84883 -2.1413,1.3228 -3.5596,1.3253 l -0.8599,0.001 v 4.2333 h 18.717 z m -16.285,-4.1773 c 1.5316,-0.63997 1.9513,-1.1382 1.7706,-2.1017 -0.10796,-0.57548 -0.03133,-0.93616 0.2482,-1.1682 0.89283,-0.74098 2.17,0.30211 1.562,1.2757 -0.2769,0.44338 -0.19923,0.61644 0.58608,1.306 1.2366,1.0857 2.8586,1.3195 4.4035,0.63459 1.5241,-0.67566 1.9435,-1.1875 1.5602,-1.9037 -0.60368,-1.128 0.76893,-2.1829 1.5756,-1.211 0.1885,0.22713 0.25539,0.67686 0.15824,1.0639 -0.21722,0.86549 0.70364,1.8286 2.1259,2.2236 1.3367,0.37116 1.8304,0.36128 2.1431,-0.0429 0.40604,-0.52474 0.27447,-5.8552 -0.15737,-6.3755 -0.32427,-0.39071 -1.2919,-0.43753 -9.0431,-0.43753 -7.5381,0 -8.7346,0.0547 -9.0957,0.41578 -0.32875,0.32875 -0.41577,1.0394 -0.41577,3.3955 0,1.6388 0.07937,3.0591 0.17639,3.1561 0.29961,0.29962 1.3818,0.19574 2.4021,-0.23057 z m 6.4624,-8.0838 c 0.40676,-0.21769 0.63594,-0.18506 0.99734,0.142 0.41964,0.37977 0.50461,0.382 0.80413,0.0211 0.45341,-0.54632 0.9943,-0.50778 1.3725,0.0978 0.30455,0.48767 0.32533,0.48622 0.76182,-0.0528 0.42673,-0.52699 0.48164,-0.53259 1.1201,-0.11426 0.59652,0.39085 0.7083,0.39539 1.0027,0.0407 0.43547,-0.52472 -0.21387,-3.6263 -1.3802,-6.5927 -0.8558,-2.1765 -1.0322,-3.4001 -0.55859,-3.8738 0.18414,-0.18413 0.50612,0.34649 1.0093,1.6634 0.93612,2.4498 1.0883,2.0658 0.27751,-0.70003 -0.49919,-1.7028 -0.54963,-2.1334 -0.25795,-2.2022 0.51428,-0.12134 0.47282,-0.30274 -0.56347,-2.4651 -0.50932,-1.0628 -0.92604,-2.0845 -0.92604,-2.2705 0,-0.21012 -0.3507,-0.33819 -0.92604,-0.33819 -0.62092,0 -0.92604,0.12304 -0.92604,0.37342 0,0.20539 -0.41221,1.3365 -0.91601,2.5136 -0.86537,2.0218 -0.88644,2.1401 -0.38126,2.1401 0.29411,0 0.48083,0.0893 0.41493,0.19844 -0.3039,0.50328 -1.435,4.5641 -1.2713,4.5641 0.10161,0 0.4816,-0.80367 0.84442,-1.7859 0.36283,-0.98226 0.77606,-1.7859 0.9183,-1.7859 0.48493,0 0.41793,1.6129 -0.11903,2.8656 -0.66914,1.561 -1.7818,5.7381 -1.9501,7.3209 -0.0696,0.65485 -0.07,1.0404 -7.9e-4,0.85687 0.0692,-0.18357 0.36341,-0.46095 0.65387,-0.61641 z"
       id="path905"
       inkscape:connector-curvature="0"
       style="fill:#f1959e" />
    <path
       d="M 96.46,188.72 C 81.673,187.0574 68.323,178.9613 60.077,166.654 50.072,151.721 48.737,132.943 56.5319,116.78 c 5.0167,-10.402 13.122,-18.507 23.524,-23.524 16.163,-7.7953 34.941,-6.4606 49.874,3.5451 18.738,12.555 26.891,36.229 19.818,57.549 -6.2491,18.839 -22.886,32.216 -42.76,34.381 -2.9376,0.31999 -7.6229,0.3147 -10.528,-0.0119 z m 28.575,-21.867 2.6e-4,-2.8443 -1.4205,0.0886 c -1.714,0.10691 -3.8271,-0.70281 -4.7754,-1.8299 l -0.62672,-0.74481 -1.039,0.98834 c -1.8017,1.7139 -4.4722,2.1038 -6.8444,0.99914 -0.73908,-0.34414 -1.589,-0.93752 -1.8888,-1.3186 l -0.54504,-0.6929 -1.0312,1.0312 c -1.2213,1.2213 -2.8002,1.7302 -4.7486,1.5307 -1.6312,-0.16709 -3.3725,-1.0062 -3.9652,-1.9107 l -0.43348,-0.66158 -1.1302,1.0418 c -1.9142,1.7645 -4.5692,2.1146 -6.9684,0.91902 -0.76386,-0.38065 -1.5759,-0.97754 -1.8045,-1.3264 l -0.41564,-0.63435 -1.1339,1.0452 c -1.3082,1.2059 -2.8616,1.717 -4.6857,1.5417 l -1.2586,-0.12095 v 5.7432 h 44.715 l 2.6e-4,-2.8443 z m -40.834,-3.9033 c 0.55776,-0.23264 1.3713,-0.75822 1.8079,-1.1679 1.0807,-1.0143 1.8474,-1.1692 2.2317,-0.45102 1.2844,2.3999 6.1786,2.6488 8.0624,0.41003 0.85656,-1.018 1.6253,-0.97852 2.7108,0.13911 1.9567,2.0148 6.0255,1.8988 7.6915,-0.21916 0.69786,-0.88719 1.7199,-0.91566 2.2782,-0.0635 0.61129,0.93295 2.5016,1.751 4.0303,1.7442 1.5538,-0.007 3.2541,-0.71953 4.0102,-1.6808 0.69786,-0.88719 1.7199,-0.91566 2.2782,-0.0635 0.67321,1.0274 2.5602,1.7918 4.1925,1.6984 l 1.4079,-0.0806 0.0732,-3.8956 c 0.0679,-3.6136 0.0344,-3.9344 -0.46302,-4.4318 -0.33427,-0.33427 -0.88492,-0.5362 -1.4622,-0.5362 -0.5533,0 -0.93445,-0.13312 -0.94693,-0.33073 -0.0167,-0.26458 -0.0476,-0.26458 -0.15434,0 -0.10512,0.26051 -4.4007,0.33073 -20.232,0.33073 h -20.098 l -0.64943,0.64944 c -0.62928,0.62928 -0.64943,0.76744 -0.64943,4.4526 v 3.8032 l 1.4333,0.058 c 0.84197,0.0341 1.8517,-0.11653 2.4474,-0.36501 z m 35.013,-19.788 v -2.1941 l -1.217,-0.32551 c -0.67682,-0.18102 -1.5721,-0.68059 -2.017,-1.1255 l -0.79998,-0.79998 -0.3993,0.57008 c -0.21962,0.31354 -0.88954,0.7927 -1.4887,1.0648 -1.9427,0.8822 -4.2884,0.53926 -5.5877,-0.81693 l -0.76402,-0.79746 -0.80844,0.7603 c -1.4913,1.4025 -3.6647,1.7339 -5.602,0.85409 -0.59918,-0.2721 -1.2846,-0.7734 -1.5232,-1.114 l -0.43376,-0.61927 -0.69755,0.75227 c -1.8169,1.9594 -5.2777,1.9778 -7.0758,0.0375 l -0.63289,-0.68289 -0.79573,0.79572 c -0.4409,0.44091 -1.3384,0.94087 -2.0127,1.1212 l -1.217,0.32551 v 4.3882 h 33.073 z m -31.376,-3.3505 c 0.55828,-0.28463 1.1844,-0.75928 1.3914,-1.0548 0.49044,-0.70021 1.1316,-0.57878 2.2833,0.43246 1.6816,1.4765 4.3799,1.3755 5.9096,-0.22105 0.83903,-0.87575 1.5509,-0.96865 1.9342,-0.25242 0.35014,0.65424 2.3453,1.6149 3.3385,1.6075 1.0427,-0.008 2.9157,-0.88413 3.3392,-1.5623 0.43956,-0.70386 1.3139,-0.70386 1.7534,0 0.42874,0.68651 2.3049,1.5565 3.3566,1.5565 1.0456,0 2.9292,-0.86934 3.2721,-1.5102 0.3814,-0.71265 1.1428,-0.5741 2.2664,0.4124 0.52921,0.46465 1.1269,0.84482 1.3282,0.84482 0.20131,0 0.55436,0.0723 0.78454,0.1606 0.63975,0.2455 0.6217,-6.1121 -0.0194,-6.8205 -0.41476,-0.45831 -1.2599,-0.48386 -16.007,-0.48386 -15.217,0 -15.581,0.012 -16.099,0.52917 -0.47037,0.47037 -0.52917,0.88194 -0.52917,3.7042 0,3.5248 -0.0011,3.5232 1.6969,2.6575 z m 11.61,-12.114 c -1.0484,-0.0501 -2.8343,-0.0504 -3.9688,-7.9e-4 -1.1344,0.0497 -0.27668,0.0907 1.9061,0.0911 2.1828,2.7e-4 3.111,-0.0403 2.0626,-0.0904 z m 10.716,-2.3e-4 c -1.1209,-0.0495 -3.0259,-0.0498 -4.2333,-5.3e-4 -1.2075,0.0491 -0.29038,0.0896 2.038,0.0899 2.3283,2.6e-4 3.3163,-0.0399 2.1954,-0.0893 z m 2.038,-6.6732 c 0,-5.2244 -0.0477,-5.859 -0.47214,-6.2838 -0.42542,-0.42577 -1.184,-0.48134 -7.6666,-0.56167 -7.7249,-0.0957 -9.7588,0.0328 -10.382,0.65627 -0.30822,0.30822 -0.39672,1.1007 -0.39672,3.5528 v 3.1561 h 1.0845 c 1.2737,0 2.7419,-0.63335 3.2934,-1.4207 0.51452,-0.73458 1.1916,-0.71085 1.8181,0.0637 0.66154,0.8179 1.9849,1.357 3.3311,1.357 1.1919,0 3.0206,-0.8089 3.2643,-1.4439 0.19447,-0.50677 1.3947,-0.53767 1.6814,-0.0433 0.41825,0.72123 2.0571,1.4852 3.1882,1.4862 0.61846,5.3e-4 1.1245,0.12005 1.1245,0.26557 0,0.4183 -2.3202,0.30784 -3.2543,-0.15492 -0.46572,-0.23073 -1.102,-0.72282 -1.4139,-1.0935 l -0.56717,-0.67402 -0.30158,0.5635 c -0.46526,0.86935 -2.194,1.6236 -3.7214,1.6236 -1.5881,0 -2.807,-0.46771 -3.6764,-1.4106 l -0.63161,-0.6851 -0.48568,0.61744 c -0.69551,0.88419 -2.1088,1.4783 -3.5166,1.4783 h -1.2168 v 4.7625 l 18.918,-3e-5 z m -10.091,-7.5501 c 0.20392,-0.53139 1.1286,-0.50648 1.3367,0.036 0.1538,0.4008 0.20157,0.4008 0.64445,0 0.6231,-0.56389 1.2603,-0.55097 1.4856,0.0301 0.17095,0.44097 0.19574,0.44097 0.5205,0 0.18755,-0.25467 0.53032,-0.46302 0.76171,-0.46302 0.23138,0 0.54568,0.20835 0.69843,0.46302 0.26451,0.44097 0.29096,0.44097 0.55546,0 0.15275,-0.25467 0.48018,-0.46485 0.72761,-0.46708 0.28178,-0.003 0.34038,-0.0767 0.15682,-0.19843 -0.16118,-0.10692 -0.49095,-1.0912 -0.73283,-2.1873 -0.24187,-1.0961 -0.81207,-2.9415 -1.2671,-4.101 -0.85134,-2.1693 -1.0265,-3.3924 -0.55367,-3.8653 0.18414,-0.18413 0.50612,0.34649 1.0093,1.6634 0.93612,2.4498 1.0883,2.0658 0.27751,-0.70003 -0.49919,-1.7028 -0.54963,-2.1334 -0.25795,-2.2022 0.51428,-0.12134 0.47282,-0.30274 -0.56347,-2.4651 -0.50932,-1.0628 -0.92604,-2.0845 -0.92604,-2.2705 0,-0.21012 -0.3507,-0.33819 -0.92604,-0.33819 -0.62092,0 -0.92604,0.12304 -0.92604,0.37342 0,0.20539 -0.41221,1.3365 -0.91601,2.5136 -0.86536,2.0218 -0.88644,2.1401 -0.38126,2.1401 0.29411,0 0.48083,0.0893 0.41493,0.19844 -0.3039,0.50328 -1.435,4.5641 -1.2713,4.5641 0.10161,0 0.4816,-0.80367 0.84442,-1.7859 0.36283,-0.98226 0.77606,-1.7859 0.9183,-1.7859 0.48493,0 0.41793,1.6129 -0.11903,2.8656 -0.64368,1.5016 -1.7723,5.6908 -1.9545,7.2548 -0.12743,1.0938 0.13669,1.5271 0.44348,0.7276 z"
       id="path907"
       inkscape:connector-curvature="0"
       style="fill:#f4b31b" />
    <path
       d="M 96.46,188.72 C 81.673,187.0574 68.323,178.9613 60.077,166.654 50.072,151.721 48.737,132.943 56.5319,116.78 c 5.0167,-10.402 13.122,-18.507 23.524,-23.524 16.163,-7.7953 34.941,-6.4606 49.874,3.5451 18.738,12.555 26.891,36.229 19.818,57.549 -6.2491,18.839 -22.886,32.216 -42.76,34.381 -2.9376,0.31999 -7.6229,0.3147 -10.528,-0.0119 z m 13.229,-7.7912 c 0,-0.08 -0.90812,-1.3599 -2.018,-2.8443 -1.1099,-1.4843 -2.073,-2.8419 -2.1401,-3.0168 -0.0671,-0.17491 0.20506,-0.91905 0.60488,-1.6536 l 0.72694,-1.3356 h 18.327 l 1.1685,-1.1906 1.1685,-1.1906 h -2.4914 l 2.6e-4,-2.8443 2.7e-4,-2.8443 -1.4205,0.0886 c -1.7139,0.10691 -3.8271,-0.70281 -4.7754,-1.8299 l -0.62671,-0.74481 -1.039,0.98834 c -1.8017,1.7139 -4.4721,2.1038 -6.8444,0.99914 -0.73909,-0.34414 -1.589,-0.93752 -1.8888,-1.3186 l -0.54503,-0.6929 -1.0312,1.0312 c -1.2212,1.2213 -2.8002,1.7302 -4.7486,1.5307 -1.6312,-0.16709 -3.3725,-1.0062 -3.9652,-1.9107 l -0.43348,-0.66158 -1.1302,1.0418 c -1.9142,1.7645 -4.5692,2.1146 -6.9684,0.91902 -0.76386,-0.38065 -1.5759,-0.97754 -1.8045,-1.3264 l -0.41564,-0.63435 -1.1339,1.0452 c -1.3082,1.2059 -2.8616,1.717 -4.6857,1.5417 l -1.2585,-0.12095 v 5.7432 h -2.2268 l 1.1652,1.1872 1.1652,1.1873 18.248,0.139 0.74968,1.2761 c 0.41233,0.70188 0.66517,1.4162 0.56187,1.5875 -0.18365,0.30448 -3.6091,5.015 -4.1226,5.6692 -0.20628,0.2628 1.1871,0.33073 6.7843,0.33073 3.8741,0 7.0439,-0.0655 7.0439,-0.14549 z m -25.488,-17.979 c 0.55776,-0.23264 1.3713,-0.75822 1.8079,-1.1679 1.0807,-1.0143 1.8474,-1.1692 2.2317,-0.45102 1.2844,2.3999 6.1786,2.6488 8.0624,0.41003 0.85656,-1.018 1.6253,-0.97852 2.7108,0.13911 1.9567,2.0148 6.0255,1.8988 7.6915,-0.21916 0.69786,-0.88719 1.7199,-0.91566 2.2782,-0.0635 0.61129,0.93295 2.5016,1.751 4.0303,1.7442 1.5538,-0.007 3.2541,-0.71953 4.0102,-1.6808 0.69786,-0.88719 1.7199,-0.91566 2.2782,-0.0635 0.67321,1.0274 2.5602,1.7918 4.1925,1.6984 l 1.4079,-0.0806 0.0732,-3.8956 c 0.0679,-3.6136 0.0344,-3.9344 -0.46302,-4.4318 -0.33427,-0.33427 -0.88492,-0.5362 -1.4622,-0.5362 -0.5533,0 -0.93445,-0.13312 -0.94693,-0.33073 -0.0167,-0.26458 -0.0476,-0.26458 -0.15434,0 -0.10512,0.26051 -4.4007,0.33073 -20.232,0.33073 h -20.098 l -0.64943,0.64944 c -0.62928,0.62928 -0.64943,0.76744 -0.64943,4.4526 v 3.8032 l 1.4333,0.058 c 0.84197,0.0341 1.8517,-0.11653 2.4474,-0.36501 z m 19.059,-10.043 0.60859,0.39877 v -6.8914 l 7.7391,-0.0111 c 7.1154,-0.0102 7.8137,-0.052 8.6651,-0.51808 l 0.92604,-0.50699 -1.9844,-0.0222 v -4.3882 l -1.217,-0.32551 c -0.67682,-0.18102 -1.5721,-0.68059 -2.017,-1.1255 l -0.79998,-0.79998 -0.3993,0.57008 c -0.21962,0.31354 -0.88954,0.7927 -1.4887,1.0648 -1.9427,0.8822 -4.2884,0.53926 -5.5877,-0.81693 l -0.76402,-0.79746 -0.80844,0.7603 c -1.4913,1.4025 -3.6647,1.7339 -5.602,0.85409 -0.59918,-0.2721 -1.2846,-0.7734 -1.5232,-1.114 l -0.43376,-0.61927 -0.69755,0.75227 c -1.8169,1.9594 -5.2777,1.9778 -7.0758,0.0375 l -0.63289,-0.68289 -0.79573,0.79572 c -0.4409,0.44091 -1.3384,0.94087 -2.0127,1.1212 l -1.217,0.32551 v 4.3546 l -1.7198,0.1672 0.84676,0.46237 c 0.75096,0.41005 1.7163,0.46236 8.5328,0.46236 h 7.6861 v 6.9092 l 0.58203,-0.40767 c 0.51959,-0.36394 0.64732,-0.36489 1.1906,-0.009 z m -15.422,-13.096 c 0.55828,-0.28463 1.1844,-0.75928 1.3914,-1.0548 0.49044,-0.70021 1.1316,-0.57878 2.2833,0.43246 1.6816,1.4765 4.3799,1.3755 5.9096,-0.22105 0.83903,-0.87575 1.5509,-0.96865 1.9342,-0.25242 0.35014,0.65424 2.3453,1.6149 3.3385,1.6075 1.0427,-0.008 2.9157,-0.88413 3.3392,-1.5623 0.43956,-0.70386 1.3139,-0.70386 1.7534,0 0.42874,0.68651 2.3049,1.5565 3.3566,1.5565 1.0456,0 2.9292,-0.86934 3.2721,-1.5102 0.3814,-0.71265 1.1428,-0.5741 2.2664,0.4124 0.52921,0.46465 1.1269,0.84482 1.3282,0.84482 0.20131,0 0.55436,0.0723 0.78454,0.1606 0.63975,0.2455 0.6217,-6.1121 -0.0194,-6.8205 -0.41476,-0.45831 -1.2599,-0.48386 -16.007,-0.48386 -15.217,0 -15.581,0.012 -16.099,0.52917 -0.47037,0.47037 -0.52917,0.88194 -0.52917,3.7042 0,3.5248 -0.0011,3.5232 1.6969,2.6575 z m 14.963,-8.2138 c 0.19078,0 0.50504,0.20836 0.69836,0.46302 0.30092,0.39641 0.35269,0.12995 0.3599,-1.8521 l 0.008,-2.3151 h 3.9598 c 3.1669,0 4.147,-0.0893 4.8948,-0.44588 1.1228,-0.53541 1.1894,-0.77936 0.20742,-0.75948 l -0.72761,0.0147 v -5.7451 c 0,-5.1609 -0.048,-5.7932 -0.47213,-6.2177 -0.42544,-0.42584 -1.1837,-0.4814 -7.6666,-0.56173 -7.7249,-0.0957 -9.7588,0.0328 -10.382,0.65628 -0.30822,0.30821 -0.39672,1.1007 -0.39672,3.5528 v 3.1561 h 1.0845 c 1.2737,0 2.7419,-0.63335 3.2934,-1.4207 0.51452,-0.73458 1.1916,-0.71085 1.8181,0.0637 0.66155,0.8179 1.9849,1.357 3.3311,1.357 1.1919,0 3.0206,-0.8089 3.2643,-1.4439 0.19447,-0.50677 1.3947,-0.53767 1.6814,-0.0433 0.41825,0.72123 2.0571,1.4852 3.1881,1.4862 0.61847,5.3e-4 1.1245,0.12005 1.1245,0.26557 0,0.4183 -2.3202,0.30784 -3.2543,-0.15492 -0.46572,-0.23073 -1.102,-0.72282 -1.4139,-1.0935 l -0.56717,-0.67402 -0.30157,0.5635 c -0.46526,0.86935 -2.194,1.6236 -3.7214,1.6236 -1.5881,0 -2.807,-0.46771 -3.6764,-1.4106 l -0.63161,-0.6851 -0.48568,0.61744 c -0.69551,0.88419 -2.1088,1.4783 -3.5166,1.4783 h -1.2168 v 4.8045 l -0.79375,-0.17433 c -1.2036,-0.26436 -0.96411,0.28805 0.34102,0.78648 0.90278,0.34477 1.9035,0.41686 4.8952,0.35261 l 3.7605,-0.0808 -5.3e-4,2.3561 c -5.3e-4,2.2658 0.0181,2.3393 0.48342,1.9182 0.26622,-0.24084 0.64005,-0.43788 0.83083,-0.43788 z m -0.68973,-18.124 c 0.20391,-0.53139 1.1286,-0.50648 1.3367,0.036 0.1538,0.4008 0.20157,0.4008 0.64445,0 0.6231,-0.56389 1.2603,-0.55097 1.4856,0.0301 0.17095,0.44097 0.19574,0.44097 0.5205,0 0.18755,-0.25467 0.53032,-0.46302 0.76171,-0.46302 0.23138,0 0.54568,0.20835 0.69843,0.46302 0.26451,0.44097 0.29096,0.44097 0.55546,0 0.15275,-0.25467 0.48018,-0.46485 0.72761,-0.46708 0.28178,-0.003 0.34038,-0.0767 0.15682,-0.19843 -0.16118,-0.10692 -0.49095,-1.0912 -0.73283,-2.1873 -0.24187,-1.0961 -0.81207,-2.9415 -1.2671,-4.101 -0.85134,-2.1693 -1.0265,-3.3924 -0.55367,-3.8653 0.18414,-0.18413 0.50612,0.34649 1.0093,1.6634 0.93612,2.4498 1.0883,2.0658 0.27751,-0.70003 -0.49919,-1.7028 -0.54963,-2.1334 -0.25795,-2.2022 0.51428,-0.12134 0.47282,-0.30274 -0.56347,-2.4651 -0.50932,-1.0628 -0.92604,-2.0845 -0.92604,-2.2705 0,-0.21012 -0.3507,-0.33819 -0.92604,-0.33819 -0.62092,0 -0.92604,0.12304 -0.92604,0.37342 0,0.20539 -0.41221,1.3365 -0.91601,2.5136 -0.86537,2.0218 -0.88644,2.1401 -0.38126,2.1401 0.29411,0 0.48083,0.0893 0.41492,0.19844 -0.30389,0.50328 -1.435,4.5641 -1.2713,4.5641 0.10161,0 0.4816,-0.80367 0.84442,-1.7859 0.36283,-0.98226 0.77606,-1.7859 0.9183,-1.7859 0.48493,0 0.41793,1.6129 -0.11903,2.8656 -0.64368,1.5016 -1.7723,5.6908 -1.9545,7.2548 -0.12744,1.0938 0.13669,1.5271 0.44348,0.7276 z"
       id="path909"
       inkscape:connector-curvature="0"
       style="fill:#4bc0b5" />
    <path
       d="m 94.951,182.76 c 0.18578,-0.18578 13.727,-0.13806 13.914,0.049 0.0649,0.0649 -3.0768,0.11803 -6.9816,0.11803 -3.9048,0 -7.0245,-0.0752 -6.9326,-0.16706 z m 15.201,-0.008 c 0.1819,-0.0734 0.47955,-0.0734 0.66145,0 0.18191,0.0734 0.0331,0.13345 -0.33072,0.13345 -0.36381,0 -0.51263,-0.06 -0.33073,-0.13345 z m -15.221,-2.5068 0.06816,-2.0205 1.0611,0.0813 c 0.58359,0.0447 0.85271,0.0225 0.59805,-0.0494 -0.50994,-0.14397 -0.66047,-1.4148 -0.16758,-1.4148 0.16249,0 0.2355,0.22921 0.16224,0.50937 -0.09554,0.36533 -0.02514,0.4679 0.24893,0.36273 0.21017,-0.0807 0.31777,-0.31438 0.2391,-0.51939 -0.07867,-0.20501 0.01154,-0.43205 0.20043,-0.50455 0.21596,-0.0829 0.31678,-0.4966 0.27157,-1.1145 -0.05644,-0.77135 -0.01439,-0.88264 0.19556,-0.51755 0.1471,0.25582 0.20934,0.55916 0.1383,0.6741 -0.07104,0.11493 -0.03283,0.36483 0.0849,0.55531 0.15031,0.24321 0.26795,0.25915 0.39503,0.0535 0.09954,-0.16106 0.07896,-0.29283 -0.04573,-0.29283 -0.12469,0 -0.23624,-0.32743 -0.24788,-0.72761 -0.04344,-1.4933 -0.06576,-1.5649 -0.3504,-1.1245 -0.21919,0.33917 -0.25707,0.32955 -0.26053,-0.0661 -0.0038,-0.42967 -0.59962,-0.4675 -8.2723,-0.5252 l -8.2682,-0.0622 8.1928,-0.074 c 5.0796,-0.0459 8.2946,-0.1759 8.4609,-0.34214 0.1811,-0.1811 -2.4564,-0.24423 -8.1268,-0.19453 -4.6172,0.0405 -8.3948,-0.0157 -8.3947,-0.12485 7.7e-5,-0.10914 3.8101,-0.19844 8.4668,-0.19844 6.5927,0 8.4684,0.0732 8.4747,0.33073 0.0044,0.1819 0.1308,0.11987 0.28084,-0.13785 0.15004,-0.25773 0.3923,-0.39474 0.53836,-0.30446 0.16186,0.10003 0.09132,0.35665 -0.18064,0.65716 -0.28763,0.31783 -0.37473,0.6611 -0.24508,0.96592 0.49371,1.1608 0.60466,2.6056 0.19379,2.5234 -0.31559,-0.0631 -0.45507,0.28963 -0.34001,0.85989 0.02936,0.14553 -0.03488,0.17632 -0.14276,0.0685 -0.10788,-0.10788 -0.35592,-0.0635 -0.55121,0.0985 -0.43364,0.35988 -0.47526,0.86456 -0.04961,0.6015 0.19078,-0.11791 0.23358,-0.0725 0.11401,0.12099 -0.1053,0.17038 -0.28426,0.25242 -0.39768,0.18232 -0.11343,-0.0701 -0.46803,0.11645 -0.78801,0.41455 -0.41523,0.38684 -0.67557,0.46417 -0.90942,0.27009 -0.24061,-0.19969 -0.32764,-0.14041 -0.32764,0.22317 0,0.2723 0.08006,0.44561 0.17791,0.38513 0.25227,-0.15591 0.79884,0.55797 0.58835,0.76846 -0.33009,0.33009 -0.67131,0.17312 -0.51411,-0.23652 0.08912,-0.23226 0.04556,-0.34139 -0.10029,-0.25125 -0.14182,0.0876 -0.22123,0.39935 -0.17647,0.69268 0.07924,0.51924 0.25745,0.53263 6.7544,0.50753 5.8788,-0.0227 6.7652,0.0287 7.4474,0.43163 0.42589,0.25158 0.84647,0.38529 0.93463,0.29713 0.29479,-0.29479 0.32021,-1.131 0.0449,-1.4768 -0.18891,-0.23722 -0.1785,-0.43575 0.034,-0.64823 0.16846,-0.16846 0.31621,-0.25271 0.32834,-0.18723 0.0121,0.0655 0.0769,0.65485 0.144,1.3097 l 0.12195,1.1906 h -16.173 l 0.06817,-2.0205 z m 0.99967,-1.5514 c 0,-0.14552 -0.11906,-0.26458 -0.26458,-0.26458 -0.14552,0 -0.26458,0.11906 -0.26458,0.26458 0,0.14552 0.11906,0.26458 0.26458,0.26458 0.14552,0 0.26458,-0.11906 0.26458,-0.26458 z m 2.045,-1.7474 c -0.08792,-0.0879 -0.31612,-0.0973 -0.50712,-0.0209 -0.21107,0.0845 -0.14837,0.14716 0.15985,0.15985 0.27891,0.0115 0.43518,-0.051 0.34727,-0.13896 z m 11.898,4.4593 c -0.0612,-0.10914 -0.19081,-0.53073 -0.28795,-0.93686 -0.11392,-0.47628 -0.29129,-0.67384 -0.4996,-0.5565 -0.24166,0.13613 -0.23971,0.0922 0.008,-0.17439 0.38511,-0.4149 0.44491,-0.88145 0.0844,-0.65866 -0.13546,0.0837 -0.32228,0.0293 -0.41515,-0.12099 -0.0929,-0.15026 -0.30946,-0.19427 -0.48131,-0.0978 -0.21069,0.1183 -0.20474,0.0594 0.0183,-0.18089 0.1819,-0.19597 0.33072,-0.55789 0.33072,-0.80426 0,-0.24637 0.17253,-0.51415 0.3834,-0.59507 0.26922,-0.1033 0.33463,-0.02 0.21962,0.27968 -0.11273,0.2938 -0.0624,0.36415 0.16154,0.22575 0.24314,-0.15027 0.29773,0.0748 0.2161,0.89104 -0.10518,1.0518 0.16408,1.6963 0.42223,1.0108 0.0688,-0.18281 0.0959,0.10982 0.0602,0.65029 -0.0357,0.54047 0.067,1.0371 0.22817,1.1036 0.19933,0.0822 0.1923,0.1276 -0.022,0.14181 -0.17331,0.0115 -0.36521,-0.0684 -0.42644,-0.17755 z m -0.50017,-3.1159 c -0.0815,-0.0815 -0.2294,0.0654 -0.32876,0.32632 -0.14359,0.37709 -0.1132,0.40748 0.14811,0.14812 0.18082,-0.17948 0.26212,-0.39297 0.18065,-0.47444 z m -1.7801,-0.86851 c -0.0115,-0.19049 -0.13173,-0.27784 -0.26719,-0.19412 -0.13547,0.0837 -0.31724,0.0374 -0.40394,-0.10284 -0.0878,-0.14206 0.0799,-0.20931 0.37859,-0.1518 0.65889,0.12689 0.68744,-0.0901 0.0732,-0.55637 -0.589,-0.44711 -0.94852,-0.46648 -0.69774,-0.0376 0.10637,0.1819 -0.0652,0.10391 -0.38126,-0.1733 -0.59499,-0.52188 -0.77327,-0.84059 -0.31006,-0.55431 0.14552,0.0899 0.26458,0.0445 0.26458,-0.10106 0,-0.14552 -0.11938,-0.33837 -0.2653,-0.42855 -0.17614,-0.10886 -0.17203,-0.33822 0.0122,-0.68254 0.15264,-0.28522 0.18964,-0.66494 0.0822,-0.84384 -0.15084,-0.25118 -0.10843,-0.25506 0.1862,-0.017 0.35612,0.28772 0.53104,0.35323 0.94308,0.35323 0.0906,0 0.0253,0.168 -0.14514,0.37332 -0.20144,0.24273 -0.21682,0.4308 -0.0439,0.53764 0.14623,0.0904 0.20613,0.32003 0.1331,0.51033 -0.073,0.19031 0.0735,0.51392 0.32567,0.71914 0.40582,0.33027 0.43853,0.31995 0.28493,-0.0899 -0.11963,-0.31922 -0.0433,-0.46302 0.24589,-0.46302 0.30725,0 0.38481,0.18101 0.29004,0.67681 -0.10035,0.52496 -0.0395,0.64233 0.27116,0.52311 0.33033,-0.12676 0.34235,-0.0836 0.0686,0.24632 -0.1826,0.22001 -0.42739,0.34106 -0.544,0.26899 -0.1166,-0.0721 -0.2723,0.0186 -0.346,0.20135 -0.10387,0.25762 -0.1387,0.25448 -0.15489,-0.014 z m -1.0028,-2.5222 c -0.10244,-0.52245 -0.21273,-0.64628 -0.36139,-0.40575 -0.11767,0.1904 -0.0915,0.49379 0.0583,0.6742 0.14973,0.1804 0.18498,0.48205 0.0784,0.67033 -0.13333,0.23539 -0.10548,0.25968 0.0892,0.0777 0.15567,-0.14552 0.2167,-0.60295 0.13561,-1.0165 z m -7.7494,-1.0845 c 0,-0.20969 0.10796,-0.44798 0.23991,-0.52953 0.13195,-0.0815 0.17759,0.09 0.10143,0.38126 -0.16156,0.6178 -0.34134,0.6959 -0.34134,0.14827 z m 8.2882,-0.65187 c -0.38395,-0.58647 -0.38184,-0.62293 0.027,-0.46605 0.24395,0.0936 0.38903,0.0823 0.32241,-0.0252 -0.0666,-0.10748 2.6359,-0.16453 6.0055,-0.12678 10.072,0.11282 11.11,0.21607 2.7532,0.27383 -5.0349,0.0348 -7.8714,0.14977 -7.8714,0.31901 0,0.16918 2.7906,0.28327 7.7391,0.3164 8.5678,0.0574 7.7083,0.16845 -2.1299,0.27526 l -6.4294,0.0698 z m 0.88838,-0.0748 c -0.0845,-0.21107 -0.14715,-0.14837 -0.15985,0.15985 -0.0115,0.27892 0.051,0.43519 0.13897,0.34727 0.0879,-0.0879 0.0973,-0.31612 0.0209,-0.50712 z m -29.093,0.36878 c -0.04923,-0.10278 -0.12296,-0.58728 -0.16384,-1.0766 -0.05172,-0.61919 0.01865,-0.83232 0.23137,-0.70084 0.16813,0.10391 0.24375,0.35037 0.16803,0.54768 -0.10743,0.27996 0.0048,0.30457 0.51113,0.11207 0.42947,-0.16328 0.64879,-0.15416 0.64879,0.027 0,0.15051 0.11906,0.20007 0.26458,0.11013 0.14552,-0.0899 0.26458,-0.0357 0.26458,0.12045 0,0.17021 -0.31798,0.22795 -0.79375,0.14413 -0.75699,-0.13336 -1.1416,0.23684 -0.4764,0.45857 0.20072,0.0669 0.15522,0.168 -0.12382,0.27507 -0.24264,0.0931 -0.48145,0.0852 -0.53068,-0.0176 z m 1.3459,-0.23533 c 0.191,-0.0764 0.4192,-0.067 0.50712,0.0209 0.08792,0.0879 -0.06835,0.15045 -0.34727,0.13896 -0.30823,-0.0127 -0.37092,-0.0754 -0.15985,-0.15985 z m 45.558,-0.34689 c 0,-0.20056 -0.21121,-0.2726 -0.54404,-0.18557 -0.40759,0.10659 -0.30332,-0.0848 0.41572,-0.76289 0.52786,-0.49784 1.0566,-0.90516 1.1751,-0.90516 0.1185,0 0.41995,-0.31231 0.67006,-0.69403 0.25012,-0.38172 0.34568,-0.62662 0.21236,-0.54423 -0.13331,0.0824 -0.57401,-0.0677 -0.97933,-0.33363 -0.51072,-0.33503 -0.62749,-0.52705 -0.38037,-0.62551 0.24406,-0.0972 0.21047,-0.14866 -0.10644,-0.16296 -0.40101,-0.0181 -0.45676,-0.27779 -0.4163,-1.9391 l 0.0467,-1.9182 0.18272,1.8521 0.18273,1.8521 -0.031,-2.0386 c -0.0371,-2.4402 0.3039,-2.396 0.41804,0.0542 0.0721,1.5475 0.13313,1.7121 0.60928,1.6426 0.42114,-0.0614 0.45073,-0.0245 0.14493,0.18098 -0.21134,0.14199 -0.46877,0.20591 -0.57209,0.14206 -0.10331,-0.0639 -0.15729,0.0928 -0.11994,0.34819 0.0437,0.2988 0.31519,0.47376 0.76168,0.49086 0.38158,0.0146 0.63442,-0.0695 0.56186,-0.18688 -0.0726,-0.1174 -0.30671,-0.14639 -0.52033,-0.0644 -0.21362,0.082 -0.3884,0.0186 -0.3884,-0.14088 0,-0.15946 0.29766,-0.26529 0.66146,-0.23519 0.58986,0.0488 0.66146,0.17294 0.66146,1.1467 0,0.78573 -0.15987,1.2332 -0.57013,1.5959 l -0.57012,0.50402 0.46461,-0.79375 c 0.44584,-0.76166 0.43146,-0.75672 -0.35591,0.1223 -0.79378,0.88617 -1.0947,1.5336 -0.55898,1.2025 0.15638,-0.0967 0.19005,0.0247 0.0837,0.30174 -0.11571,0.30154 -0.21605,0.34869 -0.28729,0.13499 -0.0838,-0.25136 -0.19652,-0.25614 -0.48061,-0.0204 -0.28451,0.23612 -0.37114,0.2315 -0.37114,-0.0198 z m 0.73235,-0.79528 c 0.18175,-0.29105 0.26142,-0.52917 0.17703,-0.52917 -0.19808,0 -0.90938,0.70955 -0.90938,0.90714 0,0.33662 0.42214,0.11874 0.73235,-0.37797 z m -48.635,-0.46302 c -0.21744,-0.25467 -0.42998,-0.94652 -0.4723,-1.5375 -0.0681,-0.95098 0.0086,-1.1159 0.66728,-1.4352 0.40932,-0.19844 0.83352,-0.34002 0.94266,-0.31462 0.10914,0.0254 0.19844,-0.60867 0.19844,-1.409 0,-0.80036 -0.11713,-1.4552 -0.26028,-1.4552 -0.31263,0 -0.27071,-3.6718 0.04415,-3.8664 0.11887,-0.0735 0.21614,-1.1456 0.21614,-2.3825 0,-1.2722 -0.10385,-2.1848 -0.2391,-2.1012 -0.23838,0.14733 -0.34055,-3.2379 -0.10946,-3.6266 0.28523,-0.47976 0.59438,0.14032 0.32288,0.64762 -0.21154,0.39527 -0.21174,0.49562 -7.94e-4,0.3652 0.3144,-0.19431 0.3232,-0.16993 0.39546,1.0964 0.06321,1.1077 0.42468,1.4643 0.42468,0.41898 0,-0.443 0.17728,-0.95258 0.39396,-1.1324 0.21668,-0.17982 0.31734,-0.45093 0.2237,-0.60245 -0.09887,-0.15998 -0.04219,-0.19633 0.1352,-0.0867 0.168,0.10383 0.32035,0.0627 0.33854,-0.0914 0.01818,-0.15411 0.06284,-0.39927 0.09922,-0.54479 0.03638,-0.14552 0.08285,-0.35388 0.10327,-0.46302 0.02043,-0.10914 0.15254,-0.0198 0.2936,0.19844 0.17099,0.26458 0.25783,0.28663 0.26053,0.0661 0.0021,-0.1819 0.12311,-0.33073 0.26863,-0.33073 0.49773,0 0.26539,0.5459 -0.33073,0.77708 -0.51408,0.19937 -0.46966,0.22858 0.32548,0.21406 0.50644,-0.009 1.073,-0.16902 1.2591,-0.35507 0.27464,-0.27464 0.22723,-0.41605 -0.25206,-0.75176 -0.3246,-0.22741 -0.46454,-0.41348 -0.31089,-0.41348 0.15365,0 0.36865,0.0893 0.4778,0.19844 0.28226,0.28225 0.78469,0.26092 0.99529,-0.0422 0.23926,-0.34444 1.626,0.2849 1.4073,0.63869 -0.08955,0.1449 -0.06538,0.26345 0.05373,0.26345 0.1191,0 0.36526,-0.23812 0.54702,-0.52916 0.18176,-0.29104 0.50805,-0.52917 0.7251,-0.52917 0.36223,0 1.4668,0.89458 1.3648,1.1053 -0.02426,0.0501 0.17419,-0.17812 0.44099,-0.50712 0.2668,-0.329 0.74305,-0.61005 1.0583,-0.62455 0.52667,-0.0242 0.5195,-0.0436 -0.08822,-0.23821 -0.47162,-0.15104 -0.52358,-0.21941 -0.18104,-0.23821 0.26423,-0.0145 0.73479,0.10976 1.0457,0.27615 0.42411,0.22697 0.59045,0.22697 0.66611,0 0.05546,-0.16639 0.44811,-0.30253 0.87254,-0.30253 0.42444,0 0.7717,-0.10791 0.7717,-0.23981 0,-0.1319 -0.22469,-0.18106 -0.49931,-0.10924 -0.27462,0.0718 -0.58267,-0.004 -0.68456,-0.16918 -0.13506,-0.21853 0.87837,-0.29306 3.7405,-0.27508 2.1591,0.0136 4.2234,0.007 4.587204,-0.0143 l 0.66145,-0.0389 -0.66145,-0.21183 c -0.634584,-0.20323 -0.637274,-0.21291 -0.0662,-0.23821 0.54828,-0.0243 0.59531,-0.15178 0.59531,-1.6139 v -1.5876 h -7.424004 c -5.2222,0 -7.3719,0.0843 -7.2484,0.28411 0.09658,0.15627 -0.07499,0.12763 -0.38126,-0.0636 -0.65592,-0.40963 -0.70842,-0.70808 -0.1615,-0.91796 0.21744,-0.0834 0.31811,-0.2767 0.2237,-0.42945 -0.09783,-0.15829 -0.04525,-0.19962 0.12226,-0.0961 0.16165,0.0999 0.22547,0.35998 0.14183,0.57795 -0.13332,0.34743 0.79034,0.38719 7.488,0.32226 l 7.640104,-0.0741 -0.084,1.9844 c -0.1051,2.4842 -0.18989,2.7407 -0.84895,2.5684 -0.289134,-0.0756 -0.600224,-0.0169 -0.691324,0.13053 -0.10339,0.16729 -0.2511,0.1331 -0.39309,-0.091 -0.17488,-0.27599 -0.22839,-0.2806 -0.23151,-0.0199 -0.0021,0.18647 0.17758,0.40874 0.39958,0.49392 0.31801,0.12203 0.337,0.23518 0.0895,0.53339 -0.22675,0.27322 -0.3663,0.29407 -0.50172,0.075 -0.10318,-0.16694 -0.58994,-0.40863 -1.0817,-0.53709 l -0.8941,-0.23357 0.97652,0.10852 c 0.74351,0.0826 0.94362,0.0228 0.83861,-0.25088 -0.19522,-0.50874 -1.6726,-0.40625 -2.2338,0.15498 -0.27874,0.27874 -0.68679,0.41089 -1.0087,0.3267 -0.29736,-0.0778 -0.89887,-0.0165 -1.3367,0.13613 -0.4906,0.17102 -0.85506,0.18204 -0.94981,0.0287 -0.24283,-0.3929 -1.3466,-0.28986 -1.7204,0.16062 -0.26595,0.32045 -0.38484,0.33649 -0.54718,0.0738 -0.11407,-0.18458 -0.29656,-0.24644 -0.40553,-0.13747 -0.10897,0.10897 0.07954,0.46271 0.4189,0.78609 0.33936,0.32338 0.54721,0.46037 0.46188,0.30443 -0.08533,-0.15594 0.09233,-0.49543 0.39481,-0.75442 0.44121,-0.37778 0.67397,-0.41439 1.1771,-0.18516 0.34491,0.15715 0.62711,0.40734 0.62711,0.55598 0,0.14864 0.12609,0.27026 0.2802,0.27026 0.15411,0 0.2103,-0.11309 0.12488,-0.25131 -0.22699,-0.36728 0.85068,-0.864 1.457,-0.67156 0.28555,0.0906 0.51917,0.33535 0.51917,0.54382 0,0.53959 0.3459,0.46869 0.73235,-0.15012 0.38851,-0.62211 1.2621,-0.70019 1.48,-0.13229 0.08376,0.21828 0.39789,0.39688 0.69807,0.39688 0.30018,0 0.61431,-0.1786 0.69807,-0.39688 0.21481,-0.55979 1.089304,-0.49327 1.467104,0.1116 0.31214,0.49982 0.32841,0.49992 0.95656,0.006 0.63843,-0.50219 1.3607,-0.38784 1.774,0.28088 0.24202,0.39159 0.66058,0.31816 0.66058,-0.11589 0,-0.58492 1.0869,-0.82706 1.3779,-0.30698 0.13315,0.23791 0.37406,0.35101 0.53537,0.25131 0.19505,-0.12055 0.23369,-0.0116 0.11535,0.32517 -0.11274,0.32089 0.0243,0.23986 0.37399,-0.22118 0.60275,-0.79464 1.4212,-0.95754 1.6618,-0.33073 0.0838,0.21828 0.3979,0.39687 0.69807,0.39687 0.30018,0 0.61431,-0.17859 0.69807,-0.39687 0.17426,-0.45413 1.0381,-0.53385 1.2942,-0.11945 0.11859,0.19189 0.27931,0.18792 0.52122,-0.0129 0.25502,-0.21165 0.40094,-0.20748 0.53869,0.0154 0.13913,0.22512 0.24493,0.21504 0.40148,-0.0383 0.16903,-0.2735 0.35495,-0.27906 0.90789,-0.0271 0.38243,0.17424 0.62205,0.43536 0.5325,0.58027 -0.0896,0.1449 -0.0654,0.26346 0.0537,0.26346 0.1191,0 0.36526,-0.23813 0.54702,-0.52917 0.19014,-0.30447 0.61701,-0.52917 1.0053,-0.52917 0.38567,0 0.60427,0.11418 0.51015,0.26645 -0.0906,0.14655 0.0208,0.33762 0.24745,0.4246 0.22667,0.087 0.34445,0.2945 0.26173,0.46115 -0.0827,0.16666 0.10649,-0.0244 0.42046,-0.42459 0.69548,-0.88644 1.2605,-0.92133 1.972,-0.12177 0.29651,0.33321 0.51926,0.56141 0.495,0.50712 -0.0243,-0.0543 0.1902,-0.33302 0.47656,-0.61938 0.35707,-0.35706 0.70344,-0.46548 1.1024,-0.34508 0.3924,0.11841 0.49565,0.0881 0.3172,-0.0931 -0.14553,-0.14775 -0.50271,-0.32591 -0.79375,-0.39592 -0.39994,-0.0962 -0.35148,-0.13478 0.19843,-0.15797 0.40019,-0.0169 0.73672,0.0586 0.74785,0.16774 0.0187,0.18308 0.0999,0.59503 0.24786,1.2568 0.20965,0.93781 0.46674,0.92605 -20.244,0.92605 -19.888004,0 -20.250004,0.009 -20.770004,0.52916 -0.47766,0.47766 -0.53098,0.89615 -0.54776,4.2995 -0.0104,2.1077 -0.10981,3.537 -0.22543,3.2412 -0.19916,-0.50951 -0.21402,-0.50659 -0.40014,0.0788 -0.1156,0.36359 -0.06513,0.76244 0.12554,0.99219 0.17536,0.21129 0.22092,0.38418 0.10123,0.38418 -0.11968,0 -0.07473,0.14287 0.0999,0.31749 0.20375,0.20375 0.3175,1.2465 0.3175,2.9104 0,2.5217 -0.01635,2.5921 -0.59531,2.5622 -0.44798,-0.0231 -0.48072,-0.0606 -0.13229,-0.1517 0.25466,-0.0666 0.46302,-0.23835 0.46302,-0.38179 0,-0.14344 -0.11906,-0.18722 -0.26458,-0.0973 -0.14552,0.0899 -0.26458,0.0374 -0.26458,-0.11668 0,-0.41358 -0.77144,-0.34031 -1.2284,0.11668 -0.35278,0.35278 -0.34333,0.3992 0.08505,0.41776 0.31732,0.0138 0.36068,0.0692 0.12692,0.16243 -0.24956,0.0995 -0.06562,0.43789 0.61929,1.1393 0.53586,0.54876 0.85792,1.0697 0.7157,1.1576 -0.14222,0.0879 -0.39984,-0.0104 -0.57249,-0.21842 -0.32962,-0.39717 -1.1726,-0.26223 -0.91954,0.1472 0.24648,0.39881 -0.009,0.26352 -0.42718,-0.22616 z m 1.2128,-0.58591 c -0.76661,-0.80016 -1.1996,-0.83398 -1.1996,-0.0937 0,0.317 0.08335,0.34448 0.35671,0.11762 0.27216,-0.22587 0.47003,-0.17084 0.83476,0.23218 0.26292,0.29053 0.5414,0.52823 0.61883,0.52823 0.07743,0 -0.19737,-0.35295 -0.61066,-0.78434 z m 0.84195,-4.9703 c -0.06062,-0.40019 -0.11022,-0.0728 -0.11022,0.7276 0,0.80036 0.0496,1.1278 0.11022,0.7276 0.06062,-0.40018 0.06062,-1.055 0,-1.4552 z m -0.51232,-1.9277 c -0.01257,-0.44175 -0.10335,-0.85295 -0.20177,-0.91377 -0.09841,-0.0608 -0.14962,0.15179 -0.11381,0.47246 0.03582,0.32067 0.07504,0.73187 0.08717,0.91377 0.04707,0.70608 0.24998,0.28636 0.2284,-0.47246 z m 0.51729,-6.0098 c -0.0545,-0.69123 -0.0991,-0.12568 -0.0991,1.2568 0,1.3824 0.04459,1.948 0.0991,1.2568 0.0545,-0.69123 0.0545,-1.8223 0,-2.5135 z m -0.65464,-2.1535 c 0.0719,-0.27493 0.04458,-0.63926 -0.06072,-0.80963 -0.10647,-0.17227 -0.20166,0.0496 -0.21446,0.49988 -0.02617,0.92031 0.08329,1.0435 0.27517,0.30975 z m 32.739,-2.823 c 0,-0.22687 -0.11907,-0.3389 -0.26459,-0.24896 -0.14552,0.0899 -0.26458,0.27555 -0.26458,0.41249 0,0.13693 0.11906,0.24896 0.26458,0.24896 0.14552,0 0.26459,-0.18562 0.26459,-0.41249 z m -16.812,-1.13 c 0.94233,0.0635 1.4375,-0.16199 1.0991,-0.5004 -0.10493,-0.10493 -0.30154,-0.0156 -0.43692,0.19843 -0.16669,0.26358 -0.24745,0.28246 -0.2502,0.0585 -0.0024,-0.19019 -0.34135,-0.33073 -0.7978,-0.33073 -0.44747,0 -0.80286,0.14428 -0.81464,0.33073 -0.01659,0.26282 -0.0484,0.26248 -0.15489,-0.002 -0.16961,-0.42078 -0.61797,-0.16154 -0.61797,0.35724 0,0.30816 0.11129,0.33101 0.52747,0.10827 0.29011,-0.15526 0.94074,-0.25446 1.4459,-0.22044 z m 31.364,18.64 c 0,-0.0549 0.20836,-0.2633 0.46302,-0.46302 0.41964,-0.3291 0.429,-0.31975 0.0999,0.0999 -0.34565,0.44073 -0.56292,0.58089 -0.56292,0.36312 z m -1.3794,-3.7222 -0.0758,-2.896 -1.4965,0.0698 c -1.7959,0.0837 -3.8803,-0.71008 -4.8309,-1.8398 l -0.62672,-0.74481 -1.039,0.98834 c -1.8017,1.7139 -4.4722,2.1038 -6.8444,0.99914 -0.73908,-0.34414 -1.589,-0.93752 -1.8888,-1.3186 l -0.54503,-0.6929 -1.0312,1.0312 c -1.2213,1.2213 -2.8002,1.7302 -4.7486,1.5307 -1.6312,-0.16709 -3.3725,-1.0062 -3.9652,-1.9107 l -0.43348,-0.66158 -1.1302,1.0418 c -1.9142,1.7645 -4.5692,2.1146 -6.9684,0.91902 -0.76386,-0.38065 -1.5759,-0.97754 -1.8045,-1.3264 l -0.41564,-0.63435 -1.1302,1.0418 c -1.2136,1.1186 -2.5115,1.6073 -4.2755,1.6096 -0.89528,0.001 -1.9371,-0.48019 -1.9371,-0.89505 0,-0.0357 0.64712,-0.0154 1.438,0.0451 1.7893,0.13694 3.1131,-0.28547 4.3512,-1.3884 1.266,-1.1278 2.0033,-1.3034 2.3956,-0.57045 1.2844,2.3999 6.1786,2.6488 8.0624,0.41003 0.85656,-1.018 1.6253,-0.97852 2.7108,0.13911 1.9567,2.0148 6.0255,1.8988 7.6915,-0.21916 0.69786,-0.88719 1.7199,-0.91566 2.2782,-0.0635 0.61129,0.93295 2.5016,1.751 4.0303,1.7442 1.5538,-0.007 3.2541,-0.71953 4.0102,-1.6808 0.69786,-0.88719 1.7199,-0.91566 2.2782,-0.0635 0.59024,0.90082 2.5034,1.75 3.9425,1.75 2.1214,0 2.0548,0.12835 2.0548,-3.9614 0,-3.282 -0.054,-3.7088 -0.54837,-4.3373 -0.43288,-0.55031 -0.77651,-0.69714 -1.6316,-0.69714 -0.59577,0 -0.99964,-0.0836 -0.89748,-0.18574 0.10215,-0.10215 0.62801,-0.17669 1.1686,-0.16563 0.6027,0.0123 0.71939,-0.0232 0.30171,-0.0919 -0.43145,-0.071 -0.78858,-0.37395 -0.97425,-0.82655 l -0.29312,-0.71451 0.11985,0.79375 c 0.11201,0.74179 0.0997,0.75519 -0.18785,0.20473 -0.23878,-0.45708 -0.23157,-0.68075 0.0322,-0.99858 0.46666,-0.5623 0.67043,-0.34136 0.76059,0.82469 0.0235,0.30423 0.21738,0.39249 0.67142,0.30569 0.47885,-0.0915 0.61836,-0.0166 0.55832,0.29989 -0.044,0.23205 0.0854,0.57543 0.28769,0.76307 0.23646,0.21938 0.36773,0.23741 0.36773,0.0505 0,-0.15984 0.10861,-0.2235 0.24136,-0.14146 0.26711,0.16509 0.2421,-0.35266 -0.0387,-0.80144 -0.0986,-0.15765 -0.029,-0.28664 0.15478,-0.28664 0.19001,0 0.35959,0.37814 0.39316,0.87669 0.05,0.74163 -0.0135,0.84948 -0.41191,0.70011 -0.39457,-0.14793 -0.41802,-0.11135 -0.14458,0.22556 0.24011,0.29585 0.32203,2.1249 0.30992,6.9203 -0.009,3.585 0.0446,6.6169 0.11919,6.7376 0.0746,0.12071 0.0288,0.39238 -0.10185,0.60372 -0.15158,0.24524 -0.2649,-0.66342 -0.31327,-2.5118 z m 0.72017,-3.0535 c -0.0887,-0.14357 -0.0455,-0.68067 0.0962,-1.1936 0.152,-0.55051 0.15749,-0.87074 0.0134,-0.78169 -0.14421,0.0891 -0.22335,-0.96523 -0.19343,-2.5768 l 0.0506,-2.7276 0.1633,2.5135 0.16329,2.5136 0.0506,-2.2979 c 0.0279,-1.2638 0.1735,-2.621 0.32366,-3.016 0.23976,-0.63062 0.22365,-0.6771 -0.13229,-0.3817 -0.34137,0.28331 -0.40531,0.25169 -0.40531,-0.20042 0,-0.40462 0.12892,-0.50308 0.52357,-0.39988 0.52217,0.13655 0.60454,0.93484 0.19917,1.9302 -0.0889,0.21828 -0.22546,1.7066 -0.30347,3.3073 -0.1846,3.7878 -0.19941,3.8771 -0.54936,3.3108 z m -46.258,-9.3719 c -0.14887,-0.38795 0.02268,-0.6858 0.39502,-0.6858 0.29548,0 0.28243,0.72423 -0.01638,0.9089 -0.13027,0.0805 -0.30066,-0.0199 -0.37864,-0.2231 z m 45.066,-0.42122 c 0,-0.14552 0.12608,-0.26458 0.28019,-0.26458 0.15411,0 0.20662,0.11906 0.11668,0.26458 -0.0899,0.14552 -0.21603,0.26458 -0.2802,0.26458 -0.0642,0 -0.11668,-0.11906 -0.11667,-0.26458 z m -20.802,-3.7043 c 0,-1.6735 0.043,-2.3581 0.0955,-1.5214 0.0525,0.8367 0.0525,2.206 0,3.0427 -0.0525,0.83674 -0.0955,0.15213 -0.0955,-1.5214 z m -16.058,2.2809 c -0.08184,-0.21327 -0.42397,-0.44031 -0.76029,-0.50454 -0.56784,-0.10845 -0.57131,-0.11936 -0.04857,-0.15282 0.55251,-0.0354 1.3647,0.63805 1.095,0.90782 -0.07552,0.0755 -0.20427,-0.0372 -0.28611,-0.25046 z m 8.1783,0.14094 c -0.08488,-0.13734 0.04062,-0.32452 0.2789,-0.41595 0.58477,-0.2244 0.72151,-0.0365 0.25514,0.35052 -0.22639,0.18789 -0.44203,0.21431 -0.53404,0.0654 z m 12.966,-0.48143 c 0.24353,-1.0137 0.37026,-1.1097 0.37026,-0.28032 0,0.37947 -0.12383,0.76648 -0.27519,0.86002 -0.18049,0.11155 -0.21321,-0.0879 -0.0951,-0.5797 z m 4.9082,0.35676 c -0.165,-0.19881 -0.23738,-0.42409 -0.16084,-0.50062 0.0765,-0.0765 -0.14867,-0.0841 -0.50045,-0.0169 -0.35178,0.0672 -0.72011,-0.008 -0.81852,-0.16723 -0.0984,-0.15923 -0.0231,-0.29943 0.16742,-0.31155 0.19049,-0.0121 0.60744,-0.0513 0.92655,-0.087 0.31911,-0.0357 0.5681,0.004 0.55331,0.0882 -0.0148,0.0842 0.0662,0.3666 0.18008,0.62754 0.2645,0.60626 0.0441,0.83936 -0.34755,0.36751 z m 2.8373,0.0841 c -0.28423,-0.74612 0.32504,-1.5875 1.1496,-1.5875 0.4218,0 0.69653,0.11387 0.61052,0.25303 -0.086,0.13917 -0.3014,0.19995 -0.47864,0.13507 -0.49524,-0.18127 -0.91989,0.20401 -1.0303,0.93482 -0.0682,0.45114 -0.14802,0.53527 -0.25113,0.26458 z m 2.4144,-0.0365 c 0,-0.1171 -0.38696,-0.32465 -0.8599,-0.46121 -0.47294,-0.13655 -0.64562,-0.25902 -0.38374,-0.27214 0.42682,-0.0214 2.0374,0.6623 2.0374,0.86487 0,0.0448 -0.1786,0.0814 -0.39688,0.0814 -0.21828,0 -0.39687,-0.0958 -0.39687,-0.21292 z m -33.734,-0.22805 c -0.08994,-0.14552 -0.39462,-0.26458 -0.67707,-0.26458 -0.28245,0 -0.51355,-0.11907 -0.51355,-0.26459 0,-0.14552 0.17859,-0.26458 0.39688,-0.26458 h 0.59531 c 0.10914,0 0.21332,0.11906 0.23151,0.26458 0.07639,0.61108 0.11958,0.6425 0.3638,0.26459 0.21919,-0.33917 0.25707,-0.32955 0.26053,0.0661 0.0044,0.50321 -0.39461,0.62365 -0.65741,0.19844 z m 21.076,-0.26458 c 0,-0.3638 0.0601,-0.51263 0.13345,-0.33073 0.0734,0.1819 0.0734,0.47956 0,0.66146 -0.0734,0.1819 -0.13345,0.0331 -0.13345,-0.33073 z m -6.3918,0 -0.66146,-0.21184 0.7276,-0.0264 c 0.40018,-0.0145 0.72761,0.0927 0.72761,0.23822 0,0.14552 -0.0298,0.25271 -0.0662,0.23821 -0.0364,-0.0145 -0.36381,-0.1217 -0.72761,-0.23821 z m 4.2887,-2.2622 c -0.0338,-1.6234 -0.17732,-2.781 -0.36846,-2.9722 -0.1722,-0.1722 -0.24138,-0.38481 -0.15373,-0.47246 0.44229,-0.44229 0.74348,1.1563 0.66406,3.5245 l -0.0865,2.5792 z m 2.7321,2.0214 c 0.0453,-0.23137 0.0915,-0.46502 0.10266,-0.51921 0.0111,-0.0542 0.18003,0.0341 0.37532,0.19614 0.19529,0.16207 0.43341,0.21634 0.52917,0.12059 0.0957,-0.0957 0.17409,-0.0491 0.17409,0.10374 0,0.15281 -0.28433,0.33219 -0.63183,0.39862 -0.47247,0.0903 -0.61104,0.0147 -0.54941,-0.29988 z m -24.198,-0.17814 c 0.0127,-0.30822 0.07539,-0.37091 0.15985,-0.15985 0.07643,0.191 0.06703,0.4192 -0.02087,0.50712 -0.08792,0.0879 -0.15045,-0.0683 -0.13896,-0.34727 z m 21.988,-2.2275 c 0.046,-1.4555 -0.006,-2.6462 -0.11472,-2.6458 -0.10914,2.7e-4 -0.19844,-0.10733 -0.19844,-0.23923 0,-0.1319 0.23679,-0.17789 0.52619,-0.10221 0.28941,0.0757 0.46097,0.24312 0.38126,0.3721 -0.0827,0.13384 2.6348,0.2345 6.3309,0.2345 4.1587,0 6.524,-0.097 6.6104,-0.27119 0.074,-0.14916 0.1038,-0.1194 0.0663,0.0661 -0.0525,0.25984 -1.5374,0.35363 -6.4624,0.4082 l -6.3942,0.0709 v 1.5828 c 0,1.324 0.0757,1.5858 0.46302,1.6014 0.39593,0.0159 0.38635,0.0515 -0.0661,0.24599 -0.47235,0.20298 -0.47777,0.22939 -0.0505,0.24599 0.26325,0.0102 0.40957,0.13034 0.32517,0.26691 -0.0844,0.13658 -0.3891,0.20295 -0.67708,0.14749 -0.64606,-0.12442 -0.70122,0.31273 -0.0606,0.48014 0.33867,0.0885 0.29841,0.12925 -0.14986,0.1517 -0.60724,0.0304 -0.61212,0.006 -0.52917,-2.6157 z m 0.40875,-1.2562 c -0.0571,-0.5457 -0.10379,-0.0992 -0.10379,0.99219 0,1.0914 0.0467,1.5379 0.10379,0.99219 0.0571,-0.5457 0.0571,-1.4387 0,-1.9844 z m 4.3559,3.6182 c 0.0521,-0.15643 0.18113,-0.2755 0.28663,-0.26458 0.1055,0.0109 0.37744,0.0198 0.60431,0.0198 0.22687,0 0.33891,0.11906 0.24897,0.26458 -0.22074,0.35716 -1.2596,0.33908 -1.1399,-0.0198 z m 5.6378,0.0198 c 0.0899,-0.14552 0.21602,-0.26458 0.2802,-0.26458 0.0642,0 0.11667,0.11906 0.11667,0.26458 0,0.14552 -0.12609,0.26459 -0.2802,0.26459 -0.15411,0 -0.20661,-0.11907 -0.11667,-0.26459 z m -26.689,-0.39075 c 0.09018,-0.235 0.48023,-0.403 0.9357,-0.403 0.46169,0 0.7131,0.10995 0.61487,0.2689 -0.0914,0.1479 -0.27456,0.20192 -0.40702,0.12006 -0.13246,-0.0819 -0.47874,-0.0215 -0.76951,0.1341 -0.43276,0.2316 -0.50062,0.20982 -0.37404,-0.12006 z m -2.6915,-0.15691 c -0.08365,-0.13535 0.2915,-0.24609 0.83366,-0.24609 0.54217,0 0.90657,0.0792 0.80979,0.17597 -0.28606,0.28606 -1.4785,0.33694 -1.6435,0.0701 z m 33.851,-0.0249 c -0.0752,-0.12165 0.24735,-0.22119 0.71675,-0.22119 0.46941,0 0.77167,0.0818 0.67169,0.18178 -0.26801,0.26801 -1.2303,0.29533 -1.3884,0.0394 z m -35.89,-0.39641 c 0.1819,-0.0734 0.47956,-0.0734 0.66146,0 0.1819,0.0734 0.03307,0.13345 -0.33073,0.13345 -0.3638,0 -0.51263,-0.0601 -0.33073,-0.13345 z m 24.077,0 c 0.1819,-0.0734 0.47956,-0.0734 0.66146,0 0.1819,0.0734 0.0331,0.13345 -0.33073,0.13345 -0.3638,0 -0.51263,-0.0601 -0.33073,-0.13345 z m 2.6624,-0.006 c 0.19099,-0.0764 0.4192,-0.067 0.50712,0.0209 0.0879,0.0879 -0.0684,0.15045 -0.34727,0.13896 -0.30822,-0.0127 -0.37092,-0.0754 -0.15985,-0.15985 z m 1.8521,0 c 0.191,-0.0764 0.4192,-0.067 0.50712,0.0209 0.0879,0.0879 -0.0684,0.15045 -0.34726,0.13896 -0.30823,-0.0127 -0.37092,-0.0754 -0.15986,-0.15985 z m -26.073,-0.2672 c 0.25743,-0.0671 0.61462,-0.0627 0.79375,0.01 0.17913,0.0725 -0.03149,0.12736 -0.46806,0.12197 -0.43656,-0.005 -0.58313,-0.0647 -0.32569,-0.13177 z m 2.6458,0 c 0.25743,-0.0671 0.61462,-0.0627 0.79375,0.01 0.17913,0.0725 -0.03149,0.12736 -0.46806,0.12197 -0.43656,-0.005 -0.58313,-0.0647 -0.32569,-0.13177 z m 3.0542,0.003 c 0.19099,-0.0764 0.4192,-0.067 0.50712,0.0209 0.08792,0.0879 -0.06835,0.15045 -0.34727,0.13896 -0.30823,-0.0127 -0.37092,-0.0754 -0.15985,-0.15985 z m 5.2917,0 c 0.191,-0.0764 0.4192,-0.067 0.50712,0.0209 0.08792,0.0879 -0.06835,0.15045 -0.34727,0.13896 -0.30823,-0.0127 -0.37092,-0.0754 -0.15985,-0.15985 z m 19.965,-0.003 c 0.25743,-0.0671 0.61462,-0.0627 0.79375,0.01 0.17913,0.0725 -0.0315,0.12736 -0.46805,0.12197 -0.43657,-0.005 -0.58313,-0.0647 -0.3257,-0.13177 z m 2.6458,0 c 0.25743,-0.0671 0.61462,-0.0627 0.79375,0.01 0.17913,0.0725 -0.0315,0.12736 -0.46806,0.12197 -0.43656,-0.005 -0.58313,-0.0647 -0.32569,-0.13177 z m 0.66082,-3.1619 c 0.75889,-0.31966 0.84318,-0.45248 0.69112,-1.0891 -0.23515,-0.98454 -0.63556,-1.4408 -1.1061,-1.2602 -0.31282,0.12004 -0.32873,0.0743 -0.0789,-0.22681 0.24288,-0.29265 0.23644,-0.40943 -0.0287,-0.52098 -0.18798,-0.0791 0.0798,-0.12753 0.59496,-0.10768 l 0.93673,0.0361 -0.0214,3.4067 -1.8521,0.126 0.8643,-0.36405 z m 0.68659,-2.6079 c -0.16593,-0.43242 -0.62484,-0.54577 -0.62484,-0.15434 0,0.20082 0.18543,0.33753 0.7193,0.53032 0.0318,0.0115 -0.0107,-0.1577 -0.0945,-0.37598 z m -37.327,2.3451 c 0.22211,-0.36256 -0.40476,-0.93857 -0.90656,-0.83302 -0.26382,0.0555 -0.35858,-0.27284 -0.35858,-1.2425 0,-1.2281 0.0451,-1.3183 0.66146,-1.3229 0.58489,-0.004 0.67677,-0.14044 0.79375,-1.1751 0.08279,-0.7322 0.28081,-1.2101 0.52917,-1.2769 0.30063,-0.0809 0.3151,-0.0491 0.05964,0.13138 -0.20955,0.14802 -0.31933,0.7442 -0.28994,1.5746 0.04362,1.2324 0.09821,1.3364 0.70153,1.3364 0.64886,0 0.6527,-0.0144 0.46774,-1.7529 -0.10258,-0.96408 -0.16594,-2.0505 -0.14081,-2.4143 0.02514,-0.36381 0.06598,-2.4095 0.09077,-4.546 0.02479,-2.1365 0.15167,-3.982 0.28195,-4.101 0.1321,-0.12075 0.16236,-0.0859 0.0684,0.0789 -0.19225,0.33706 0.69725,1.2518 0.96089,0.98814 0.09507,-0.0951 -0.03365,-0.33374 -0.28606,-0.53039 -0.42694,-0.33263 -0.42364,-0.34515 0.04751,-0.17963 0.37796,0.13277 0.45148,0.089 0.28985,-0.17253 -0.14518,-0.2349 -0.11445,-0.28731 0.0932,-0.15897 0.17038,0.1053 0.24899,0.28981 0.17469,0.41003 -0.26554,0.42966 0.78912,0.55188 4.5147,0.52317 3.3642,-0.0259 3.7621,-0.0761 3.6161,-0.45648 -0.1066,-0.27781 -0.20121,-0.31573 -0.27033,-0.10837 -0.05848,0.17545 -0.21568,0.25142 -0.34932,0.16883 -0.13364,-0.0826 0.11497,-0.45138 0.55247,-0.81952 0.43751,-0.36814 0.73547,-0.76642 0.66214,-0.88507 -0.07333,-0.11864 0.16355,-0.078 0.52639,0.0903 0.36284,0.16829 0.66065,0.39155 0.66178,0.49612 0.0011,0.10457 0.17998,0.12186 0.39742,0.0384 0.21745,-0.0834 0.34174,-0.23845 0.27622,-0.34447 -0.06552,-0.10602 0.05472,-0.19276 0.2672,-0.19276 0.32762,0 0.32324,0.0697 -0.02887,0.4588 -0.24059,0.26584 -0.30835,0.52485 -0.16112,0.61584 0.13975,0.0864 0.32236,-0.0209 0.40581,-0.23831 0.08344,-0.21745 0.27077,-0.39536 0.4163,-0.39536 0.14553,0 0.18856,0.19812 0.09563,0.44028 -0.1136,0.29604 -0.06754,0.3776 0.14059,0.24897 0.2926,-0.18084 0.43893,0.17069 0.31883,0.76596 -0.02936,0.14552 0.04584,0.16536 0.16711,0.0441 0.12127,-0.12127 0.2259,-0.3594 0.23251,-0.52917 0.0066,-0.16978 0.14954,-0.28089 0.3176,-0.24691 0.1937,0.0392 0.26882,-0.22871 0.20517,-0.73163 -0.0564,-0.44533 0.007,-0.72674 0.14542,-0.64147 0.1352,0.0836 0.24556,-0.30158 0.24525,-0.85587 l -5.3e-4,-1.0078 h -3.8109 c -2.2052,0 -3.7485,0.10083 -3.6627,0.23932 0.08151,0.13162 0.0088,0.15316 -0.16159,0.0479 -0.75528,-0.46679 0.22552,-0.63733 3.8517,-0.66976 2.5919,-0.0232 4.0246,-0.14157 4.299,-0.35526 0.35819,-0.27887 0.36645,-0.26272 0.0637,0.12431 -0.22604,0.2889 -0.32111,1.0308 -0.27127,2.1167 0.0844,1.8392 0.47895,2.5837 1.0223,1.9291 0.42785,-0.51552 1.2191,-0.49649 1.4228,0.0342 0.13883,0.36179 0.23361,0.33601 0.64855,-0.17642 0.57007,-0.70399 1.2543,-0.55915 1.6163,0.34214 0.16323,0.40641 0.24689,0.46103 0.25823,0.16859 0.018,-0.46392 1.2838,-1.4312 1.539,-1.176 0.0844,0.0844 -0.0152,0.15705 -0.22139,0.16148 -0.26617,0.006 -0.23899,0.0871 0.0938,0.28084 0.25772,0.15004 0.40461,0.37632 0.32641,0.50284 -0.0782,0.12652 -0.003,0.3162 0.16761,0.4215 0.18243,0.11275 0.23922,0.0773 0.13813,-0.0863 -0.0944,-0.15275 0.006,-0.34601 0.2237,-0.42945 0.45067,-0.17294 0.53065,-0.85088 0.12416,-1.0525 -0.14916,-0.074 -0.1194,-0.1 0.0661,-0.0578 0.18554,0.0422 0.53848,-0.0266 0.78431,-0.15285 0.27134,-0.13936 0.51244,-0.12361 0.6136,0.0401 0.0916,0.14829 0.27746,0.20111 0.41293,0.11739 0.13546,-0.0837 0.2463,-0.0261 0.2463,0.12797 0,0.34903 -0.34109,0.36245 -0.6769,0.0266 -0.14468,-0.14468 -0.40999,-0.15689 -0.61783,-0.0284 -0.28805,0.17803 -0.24453,0.2892 0.20806,0.53142 0.31478,0.16847 0.50243,0.41939 0.41701,0.55761 -0.0854,0.13822 -0.0292,0.25131 0.12488,0.25131 0.15411,0 0.2802,0.11906 0.2802,0.26458 0,0.17236 -4.0433,0.26458 -11.601,0.26458 -10.96,0 -11.625,0.0271 -12.045,0.49054 -0.38524,0.42569 -0.44542,1.2302 -0.45519,6.0854 -0.01016,5.0511 -0.13969,6.1367 -0.63628,5.3332 -0.09936,-0.16077 -0.4069,-0.10098 -0.79773,0.1551 -0.36044,0.23617 -0.78437,0.32753 -0.97839,0.21085 -0.25452,-0.15306 -0.2492,-0.091 0.02077,0.24178 0.406,0.50052 0.96468,0.6191 0.66994,0.1422 -0.11791,-0.19077 -0.07248,-0.23358 0.12099,-0.11401 0.17038,0.1053 0.22878,0.32252 0.12977,0.48272 -0.11735,0.18987 -0.02005,0.22988 0.27949,0.11494 0.70366,-0.27002 0.42226,0.59665 -0.36141,1.1131 -0.3576,0.23567 -0.56727,0.29315 -0.46594,0.12774 z m -0.07413,-1.2061 c -0.39402,-0.14575 -0.72323,-0.12421 -0.90513,0.0592 -0.20561,0.20737 -0.16339,0.24171 0.15038,0.12232 0.23994,-0.0913 0.51606,-0.0369 0.6136,0.12093 0.09753,0.15782 0.30853,0.20586 0.46887,0.10676 0.17624,-0.10892 0.04663,-0.27078 -0.32772,-0.40926 z m 0.17601,-1.602 c 0,-0.1819 -0.26769,-0.33073 -0.59486,-0.33073 -0.44589,0 -0.52612,0.0828 -0.32038,0.33073 0.15097,0.1819 0.41865,0.33073 0.59486,0.33073 0.17621,0 0.32038,-0.14883 0.32038,-0.33073 z m 2.2049,-11.295 c 0,-0.13693 -0.09922,-0.31029 -0.22048,-0.38523 -0.12127,-0.075 -0.22049,0.0371 -0.22049,0.24897 0,0.21187 0.09922,0.38523 0.22049,0.38523 0.12127,0 0.22048,-0.11203 0.22048,-0.24897 z m 10.239,-1.6676 c 0.06849,0.18281 0.23342,0.26508 0.36651,0.18282 0.13309,-0.0822 0.24198,-0.0235 0.24198,0.13065 0,0.1541 0.11906,0.28019 0.26458,0.28019 0.4925,0 0.26492,-0.39477 -0.46774,-0.81137 -0.666,-0.37869 -0.76871,-0.37678 -1.1889,0.0221 -0.25294,0.24014 -0.3739,0.52262 -0.2688,0.62772 0.1051,0.10511 0.35686,-0.0239 0.55945,-0.2867 0.26318,-0.34138 0.40391,-0.38291 0.49288,-0.14543 z m 4.3127,-0.46467 c 0,-0.14552 -0.11906,-0.26458 -0.26458,-0.26458 -0.14552,0 -0.26458,0.11906 -0.26458,0.26458 0,0.14552 0.11906,0.26458 0.26458,0.26458 0.14552,0 0.26458,-0.11906 0.26458,-0.26458 z m 18.161,16.007 c 0.17522,-0.45662 1.0387,-0.53296 1.2972,-0.11469 0.27589,0.44641 -0.14155,0.67229 -0.44229,0.23932 -0.20457,-0.29452 -0.30298,-0.30875 -0.40453,-0.0585 -0.19261,0.47469 -0.63308,0.40999 -0.45037,-0.0661 z m 1.5792,-0.28622 c -0.21824,-0.56872 -0.20495,-0.63982 0.1196,-0.63982 0.15411,0 0.20661,0.11906 0.11667,0.26458 -0.0899,0.14552 -0.0374,0.26459 0.11668,0.26459 0.15411,0 0.2802,0.11906 0.2802,0.26458 0,0.41856 -0.45601,0.30769 -0.63315,-0.15393 z m -1.1206,-7.4398 c 0.025,-4.5197 0.12122,-6.2257 0.36473,-6.4691 0.1819,-0.18179 0.33073,-0.42578 0.33073,-0.5422 0,-0.11642 -0.23543,0.0238 -0.52317,0.3115 -0.31646,0.31647 -0.46041,0.70847 -0.36432,0.99219 0.11046,0.32616 0.0235,0.28769 -0.28559,-0.12629 -0.42713,-0.57214 -0.60231,-0.59532 -4.4996,-0.59532 -3.9306,0 -4.0598,-0.0175 -4.2044,-0.57051 -0.0821,-0.31378 0.0231,-0.81652 0.23372,-1.1172 0.37427,-0.53435 0.38292,-0.53043 0.38292,0.17363 v 0.72033 l 5.9531,0.1064 -6.35,0.33278 3.8364,0.0175 c 2.1101,0.01 4.0462,0.10264 4.3025,0.20673 0.35142,0.14272 0.42737,0.0885 0.30883,-0.22037 -0.091,-0.23711 -0.34296,-0.35044 -0.59831,-0.26908 -0.38349,0.12218 -0.38927,0.0995 -0.0443,-0.17396 0.40653,-0.32215 0.29885,-0.30214 -1.0583,0.19662 -0.32712,0.12021 -0.33688,0.0813 -0.0556,-0.22117 0.20559,-0.22108 0.90334,-0.37162 1.7548,-0.3786 l 1.4135,-0.0116 v 1.5303 c 0,0.84166 -0.10733,1.5303 -0.2385,1.5303 -0.13117,0 -0.17487,-0.32742 -0.0971,-0.72761 0.11285,-0.58069 0.0939,-0.62076 -0.0938,-0.19843 -0.33024,0.74301 -0.35899,5.3932 -0.0393,6.35 0.24651,0.73765 0.25772,0.71428 0.15868,-0.33073 -0.0586,-0.61847 -0.0121,-1.1245 0.10343,-1.1245 0.31382,0 0.25373,3.4177 -0.0635,3.6138 -0.17278,0.10678 -0.22476,-0.0861 -0.14112,-0.52371 0.0728,-0.38103 0.0306,-0.62982 -0.0939,-0.55288 -0.1245,0.0769 -0.22636,0.72445 -0.22636,1.4389 0,1.1215 0.0632,1.2772 0.46302,1.1394 0.42894,-0.14783 0.43058,-0.13262 0.0223,0.20675 -0.24238,0.20147 -0.49581,0.60444 -0.56317,0.89549 -0.0674,0.29104 -0.10716,-2.2332 -0.0885,-5.6094 z m 0.24021,-7.0339 c 0.0761,-0.19834 -0.065,-0.34018 -0.3385,-0.34018 -0.27349,0 -0.41462,0.14184 -0.33851,0.34018 0.0718,0.1871 0.22412,0.34018 0.33851,0.34018 0.11438,0 0.26671,-0.15308 0.3385,-0.34018 z m -35.486,5.9626 c -0.03739,-1.5644 -0.10553,-3.1746 -0.15142,-3.5783 -0.04589,-0.40373 0.01958,-0.79771 0.14547,-0.87551 0.1259,-0.0778 0.22891,1.1157 0.22891,2.6523 0,1.7899 0.10068,2.7937 0.2802,2.7937 0.15758,0 0.1901,0.14474 0.07431,0.33073 -0.11324,0.1819 -0.17128,0.59862 -0.12897,0.92605 0.0423,0.32742 -0.02601,0.59531 -0.15179,0.59531 -0.12579,0 -0.25931,-1.2799 -0.2967,-2.8443 z m 1.8105,2.357 c 0,-0.12248 0.46288,-0.36138 1.0286,-0.53088 0.56572,-0.1695 1.3708,-0.65822 1.7891,-1.086 0.9141,-0.93496 1.3258,-0.90755 2.5531,0.16997 1.6824,1.4772 4.3804,1.3766 5.9103,-0.22036 0.83903,-0.87575 1.5509,-0.96865 1.9342,-0.25242 0.35014,0.65424 2.3453,1.6149 3.3385,1.6075 1.0427,-0.008 2.9157,-0.88413 3.3392,-1.5623 0.1884,-0.30169 0.58293,-0.54852 0.87672,-0.54852 0.29379,0 0.68832,0.24683 0.87672,0.54852 0.42874,0.68651 2.3049,1.5565 3.3566,1.5565 1.0456,0 2.9292,-0.86934 3.2721,-1.5102 0.38139,-0.71265 1.1428,-0.5741 2.2664,0.4124 0.86155,0.75645 1.3974,0.95556 2.4652,0.9159 0.1819,-0.007 0.33073,0.15308 0.33073,0.3552 0,0.8748 -3.0053,-0.11361 -3.8014,-1.2503 l -0.43194,-0.61667 -0.43193,0.61667 c -1.3673,1.9521 -5.3624,2.1176 -7.109,0.29446 l -0.76401,-0.79746 -0.80845,0.7603 c -1.4913,1.4025 -3.6647,1.7339 -5.602,0.85409 -0.59918,-0.2721 -1.2846,-0.7734 -1.5232,-1.114 l -0.43376,-0.61927 -0.69755,0.75227 c -1.8345,1.9784 -5.2779,1.9775 -7.1123,-0.002 l -0.66933,-0.72222 -0.42386,0.60514 c -0.66966,0.95614 -3.5287,2.0771 -3.5287,1.3836 z m 4.5462,-8.4414 c 2.6688,-0.0722 3.104,-0.14577 3.1857,-0.53842 0.07526,-0.36156 0.12806,-0.33275 0.25762,0.14054 l 0.16297,0.59531 -6.6973,-0.1138 z m 14.949,-0.96207 c -0.0995,-0.2592 -0.20026,-1.0271 -0.22398,-1.7064 l -0.0431,-1.2351 -0.17833,1.4552 -0.17833,1.4552 -0.0862,-1.4552 -0.0863,-1.4552 -0.17833,1.4552 -0.17834,1.4552 -0.0876,-1.4552 -0.0876,-1.4552 -0.18321,1.5875 -0.1832,1.5875 0.0293,-1.5875 0.0292,-1.5875 3.9282,-0.0824 c 2.722,-0.0571 3.875,0.004 3.7547,0.19844 -0.10528,0.17034 -1.3124,0.28081 -3.0684,0.28081 h -2.8948 v 1.1841 c 0,1.1714 0.007,1.1812 0.70085,0.91761 0.61244,-0.23285 0.65872,-0.2157 0.3669,0.13593 -0.18368,0.22131 -0.42936,0.34343 -0.54596,0.27136 -0.11661,-0.0721 -0.25986,0.0125 -0.31834,0.18797 -0.0653,0.19596 -0.17609,0.13722 -0.28719,-0.15228 z m -6.4529,-0.2997 c -0.25131,-0.2721 -0.22926,-0.37973 0.10402,-0.50762 0.23262,-0.0893 0.48529,-0.1 0.56148,-0.0238 0.07619,0.0762 -0.03015,0.14035 -0.2363,0.14258 -0.31116,0.003 -0.31386,0.0427 -0.01585,0.23151 0.19744,0.1251 0.25697,0.28937 0.13229,0.36505 -0.12468,0.0757 -0.37021,-0.0178 -0.54563,-0.20773 z m -8.0485,-2.1568 c -0.08393,-0.2238 -0.16825,-0.65125 -0.19844,-1.0059 -0.02027,-0.23823 -0.21222,-0.33743 -0.49609,-0.2564 -0.25466,0.0727 -0.19513,-0.009 0.13229,-0.18102 0.63389,-0.3335 0.80684,-1.1761 0.27761,-1.3525 -0.2472,-0.0824 -0.2472,-0.14947 0,-0.30225 0.17473,-0.10799 0.3177,-0.0703 0.3177,0.0838 0,0.15411 0.20836,0.28202 0.46302,0.28425 0.26147,0.002 0.34785,0.0887 0.19844,0.19844 -0.14552,0.10691 -0.29573,0.478 -0.3338,0.82464 -0.06188,0.56344 -0.02114,0.59149 0.38425,0.26459 0.42697,-0.34431 0.42759,-0.32808 0.01061,0.27775 -0.29176,0.42389 -0.35659,0.74737 -0.19001,0.94809 0.17142,0.20655 0.1264,0.30466 -0.13983,0.30466 -0.21597,0 -0.40756,-0.0397 -0.42575,-0.0882 z m 20.937,-0.35555 c 0.13446,-0.25125 0.163,-0.53829 0.0634,-0.63788 -0.0996,-0.0996 0.0432,-0.095 0.31729,0.0102 0.32894,0.12623 0.43801,0.0936 0.32082,-0.096 -0.12431,-0.20115 0.0599,-0.19765 0.61436,0.0116 0.55151,0.20817 0.87597,0.21484 1.0688,0.022 0.31534,-0.31533 0.0584,-1.2296 -0.28573,-1.0169 -0.12392,0.0766 -0.15823,0.31403 -0.0763,0.52765 0.082,0.21362 0.0426,0.3884 -0.0875,0.3884 -0.13013,0 -0.2538,-0.22851 -0.27484,-0.50779 -0.0392,-0.52041 0.57942,-0.93287 1.0048,-0.66995 0.13072,0.0808 0.16677,-0.0379 0.0801,-0.26373 -0.0867,-0.22585 -0.0377,-0.41063 0.10887,-0.41063 0.14655,0 0.2586,0.60327 0.24902,1.3406 -0.0167,1.2844 -0.0444,1.3338 -0.66032,1.1792 -0.35359,-0.0887 -0.80441,-0.0273 -1.0018,0.13654 -0.19742,0.16384 -0.65742,0.33065 -1.0222,0.37069 -0.55505,0.0609 -0.6234,-0.002 -0.41882,-0.38399 z m 1.3214,-0.26181 c 0,-0.14552 -0.12609,-0.26458 -0.2802,-0.26458 -0.15411,0 -0.20661,0.11906 -0.11667,0.26458 0.0899,0.14553 0.21602,0.26459 0.28019,0.26459 0.0642,0 0.11668,-0.11906 0.11668,-0.26459 z m -21.431,0 c 0,-0.14552 0.12609,-0.26458 0.2802,-0.26458 0.15411,0 0.20661,0.11906 0.11668,0.26458 -0.08994,0.14553 -0.21603,0.26459 -0.2802,0.26459 -0.06417,0 -0.11668,-0.11906 -0.11668,-0.26459 z m -2.2099,-1.7812 c 0.09979,-0.39758 0.18143,-0.86248 0.18143,-1.0331 0,-0.17062 0.16873,-0.24549 0.37496,-0.16635 0.30841,0.11835 0.31232,0.18288 0.02204,0.36358 -0.28558,0.17777 -0.28981,0.32151 -0.0222,0.75334 0.44371,0.71596 0.42112,0.80541 -0.20348,0.80541 -0.44981,0 -0.50554,-0.11421 -0.35278,-0.72287 z m 2.954,0.27755 c 0.191,-0.0764 0.4192,-0.067 0.50712,0.0209 0.08792,0.0879 -0.06835,0.15046 -0.34726,0.13897 -0.30823,-0.0127 -0.37092,-0.0754 -0.15985,-0.15985 z m -0.59627,-0.75372 c -0.38479,-0.29104 -0.41465,-0.38846 -0.11906,-0.38846 0.21699,0 0.5374,0.14288 0.71203,0.3175 0.19546,0.19547 0.3175,0.21101 0.3175,0.0404 0,-0.15238 -0.26789,-0.40626 -0.59531,-0.56417 -0.50025,-0.24126 -0.51819,-0.28997 -0.11235,-0.30502 0.36575,-0.0135 0.46443,-0.19453 0.40662,-0.74567 -0.04198,-0.40027 0.0205,-0.88444 0.13884,-1.0759 0.11835,-0.1915 0.14373,-0.41963 0.0564,-0.50696 -0.08733,-0.0873 -0.15879,-0.0129 -0.15879,0.16551 0,0.17836 -0.09129,0.26787 -0.20287,0.19891 -0.11158,-0.069 -0.23391,-0.85893 -0.27185,-1.7555 -0.04503,-1.0642 0.0254,-1.5718 0.20287,-1.4621 0.17476,0.10801 0.27185,-0.41011 0.27185,-1.4507 0,-0.8903 -0.09944,-1.5573 -0.22099,-1.4822 -0.17234,0.10651 -0.25203,-3.7099 -0.08384,-4.0148 0.02212,-0.0401 0.39618,0.11113 0.83122,0.33609 0.43504,0.22497 0.85428,0.40212 0.93165,0.39366 0.07737,-0.008 0.3465,0.10458 0.59808,0.25118 0.40812,0.23782 0.41068,0.26741 0.02371,0.27459 -0.23854,0.004 -0.68927,0.21641 -1.0016,0.47107 -0.51994,0.42391 -0.57053,0.73119 -0.5989,3.638 l -0.03099,3.175 0.74366,0.0877 c 1.3042,0.15389 2.4492,-0.21301 3.3531,-1.0744 1.0626,-1.0127 1.5136,-1.0619 2.18,-0.23802 0.66154,0.8179 1.9849,1.357 3.3311,1.357 1.1919,0 3.0206,-0.8089 3.2643,-1.4439 0.19538,-0.50916 1.3962,-0.53675 1.6814,-0.0386 0.45144,0.78841 2.1313,1.5168 3.3034,1.4325 l 1.1416,-0.0822 0.0772,-2.7781 c 0.0424,-1.528 0.0155,-3.0256 -0.0598,-3.3281 -0.26439,-1.0617 -1.1089,-1.1698 -9.1345,-1.1698 -6.5712,0 -7.6291,-0.0543 -7.5799,-0.38922 0.03142,-0.21407 0.14237,-0.47446 0.24656,-0.57865 0.27185,-0.27186 1.237,-0.30794 1.237,-0.0463 0,0.1212 0.11832,0.22037 0.26292,0.22037 0.14461,0 0.21298,-0.26789 0.15195,-0.59531 -0.06103,-0.32743 -0.11982,-2.1799 -0.13063,-4.1167 -0.01251,-2.2395 -0.11453,-3.4627 -0.28026,-3.3603 -0.15969,0.0987 -0.21171,-0.17699 -0.13435,-0.71198 0.09966,-0.68917 0.03331,-0.60835 -0.31502,0.38372 -0.2427,0.69122 -0.59896,1.2568 -0.7917,1.2568 -0.19274,0 -0.35042,-0.1196 -0.35042,-0.26577 0,-0.60118 1.3921,-5.4489 1.6567,-5.7692 0.15742,-0.19054 0.25821,-1.0329 0.22396,-1.8719 -0.07093,-1.7379 0.28036,-2.2375 1.4767,-2.1003 0.73007,0.0837 0.7436,0.11656 0.7436,1.8051 0,1.1164 0.12352,1.8168 0.35205,1.9964 0.29721,0.23354 0.90307,2.2417 1.745,5.7839 0.15387,0.64738 0.23675,0.7101 0.52448,0.39687 0.18796,-0.20461 0.61861,-1.1331 0.957,-2.0634 0.54825,-1.5071 0.6401,-1.6242 0.84332,-1.0748 0.12544,0.33909 0.17792,0.80254 0.11663,1.0299 -0.0613,0.22753 -0.12886,0.11599 -0.15018,-0.24808 -0.0347,-0.59269 -0.0676,-0.61188 -0.31617,-0.18459 -0.19518,0.33549 -0.19192,0.57992 0.011,0.82442 0.35587,0.4288 -0.46436,2.4256 -0.97424,2.3717 -0.1819,-0.0192 -0.57505,-0.0498 -0.87366,-0.068 -0.35416,-0.0216 -0.64223,-0.31792 -0.82852,-0.85232 -0.21702,-0.62254 -0.34591,-0.73372 -0.5368,-0.46302 -0.17744,0.25161 -0.21346,0.16197 -0.12266,-0.30523 0.0707,-0.36381 0.0404,-0.89432 -0.0673,-1.1789 -0.19003,-0.50206 -0.54431,4.6269 -0.54655,7.9126 -7.94e-4,1.1635 0.07637,1.4968 0.29575,1.2774 0.16326,-0.16326 0.44887,-0.23848 0.6347,-0.16717 0.4462,0.17122 0.61792,-0.14635 0.90234,-1.6687 0.14308,-0.76589 0.13989,-1.4499 -0.008,-1.7264 -0.18295,-0.34186 -0.11783,-0.52594 0.25706,-0.72657 0.27616,-0.14779 0.58112,-0.58356 0.6777,-0.96837 0.0966,-0.38481 0.22722,-0.64804 0.2903,-0.58496 0.0631,0.0631 -0.1173,0.92597 -0.40086,1.9175 -0.64017,2.2385 -0.94399,4.6448 -0.58647,4.6448 0.14359,0 0.32961,-0.1786 0.41337,-0.39688 0.20392,-0.53139 1.1286,-0.50648 1.3367,0.036 0.1538,0.4008 0.20158,0.4008 0.64445,0 0.6231,-0.56389 1.2603,-0.55097 1.4856,0.0301 0.17094,0.44097 0.19573,0.44097 0.52049,0 0.18755,-0.25467 0.53032,-0.46302 0.76171,-0.46302 0.23139,0 0.53881,0.20835 0.68315,0.46302 0.24009,0.42358 0.29193,0.42673 0.60846,0.037 0.55241,-0.68019 1.1568,-0.76239 1.554,-0.21135 0.20023,0.27781 0.54614,0.49571 0.76867,0.48422 0.22254,-0.0115 0.27309,-0.0752 0.11234,-0.14153 -0.16075,-0.0663 -0.23279,-0.43183 -0.16008,-0.81218 0.0806,-0.42182 0.0292,-0.62792 -0.13177,-0.52841 -0.74941,0.46316 -1.7177,-1.6083 -1.0218,-2.1859 0.31366,-0.26032 0.35362,-0.13829 0.25002,0.76347 -0.0745,0.64885 -0.0139,1.0733 0.15328,1.0733 0.53506,0 0.67298,-0.0548 0.62202,-0.24694 -0.0283,-0.10672 0.10584,-0.19403 0.29808,-0.19403 0.23115,0 0.32963,0.29694 0.29078,0.87672 -0.0551,0.82199 -0.0159,0.86566 0.62796,0.69947 0.37769,-0.0975 1.0439,-0.18443 1.4805,-0.19321 l 0.79375,-0.016 0.0289,1.9256 c 0.0159,1.0591 -0.0918,2.0002 -0.23932,2.0914 -0.14751,0.0912 -0.20517,0.0581 -0.12813,-0.0736 0.077,-0.13163 0.0522,-0.47745 -0.0552,-0.76849 -0.1153,-0.3124 -0.21272,0.36258 -0.23782,1.6478 -0.0332,1.6981 0.0337,2.1477 0.30391,2.044 0.212,-0.0813 0.36274,0.0837 0.38848,0.4254 0.0298,0.39563 -0.0733,0.51407 -0.35382,0.40642 -0.23299,-0.0894 -0.32642,-0.0395 -0.22707,0.12123 0.0928,0.15023 0.0337,0.43592 -0.1314,0.63488 -0.18367,0.2213 -0.20215,0.42233 -0.0476,0.51784 0.13893,0.0859 0.18666,0.42388 0.10608,0.75116 -0.0806,0.32727 -0.0512,0.50742 0.0652,0.40033 0.11645,-0.10709 0.20158,-0.5515 0.18918,-0.98759 -0.0124,-0.43608 0.063,-0.84574 0.16752,-0.91034 0.10454,-0.0646 0.21559,0.4691 0.24678,1.186 0.0438,1.0075 -0.0334,1.3035 -0.34018,1.3035 -0.26631,0 -0.3969,0.2663 -0.3969,0.80936 0,0.47631 0.10971,0.74156 0.26661,0.64459 0.14664,-0.0906 0.42642,-0.005 0.62174,0.19035 0.47115,0.47115 0.0177,0.89697 -0.9545,0.89624 l -0.7276,-5.4e-4 0.0467,-1.9976 0.0467,-1.9976 0.17114,1.8521 0.17114,1.8521 0.0427,-1.8521 c 0.0404,-1.7543 -0.33716,-3.0932 -0.65287,-2.3151 -0.38819,0.95667 -4.2109,-0.0577 -4.8719,-1.2928 l -0.30157,-0.5635 -0.56717,0.67402 c -0.83143,0.98806 -2.0823,1.513 -3.6052,1.513 -1.5906,0 -2.8092,-0.46728 -3.679,-1.4106 l -0.63161,-0.6851 -0.48568,0.61744 c -0.26712,0.33959 -0.89386,0.81113 -1.3928,1.0479 -1.0848,0.51477 -3.5008,0.57997 -3.6946,0.0997 -0.08217,-0.20364 -0.14148,-0.1588 -0.15434,0.11668 -0.01148,0.24607 0.09817,0.52099 0.24369,0.61092 0.14552,0.0899 0.26458,0.98994 0.26458,2 0,1.947 -0.18892,2.177 -1.175,1.4312 z m 21.741,-0.28373 c -0.0879,-0.0879 -0.31612,-0.0973 -0.50712,-0.0209 -0.21107,0.0845 -0.14837,0.14715 0.15985,0.15985 0.27892,0.0115 0.43519,-0.0511 0.34727,-0.13897 z m -1.279,-11.063 c -0.23168,-0.2146 -0.26768,-0.12084 -0.14414,0.37541 0.0906,0.3638 0.19217,2.0307 0.22579,3.7042 l 0.0611,3.0427 0.083,-3.4181 c 0.0574,-2.3622 -0.0124,-3.5065 -0.22579,-3.7042 z m -19.665,0.93443 c -0.07837,-0.1268 0.18308,-0.55865 0.58099,-0.95966 0.67691,-0.6822 0.68526,-0.7172 0.12983,-0.54382 -0.45272,0.14132 -0.55903,0.0951 -0.44782,-0.19472 0.08207,-0.21386 -0.05072,-0.45546 -0.30367,-0.55253 -0.33328,-0.12789 -0.38455,-0.0854 -0.19831,0.1643 0.24839,0.33302 0.24691,0.51152 -0.01921,2.3212 -0.10465,0.71163 -0.07403,0.81835 0.13224,0.46092 0.14763,-0.25581 0.2043,-0.56886 0.12594,-0.69565 z m 18.899,-1.4851 c -0.41906,-0.50493 -0.0261,-0.49981 0.64588,0.008 0.28248,0.21365 0.63966,0.38664 0.79375,0.38441 0.15409,-0.002 0.12254,-0.10399 -0.0701,-0.22614 -0.28293,-0.17938 -0.26659,-0.30576 0.085,-0.65734 0.40396,-0.40396 0.35506,-0.42518 -0.67994,-0.29514 -1.4124,0.17745 -1.6436,0.32533 -1.2349,0.78972 0.44213,0.5024 0.87752,0.49869 0.46039,-0.004 z m -13.168,-3.1082 c -0.12338,-3.7799 -0.23504,-4.148 -0.28113,-0.92666 -0.02447,1.7099 0.04482,3.1091 0.15396,3.1095 0.10914,3.4e-4 0.16637,-0.98193 0.12717,-2.1828 z m 4.4362,-4.9602 c 0.18718,-0.34975 0.17542,-0.55481 -0.0395,-0.68761 -0.17806,-0.11005 -0.23494,-0.0739 -0.13592,0.0863 0.0936,0.15152 -0.007,0.42262 -0.2237,0.60244 -0.43687,0.36257 -0.54676,0.917 -0.1308,0.65992 0.14473,-0.0894 0.38318,-0.38691 0.52988,-0.66101 z m -8.466,7.3954 c 0,-0.1519 -0.20404,-0.2412 -0.45343,-0.19844 -0.28604,0.0491 -0.48056,-0.1176 -0.52692,-0.45142 l -0.07349,-0.52917 0.24374,0.52917 c 0.20989,0.45567 0.24632,0.46486 0.26234,0.0662 0.02261,-0.5629 0.54776,-0.62632 0.54776,-0.0662 0,0.21828 0.11906,0.39688 0.26458,0.39688 0.14552,0 0.26458,0.11906 0.26458,0.26458 0,0.14552 -0.11906,0.26458 -0.26458,0.26458 -0.14552,0 -0.26458,-0.12428 -0.26458,-0.27618 z m 0.70066,-0.90769 c -0.10651,-0.27755 0.0078,-0.40363 0.36597,-0.40363 0.28648,0 0.52269,-0.14883 0.52492,-0.33073 0.0027,-0.22048 0.08954,-0.19843 0.26053,0.0661 0.21919,0.33917 0.25707,0.32955 0.26053,-0.0661 0.0021,-0.25466 -0.1192,-0.46302 -0.26984,-0.46302 -0.18433,0 -0.18838,-0.15978 -0.01238,-0.48863 0.18156,-0.33926 0.16419,-0.59378 -0.05683,-0.83257 -0.24917,-0.26919 -0.2463,-0.30324 0.01318,-0.15671 0.37143,0.20975 0.34001,-0.51812 -0.04933,-1.1427 -0.15407,-0.24714 -0.13471,-0.31169 0.05779,-0.19271 0.17663,0.10916 0.27375,-0.0296 0.24916,-0.356 -0.02216,-0.29419 -0.19354,-0.53488 -0.38086,-0.53488 -0.18731,0 -0.34057,-0.11533 -0.34057,-0.25628 0,-0.14096 0.20836,-0.18152 0.46302,-0.0901 0.25466,0.0914 0.38984,0.0839 0.30038,-0.0166 -0.29904,-0.33601 -1.363,-0.41803 -1.7933,-0.13824 -0.37911,0.24656 -0.37594,0.26133 0.0292,0.13591 0.25,-0.0774 0.51372,-0.045 0.58603,0.072 0.07231,0.11701 -0.31083,0.19363 -0.85142,0.17027 l -0.9829,-0.0425 -0.03564,-1.7317 c -0.03325,-1.6155 0.0024,-1.7288 0.52917,-1.6878 0.64409,0.05 1.2282,-0.30683 1.2222,-0.74678 -0.0022,-0.16408 -0.11804,-0.11974 -0.25736,0.0985 -0.18669,0.2925 -0.23781,0.17087 -0.19439,-0.46249 0.05661,-0.82563 0.51267,-1.146 0.85134,-0.59798 0.21282,0.34434 -0.65914,3.4417 -0.96889,3.4417 -0.13146,0 -0.11577,-0.2303 0.03487,-0.51177 0.39897,-0.74549 0.34071,-0.95809 -0.27528,-1.0045 -0.43652,-0.0329 -0.48749,0.033 -0.24848,0.32095 0.37827,0.45578 0.25714,1.2266 -0.26069,1.659 -0.33793,0.28216 -0.31828,0.30428 0.13229,0.1489 0.48581,-0.16753 0.49665,-0.14237 0.13229,0.30696 -0.35278,0.43506 -0.35278,0.47415 0,0.35179 0.21828,-0.0757 0.38034,-0.33319 0.36013,-0.57219 -0.04057,-0.47977 0.30947,-0.5849 0.56591,-0.16996 0.27984,0.45279 1.4082,0.30468 1.5117,-0.19844 0.05242,-0.25466 0.12573,1.1292 0.1629,3.0753 0.06135,3.2118 0.02683,3.5227 -0.37403,3.3689 -0.24289,-0.0932 -0.59122,-0.0453 -0.77406,0.10644 -0.23939,0.19868 -0.37579,0.16293 -0.48732,-0.12773 z m 4.591,-0.56069 c 0,-0.62474 0.12177,-0.90127 0.39688,-0.90127 0.3108,0 0.38932,-0.32995 0.36204,-1.5214 -0.031,-1.3551 -0.0561,-1.4202 -0.22975,-0.59531 -0.16203,0.76978 -0.2008,0.62732 -0.22976,-0.84428 -0.0192,-0.97368 0.0829,-1.8431 0.22673,-1.932 0.14768,-0.0913 0.19564,0.0101 0.11017,0.23283 -0.11066,0.28837 0.10366,0.44232 0.79679,0.57235 0.52326,0.0982 0.94815,0.33554 0.94815,0.52969 0,0.55677 -0.47629,0.70327 -0.61074,0.18785 -0.0753,-0.28864 -0.14658,-0.16389 -0.18715,0.32749 l -0.0655,0.79375 -0.20309,-0.92604 c -0.17505,-0.79812 -0.20053,-0.71589 -0.18448,0.59531 0.0102,0.83675 0.13004,1.5214 0.26623,1.5214 0.13619,0 0.16233,0.20835 0.0581,0.46302 -0.16884,0.41248 -0.24944,0.81742 -0.36247,1.8212 -0.0186,0.16493 -0.2719,0.36214 -0.56294,0.43825 -0.45268,0.11838 -0.52916,0.008 -0.52916,-0.76289 z m 0.70991,-4.655 c -0.0845,-0.21106 -0.14716,-0.14837 -0.15985,0.15986 -0.0115,0.27891 0.051,0.43518 0.13896,0.34726 0.0879,-0.0879 0.0973,-0.31612 0.0209,-0.50712 z m 7.8142,3.8199 c -0.16531,-0.83674 -0.37972,-1.819 -0.47649,-2.1828 -0.1537,-0.57785 -0.0871,-0.54478 0.52717,0.26168 0.3867,0.50772 0.58358,0.96296 0.43751,1.0116 -0.15754,0.0525 -0.20028,0.56495 -0.10505,1.2597 0.23043,1.6812 -0.0286,1.4445 -0.38314,-0.35021 z m 0.86861,-1.6532 c 0.0899,-0.14552 0.21603,-0.26458 0.2802,-0.26458 0.0642,0 0.11668,0.11906 0.11668,0.26458 0,0.14552 -0.12609,0.26458 -0.2802,0.26458 -0.15411,0 -0.20662,-0.11906 -0.11668,-0.26458 z m -0.80463,-0.54677 c -0.0959,-0.1552 -0.10398,-0.35261 -0.0179,-0.43868 0.0861,-0.0861 0.009,-0.34604 -0.17195,-0.57771 -0.28801,-0.36938 -0.27338,-0.37813 0.11887,-0.0711 0.25583,0.20023 0.37815,0.53024 0.28576,0.77101 -0.10712,0.27915 -0.0573,0.35649 0.14802,0.22962 0.17025,-0.10522 0.32142,-0.51171 0.33592,-0.9033 l 0.0264,-0.71199 0.19619,0.66146 c 0.27956,0.94253 -0.46332,1.7817 -0.92128,1.0407 z m -0.89427,-0.95295 c -0.0115,-0.17 -0.0894,-0.52718 -0.17316,-0.79375 -0.14474,-0.46069 -0.13728,-0.46127 0.15102,-0.0117 0.1668,0.26015 0.24473,0.61733 0.17315,0.79375 -0.0939,0.23151 -0.13594,0.23476 -0.15101,0.0117 z m 0.48575,-0.74924 c -0.0221,-0.14552 -0.026,-0.35388 -0.009,-0.46302 0.0172,-0.10914 -0.19515,-0.19844 -0.47195,-0.19844 -0.6051,0 -1.0748,-1.1606 -0.91969,-2.2726 0.0896,-0.64244 0.066,-0.68237 -0.14227,-0.24091 -0.21843,0.46298 -0.25198,0.42713 -0.26825,-0.28663 -0.033,-1.4477 0.31908,-1.2137 1.0673,0.70925 0.40221,1.0338 0.79581,1.9441 0.87466,2.023 0.29254,0.29253 0.89047,-0.49905 0.75841,-1.004 -0.10467,-0.40026 -0.036,-0.48467 0.2919,-0.35884 0.47645,0.18283 0.59487,1.1662 0.14045,1.1662 -0.15858,0 -0.51181,0.26789 -0.78495,0.59531 -0.27315,0.32742 -0.51469,0.47625 -0.53676,0.33073 z m -0.77122,-1.8521 c -0.15367,-0.40417 -0.34005,-0.67419 -0.41419,-0.60006 -0.0741,0.0741 0.008,0.44835 0.18268,0.83157 0.41241,0.90515 0.59445,0.72311 0.23151,-0.23151 z m 0.97499,0.10677 c -0.17514,-0.66975 0.0477,-1.3507 0.37565,-1.148 0.13027,0.0805 0.23686,0.26545 0.23686,0.41097 0,0.14552 -0.12384,0.18805 -0.27519,0.0945 -0.17845,-0.11029 -0.21487,0.0703 -0.10361,0.51355 0.0944,0.37599 0.11303,0.68363 0.0415,0.68363 -0.0716,0 -0.19539,-0.24961 -0.27517,-0.55469 z m -6.3891,-0.59584 c 0.0931,-0.60702 0.0559,-0.95623 -0.0922,-0.8647 -0.13663,0.0844 -0.39399,-0.40985 -0.5719,-1.0984 -0.17791,-0.68855 -0.3765,-1.4239 -0.4413,-1.634 -0.0831,-0.26954 0.0414,-0.23798 0.42273,0.10715 0.49466,0.44766 0.66998,0.3797 0.56197,-0.21786 -0.0227,-0.12549 0.17158,-0.38537 0.43169,-0.5775 0.38999,-0.28807 0.41218,-0.41046 0.12653,-0.69787 -0.28613,-0.2879 -0.31574,-0.26798 -0.17013,0.11447 0.2049,0.53821 0.034,0.57738 -0.73161,0.16766 -0.45059,-0.24115 -0.52487,-0.22496 -0.4047,0.0882 0.0855,0.22283 -0.008,0.38355 -0.22447,0.38355 -0.48283,0 -0.46874,-0.15972 0.0662,-0.75086 0.4667,-0.5157 0.21968,-0.64162 -0.43788,-0.22323 -0.33576,0.21363 -0.41725,-0.0416 -0.52917,-1.6577 l -0.13229,-1.9102 -1.0107,-0.0832 c -1.4426,-0.11878 -1.7675,0.26579 -1.7675,2.0919 0,1.0615 -0.16767,1.8456 -0.53423,2.4982 -0.29383,0.52313 -0.47602,1.0453 -0.40488,1.1604 0.07114,0.11511 -0.1647,0.15308 -0.5241,0.0844 -0.74199,-0.14184 -0.85068,-0.75492 -0.27194,-1.534 0.37079,-0.49916 0.38036,-0.49687 0.34057,0.0817 -0.02252,0.32742 -0.14169,0.59531 -0.26483,0.59531 -0.12314,0 -0.14911,0.12101 -0.05771,0.2689 0.24297,0.39313 0.65879,0.0465 0.65879,-0.5491 0,-0.28245 0.09937,-0.51355 0.22083,-0.51355 0.12145,0 0.18146,-0.98226 0.13334,-2.1828 -0.04812,-1.20054 -0.01953,-2.0371 0.06352,-1.8589 0.11297,0.24229 0.32354,0.21082 0.83597,-0.12493 0.69538,-0.45563 2.0768,-0.4788 2.6071,-0.0437 0.15891,0.13038 0.3375,0.18803 0.39688,0.12811 0.0594,-0.0599 0.10794,0.5662 0.10794,1.3914 0,1.1176 0.0956,1.5003 0.37464,1.5003 0.21574,0 0.41944,-0.33462 0.48029,-0.78897 0.17398,-1.2992 0.3345,-1.1116 0.3543,0.41414 0.0102,0.78824 0.0995,1.2521 0.19843,1.0307 0.0989,-0.22134 0.40433,-0.39993 0.6787,-0.39688 0.27893,0.003 0.59594,-0.25689 0.71908,-0.58975 0.12112,-0.32742 0.15384,-0.59531 0.0727,-0.59531 -0.0811,0 -0.3661,0.26789 -0.63328,0.59531 -0.45032,0.55187 -0.49934,0.56046 -0.67163,0.11768 -0.10223,-0.2627 -0.0493,-0.73895 0.1177,-1.0583 0.29048,-0.55568 0.29929,-0.54969 0.20443,0.13889 -0.0545,0.39578 0.003,0.65664 0.12722,0.5797 0.1245,-0.0769 0.22819,-0.40076 0.23041,-0.7196 0.003,-0.47128 0.052,-0.50547 0.26054,-0.18282 0.14106,0.21828 0.26012,0.27781 0.26458,0.13229 0.004,-0.14552 0.12007,-0.0875 0.25692,0.12896 0.2046,0.3236 0.25141,0.30009 0.26337,-0.1323 0.0389,-1.4056 0.14377,-1.7164 0.57912,-1.7164 0.5285,0 0.95791,0.52583 0.43756,0.53581 -0.19049,0.004 -0.74129,0.98591 -1.224,2.1828 -0.48271,1.1969 -0.94193,2.325 -1.0205,2.5069 -0.081,0.18755 0.0434,0.33073 0.28738,0.33073 0.48305,0 0.44005,0.29871 -0.40955,2.8451 -0.40275,1.2071 -0.47511,1.3106 -0.3511,0.50225 z m 0.59759,-2.0724 c 0.20778,-0.76109 0.18786,-1.004 -0.0911,-1.111 -0.22988,-0.0882 -0.30465,-4.5e-4 -0.20992,0.24639 0.0837,0.21801 -0.008,0.38515 -0.21192,0.38745 -0.27704,0.003 -0.2684,0.0626 0.0378,0.26053 0.33917,0.21919 0.32956,0.25707 -0.0662,0.26053 -0.53725,0.005 -0.59592,0.29448 -0.14993,0.74048 0.38438,0.38438 0.36665,0.40449 0.69122,-0.78437 z m 6.7262,1.3847 c 0.0124,-0.43417 0.12351,-0.72694 0.24703,-0.6506 0.30205,0.18668 0.28619,1.0966 -0.0224,1.2873 -0.13586,0.084 -0.23692,-0.20257 -0.22458,-0.63674 z m -1.4678,-0.51646 c -0.0834,-0.41723 -0.22722,-1.0594 -0.31951,-1.4271 -0.12326,-0.49112 -0.055,-0.69242 0.25721,-0.75847 0.35669,-0.0755 0.27176,-0.40893 -0.52827,-2.0743 -0.6694,-1.3934 -0.88046,-2.1026 -0.70874,-2.3812 0.28509,-0.46268 0.14138,-1.0583 -0.25534,-1.0583 -0.16599,0 -0.14442,0.15726 0.0544,0.39687 0.23731,0.28594 0.24404,0.39688 0.0241,0.39688 -0.16791,0 -0.37765,-0.18858 -0.4661,-0.41906 -0.12947,-0.3374 -0.2044,-0.35029 -0.38452,-0.0661 -0.13484,0.21273 -0.22532,0.23441 -0.22776,0.0546 -0.002,-0.16409 0.15289,-0.42859 0.34471,-0.58778 0.51367,-0.42631 1.5033,0.35136 1.5033,1.1813 0,0.42469 0.10717,0.59583 0.29891,0.47733 0.18307,-0.11314 0.24715,-0.0423 0.16537,0.18283 -0.0735,0.20215 -0.26749,0.33779 -0.4312,0.30141 -0.31676,-0.0704 -0.4043,0.26818 -0.13816,0.53433 0.0877,0.0877 0.43486,-0.16032 0.77139,-0.55122 l 0.61187,-0.71072 2.7e-4,1.2568 c 2.4e-4,0.99003 -0.0933,1.2603 -0.44066,1.2736 -0.31159,0.0119 -0.26631,0.087 0.15434,0.25605 0.32742,0.13161 0.59531,0.36922 0.59531,0.52801 0,0.1588 -0.0933,0.23107 -0.20733,0.16059 -0.11403,-0.0705 -0.20333,0.19039 -0.19844,0.5797 0.005,0.4286 -0.12157,0.68174 -0.32183,0.64169 -0.50588,-0.10118 -0.39332,0.37922 0.13229,0.56462 0.25466,0.0898 0.58804,0.22476 0.74083,0.29985 0.16675,0.0819 0.27782,-0.22863 0.27782,-0.77683 0,-0.50235 -0.0826,-0.86231 -0.18357,-0.79991 -0.10096,0.0624 -0.16645,-0.18333 -0.14552,-0.54607 0.038,-0.65925 0.43132,-0.95416 0.43897,-0.32916 0.003,0.21977 0.0887,0.19758 0.25639,-0.0661 0.17382,-0.27338 0.2343,0.0756 0.19438,1.1215 -0.0379,0.99458 -0.1824,1.5662 -0.41869,1.6569 -0.20913,0.0803 -0.30345,0.35759 -0.22441,0.65983 0.11826,0.45226 0.0654,0.4834 -0.39879,0.23497 -0.34595,-0.18515 -0.47554,-0.18999 -0.36659,-0.0137 0.0927,0.14998 0.062,0.33852 -0.0681,0.41898 -0.13018,0.0804 -0.30496,-0.19509 -0.38841,-0.61231 z m 0.75963,-0.80272 c -0.0959,-0.1552 -0.29113,-0.28219 -0.4338,-0.28219 -0.14267,0 -0.10588,0.16659 0.0818,0.37019 0.37985,0.41217 0.62352,0.35126 0.35204,-0.088 z m -5.3829,-6.3897 c 0.0303,-0.57217 0.18569,-0.94809 0.39182,-0.94809 0.23169,0 0.25854,0.10004 0.0835,0.31097 -0.14194,0.17104 -0.18867,0.38039 -0.10383,0.46523 0.0848,0.0848 0.0247,0.37154 -0.13375,0.63711 -0.24044,0.40315 -0.27969,0.32635 -0.23772,-0.46522 z"
       id="path911"
       inkscape:connector-curvature="0"
       style="fill:#4bbeb3" />
    <path
       d="m 80.592,163.89 c -0.63377,-0.40081 -0.08466,-0.64479 1.2873,-0.57197 1.5044,0.0798 3.0035,-0.47676 4.129,-1.533 1.0807,-1.0143 1.8474,-1.1692 2.2317,-0.45102 1.2844,2.3999 6.1786,2.6488 8.0624,0.41003 0.85656,-1.018 1.6253,-0.97852 2.7108,0.13911 1.9567,2.0148 6.0255,1.8988 7.6915,-0.21916 0.69786,-0.88719 1.7199,-0.91566 2.2782,-0.0635 0.61129,0.93295 2.5016,1.751 4.0303,1.7442 1.5538,-0.007 3.2541,-0.71953 4.0102,-1.6808 0.69786,-0.88719 1.7199,-0.91566 2.2782,-0.0635 0.6892,1.0518 2.5986,1.8129 4.2861,1.7083 1.1868,-0.0736 1.4464,-0.0161 1.385,0.30634 -0.0532,0.27909 -0.48304,0.42047 -1.4483,0.47636 -1.6639,0.0964 -3.7564,-0.71681 -4.6853,-1.8208 l -0.62672,-0.74481 -1.039,0.98834 c -1.8017,1.7139 -4.4722,2.1038 -6.8444,0.99914 -0.73908,-0.34414 -1.589,-0.93752 -1.8888,-1.3186 l -0.54503,-0.6929 -1.0312,1.0312 c -1.2213,1.2213 -2.8002,1.7302 -4.7486,1.5307 -1.6312,-0.16709 -3.3725,-1.0062 -3.9652,-1.9107 l -0.43348,-0.66158 -1.1302,1.0418 c -1.9142,1.7645 -4.5692,2.1146 -6.9684,0.91902 -0.76386,-0.38065 -1.5759,-0.97754 -1.8045,-1.3264 l -0.41564,-0.63435 -1.1302,1.0418 c -0.6216,0.57297 -1.5891,1.1692 -2.1501,1.325 -1.2511,0.34739 -3.0019,0.36323 -3.5258,0.0319 z m 2.9028,-9.9133 c 0,-0.53656 0.74139,-1.2095 1.3325,-1.2095 0.27553,0 0.63462,0.24976 0.79799,0.55501 l 0.29703,0.555 0.38874,-0.555 c 0.50512,-0.72116 1.2807,-0.70691 1.7989,0.033 l 0.41188,0.58804 0.41188,-0.58804 c 0.51194,-0.7309 1.3295,-0.75815 1.7662,-0.0589 0.38986,0.62426 0.73235,0.68849 0.73235,0.13733 0,-0.21551 0.31774,-0.47158 0.7061,-0.56905 0.54244,-0.13614 0.81491,-0.0428 1.1756,0.40256 0.46894,0.57912 0.46981,0.57916 0.75842,0.0399 0.38328,-0.71617 1.485,-0.70727 1.8717,0.0151 l 0.29703,0.55501 0.38874,-0.55501 c 0.50512,-0.72115 1.2807,-0.70691 1.7989,0.033 l 0.41188,0.58803 0.41188,-0.58803 c 0.51479,-0.73497 1.293,-0.75539 1.7892,-0.047 0.30774,0.43935 0.40724,0.46748 0.52923,0.1496 0.0826,-0.21532 0.39587,-0.52296 0.69611,-0.68364 0.45373,-0.24283 0.65693,-0.1811 1.2037,0.36567 0.63712,0.63713 0.66649,0.64161 0.93358,0.14255 0.36821,-0.68802 1.1891,-0.65283 1.6974,0.0728 l 0.41188,0.58803 0.41187,-0.58803 c 0.22654,-0.32342 0.6365,-0.58804 0.91104,-0.58804 0.27454,0 0.68451,0.26462 0.91104,0.58804 l 0.41188,0.58804 0.41188,-0.58804 c 0.50882,-0.72645 1.2916,-0.75742 1.7729,-0.0701 0.36011,0.51412 0.36597,0.51412 0.80617,0 0.57978,-0.67714 1.4124,-0.65982 1.7854,0.0371 l 0.29703,0.555 0.38874,-0.555 c 0.50511,-0.72116 1.2807,-0.70691 1.7989,0.033 l 0.41188,0.58804 0.41187,-0.58804 c 0.22654,-0.32342 0.6365,-0.58804 0.91104,-0.58804 0.27454,0 0.68451,0.26462 0.91104,0.58804 l 0.41188,0.58804 0.41188,-0.58804 c 0.67086,-0.95779 1.9694,-0.6128 1.9694,0.52321 0,0.45424 -0.88685,0.47625 -19.182,0.47625 -16.448,0 -19.182,-0.0539 -19.182,-0.37797 z m 2.6458,-13.338 c 0,-0.12248 0.46288,-0.36138 1.0286,-0.53088 0.56572,-0.1695 1.3708,-0.65822 1.7891,-1.086 0.9141,-0.93496 1.3258,-0.90755 2.5531,0.16997 1.6824,1.4772 4.3804,1.3766 5.9103,-0.22036 0.83903,-0.87575 1.5509,-0.96865 1.9342,-0.25242 0.35014,0.65424 2.3453,1.6149 3.3385,1.6075 1.0427,-0.008 2.9157,-0.88413 3.3392,-1.5623 0.1884,-0.30169 0.58293,-0.54852 0.87672,-0.54852 0.29379,0 0.68832,0.24683 0.87672,0.54852 0.42874,0.68651 2.3049,1.5565 3.3566,1.5565 1.0456,0 2.9292,-0.86934 3.2721,-1.5102 0.36985,-0.69107 1.2055,-0.57547 2.111,0.29205 0.41359,0.39624 1.1873,0.84063 1.7193,0.98753 0.99623,0.27507 1.3262,0.7759 0.50433,0.76558 -0.79668,-0.01 -2.6223,-0.96739 -3.0738,-1.6119 l -0.43193,-0.61667 -0.43194,0.61667 c -1.3673,1.9521 -5.3624,2.1176 -7.109,0.29446 l -0.76402,-0.79746 -0.80844,0.7603 c -1.4913,1.4025 -3.6647,1.7339 -5.602,0.85409 -0.59918,-0.2721 -1.2846,-0.7734 -1.5232,-1.114 l -0.43376,-0.61927 -0.69755,0.75227 c -1.8345,1.9784 -5.2779,1.9775 -7.1123,-0.002 l -0.66933,-0.72222 -0.42386,0.60514 c -0.66966,0.95614 -3.5287,2.0771 -3.5287,1.3836 z m 9.5815,-8.2956 c 0.51131,-0.77007 0.85187,-0.85425 1.368,-0.33814 0.39372,0.39372 0.46172,0.39346 0.85858,-0.003 0.23704,-0.23705 0.60397,-0.36461 0.81539,-0.28348 0.21142,0.0811 0.43419,0.1475 0.49505,0.1475 0.06086,0 0.11065,0.20105 0.11065,0.44677 0,0.37604 0.0854,0.3551 0.53948,-0.13229 0.64099,-0.68803 0.73923,-0.70109 1.32,-0.17551 0.39964,0.36168 0.48066,0.36168 0.78083,0 0.44091,-0.53126 1.229,-0.51518 1.438,0.0293 0.1538,0.4008 0.20157,0.4008 0.64445,0 0.6284,-0.5687 1.0227,-0.54656 1.4136,0.0794 0.31639,0.50662 0.32386,0.50662 0.67871,0 0.46788,-0.66799 1.0297,-0.65085 1.401,0.0428 l 0.29703,0.555 0.38874,-0.555 c 0.4857,-0.69344 1.0505,-0.71079 1.4078,-0.0432 0.15064,0.28148 0.27389,0.57913 0.27389,0.66146 0,0.0823 -3.2887,0.14969 -7.3083,0.14969 h -7.3083 z m -2.4378,-10.532 c 0,-0.14552 0.48802,-0.26458 1.0845,-0.26458 1.2737,0 2.7419,-0.63335 3.2934,-1.4207 0.51452,-0.73458 1.1916,-0.71085 1.8181,0.0637 0.66154,0.8179 1.9849,1.357 3.3311,1.357 1.1919,0 3.0206,-0.8089 3.2643,-1.4439 0.19447,-0.50677 1.3947,-0.53767 1.6814,-0.0433 0.41825,0.72123 2.0571,1.4852 3.1882,1.4862 0.61846,5.3e-4 1.1245,0.12005 1.1245,0.26557 0,0.14553 -0.54053,0.26459 -1.2012,0.26459 -1.3841,0 -3.1371,-0.79487 -3.5806,-1.6236 l -0.30158,-0.5635 -0.56716,0.67402 c -0.83143,0.98806 -2.0823,1.513 -3.6052,1.513 -1.5906,0 -2.8092,-0.46728 -3.679,-1.4106 l -0.63161,-0.6851 -0.48568,0.61744 c -0.26712,0.33959 -0.89386,0.81113 -1.3928,1.0479 -0.994,0.47168 -3.3406,0.58819 -3.3406,0.16585 z m 2.3812,-8.2021 c 0.34879,-0.65171 1.2069,-0.68944 1.5545,-0.0683 0.14184,0.25345 0.29672,0.40228 0.34418,0.33073 0.04746,-0.0716 -0.04466,-2.5113 -0.20471,-5.4218 -0.16005,-2.9104 -0.375,-5.0535 -0.47767,-4.7625 -0.45018,1.2761 -1.1753,2.607 -1.1949,2.1931 -0.03501,-0.74012 1.0317,-5.043 1.3432,-5.4184 0.1582,-0.19062 0.54096,-0.35037 0.85056,-0.355 0.52427,-0.008 0.53113,-0.0326 0.0999,-0.3599 -0.34469,-0.26166 -0.46302,-0.73283 -0.46302,-1.8437 v -1.4922 h 1.8521 v 1.5875 c 0,0.88194 -0.11759,1.5875 -0.26458,1.5875 -0.14552,0 -0.26458,0.11906 -0.26458,0.26458 0,0.14552 0.2311,0.26458 0.51355,0.26458 0.28245,0 0.58796,0.12039 0.6789,0.26753 0.18621,0.30129 1.4534,5.4269 1.4534,5.8788 0,0.55164 -0.38492,-0.0946 -0.95176,-1.5979 l -0.56776,-1.5057 -0.15695,1.9844 c -0.08632,1.0914 -0.21396,3.5148 -0.28364,5.3853 -0.1208,3.2426 -0.10487,3.3812 0.34222,2.9766 0.61274,-0.55452 1.2583,-0.53897 1.6047,0.0387 0.2645,0.44097 0.29096,0.44097 0.55546,0 0.35003,-0.58357 1.2,-0.60161 1.4193,-0.0301 0.1538,0.4008 0.20158,0.4008 0.64445,0 0.6231,-0.56389 1.2603,-0.55097 1.4856,0.0301 0.17095,0.44097 0.19573,0.44097 0.52049,0 0.18756,-0.25467 0.53032,-0.46302 0.76171,-0.46302 0.23139,0 0.54568,0.20835 0.69844,0.46302 0.2645,0.44097 0.29095,0.44097 0.55546,0 0.43441,-0.72423 1.8389,-0.43121 1.8389,0.38364 0,0.11642 -3.2784,0.21167 -7.2854,0.21167 -7.2034,0 -7.2822,-0.006 -7.0021,-0.52917 z m 3.175,-3.5719 c 0,-1.8521 -0.10353,-3.0427 -0.26458,-3.0427 -0.16105,0 -0.26458,1.1906 -0.26458,3.0427 0,1.8521 0.10353,3.0427 0.26458,3.0427 0.16105,0 0.26458,-1.1906 0.26458,-3.0427 z"
       id="path913"
       inkscape:connector-curvature="0"
       style="fill:#ee5d67" />
    <path
       d="m 97.382,108.43 c -0.10698,-2.8531 -0.27904,-5.0892 -0.38236,-4.9691 -0.10332,0.1201 -0.41097,0.81367 -0.68368,1.5413 -0.70333,1.8766 -0.76615,0.91563 -0.12102,-1.8512 0.60403,-2.5905 0.85212,-3.0395 1.6862,-3.052 0.52427,-0.008 0.53113,-0.0326 0.0999,-0.3599 -0.34469,-0.26166 -0.46302,-0.73283 -0.46302,-1.8437 v -1.4922 h 1.8521 v 1.5875 c 0,0.88194 -0.11759,1.5875 -0.26458,1.5875 -0.14552,0 -0.26458,0.11906 -0.26458,0.26458 0,0.14552 0.2311,0.26458 0.51355,0.26458 0.28245,0 0.58796,0.12039 0.6789,0.26753 0.18834,0.30474 1.4534,5.4294 1.4534,5.8877 0,0.57845 -0.45372,-0.19768 -0.95523,-1.634 l -0.49998,-1.432 -0.17883,1.1674 c -0.09835,0.64206 -0.18896,2.4771 -0.20135,4.0778 -0.01239,1.6007 -0.09594,3.3545 -0.18567,3.8974 -0.30908,1.8698 -0.62478,0.69472 -0.62478,-2.3255 0,-1.8417 -0.10361,-3.0271 -0.26458,-3.0271 -0.16088,0 -0.26458,1.1798 -0.26458,3.0103 0,2.2468 -0.09326,3.0877 -0.36766,3.3154 -0.31068,0.25784 -0.39781,-0.49891 -0.56217,-4.8823 z"
       id="path915"
       inkscape:connector-curvature="0"
       style="fill:#46322f" />
  </g>
</svg>
