<?xml version="1.0" encoding="utf-8"?>
<!-- Generator: Adobe Illustrator 21.0.0, SVG Export Plug-In . SVG Version: 6.00 Build 0)  -->
<svg version="1.1" id="Livello_1" xmlns="http://www.w3.org/2000/svg" xmlns:xlink="http://www.w3.org/1999/xlink" x="0px" y="0px"
	 viewBox="0 0 520 504.3" style="enable-background:new 0 0 520 504.3;" xml:space="preserve">
<style type="text/css">
	.st0{fill:#A3D6E8;}
	.st1{fill:#F4BE89;}
	.st2{fill:#DDA87C;}
	.st3{fill:#EAC9AC;}
	.st4{fill:#7D4012;}
</style>
<g>
	<g>
		<path class="st0" d="M257.9,407.7C169.7,407.7,98,335.9,98,247.7S169.7,87.8,257.9,87.8s159.9,71.7,159.9,159.9
			S346.1,407.7,257.9,407.7z M257.9,92.5c-85.6,0-155.2,69.6-155.2,155.2S172.3,403,257.9,403s155.2-69.6,155.2-155.2
			S343.5,92.5,257.9,92.5z"/>
	</g>
</g>
<g>
	<path class="st1" d="M348.7,269.8c9.1-8.3,18.5-16.8,23.7-28.1c7.7-16.8,4.1-38.3-8.6-51.4c-10.6-11-25.7-15.5-38.9-22.8
		c-6.1-3.3-11.8-7.3-18.1-10.1c-16-7.1-34.1-6-51.5-4.8c-1.7,0.1-3.4,0.2-5,0.8c-1.5,0.6-2.9,1.5-4.3,2.4
		c-9.1,5.4-20.2,5.3-30.6,6.1c-8.8,0.7-17.6,2.1-26.1,4.3c-5.2,1.3-10.6,3-14.7,6.6c-2.9,2.5-5.1,5.9-7.8,8.7
		c-3.8,3.9-8.5,6.9-11.6,11.4c-5.3,7.7-4.6,18.1-7.3,27.1c-1.9,6.3-5.5,12-7.2,18.4c-3,11.1-0.3,23,2.5,34.2
		c1.1,4.4,2.7,9.4,6.8,11.1c1.6,0.7,3.4,0.7,5,1.4c4.1,1.8,5.5,6.9,8.1,10.7c3.4,4.8,14.7,13.5,19.8,16.3
		c16,8.8,13.8,15.9,37.6,27.6c16.6,8.2,37.5,20.2,59.3,7.8c6.8-3.9,11.7-19.6,17-26c8.2-9.7,12-13.7,21-22.6
		C327.9,288.9,338.3,279.3,348.7,269.8z"/>
</g>
<g>
	<path class="st2" d="M233.7,346.1l24.2,6.6l12.4-1.4c0,0,13.5,0.2,21.5-23.4c8-23.6,0,0,0,0s19.3-24,35.8-38.8
		c0.8-0.7,1.7-1.2,2.4-1.9l36-34.9c0,0,20-21.4,5.6-50.8c0,0-29,69.5-82.8,100.3"/>
</g>
<g>
	<path class="st3" d="M171,293.9c0,0,62.7,52.8,85.9,45.2c0,0,10.1,6.1,27.9-4.9c0,0,15.1-19-13.4-25l-11.2,0.8
		c0,0-85.6-27.2-93.6-35.5c0,0-24.1-23-14.9-49.6C151.7,224.9,134.8,262.5,171,293.9z"/>
</g>
<g>
	<path class="st4" d="M287.4,331.8c0.9-2.9,1.2-6.1,0.7-9c-0.5-2.9-2.1-5.6-4.4-7.3c-2.2-1.8-5.2-2.5-8-3.1
		c-1.5-0.1-2.9-0.4-4.4-0.4l-4.5,0l0.6-0.1c-1,0.4-1.3,0.3-1.8,0.3c-0.5,0-0.9,0-1.4,0c-0.9,0-1.8-0.1-2.6-0.2
		c-1.7-0.2-3.4-0.5-5.1-0.9c-3.3-0.7-6.6-1.6-9.8-2.5c-6.4-1.9-12.8-4-19.1-6.4c-12.6-4.6-25-9.8-37.2-15.2
		c-3.1-1.3-6.1-2.7-9.1-4.1l-4.6-2.1l-1.1-0.5c-0.4-0.2-0.9-0.4-1.2-0.6c-0.8-0.4-1.5-0.9-2.3-1.3c-5.9-3.7-10.9-8.6-14.9-14.3
		c-3.9-5.7-6.5-12.3-7.2-19.2c-0.7-6.8,0.1-13.6,1.9-20c-1,6.6-1.3,13.3,0,19.7c1.3,6.4,4,12.5,7.9,17.5c3.9,5.1,8.9,9.4,14.3,12.7
		c0.7,0.4,1.4,0.8,2.1,1.1c0.4,0.2,0.7,0.3,1,0.5l1.1,0.5l4.6,2l9.2,4c6.1,2.6,12.3,5.2,18.4,7.7c6.1,2.6,12.3,5.1,18.5,7.4
		c6.2,2.4,12.4,4.7,18.7,6.8c3.1,1,6.3,2,9.5,2.8c1.6,0.4,3.2,0.8,4.8,1.1c0.8,0.1,1.6,0.2,2.3,0.3c0.4,0,0.8,0.1,1.1,0.1
		c0.3,0,0.9-0.1,0.6,0l0.6-0.1l4.7,0.3c1.6,0.2,3.1,0.5,4.7,0.8c3.1,0.9,6.2,1.9,8.7,4.2c2.5,2.2,4,5.3,4.2,8.5
		C289.3,325.9,288.6,329,287.4,331.8z"/>
</g>
<g>
	<path class="st4" d="M171,293.9c8.6,6,17.1,11.9,25.9,17.6c8.7,5.6,17.6,11,26.8,15.6c9.2,4.7,18.6,8.8,28.6,11.1
		c4.9,1.1,10,1.8,15.1,1.5c5.1-0.3,10.1-1.7,14.6-4.4c-3.9,3.6-9,5.8-14.3,6.7c-5.3,0.9-10.8,0.7-16.1-0.2
		c-10.6-1.7-20.6-5.8-30-10.5c-4.7-2.5-9.3-5.1-13.7-7.9c-4.4-2.9-8.8-5.8-13-9C186.4,308.3,178.3,301.5,171,293.9z"/>
</g>
<g>
	<path class="st4" d="M158.8,206.3c-2.2,4.9-3.2,10.2-3.3,15.5c-0.1,5.3,0.9,10.6,2.5,15.6c1,2.4,1.9,4.9,3.3,7.2
		c1.2,2.4,2.8,4.5,4.3,6.7c1.5,2.2,3.4,4,5.1,6.1l5.7,5.5l0,0l0.1,0.1c2.4,2.7,5.7,5,8.8,7.1c3.2,2.1,6.6,4.1,10,5.8
		c6.9,3.5,14,6.6,21.3,9.2c3.6,1.4,7.3,2.5,11,3.8c3.7,1.1,7.4,2.3,11.2,3.3c3.8,1,7.5,2,11.3,3l11.4,2.7l-0.1,0
		c4.1,0.4,8,1.3,11.9,2.6c3.8,1.3,7.5,3.1,10.7,5.7c3.1,2.6,5.7,5.9,7,9.8c1.4,3.8,1.4,8,0.8,11.9c0.4-4,0.1-8-1.4-11.7
		c-1.4-3.7-4-6.8-7.1-9.1c-3.1-2.3-6.7-4-10.5-5.2c-3.7-1.2-7.6-1.9-11.5-2.2l-0.1,0l-0.1,0l-11.5-2.5c-3.8-0.9-7.6-1.9-11.4-2.9
		c-3.8-1-7.5-2.2-11.3-3.3c-3.7-1.3-7.5-2.4-11.1-3.8c-7.4-2.6-14.6-5.8-21.6-9.4c-6.9-3.7-13.8-7.7-19.4-13.7l0.1,0.1
		c-1.9-1.9-3.9-3.8-5.8-5.7c-1.7-2.1-3.6-4.1-5.1-6.4c-1.5-2.3-3.1-4.5-4.2-7c-1.4-2.4-2.2-5-3.2-7.5c-1.6-5.2-2.4-10.7-2-16.1
		C155,216.4,156.3,211,158.8,206.3z"/>
</g>
<g>
	<path class="st4" d="M294.7,322.9c0.3-3,0.4-6.1-0.3-9.1c-0.6-3-1.8-5.8-3.7-8.2c-1.8-2.4-4.2-4.4-6.8-5.6l0.1,0
		c-7-2.3-12.2-7.6-17.3-12.2c-5.3-4.5-10.8-8.9-16.5-12.8c-5.8-3.9-11.7-7.5-17.9-10.8c-6.1-3.3-12.5-6.2-19-8.6l0.1,0
		c-5.8-1.6-11.5-3.4-16.8-6.3c-2.7-1.2-5.2-3-7.8-4.5c-2.4-1.8-4.9-3.4-7.1-5.4c-4.6-3.8-8.8-8.1-12.4-12.8
		c-3.7-4.7-6.9-9.7-9.5-15.1l0,0l0,0c-1-3.3-1.5-6.9-0.8-10.3c0.8-3.4,2.4-6.5,4.6-9.2c2.1-2.7,4.8-4.9,7.6-6.8
		c2.8-1.9,5.8-3.5,8.9-4.8c-3.1,1.4-6,3.2-8.7,5.2c-2.7,2-5.2,4.3-7.2,7c-2,2.7-3.5,5.7-4.1,8.9c-0.6,3.2,0,6.5,0.9,9.7l0-0.1
		c2.6,5.2,5.9,10.1,9.6,14.6c3.7,4.5,7.8,8.7,12.3,12.4c2.2,1.9,4.6,3.5,7,5.2c2.5,1.5,4.9,3.1,7.6,4.3c5.1,2.8,10.7,4.5,16.3,6
		l0.1,0l0,0c6.7,2.4,13.1,5.5,19.3,8.8c6.2,3.4,12.2,7.1,18,11.1c5.8,4,11.3,8.4,16.6,13.2c2.7,2.4,5,4.9,7.7,7.1
		c2.7,2.1,5.6,4.1,8.8,5.2l0,0l0,0c3,1.4,5.4,3.6,7.2,6.2c1.8,2.6,3,5.6,3.5,8.7c0.6,3.1,0.3,6.2-0.1,9.3"/>
</g>
<g>
	<path class="st4" d="M188.4,177.6c-1.3,1.9-1.6,4.2-1.7,6.4c0,2.2,0.5,4.4,1.2,6.5c1.4,4.2,3.9,8,6.5,11.6c2.7,3.5,5.7,6.9,9,10
		c3.2,3.2,6.6,6,10,8.9l-0.1,0l26.9,18.9c9,6.3,17.8,12.7,26.7,19.1l6.7,4.8c2.2,1.6,4.5,3.1,6.6,4.9c4.2,3.6,8.1,7.6,11.4,12
		c3.3,4.4,6,9.4,7.5,14.7c1.5,5.3,1.5,11.1-0.3,16.3c1.4-5.3,1.1-10.9-0.6-16.1c-1.7-5.1-4.5-9.8-7.8-14.1
		c-3.4-4.2-7.2-8.1-11.4-11.4c-4.3-3.2-8.9-6.3-13.3-9.5c-8.9-6.3-17.9-12.5-26.8-18.9l-26.7-19.1l0,0l0,0c-3.4-3-6.8-6-9.9-9.3
		c-3.2-3.2-6.1-6.7-8.8-10.4c-2.6-3.8-4.9-7.8-6.2-12.2c-0.6-2.2-1-4.5-0.9-6.8C186.5,181.7,187,179.4,188.4,177.6z"/>
</g>
<g>
	<path class="st4" d="M304,310c1.8-6.7,1.2-13.9-0.7-20.5c-1.9-6.6-5.4-12.7-9.6-18.1c-2-2.8-4.5-5.2-6.8-7.7
		c-2.4-2.4-5.1-4.7-7.6-6.9c-2.8-2-5.5-4.2-8.3-6.2l-8.7-5.6l0.2,0.1c-7-3.1-13.3-7.3-19.2-12c-5.9-4.7-11.3-10-16-16
		c-4.6-5.9-8.8-12.3-11.9-19.1c-3.3-6.8-5.4-14-7.2-21.3l1.7,5.3c0.6,1.8,1.1,3.6,1.8,5.3c1.4,3.4,2.8,6.9,4.6,10.1
		c3.3,6.7,7.5,12.8,12.3,18.5c1.2,1.4,2.4,2.8,3.7,4.2l3.8,4l4.1,3.7c1.4,1.2,2.9,2.4,4.3,3.5c5.8,4.6,12.2,8.5,18.8,11.5l0.1,0.1
		l0,0l8.8,5.7c2.9,2,5.6,4.2,8.4,6.4c2.6,2.4,5.3,4.6,7.7,7.2c2.4,2.6,4.8,5.2,6.8,8.1c4.1,5.7,7.6,12,9.3,18.9
		c0.7,3.4,1.4,6.9,1.3,10.4C305.7,303.2,305.2,306.7,304,310z"/>
</g>
<g>
	<path class="st4" d="M308.4,303.8c0.7-5.4,0.8-10.9,0.5-16.3c-0.3-5.4-0.9-10.8-2.3-16.1c-1.4-5.2-3.4-10.2-6.1-14.8
		c-2.8-4.6-6.5-8.4-10.7-11.7l0.2,0.1c-7.3-3.7-14.3-7.9-21-12.6c-6.7-4.7-13.1-9.8-19-15.4c-3-2.8-5.7-5.8-8.4-9
		c-2.6-3.1-5-6.5-7.2-10c-4.3-7-7.3-14.8-8-22.9c1.3,8,4.6,15.6,9.1,22.2c4.4,6.8,9.9,12.7,15.8,18.2c5.9,5.5,12.3,10.5,18.9,15
		c6.7,4.5,13.6,8.8,20.7,12.5l0.1,0.1l0.1,0c4.4,3.5,8.3,7.6,11.2,12.4c2.8,4.9,4.6,10.1,5.9,15.5c1.1,5.4,1.7,10.9,1.7,16.4
		C309.8,293,309.4,298.5,308.4,303.8z"/>
</g>
<g>
	<path class="st4" d="M240.1,176.8c5.2,1.7,10.1,4.3,14.9,7.1c4.7,2.8,9.2,6.1,13.4,9.7c4.2,3.6,8.2,7.5,11.7,11.8
		c3.6,4.2,6.7,8.8,9.6,13.5l-0.1-0.1c2.4,3.3,5,6.6,7.6,9.7c1.3,1.6,2.7,3.1,4.1,4.5c1.4,1.4,3,2.8,4.5,3.5l0.2,0.1l0.1,0.1
		c3.9,3.6,7,7.8,9.5,12.4c2.4,4.6,4.2,9.5,5.1,14.6c0.3,1.3,0.3,2.6,0.5,3.8c0.2,1.3,0.3,2.6,0.3,3.9l0,3.9l-0.4,3.8l-0.2,1.9
		c-0.1,0.6-0.3,1.3-0.4,1.9l-0.8,3.8c-0.6,2.5-1.5,4.9-2.3,7.3c0.6-2.5,1.3-4.9,1.8-7.4l0.6-3.8c0.1-0.6,0.2-1.2,0.3-1.9l0.1-1.9
		l0.2-3.8l-0.2-3.8c0-1.3-0.2-2.5-0.4-3.7c-0.2-1.2-0.3-2.5-0.6-3.7c-1-4.9-2.9-9.6-5.3-14c-2.4-4.3-5.5-8.4-9.1-11.7l0.3,0.2
		c-2.3-1-3.8-2.5-5.3-4c-1.5-1.5-2.9-3.1-4.3-4.6c-2.7-3.2-5.2-6.5-7.6-10l0,0l0-0.1c-2.8-4.6-5.8-9.2-9.3-13.4
		c-3.4-4.2-7.2-8.2-11.2-11.9c-4-3.7-8.4-7-12.9-10C249.9,181.6,245.1,178.9,240.1,176.8z"/>
</g>
<g>
	<path class="st4" d="M328.9,280.9c3.2-8.3,4.2-17.4,2.9-26c-1.4-8.6-5.2-16.8-11-23.4c-2.8-3.3-5.9-6.5-9.4-9.1l-2.6-2.1
		c-0.9-0.7-1.8-1.4-2.6-2.2c-1.7-1.5-3.3-3.1-4.8-4.8c-3-3.4-5.7-7-7.9-10.9c-2.1-4-3.8-8.2-4.4-12.7c1.1,4.3,3,8.4,5.4,12.1
		c2.3,3.7,5.2,7.2,8.2,10.3c1.6,1.5,3.2,3,4.8,4.5c0.8,0.7,1.7,1.4,2.5,2.1l2.7,2.1c3.6,2.7,6.9,5.9,9.9,9.3c5.8,7,9.9,15.6,11,24.6
		c0.4,4.5,0.4,9.1-0.4,13.5C332.3,272.6,331,277,328.9,280.9z"/>
</g>
<g>
	<path class="st4" d="M336,276.2c0.8-3.5,1.4-7.1,1.7-10.7c0.3-3.6,0.4-7.2,0.2-10.8c-0.5-7.1-2-14.2-5.1-20.6
		c-0.7-1.6-1.7-3.1-2.6-4.6c-0.9-1.5-2.1-2.9-3.1-4.3c-1-1.4-2.4-2.6-3.6-4c-0.6-0.6-1.3-1.3-1.9-2l-1.8-2.1
		c-4.5-5.7-8.9-11.9-10.4-19.2c1.2,3.5,2.9,6.6,5,9.5c2,3,4.3,5.8,6.7,8.4l1.8,2l1.9,1.9c1.3,1.3,2.7,2.5,3.8,4
		c1.1,1.5,2.3,2.9,3.3,4.5c0.9,1.6,2,3.2,2.7,4.9c3.2,6.7,4.7,14.2,4.8,21.5C339.7,262,338.5,269.4,336,276.2z"/>
</g>
<g>
	<path class="st4" d="M325.7,181.9c7.2,0.9,14.3,3.5,20.7,7.1c3.2,1.8,6.3,4,9.1,6.5c2.8,2.5,5.3,5.5,7.3,8.7
		c2,3.3,3.5,6.8,4.5,10.5c0.9,3.7,1.2,7.6,1,11.3c-0.5,7.5-3,14.7-6.7,20.9c1.9-7,3.2-14.1,3-21c-0.2-6.9-2.1-13.6-5.8-19.3
		c-3.5-5.8-8.7-10.6-14.4-14.6C338.7,188.1,332.4,184.7,325.7,181.9z"/>
</g>
<g>
	<path class="st4" d="M354.3,253c-0.1-2.6-0.1-5.3-0.4-7.9c-0.2-2.6-0.4-5.2-0.8-7.8c-0.7-5.2-1.6-10.3-3.2-15.2
		c-1.5-4.9-3.6-9.7-6.2-14.1c-2.8-4.3-6.4-8.1-10.6-11.3c2.3,1.3,4.7,2.6,6.6,4.4c2.1,1.7,3.7,3.8,5.5,5.9c3.1,4.4,5.4,9.3,7,14.4
		c1.6,5.1,2.4,10.4,2.7,15.7C355.2,242.5,355.2,247.8,354.3,253z"/>
</g>
<g>
	<path class="st4" d="M311.1,183.8c3.8,1.3,7.4,3.6,10,6.9c0.7,0.8,1.2,1.7,1.6,2.7c0.4,0.9,0.9,1.8,1.4,2.6c1,1.7,2,3.4,3.1,5.1
		l6.6,10.1l3.4,5c1.1,1.7,2.2,3.5,3.1,5.3c3.7,7.3,5.8,15.5,6.2,23.6c0.4,8.1-0.6,16.4-3.4,24c0.9-3.9,1.5-7.9,1.7-11.9
		c0.3-4,0.2-8-0.2-11.9c-0.8-7.9-2.9-15.7-6.5-22.7c-0.9-1.8-1.9-3.5-3-5.1c-1.1-1.6-2.3-3.4-3.3-5.1c-2.1-3.4-4.3-6.8-6.2-10.4
		c-1-1.8-2-3.5-2.9-5.4c-0.5-0.9-0.9-1.9-1.3-2.8c-0.4-0.9-0.8-1.7-1.4-2.5C318,188,314.7,185.5,311.1,183.8z"/>
</g>
</svg>
