<?xml version="1.0" encoding="utf-8"?>
<!-- Generator: Adobe Illustrator 21.0.0, SVG Export Plug-In . SVG Version: 6.00 Build 0)  -->
<svg version="1.1" id="Livello_1" xmlns="http://www.w3.org/2000/svg" xmlns:xlink="http://www.w3.org/1999/xlink" x="0px" y="0px"
	 viewBox="0 0 841.9 373.4" style="enable-background:new 0 0 841.9 373.4;" xml:space="preserve">
<style type="text/css">
	.st0{fill:none;stroke:#A3D6E8;stroke-width:3;stroke-miterlimit:10;}
	.st1{fill:#73B4C6;}
	.st2{fill:#405082;}
	.st3{fill:#F4BE89;}
	.st4{fill:#DDA87C;}
	.st5{fill:#EAC9AC;}
	.st6{fill:#7D4012;}
</style>
<g>
	<circle class="st0" cx="166.9" cy="197.7" r="100.4"/>
</g>
<path class="st1" d="M312.2,173.3c-0.7,1.4-1.4,3.1-2,5.1c-0.7,2-1.3,4.2-2,6.5c-0.7,2.3-1.4,4.7-2.2,7.1c-0.8,2.4-1.6,4.6-2.5,6.7
	c-0.9,2.1-2,3.8-3.2,5.4c-1.2,1.5-2.5,2.6-4,3.2c0,0-0.1,0.1-0.1,0.1c-0.6,0.2-1.2,0.4-1.9,0.5c-1.9,0.3-3.6,0.1-5.1-0.6
	c-0.8-0.4-1.5-0.9-2.1-1.5c-0.6-0.6-1.1-1.3-1.4-2.1c-0.1-0.2-0.1-0.4-0.2-0.6c-0.1-0.2-0.1-0.4-0.2-0.7c-0.1-0.7-0.1-1.3-0.1-2
	c0-0.6,0.1-1.2,0.3-1.8c0.2-0.8,0.5-1.5,0.9-2.2c0.4-0.7,0.9-1.3,1.4-1.8c1.2-1.1,2.5-1.8,3.8-2c0.9-0.2,1.7-0.1,2.4,0.1
	c0.3,0.1,0.5,0.2,0.7,0.5c0.1,0.3,0.2,0.5,0.1,0.9c-0.1,0.3-0.2,0.5-0.5,0.6c-0.3,0.2-0.6,0.2-0.8,0.1c-0.4-0.1-0.9-0.1-1.5-0.1
	c-0.5,0.1-0.9,0.2-1.4,0.5s-0.9,0.6-1.2,1c-0.9,0.8-1.4,1.8-1.8,3c-0.2,0.9-0.3,1.8-0.2,2.8c0,0.2,0.1,0.3,0.1,0.4
	c0,0.1,0.1,0.2,0.2,0.4c0.4,1.1,1.2,1.9,2.3,2.5c1.1,0.5,2.4,0.7,3.8,0.5c0.4-0.1,0.9-0.2,1.4-0.4l0.1-0.1c1.2-0.5,2.4-1.4,3.4-2.8
	c1-1.4,1.9-3.1,2.8-5s1.6-4,2.3-6.3c0.7-2.3,1.4-4.5,2-6.7c0.7-2.4,1.4-4.6,2-6.7c0.7-2.1,1.4-3.9,2.1-5.3c0.3-0.5,0.6-1,0.9-1.4
	s0.7-0.8,1.1-1.2c0.8-0.7,1.7-1.2,2.7-1.3c0.3-0.1,0.5,0,0.8,0.2c0.2,0.2,0.4,0.4,0.5,0.7c0.1,0.3,0,0.6-0.2,0.8
	c-0.2,0.2-0.4,0.4-0.7,0.5c-0.5,0-1,0.3-1.7,0.8C313.2,171.9,312.7,172.6,312.2,173.3z M322.3,168.3c1.1,1,1.9,2.2,2.5,3.5
	c0.6,1.3,0.8,2.7,0.8,4.2c0,1.2-0.2,2.5-0.5,3.8c-0.1,0.6-0.3,1.2-0.5,1.8c-0.2,0.6-0.5,1.2-0.7,1.8c-0.6,1.1-1.2,2.1-2,2.9
	c-0.4,0.4-0.8,0.8-1.2,1.2c-0.4,0.4-0.9,0.7-1.4,1c-1.7,1-3.5,1.6-5.3,1.7c-0.9,0.1-1.8,0-2.7-0.2c-0.9-0.2-1.8-0.5-2.7-0.8
	c-0.3-0.1-0.5-0.3-0.6-0.6c-0.1-0.3-0.2-0.6-0.1-0.8c0.1-0.3,0.3-0.5,0.6-0.6c0.3-0.1,0.6-0.1,0.8,0c0.8,0.3,1.6,0.5,2.3,0.6
	c0.8,0.2,1.5,0.2,2.2,0.2c1.5-0.1,2.9-0.5,4.2-1.3c0.4-0.2,0.8-0.5,1.1-0.8c0.3-0.3,0.7-0.6,1-1c0.7-0.7,1.2-1.6,1.7-2.5
	c0.3-0.5,0.5-1,0.7-1.5c0.2-0.5,0.3-1,0.5-1.6c0.3-1.2,0.4-2.3,0.4-3.3c0-1.1-0.2-2.2-0.6-3.3c-0.4-1.1-1.1-2-2-2.8
	c-0.8-0.7-1.7-1.3-2.9-1.7c-1.1-0.4-2.5-0.7-4-0.7c-1-0.1-1.9,0-2.8,0.1c-0.9,0.2-1.7,0.4-2.5,0.6c-1.6,0.6-3.1,1.4-4.4,2.6
	c-0.9,0.9-1.7,1.8-2.3,2.8c-0.3,0.5-0.6,1.1-0.9,1.7c-0.3,0.6-0.5,1.2-0.7,1.8c-0.2,0.5-0.3,0.9-0.4,1.4c-0.1,0.4-0.2,0.9-0.3,1.4
	c-0.1,0.5-0.1,1-0.2,1.5c-0.1,0.5-0.1,1.1-0.2,1.6c0,0.2,0,0.3,0,0.4c0,0.1,0,0.2,0,0.4v0.9c0,0.3-0.1,0.5-0.3,0.7
	c-0.2,0.2-0.5,0.3-0.8,0.3s-0.6-0.1-0.8-0.3c-0.2-0.2-0.3-0.5-0.3-0.7v-0.9c0-0.4,0-0.8,0.1-0.9c0-0.6,0.1-1.2,0.2-1.7
	c0.1-0.6,0.2-1.1,0.3-1.6c0.2-1.1,0.5-2.1,0.8-3.1c0.5-1.4,1.1-2.7,1.9-3.9c0.8-1.2,1.6-2.3,2.6-3.3c0.8-0.7,1.6-1.3,2.4-1.8
	c0.8-0.5,1.8-0.9,2.8-1.3c1.9-0.7,3.9-1,6.2-0.9c1.9,0.1,3.5,0.4,4.8,0.9C320.2,166.6,321.4,167.4,322.3,168.3z"/>
<path class="st1" d="M346.4,192.5c0.3,0.1,0.5,0.3,0.6,0.6c0.1,0.3,0.1,0.6,0,0.8l-0.1,0.2c-0.5,1.1-1,2.3-1.6,3.5
	c-0.6,1.2-1.3,2.4-2.1,3.5c-0.8,1.1-1.6,2-2.6,2.7c-0.9,0.7-2,1.1-3.2,1.1h-0.1c-0.7,0-1.3-0.1-1.8-0.4c-0.5-0.3-0.9-0.6-1.2-1.1
	c-0.3-0.4-0.5-0.9-0.6-1.3c-0.1-0.5-0.2-1-0.2-1.5v-0.1c-0.9,1.3-1.9,2.3-3,3.1c-1.1,0.8-2.3,1.2-3.6,1.2c-1.4,0-2.5-0.6-3.2-1.8
	c-0.4-0.5-0.6-1.1-0.8-1.8c-0.1-0.7-0.2-1.5-0.2-2.3c0-0.7,0.1-1.6,0.3-2.6c0.2-1,0.5-2.1,0.8-3.3s0.8-2.4,1.3-3.6
	c0.5-1.2,1.1-2.3,1.7-3.4c1-1.6,2.1-2.9,3.3-4c1.2-1.1,2.6-1.6,4-1.7h0.5c0.7,0.1,1.3,0.3,1.9,0.6c0.6,0.3,1.1,0.7,1.6,1.2
	c0.2,0.3,0.5,0.7,0.7,1c0.2-0.4,0.3-0.9,0.5-1.2c0.1-0.4,0.3-0.7,0.4-1.1c0.1-0.3,0.3-0.5,0.6-0.6c0.3-0.1,0.6-0.1,0.8,0
	c0.3,0.1,0.5,0.3,0.6,0.6c0.1,0.3,0.1,0.6,0,0.8c-0.3,0.8-0.6,1.8-1.1,3c-0.5,1.2-1,2.5-1.5,4c-0.3,1-0.7,1.9-1,2.8
	c-0.3,0.9-0.6,1.7-0.9,2.4c-0.6,1.5-0.9,2.8-1.2,3.9c-0.2,0.6-0.3,1.1-0.4,1.6c-0.1,0.4-0.1,0.8-0.1,1.2v0.1c0,0.3,0,0.6,0.1,0.9
	c0.1,0.3,0.1,0.5,0.3,0.7c0.2,0.3,0.6,0.5,1.2,0.5c0.8,0,1.5-0.3,2.2-0.9c0.7-0.6,1.4-1.4,2-2.3c0.6-0.9,1.2-1.9,1.7-3.1
	c0.5-1.1,1-2.1,1.4-3.1l0.1-0.2c0.1-0.3,0.3-0.5,0.6-0.6C345.8,192.3,346.1,192.3,346.4,192.5z M327.2,202.5c1,0,2-0.4,2.9-1.2
	c0.9-0.8,1.8-1.9,2.5-3.2c0.8-1.3,1.5-2.7,2.1-4.2s1.2-3,1.7-4.3c0.2-0.6,0.5-1.1,0.6-1.6c0.2-0.5,0.4-1,0.5-1.4
	c0-0.1,0.1-0.2,0.1-0.4c-0.1-1.2-0.4-2.2-0.9-2.8c-0.6-0.6-1.3-1-2.1-1c-0.1,0-0.2-0.1-0.3-0.1c-1,0-2,0.5-2.9,1.3
	c-0.9,0.9-1.8,1.9-2.6,3.3c-0.6,1-1.1,2.1-1.6,3.2c-0.5,1.1-0.9,2.2-1.2,3.3c-0.3,1.1-0.6,2.1-0.8,3c-0.2,0.9-0.3,1.8-0.3,2.4
	c0,1.3,0.2,2.3,0.6,2.9C326.1,202.2,326.6,202.5,327.2,202.5z"/>
<path class="st1" d="M358.1,187.4c0.7,1.2,1.4,2.5,2,3.8c0.6,1.3,0.9,2.7,1,4.3v0.1v0.1c0,1.6-0.3,2.9-0.9,4
	c-0.6,1.1-1.3,2.1-2.2,2.8c-0.9,0.8-1.9,1.3-3,1.7c-1.1,0.4-2.2,0.6-3.3,0.6h-0.1c-0.1,0-0.2,0-0.3,0c-0.1,0-0.2,0-0.2,0
	c-1.1-0.1-2.1-0.3-3-0.7c-0.9-0.4-1.6-1-2.3-1.7c-0.6-0.7-1.1-1.5-1.4-2.4c-0.3-0.9-0.5-1.8-0.5-2.7v-0.5c0.1-1,0.3-1.9,0.6-2.8
	c0.4-0.9,0.9-1.7,1.5-2.4c0.6-0.7,1.3-1.2,2.1-1.5c0.8-0.4,1.7-0.6,2.7-0.6c0.6,0,1.2,0.1,1.9,0.4c0.6,0.3,1.2,0.7,1.7,1.2
	c0.4,0.4,0.8,1,1,1.6c0.3,0.6,0.4,1.3,0.4,2c0,0.3-0.1,0.6-0.3,0.8c-0.2,0.2-0.5,0.3-0.8,0.3s-0.6-0.1-0.8-0.3
	c-0.2-0.2-0.3-0.5-0.3-0.8c0-0.9-0.3-1.6-0.9-2.2c-0.5-0.6-1.1-0.9-1.9-0.9c-0.7,0-1.3,0.1-1.9,0.4c-0.6,0.3-1,0.6-1.4,1.1
	c-0.5,0.5-0.9,1.1-1.1,1.7c-0.3,0.7-0.4,1.4-0.5,2v0.3c0,1.4,0.5,2.6,1.4,3.6c0.4,0.5,1,0.9,1.6,1.2c0.6,0.3,1.4,0.5,2.1,0.6
	c0.1,0,0.2,0.1,0.4,0.1h0.1c0.9,0,1.7-0.2,2.6-0.5c0.9-0.3,1.7-0.7,2.4-1.3c0.7-0.6,1.2-1.3,1.7-2.2c0.4-0.9,0.6-1.9,0.7-3.1v-0.1
	c0-1.2-0.3-2.4-0.9-3.6c-0.6-1.2-1.2-2.3-1.8-3.4c-0.2-0.3-0.3-0.5-0.4-0.7c-0.1-0.2-0.3-0.5-0.4-0.7c-0.4,0.4-0.7,0.8-1,1.2
	c-0.2,0.2-0.5,0.4-0.7,0.4c-0.3,0-0.6-0.1-0.8-0.3c-0.2-0.2-0.4-0.4-0.4-0.7c0-0.3,0.1-0.6,0.2-0.8c0.6-0.7,1.1-1.3,1.7-1.9l0.1-0.1
	c-0.3-0.7-0.5-1.5-0.7-2.2c-0.1-0.8-0.1-1.5,0-2.3c0-0.4,0.2-0.9,0.4-1.4c0,0,0-0.1,0-0.1s0,0,0-0.1c0.2-0.4,0.5-0.9,0.9-1.2
	c0.3-0.3,0.7-0.6,1.1-0.7c0.4-0.2,0.8-0.3,1.2-0.3c0.8,0.1,1.4,0.4,1.8,0.9c0.4,0.4,0.6,1,0.7,1.8c0,0.2,0,0.5-0.1,0.7
	c0,0.2-0.1,0.5-0.2,0.7c-0.1,0.3-0.1,0.5-0.2,0.8c-0.1,0.2-0.2,0.5-0.3,0.7c-0.3,0.6-0.6,1.2-1,1.7c-0.4,0.5-0.8,1-1.2,1.5
	c0.2,0.3,0.4,0.7,0.6,1S357.9,187,358.1,187.4z M356,183c0.2-0.3,0.4-0.6,0.6-0.9c0.2-0.3,0.4-0.6,0.5-1c0.1-0.2,0.1-0.4,0.2-0.5
	c0.1-0.2,0.1-0.4,0.2-0.5c0.1-0.3,0.1-0.7,0.1-0.9c0-0.2,0-0.4-0.1-0.4c0,0-0.1-0.1-0.2-0.1c-0.1,0-0.2,0-0.4,0.1
	c-0.2,0.1-0.4,0.3-0.5,0.4c-0.2,0.2-0.3,0.4-0.4,0.6l-0.1,0.1c-0.1,0.3-0.2,0.6-0.3,0.9C355.7,181.5,355.8,182.3,356,183z"/>
<path class="st1" d="M377.1,192.5c0.3,0.1,0.5,0.3,0.6,0.6c0.1,0.3,0.1,0.6-0.1,0.8c-0.6,1.2-1.1,2.2-1.6,3.2c-0.5,1-1,1.8-1.6,2.6
	c-1.1,1.6-2.2,2.9-3.4,3.7c-0.6,0.4-1.3,0.7-2,0.9c-0.7,0.2-1.4,0.4-2.2,0.4h-0.1c-0.5,0-1-0.1-1.5-0.3c-0.5-0.2-0.9-0.5-1.2-0.9
	c-0.7-0.8-1.1-1.9-1.1-3.2v-0.1v-0.1c0-0.8,0.2-1.9,0.6-3.2c0.2-0.6,0.4-1.3,0.5-2c0.2-0.7,0.4-1.4,0.7-2.1c0.1-0.3,0.2-0.7,0.4-1.2
	c0.2-0.5,0.4-1.2,0.7-2c0.3-0.8,0.6-1.6,0.9-2.5c0.3-0.9,0.6-1.7,1-2.6c0-0.1,0.1-0.4,0.3-0.8s0.3-0.9,0.5-1.5h-3.3
	c-0.3,0-0.6-0.1-0.8-0.3c-0.2-0.2-0.3-0.5-0.3-0.8c0-0.3,0.1-0.5,0.3-0.7c0.2-0.2,0.5-0.3,0.8-0.3h4c0.1-0.2,0.1-0.4,0.2-0.6
	s0.1-0.4,0.2-0.6c0.2-0.7,0.5-1.4,0.7-2.1c0.2-0.7,0.5-1.4,0.7-2c0.2-0.6,0.4-1.1,0.5-1.6c0.2-0.4,0.3-0.7,0.3-0.9
	c0.1-0.3,0.3-0.5,0.6-0.6c0.3-0.1,0.6-0.2,0.8-0.1c0.3,0.1,0.5,0.3,0.6,0.6c0.1,0.3,0.2,0.6,0.1,0.8c-0.1,0.2-0.2,0.5-0.3,0.9
	c-0.2,0.4-0.3,0.9-0.5,1.5c-0.2,0.6-0.4,1.2-0.7,2c-0.2,0.7-0.5,1.4-0.7,2.2c0,0.1-0.1,0.1-0.1,0.2c0,0.1,0,0.1-0.1,0.2h3.5
	c0.3,0,0.6,0.1,0.8,0.3c0.2,0.2,0.3,0.5,0.3,0.7c0,0.3-0.1,0.6-0.3,0.8c-0.2,0.2-0.5,0.3-0.8,0.3H371c-0.2,0.7-0.5,1.3-0.6,1.9
	s-0.3,0.9-0.4,1.1c-0.4,1-0.7,2-1,2.9c-0.3,0.9-0.6,1.6-0.8,2.3c-0.2,0.7-0.4,1.2-0.6,1.8c-0.2,0.5-0.3,1-0.5,1.3
	c-0.3,0.7-0.5,1.4-0.7,2.1c-0.2,0.7-0.4,1.3-0.5,1.9c-0.1,0.6-0.3,1.1-0.3,1.6c-0.1,0.4-0.1,0.8-0.1,1.2v0.1c0,0.8,0.2,1.4,0.5,1.7
	c0.2,0.3,0.6,0.5,1.1,0.5h0.1c0.4,0,0.9-0.1,1.5-0.3c0.5-0.2,1-0.4,1.4-0.7c0.5-0.3,0.9-0.8,1.4-1.3c0.4-0.5,0.9-1.1,1.4-1.8
	c0.5-0.7,1-1.6,1.4-2.5c0.5-0.9,1-2,1.5-3.1c0.1-0.3,0.4-0.5,0.6-0.6C376.5,192.3,376.8,192.3,377.1,192.5z"/>
<path class="st1" d="M386.6,192.5c0.3,0.1,0.5,0.3,0.6,0.6c0.1,0.3,0.1,0.6,0,0.9c-0.5,1-1,2.2-1.6,3.4c-0.6,1.2-1.2,2.3-1.9,3.4
	c-0.8,1.2-1.7,2.1-2.7,2.9c-1,0.8-2.1,1.2-3.3,1.2h-0.1c-0.7,0-1.3-0.1-1.8-0.4c-0.5-0.3-0.9-0.6-1.2-1.1c-0.3-0.4-0.5-0.9-0.6-1.3
	c-0.1-0.5-0.2-1-0.2-1.5v-0.2c0-0.8,0.2-1.9,0.6-3.2c0.2-0.6,0.4-1.3,0.5-2c0.2-0.7,0.4-1.4,0.7-2.1c0.1-0.3,0.2-0.7,0.4-1.2
	c0.2-0.5,0.4-1.2,0.7-2c0.3-0.8,0.6-1.6,0.9-2.5c0.3-0.9,0.6-1.7,1-2.6c0-0.1,0.1-0.3,0.2-0.5c0.1-0.2,0.2-0.5,0.3-0.8l0.9-2.4
	c0.1-0.3,0.2-0.5,0.5-0.6c0.3-0.1,0.6-0.2,0.8-0.1c0.3,0.1,0.5,0.2,0.6,0.5c0.1,0.3,0.2,0.6,0.1,0.8l-0.8,2.4l-0.5,1.3
	c-0.4,1.1-0.7,2-1,2.9c-0.3,0.9-0.6,1.6-0.8,2.3c-0.2,0.7-0.4,1.2-0.6,1.8c-0.2,0.5-0.3,1-0.5,1.3c-0.3,0.7-0.5,1.4-0.7,2.1
	c-0.2,0.7-0.4,1.3-0.5,1.9c-0.1,0.6-0.3,1.1-0.3,1.6c-0.1,0.4-0.1,0.8-0.1,1.2v0.1c0,0.3,0,0.6,0.1,0.9c0.1,0.3,0.1,0.5,0.3,0.7
	c0.2,0.3,0.6,0.5,1.1,0.5h0.1c0.8,0,1.5-0.3,2.2-0.9c0.7-0.6,1.3-1.3,2-2.2c0.7-1,1.3-2.1,1.8-3.2c0.5-1.2,1-2.2,1.5-3.2
	c0.1-0.3,0.3-0.5,0.6-0.6C386,192.3,386.3,192.3,386.6,192.5z M383.2,177.7c-0.5,0-0.9-0.2-1.3-0.5c-0.4-0.3-0.5-0.8-0.5-1.2
	c0-0.5,0.2-0.9,0.5-1.2c0.4-0.3,0.8-0.5,1.3-0.5c0.5,0,0.9,0.2,1.2,0.5s0.5,0.8,0.5,1.2c0,0.5-0.2,0.9-0.5,1.2
	S383.6,177.7,383.2,177.7z"/>
<path class="st1" d="M405.5,192.5c0.3,0.1,0.5,0.3,0.6,0.6c0.1,0.3,0.1,0.6,0,0.8c-1,2.2-2.1,4-3.3,5.4c-1.2,1.4-2.4,2.5-3.7,3.3
	c-1.3,0.8-2.6,1.4-4,1.7c-1.3,0.3-2.7,0.4-4,0.4h-0.1H391c-0.9-0.1-1.8-0.2-2.6-0.5c-0.8-0.3-1.5-0.7-2.1-1.3
	c-0.6-0.6-1.1-1.3-1.4-2.2c-0.3-0.9-0.5-1.9-0.5-3.1v-0.1v-0.1c0.1-1.2,0.3-2.5,0.6-3.8c0.4-1.3,0.8-2.6,1.4-4
	c0.6-1.3,1.3-2.6,2-3.8c0.8-1.2,1.6-2.3,2.4-3.2c0.8-0.8,1.6-1.4,2.5-1.8c0.9-0.5,1.8-0.7,2.7-0.7h0.1h0.2h0.1
	c0.6,0,1.1,0.2,1.7,0.4c0.5,0.2,1,0.6,1.3,1c0.8,0.9,1.1,2,1.1,3.5v0.3c0,0.7-0.1,1.3-0.4,2.1c-0.1,0.3-0.2,0.7-0.4,1
	c-0.2,0.3-0.4,0.6-0.6,0.9c-0.2,0.2-0.4,0.4-0.7,0.4c-0.3,0.1-0.6,0-0.9-0.2c-0.2-0.2-0.4-0.4-0.4-0.7c-0.1-0.3,0-0.6,0.2-0.9
	c0.3-0.3,0.6-0.8,0.7-1.3c0.2-0.4,0.3-0.9,0.3-1.4v-0.2c0-1-0.2-1.7-0.6-2.1c-0.3-0.4-0.8-0.6-1.4-0.7h-0.2c-0.3,0-0.6,0-0.9,0.1
	c-0.3,0.1-0.6,0.2-0.9,0.3c-0.3,0.2-0.6,0.4-1,0.6c-0.3,0.2-0.6,0.5-0.9,0.8c-0.8,0.8-1.5,1.7-2.2,2.8c-0.7,1.1-1.3,2.3-1.9,3.5
	c-0.5,1.2-0.9,2.4-1.3,3.6c-0.3,1.2-0.5,2.3-0.6,3.4v0.1c0,1.6,0.4,2.8,1.2,3.6c0.4,0.4,0.9,0.7,1.4,0.9c0.6,0.2,1.2,0.3,1.9,0.4
	h0.1c1.1,0,2.2-0.1,3.4-0.3c1.2-0.3,2.3-0.7,3.4-1.4c1.1-0.7,2.2-1.7,3.2-2.9c1.1-1.3,2-2.9,2.9-4.8c0.1-0.3,0.3-0.5,0.6-0.6
	C405,192.4,405.3,192.4,405.5,192.5z"/>
<path class="st1" d="M424.5,192.5c0.3,0.1,0.5,0.3,0.6,0.6c0.1,0.3,0.1,0.6,0,0.8c-1,2.2-2.1,4-3.3,5.4c-1.2,1.4-2.4,2.5-3.7,3.3
	c-1.3,0.8-2.6,1.4-4,1.7c-1.3,0.3-2.7,0.4-4,0.4H410H410c-0.9-0.1-1.8-0.2-2.6-0.5c-0.8-0.3-1.5-0.7-2.1-1.3
	c-0.6-0.6-1.1-1.3-1.4-2.2c-0.3-0.9-0.5-1.9-0.5-3.1v-0.1v-0.1c0.1-1.2,0.3-2.5,0.6-3.8c0.4-1.3,0.8-2.6,1.4-4
	c0.6-1.3,1.3-2.6,2-3.8c0.8-1.2,1.6-2.3,2.4-3.2c0.8-0.8,1.6-1.4,2.5-1.8c0.9-0.5,1.8-0.7,2.7-0.7h0.1h0.2h0.1
	c0.6,0,1.1,0.2,1.7,0.4c0.5,0.2,1,0.6,1.3,1c0.8,0.9,1.1,2,1.1,3.5v0.3c0,0.7-0.1,1.3-0.4,2.1c-0.1,0.3-0.2,0.7-0.4,1
	c-0.2,0.3-0.4,0.6-0.6,0.9c-0.2,0.2-0.4,0.4-0.7,0.4c-0.3,0.1-0.6,0-0.9-0.2c-0.2-0.2-0.4-0.4-0.4-0.7c-0.1-0.3,0-0.6,0.2-0.9
	c0.3-0.3,0.6-0.8,0.7-1.3c0.2-0.4,0.3-0.9,0.3-1.4v-0.2c0-1-0.2-1.7-0.6-2.1c-0.3-0.4-0.8-0.6-1.4-0.7h-0.2c-0.3,0-0.6,0-0.9,0.1
	c-0.3,0.1-0.6,0.2-0.9,0.3c-0.3,0.2-0.6,0.4-1,0.6c-0.3,0.2-0.6,0.5-0.9,0.8c-0.8,0.8-1.5,1.7-2.2,2.8c-0.7,1.1-1.3,2.3-1.9,3.5
	c-0.5,1.2-0.9,2.4-1.3,3.6c-0.3,1.2-0.5,2.3-0.6,3.4v0.1c0,1.6,0.4,2.8,1.2,3.6c0.4,0.4,0.9,0.7,1.4,0.9c0.6,0.2,1.2,0.3,1.9,0.4
	h0.1c1.1,0,2.2-0.1,3.4-0.3c1.2-0.3,2.3-0.7,3.4-1.4c1.1-0.7,2.2-1.7,3.2-2.9c1.1-1.3,2-2.9,2.9-4.8c0.1-0.3,0.3-0.5,0.6-0.6
	C424,192.4,424.2,192.4,424.5,192.5z"/>
<path class="st1" d="M443.4,192.5c0.3,0.1,0.5,0.3,0.6,0.6c0.1,0.3,0.1,0.6,0,0.8c-1,2.2-2.1,4-3.3,5.4c-1.2,1.4-2.4,2.5-3.7,3.3
	c-1.3,0.8-2.6,1.4-4,1.7c-1.3,0.3-2.7,0.4-4,0.4h-0.1h-0.1c-0.9-0.1-1.8-0.2-2.6-0.5c-0.8-0.3-1.5-0.7-2.1-1.3
	c-0.6-0.6-1.1-1.3-1.4-2.2c-0.3-0.9-0.5-1.9-0.5-3.1v-0.1v-0.1c0-0.7,0.1-1.4,0.3-2.1s0.3-1.5,0.5-2.2c0,0,0-0.1,0-0.1
	c0,0,0,0,0-0.1c0.3-1.2,0.8-2.3,1.2-3.3c0.6-1.3,1.3-2.6,2-3.8c0.8-1.2,1.6-2.3,2.4-3.2c0.8-0.8,1.6-1.4,2.5-1.8
	c0.9-0.5,1.8-0.7,2.7-0.7c1.2,0,2.1,0.3,2.8,0.8c0.8,0.5,1.3,1.2,1.5,2.2c0.1,0.4,0.1,0.8,0.1,1.2c0,0.4-0.1,0.9-0.3,1.3
	c-0.2,0.7-0.5,1.4-1,2c-0.4,0.6-0.9,1.2-1.5,1.7c-0.7,0.6-1.4,1.1-2.2,1.6c-0.8,0.4-1.6,0.9-2.5,1.2c-1.2,0.5-2.3,0.9-3.4,1.3
	c-1.1,0.3-1.9,0.6-2.5,0.8c-0.2,0.6-0.3,1.2-0.4,1.7c-0.1,0.6-0.1,1.1-0.2,1.6v0.1c0,1.6,0.4,2.8,1.2,3.6c0.4,0.4,0.9,0.7,1.4,0.9
	c0.6,0.2,1.2,0.3,1.9,0.4h0.1c1.1,0,2.2-0.1,3.4-0.3c1.2-0.3,2.3-0.7,3.4-1.4c1.1-0.7,2.2-1.7,3.2-2.9c1.1-1.3,2-2.9,2.9-4.8
	c0.1-0.3,0.3-0.5,0.6-0.6C442.8,192.4,443.1,192.4,443.4,192.5z M426.2,190.7c-0.1,0.2-0.1,0.4-0.2,0.6c-0.1,0.2-0.2,0.4-0.2,0.6
	c0.6-0.2,1.2-0.4,2-0.6s1.5-0.6,2.3-1c0.8-0.3,1.5-0.7,2.2-1.1c0.7-0.4,1.4-0.9,2-1.3c0.9-0.7,1.5-1.6,1.8-2.6
	c0.2-0.6,0.2-1,0.1-1.4c-0.1-0.4-0.3-0.7-0.6-0.8c-0.4-0.3-0.9-0.4-1.6-0.4c-0.6,0-1.2,0.2-1.8,0.5c-0.3,0.2-0.6,0.4-1,0.6
	c-0.3,0.2-0.6,0.5-0.9,0.8c-0.8,0.8-1.5,1.7-2.2,2.8C427.4,188.3,426.8,189.4,426.2,190.7z"/>
<path class="st1" d="M462.4,192.5c0.3,0.1,0.5,0.3,0.6,0.6c0.1,0.3,0.1,0.6,0,0.8l-0.1,0.2c-0.5,1.1-1,2.3-1.6,3.5
	c-0.6,1.2-1.3,2.4-2,3.5c-0.8,1.1-1.6,2-2.6,2.7c-0.9,0.7-2,1.1-3.2,1.1h-0.1c-0.7,0-1.3-0.1-1.8-0.4c-0.5-0.3-0.9-0.6-1.2-1.1
	c-0.3-0.4-0.5-0.9-0.6-1.3c-0.1-0.5-0.2-1-0.2-1.5v-0.2c0-0.8,0.2-1.9,0.6-3.2c0.2-0.6,0.4-1.3,0.5-2s0.4-1.4,0.7-2.1
	c0.2-0.7,0.4-1.3,0.6-1.7c0.1-0.4,0.3-0.8,0.4-1.2c0.2-0.5,0.3-0.9,0.4-1.3c0.1-0.4,0.3-0.8,0.5-1.4l-0.8-0.3
	c-0.8-0.3-1.6-0.6-2.4-0.8c-0.8-0.3-1.6-0.6-2.4-1c-0.1,0.2-0.2,0.5-0.3,0.7c-0.1,0.2-0.2,0.4-0.3,0.6v0.1l-4.2,9.1
	c-0.1,0.3-0.3,0.5-0.6,0.6c-0.3,0.1-0.6,0.1-0.8-0.1c-0.3-0.1-0.5-0.3-0.6-0.6c-0.1-0.3-0.1-0.6,0.1-0.8l4.1-9l0.6-1.6
	c-0.9-0.6-1.5-1.3-2-2c-0.5-0.8-0.7-1.7-0.6-2.8c0.1-0.8,0.4-1.4,1-2c0,0,0-0.1,0.1-0.1c0.6-0.6,1.3-0.8,2.1-0.8
	c0.2,0,0.5,0,0.9,0.1l0.1,0.1c0.4,0.1,0.7,0.3,1,0.5c0.3,0.2,0.5,0.5,0.7,0.8c0.3,0.5,0.4,1.2,0.4,1.9c0,0.4-0.1,1-0.3,1.6
	c-0.1,0.3-0.2,0.6-0.3,0.9c-0.1,0.3-0.2,0.6-0.3,0.9c0.7,0.4,1.5,0.7,2.3,1c0.8,0.3,1.6,0.6,2.4,0.8c0.8,0.2,1.4,0.4,2,0.6
	c0.3,0.1,0.5,0.3,0.6,0.6c0.1,0.3,0.1,0.6,0,0.9v0.1c-0.3,0.8-0.6,1.4-0.7,1.9c-0.2,0.5-0.3,1-0.5,1.6c-0.1,0.4-0.3,0.8-0.4,1.3
	c-0.2,0.5-0.3,1-0.5,1.6c-0.2,0.7-0.5,1.4-0.7,2.1c-0.2,0.7-0.4,1.3-0.5,1.9c-0.2,0.6-0.3,1.1-0.4,1.6c-0.1,0.4-0.1,0.8-0.2,1.2v0.1
	c0,0.3,0,0.6,0.1,0.9c0.1,0.3,0.2,0.5,0.3,0.7c0.1,0.2,0.2,0.3,0.4,0.4c0.2,0.1,0.4,0.1,0.7,0.1c0.8,0,1.6-0.3,2.3-0.9
	c0.7-0.6,1.4-1.4,2-2.3c0.6-0.9,1.2-1.9,1.7-3.1s1-2.1,1.4-3.1l0.1-0.2c0.1-0.3,0.3-0.5,0.6-0.6
	C461.8,192.3,462.1,192.3,462.4,192.5z M447.1,180.8c0.1-0.3,0.2-0.6,0.2-0.9c0-0.3-0.1-0.6-0.2-0.8c-0.1-0.2-0.2-0.3-0.4-0.3h-0.1
	c-0.1,0-0.1,0-0.1,0c0,0-0.1,0-0.1,0c-0.2,0-0.4,0.1-0.6,0.3h-0.1c-0.1,0.1-0.2,0.4-0.3,0.7c-0.1,0.5,0,0.9,0.3,1.3
	c0.2,0.4,0.6,0.8,1,1.1c0.1-0.2,0.1-0.4,0.2-0.6C446.9,181.2,447,181,447.1,180.8z"/>
<path class="st1" d="M471.9,192.5c0.3,0.1,0.5,0.3,0.6,0.6c0.1,0.3,0.1,0.6,0,0.9c-0.5,1-1,2.2-1.6,3.4c-0.6,1.2-1.2,2.3-1.9,3.4
	c-0.8,1.2-1.7,2.1-2.7,2.9c-1,0.8-2.1,1.2-3.3,1.2h-0.1c-0.7,0-1.3-0.1-1.8-0.4c-0.5-0.3-0.9-0.6-1.2-1.1c-0.3-0.4-0.5-0.9-0.6-1.3
	c-0.1-0.5-0.2-1-0.2-1.5v-0.2c0-0.8,0.2-1.9,0.6-3.2c0.2-0.6,0.4-1.3,0.5-2c0.2-0.7,0.4-1.4,0.7-2.1c0.1-0.3,0.2-0.7,0.4-1.2
	c0.2-0.5,0.4-1.2,0.7-2c0.3-0.8,0.6-1.6,0.9-2.5c0.3-0.9,0.6-1.7,1-2.6c0-0.1,0.1-0.3,0.2-0.5c0.1-0.2,0.2-0.5,0.3-0.8l0.9-2.4
	c0.1-0.3,0.2-0.5,0.5-0.6c0.3-0.1,0.6-0.2,0.8-0.1c0.3,0.1,0.5,0.2,0.6,0.5c0.1,0.3,0.2,0.6,0.1,0.8l-0.8,2.4l-0.5,1.3
	c-0.4,1.1-0.7,2-1,2.9c-0.3,0.9-0.6,1.6-0.8,2.3c-0.2,0.7-0.4,1.2-0.6,1.8c-0.2,0.5-0.3,1-0.5,1.3c-0.3,0.7-0.5,1.4-0.7,2.1
	c-0.2,0.7-0.4,1.3-0.5,1.9c-0.1,0.6-0.3,1.1-0.3,1.6c-0.1,0.4-0.1,0.8-0.1,1.2v0.1c0,0.3,0,0.6,0.1,0.9c0.1,0.3,0.1,0.5,0.3,0.7
	c0.2,0.3,0.6,0.5,1.1,0.5h0.1c0.8,0,1.5-0.3,2.2-0.9c0.7-0.6,1.3-1.3,2-2.2c0.7-1,1.3-2.1,1.8-3.2c0.5-1.2,1-2.2,1.5-3.2
	c0.1-0.3,0.3-0.5,0.6-0.6C471.3,192.3,471.6,192.3,471.9,192.5z M468.5,177.7c-0.5,0-0.9-0.2-1.3-0.5c-0.4-0.3-0.5-0.8-0.5-1.2
	c0-0.5,0.2-0.9,0.5-1.2c0.4-0.3,0.8-0.5,1.3-0.5c0.5,0,0.9,0.2,1.2,0.5s0.5,0.8,0.5,1.2c0,0.5-0.2,0.9-0.5,1.2
	S469,177.7,468.5,177.7z"/>
<path class="st1" d="M492.7,192.5c0.3,0.1,0.5,0.3,0.6,0.6c0.1,0.3,0.1,0.6,0,0.8l-0.1,0.2c-0.5,1.1-1,2.3-1.6,3.5
	c-0.6,1.2-1.3,2.4-2.1,3.5c-0.8,1.1-1.6,2-2.6,2.7c-0.9,0.7-2,1.1-3.2,1.1h-0.1c-0.7,0-1.3-0.1-1.8-0.4c-0.5-0.3-0.9-0.6-1.2-1.1
	c-0.3-0.4-0.5-0.9-0.6-1.3c-0.1-0.5-0.2-1-0.2-1.5v-0.1c-0.9,1.3-1.9,2.3-3,3.1c-1.1,0.8-2.3,1.2-3.6,1.2c-1.4,0-2.5-0.6-3.2-1.8
	c-0.4-0.5-0.6-1.1-0.8-1.8c-0.1-0.7-0.2-1.5-0.2-2.3c0-0.7,0.1-1.6,0.3-2.6c0.2-1,0.5-2.1,0.8-3.3s0.8-2.4,1.3-3.6
	c0.5-1.2,1.1-2.3,1.7-3.4c1-1.6,2.1-2.9,3.3-4c1.2-1.1,2.6-1.6,4-1.7h0.5c0.7,0.1,1.3,0.3,1.9,0.6c0.6,0.3,1.1,0.7,1.6,1.2
	c0.2,0.3,0.5,0.7,0.7,1c0.2-0.4,0.3-0.9,0.5-1.2c0.1-0.4,0.3-0.7,0.4-1.1c0.1-0.3,0.3-0.5,0.6-0.6c0.3-0.1,0.6-0.1,0.8,0
	c0.3,0.1,0.5,0.3,0.6,0.6c0.1,0.3,0.1,0.6,0,0.8c-0.3,0.8-0.6,1.8-1.1,3c-0.5,1.2-1,2.5-1.5,4c-0.3,1-0.7,1.9-1,2.8
	c-0.3,0.9-0.6,1.7-0.9,2.4c-0.6,1.5-0.9,2.8-1.2,3.9c-0.2,0.6-0.3,1.1-0.4,1.6c-0.1,0.4-0.1,0.8-0.1,1.2v0.1c0,0.3,0,0.6,0.1,0.9
	c0.1,0.3,0.1,0.5,0.3,0.7c0.2,0.3,0.6,0.5,1.2,0.5c0.8,0,1.5-0.3,2.2-0.9c0.7-0.6,1.4-1.4,2-2.3c0.6-0.9,1.2-1.9,1.7-3.1
	c0.5-1.1,1-2.1,1.4-3.1l0.1-0.2c0.1-0.3,0.3-0.5,0.6-0.6C492.2,192.3,492.5,192.3,492.7,192.5z M473.6,202.5c1,0,2-0.4,2.9-1.2
	s1.8-1.9,2.5-3.2c0.8-1.3,1.5-2.7,2.1-4.2c0.6-1.5,1.2-3,1.7-4.3c0.2-0.6,0.5-1.1,0.6-1.6c0.2-0.5,0.4-1,0.5-1.4
	c0-0.1,0.1-0.2,0.1-0.4c-0.1-1.2-0.4-2.2-0.9-2.8c-0.6-0.6-1.3-1-2.1-1c-0.1,0-0.2-0.1-0.3-0.1c-1,0-2,0.5-2.9,1.3
	c-0.9,0.9-1.8,1.9-2.6,3.3c-0.6,1-1.1,2.1-1.6,3.2c-0.5,1.1-0.9,2.2-1.2,3.3c-0.3,1.1-0.6,2.1-0.8,3c-0.2,0.9-0.3,1.8-0.3,2.4
	c0,1.3,0.2,2.3,0.6,2.9C472.5,202.2,473,202.5,473.6,202.5z"/>
<path class="st2" d="M503.3,164.5c0-0.3,0.2-0.5,0.4-0.7c0.2-0.2,0.5-0.3,0.8-0.2c0.3,0.1,0.5,0.2,0.7,0.4c0.2,0.2,0.3,0.5,0.2,0.8
	v1.2c0.1,1.3,0.6,2.4,1.5,3.3c0.9,0.9,2.2,1.4,3.7,1.6c0.3,0,0.6,0.1,0.8,0.1c0.3,0,0.5,0,0.8,0c1.2-0.1,2.4-0.4,3.7-0.9
	c1.3-0.5,2.5-1.1,3.8-1.8c1.3-0.7,2.5-1.5,3.7-2.3c1.2-0.8,2.4-1.6,3.5-2.4c0.5-0.4,1-0.8,1.5-1.1c0.5-0.3,0.9-0.6,1.3-0.9
	c0.3-0.2,0.5-0.2,0.8-0.2c0.3,0.1,0.5,0.2,0.7,0.5c0.2,0.3,0.3,0.7,0.2,1l-3.2,9.7c1.1-1.4,2.2-2.8,3.4-4c1.2-1.3,2.3-2.3,3.5-3.2
	c0.4-0.3,0.8-0.5,1.3-0.8c0.5-0.2,0.9-0.4,1.4-0.6c0.9-0.3,1.9-0.5,2.9-0.5c2.5,0,4.2,0.6,5.2,1.9c1,1.3,1.5,3,1.5,5.1
	c0,1.1-0.1,2.3-0.3,3.5c-0.2,1.3-0.5,2.6-0.8,3.9c-0.3,1.3-0.7,2.7-1.2,4.1c-0.5,1.4-0.9,2.7-1.3,4l-0.2,0.5
	c-0.2,0.5-0.4,1.1-0.7,1.8s-0.6,1.5-0.9,2.3c-0.5,1.5-1.1,3.1-1.8,4.8c-0.6,1.7-1.2,3.4-1.8,5c-0.5,1.6-1,3.1-1.4,4.4
	c-0.4,1.3-0.5,2.3-0.5,3v0.2c0,0.7,0.1,1.3,0.2,1.9c0.1,0.6,0.3,1.1,0.6,1.6c0.3,0.4,0.7,0.7,1.1,1c0.4,0.3,1,0.4,1.8,0.4h0.1
	c0.3,0,0.5,0.1,0.8,0.3c0.2,0.2,0.3,0.4,0.3,0.7c0,0.3-0.1,0.5-0.3,0.8c-0.2,0.2-0.5,0.3-0.8,0.3H540c-1.1,0-2.1-0.2-2.8-0.6
	c-0.7-0.4-1.3-1-1.8-1.7c-0.4-0.6-0.7-1.3-0.9-2.2c-0.2-0.8-0.3-1.7-0.3-2.5v-0.2c0-0.8,0.2-1.9,0.6-3.3c0.4-1.4,0.8-2.9,1.4-4.6
	c0.5-1.7,1.1-3.4,1.8-5.2c0.6-1.8,1.2-3.4,1.8-4.9c0.3-0.8,0.6-1.6,0.9-2.3c0.3-0.7,0.5-1.3,0.7-1.8l0.2-0.5
	c0.4-1.2,0.9-2.5,1.3-3.8c0.4-1.3,0.8-2.6,1.2-3.9c0.4-1.3,0.7-2.5,0.9-3.7c0.2-1.2,0.3-2.3,0.3-3.3c0-1.4-0.4-2.6-1-3.5
	c-0.7-0.9-1.8-1.3-3.5-1.3c-0.4,0-0.7,0-1.1,0.1c-0.4,0.1-0.7,0.2-1.1,0.3c-0.7,0.3-1.4,0.7-2.1,1.2c-0.9,0.7-1.8,1.5-2.7,2.4
	c-0.9,0.9-1.8,1.9-2.7,3c-0.9,1.1-1.8,2.2-2.6,3.4c-0.9,1.2-1.7,2.4-2.4,3.5l-4.1,12.5c-0.1,0.2-0.1,0.5-0.2,0.7
	c-0.1,0.3-0.1,0.5-0.2,0.8c-0.3,1-0.6,2.1-1.1,3.3c-0.4,1.2-0.9,2.4-1.5,3.4c-0.6,1-1.3,1.9-2.1,2.6c-0.8,0.7-1.8,1.1-2.9,1.1h-0.1
	c-0.8-0.1-1.5-0.4-2-0.9c-0.2-0.3-0.4-0.6-0.5-1c-0.1-0.4-0.2-0.8-0.2-1.3v-0.1v-0.1v-0.1c0-1,0.4-2.1,1-3.5c0.6-1.3,1.3-2.7,2.1-4
	c0.8-1.3,1.6-2.5,2.4-3.6c0.8-1.1,1.4-1.9,1.9-2.5c0.1-0.1,0.1-0.1,0.2-0.2c0.1-0.1,0.1-0.1,0.1-0.2c0-0.1,0.1-0.1,0.1-0.2
	c0.3-0.4,0.6-0.9,1-1.5c0.4-0.6,0.8-1.2,1.2-1.9c0.4-0.7,0.9-1.4,1.4-2.2c0.5-0.8,1-1.6,1.6-2.4l4.3-13.3c-1.2,0.8-2.4,1.7-3.6,2.6
	c-1.3,0.9-2.6,1.7-3.9,2.4c-1.4,0.7-2.7,1.4-4.1,1.9c-1.4,0.5-2.7,0.8-4.1,1c-0.4,0-0.7,0-1,0c-0.3,0-0.7,0-1-0.1
	c-1-0.1-2-0.4-2.8-0.7c-0.8-0.4-1.6-0.9-2.2-1.5c-1.3-1.2-2-2.8-2.2-4.8c0-0.3,0-0.5,0-0.7S503.2,164.8,503.3,164.5z M519.6,191.4
	l1.5-4.6c-0.2,0.4-0.4,0.7-0.7,1c-0.1,0.2-0.3,0.4-0.5,0.7c-0.4,0.5-1,1.3-1.8,2.4c-0.8,1-1.5,2.2-2.3,3.4c-0.8,1.2-1.4,2.4-2,3.6
	c-0.6,1.2-0.9,2.2-0.9,3v0.1c0,0.3,0.1,0.6,0.2,0.8c0.1,0.1,0.3,0.2,0.4,0.2h0.1c0.7,0,1.3-0.3,1.9-0.9c0.5-0.6,1-1.4,1.5-2.2
	c0.4-0.9,0.8-1.9,1.2-2.9c0.3-1,0.6-2,0.9-2.8c0.1-0.3,0.1-0.6,0.2-0.8C519.4,191.9,519.5,191.6,519.6,191.4z"/>
<path class="st2" d="M567.8,191c0.3,0.1,0.5,0.4,0.6,0.7c0.1,0.3,0.1,0.6-0.1,0.9l-0.1,0.2c-0.5,1.2-1.1,2.4-1.7,3.7
	c-0.6,1.3-1.4,2.5-2.2,3.7c-0.8,1.1-1.7,2.1-2.7,2.8c-1,0.7-2.1,1.1-3.3,1.1h-0.1h-0.1c-0.7,0-1.4-0.1-1.9-0.4
	c-0.5-0.3-0.9-0.7-1.2-1.2c-0.2-0.3-0.4-0.7-0.5-1.1c-0.1-0.4-0.2-0.8-0.3-1.2c-0.8,1.1-1.7,2.1-2.7,2.8s-2.1,1.1-3.3,1.1h-0.1
	c-0.7,0-1.4-0.1-1.9-0.4c-0.5-0.3-0.9-0.7-1.3-1.2c-0.3-0.4-0.5-0.9-0.6-1.4s-0.2-1-0.2-1.6v-0.2c0-0.8,0.2-2,0.6-3.4
	c0.2-0.7,0.4-1.4,0.6-2.1c0.2-0.7,0.4-1.5,0.7-2.2c0.1-0.4,0.3-1,0.6-1.8c0.3-0.8,0.6-1.7,1-2.7c0.5-1.3,1-2.6,1.5-4.1
	c0.5-1.4,1-2.9,1.6-4.2c0.1-0.3,0.3-0.5,0.6-0.6c0.3-0.1,0.6-0.1,0.9,0c0.3,0.1,0.5,0.3,0.6,0.6c0.1,0.3,0.1,0.6,0,0.9
	c-0.6,1.6-1.1,3.1-1.6,4.6c-0.5,1.4-1,2.7-1.4,3.8c-0.4,1-0.7,1.9-1,2.6c-0.3,0.8-0.5,1.4-0.6,1.8c-0.3,0.8-0.5,1.5-0.7,2.2
	c-0.2,0.7-0.4,1.4-0.6,2c-0.1,0.6-0.3,1.2-0.4,1.6c-0.1,0.5-0.1,0.9-0.1,1.3v0.1c0,0.3,0,0.6,0.1,1c0.1,0.3,0.2,0.6,0.3,0.8
	c0.3,0.4,0.7,0.5,1.3,0.5c0.8,0,1.6-0.3,2.4-1c0.7-0.7,1.5-1.5,2.1-2.5c0.7-1,1.3-2.1,1.8-3.2c0.6-1.2,1.1-2.3,1.5-3.3v-0.1
	c0,0,0.1-0.1,0.1-0.2c0.1-0.4,0.4-1,0.6-1.8c0.3-0.8,0.6-1.7,1-2.7c0.5-1.3,1-2.6,1.5-4.1c0.5-1.4,1-2.9,1.5-4.2
	c0.1-0.3,0.3-0.5,0.6-0.6c0.3-0.1,0.6-0.1,0.9,0c0.3,0.1,0.5,0.3,0.7,0.6c0.1,0.3,0.2,0.6,0.1,0.9c-0.6,1.6-1.2,3.1-1.7,4.6
	c-0.5,1.4-1,2.7-1.4,3.8c-0.4,1-0.7,1.9-0.9,2.6s-0.5,1.4-0.7,1.8v0.1c0,0,0,0.1,0,0.1c0,0,0,0.1,0,0.1c-0.3,0.7-0.5,1.4-0.7,2.1
	c-0.2,0.7-0.4,1.3-0.5,1.8c-0.3,1.2-0.5,2.2-0.5,2.9v0.1c0,0.3,0,0.6,0.1,1c0.1,0.3,0.2,0.6,0.3,0.8c0.3,0.4,0.7,0.5,1.2,0.5h0.1
	c0.8,0,1.6-0.3,2.4-1c0.7-0.7,1.5-1.5,2.1-2.5c0.7-1,1.3-2.1,1.8-3.2c0.5-1.2,1-2.3,1.5-3.3l0.1-0.2c0.1-0.3,0.3-0.5,0.6-0.6
	C567.2,190.9,567.5,190.9,567.8,191z"/>
<path class="st2" d="M589.1,191c0.3,0.1,0.5,0.3,0.6,0.6c0.1,0.3,0.1,0.6,0,0.9c-0.1,0.2-0.1,0.4-0.2,0.5c-0.1,0.2-0.1,0.4-0.2,0.5
	c-0.1,0.1-0.2,0.3-0.2,0.4c-0.1,0.1-0.2,0.3-0.2,0.5c-0.4,0.7-0.8,1.4-1.2,2.1c-0.4,0.7-0.9,1.3-1.5,1.9c-0.6,0.6-1.3,1.1-2.1,1.5
	c-0.8,0.4-1.7,0.5-2.7,0.5c-0.5,0-1.1-0.1-1.5-0.2c-0.9-0.3-1.7-0.7-2.4-1.3c-1,1.4-2.2,2.6-3.5,3.5c-1.3,1-2.6,1.5-3.9,1.5
	c-1.5,0-2.6-0.4-3.3-1.2c-0.7-0.8-1.2-1.8-1.3-3c-0.2-1.2-0.1-2.6,0.2-4.1c0.3-1.5,0.7-3,1.2-4.5c0.5-1.5,1-2.9,1.6-4.2
	c0.6-1.3,1.1-2.4,1.6-3.2c1-1.7,2.2-3.1,3.5-4.2c1.3-1.1,2.7-1.7,4.2-1.7h0.1c0.8,0,1.6,0.2,2.3,0.5c0.7,0.3,1.3,0.7,1.8,1.3
	c0.4,0.5,0.8,1.1,1,1.9c0.3,0.7,0.4,1.6,0.3,2.6c0,0.9-0.1,1.8-0.3,2.9c-0.2,1-0.5,2.1-0.9,3.3c-0.4,1.1-0.8,2.3-1.3,3.4
	s-1.1,2.2-1.7,3.3c0.4,0.5,0.9,0.9,1.6,1c0.4,0.1,0.7,0.1,0.9,0.1c0.7,0,1.3-0.1,1.8-0.4c0.5-0.3,1-0.6,1.4-1c0.5-0.5,0.9-1,1.3-1.6
	c0.4-0.6,0.7-1.2,1-1.8c0.1-0.1,0.1-0.3,0.2-0.4c0.1-0.1,0.1-0.3,0.2-0.5c0.1-0.1,0.1-0.3,0.2-0.5c0.1-0.2,0.1-0.3,0.2-0.5
	c0.1-0.3,0.3-0.5,0.6-0.6C588.5,190.9,588.8,190.9,589.1,191z M577.3,191c0.3,0.1,0.5,0.2,0.7,0.5c0.2,0.3,0.2,0.6,0.1,0.9
	c-0.1,0.2-0.1,0.4-0.2,0.7c0,0.2-0.1,0.4-0.1,0.6c0.8-1.6,1.5-3.3,2-5c0.5-1.7,0.7-3.2,0.8-4.4c0-1.2-0.2-2.2-0.8-2.8
	c-0.3-0.3-0.6-0.6-1-0.7c-0.4-0.2-0.9-0.3-1.4-0.3c-1.1,0-2.1,0.4-3,1.3c-0.9,0.9-1.8,2-2.6,3.4c-0.4,0.6-0.8,1.4-1.3,2.4
	c-0.5,1-0.9,2.2-1.4,3.4c-0.5,1.2-0.8,2.5-1.2,3.8c-0.3,1.3-0.5,2.4-0.5,3.5c0,1,0.1,1.9,0.5,2.5c0.4,0.7,1,1,1.9,1
	c1,0,2.1-0.5,3.1-1.4c1.1-0.9,2.1-2.1,3-3.3c-0.3-0.7-0.4-1.6-0.4-2.6c0-0.9,0.1-1.8,0.4-2.6c0.1-0.3,0.2-0.6,0.5-0.7
	C576.7,190.9,577,190.9,577.3,191z"/>
<path class="st2" d="M608,191c0.3,0.1,0.5,0.3,0.6,0.6c0.1,0.3,0.1,0.6,0,0.9c-0.1,0.2-0.1,0.4-0.2,0.5c-0.1,0.2-0.1,0.4-0.2,0.5
	c-0.1,0.1-0.1,0.3-0.2,0.4c-0.1,0.1-0.2,0.3-0.3,0.5c-0.4,0.7-0.8,1.4-1.2,2.1c-0.4,0.7-0.9,1.3-1.5,1.9c-0.6,0.6-1.3,1.1-2.1,1.5
	c-0.8,0.4-1.7,0.5-2.7,0.5c-0.5,0-1.1-0.1-1.5-0.2c-0.4-0.1-0.8-0.3-1.2-0.5c-0.4-0.2-0.7-0.5-1.1-0.8c-0.1,0.2-0.3,0.4-0.4,0.5
	c-0.1,0.2-0.2,0.4-0.4,0.5c-0.9,1.2-1.9,2.1-2.8,2.8c-1,0.7-2,1.1-3,1.1h-0.1c-0.7,0-1.4-0.2-1.9-0.5c-0.5-0.3-0.9-0.6-1.2-1.1
	c-0.3-0.4-0.5-0.9-0.6-1.4s-0.2-1-0.2-1.6v-0.2c0-0.8,0.2-2,0.6-3.4c0.2-0.7,0.4-1.4,0.6-2.1c0.2-0.7,0.4-1.5,0.7-2.2
	c0.1-0.4,0.3-1,0.6-1.8c0.3-0.8,0.6-1.7,1-2.7c0.5-1.3,1-2.6,1.5-4.1c0.5-1.4,1-2.9,1.5-4.2c0.1-0.3,0.3-0.5,0.6-0.6
	c0.3-0.1,0.6-0.1,0.9,0c0.3,0.1,0.5,0.3,0.6,0.6c0.1,0.3,0.1,0.6,0,0.9c-0.6,1.6-1.1,3.1-1.6,4.6c-0.5,1.4-1,2.7-1.4,3.8
	c-0.4,1-0.7,1.9-1,2.6c-0.3,0.8-0.5,1.4-0.6,1.8c-0.3,0.8-0.5,1.5-0.7,2.2c-0.2,0.7-0.4,1.4-0.6,2c-0.1,0.6-0.3,1.2-0.4,1.6
	c-0.1,0.5-0.1,0.9-0.1,1.3v0.1c0,0.3,0,0.6,0.1,1c0.1,0.3,0.2,0.6,0.3,0.8c0.3,0.3,0.7,0.5,1.2,0.5h0.1c0.7,0,1.3-0.3,2-0.8
	c0.7-0.5,1.3-1.3,2-2.2c0.2-0.3,0.4-0.6,0.6-0.9c0.2-0.3,0.4-0.6,0.6-0.9c-0.3-0.8-0.4-1.6-0.4-2.6c0-0.9,0.1-1.8,0.4-2.6
	c0.1-0.3,0.3-0.6,0.5-0.7c0.3-0.1,0.6-0.2,0.9-0.1c0.3,0.1,0.5,0.2,0.7,0.5c0.2,0.3,0.2,0.6,0.1,0.9c-0.1,0.2-0.1,0.4-0.2,0.7
	c0,0.2-0.1,0.4-0.1,0.6c0.3-0.4,0.5-0.8,0.7-1.3c0.2-0.4,0.4-0.9,0.7-1.4c1.2-2.3,2.3-4.5,3.4-6.6c0.5-1.1,1.1-2.1,1.5-3.1
	c0.5-1,0.9-1.9,1.3-2.7c0.1-0.3,0.4-0.5,0.7-0.6c0.3-0.1,0.6-0.1,0.9,0.1c0.3,0.1,0.5,0.4,0.6,0.7c0.1,0.3,0.1,0.6-0.1,0.9
	c-0.4,0.9-0.9,1.8-1.4,2.8c-0.5,0.9-1,2-1.5,3s-1,2.1-1.6,3.3c-0.6,1.1-1.2,2.3-1.8,3.4c-0.4,0.8-0.9,1.7-1.3,2.5
	c-0.4,0.8-0.9,1.6-1.4,2.4c0.5,0.5,1,0.9,1.6,1c0.2,0,0.3,0.1,0.5,0.1c0.1,0,0.3,0,0.5,0c0.7,0,1.3-0.1,1.8-0.4c0.5-0.3,1-0.6,1.4-1
	c0.5-0.5,0.9-1,1.3-1.6c0.4-0.6,0.7-1.2,1-1.8c0.1-0.1,0.1-0.3,0.2-0.4c0.1-0.1,0.1-0.3,0.2-0.5c0.1-0.1,0.1-0.3,0.2-0.5
	c0.1-0.2,0.1-0.3,0.2-0.5c0.1-0.3,0.4-0.5,0.7-0.6C607.4,190.9,607.7,190.9,608,191z"/>
<path class="st2" d="M630.1,191c0.3,0.1,0.5,0.4,0.6,0.7c0.1,0.3,0.1,0.6,0,0.9l-0.1,0.2c-0.5,1.2-1.1,2.4-1.7,3.7s-1.4,2.5-2.2,3.7
	c-0.8,1.1-1.7,2.1-2.7,2.8c-1,0.7-2.1,1.1-3.3,1.1h-0.1c-0.7,0-1.4-0.1-1.9-0.4c-0.5-0.3-0.9-0.7-1.3-1.2c-0.3-0.4-0.5-0.9-0.6-1.4
	c-0.1-0.5-0.2-1-0.2-1.6v-0.1c-0.9,1.4-2,2.5-3.1,3.3c-1.2,0.9-2.4,1.3-3.8,1.2c-1.5,0-2.7-0.7-3.4-1.9c-0.4-0.5-0.7-1.2-0.8-1.9
	c-0.1-0.7-0.2-1.6-0.2-2.4c0-0.8,0.1-1.7,0.3-2.8c0.2-1.1,0.5-2.3,0.9-3.5c0.4-1.2,0.8-2.5,1.4-3.8c0.5-1.3,1.2-2.5,1.8-3.6
	c1-1.7,2.2-3.1,3.5-4.2c1.3-1.1,2.7-1.7,4.3-1.8h0.5c0.7,0.1,1.4,0.3,2.1,0.6c0.6,0.3,1.2,0.8,1.7,1.3c0.3,0.3,0.5,0.7,0.7,1.1
	c0.2-0.5,0.3-0.9,0.5-1.3c0.1-0.4,0.3-0.8,0.4-1.2c0.1-0.3,0.3-0.5,0.6-0.6c0.3-0.1,0.6-0.1,0.9,0c0.3,0.1,0.5,0.3,0.6,0.6
	c0.1,0.3,0.1,0.6,0,0.9c-0.3,0.8-0.7,1.9-1.2,3.1c-0.5,1.3-1,2.7-1.6,4.2c-0.4,1-0.7,2-1.1,3c-0.3,1-0.6,1.8-0.9,2.6
	c-0.6,1.6-1,3-1.3,4.2c-0.2,0.6-0.3,1.2-0.4,1.6c-0.1,0.5-0.1,0.9-0.1,1.3v0.1c0,0.3,0,0.6,0.1,1c0.1,0.3,0.2,0.6,0.3,0.8
	c0.3,0.4,0.7,0.5,1.3,0.5c0.8,0,1.6-0.3,2.4-1c0.7-0.7,1.5-1.5,2.1-2.5c0.7-1,1.3-2.1,1.8-3.2c0.6-1.2,1.1-2.3,1.5-3.3l0.1-0.2
	c0.1-0.3,0.4-0.5,0.7-0.6C629.5,190.9,629.8,190.9,630.1,191z M609.8,201.6c1.1,0,2.1-0.4,3.1-1.3c1-0.9,1.9-2,2.7-3.4
	c0.8-1.4,1.6-2.9,2.2-4.5c0.7-1.6,1.3-3.1,1.8-4.5c0.3-0.6,0.5-1.1,0.7-1.7c0.2-0.5,0.4-1,0.6-1.5c0-0.1,0.1-0.2,0.1-0.4
	c-0.1-1.3-0.4-2.3-1-3c-0.6-0.7-1.4-1-2.2-1.1c-0.1,0-0.2-0.1-0.3-0.1c-1.1,0-2.1,0.5-3,1.4c-1,0.9-1.9,2.1-2.7,3.5
	c-0.6,1.1-1.2,2.2-1.7,3.3c-0.5,1.2-0.9,2.3-1.3,3.5c-0.3,1.1-0.6,2.2-0.8,3.2c-0.2,1-0.3,1.9-0.3,2.5c0,1.4,0.2,2.4,0.6,3.1
	C608.6,201.3,609.1,201.6,609.8,201.6z"/>
<path class="st2" d="M665.7,170.1c-0.3,0.3-0.6,0.6-0.9,0.9c-0.3,0.3-0.5,0.7-0.7,1.1c-0.8,1.4-1.5,3.1-2.1,5
	c-0.6,1.9-1.2,3.8-1.9,5.9c-0.7,2.2-1.3,4.3-2.1,6.5c-0.7,2.2-1.5,4.2-2.5,6.1s-2,3.5-3.2,4.9c-1.2,1.4-2.6,2.4-4.2,3
	c-0.3,0.1-0.7,0.2-1,0.3c-0.3,0.1-0.7,0.2-1,0.2c-1.9,0.3-3.7,0.1-5.4-0.7c-1.7-0.8-2.9-2-3.6-3.7c0,0,0-0.1,0-0.1s0,0,0-0.1
	c-0.1-0.2-0.1-0.4-0.2-0.7c-0.1-0.2-0.1-0.5-0.2-0.7c-0.2-1.3-0.1-2.6,0.2-3.9v-0.1c0.2-0.8,0.5-1.6,1-2.3c0.4-0.7,0.9-1.3,1.5-1.9
	c1.2-1.2,2.5-1.9,4-2.1c0.8-0.1,1.7-0.1,2.6,0.1c0.3,0.1,0.5,0.3,0.7,0.5c0.1,0.3,0.2,0.6,0.1,0.9c-0.1,0.3-0.3,0.5-0.5,0.7
	c-0.3,0.2-0.6,0.2-0.9,0.1c-0.5-0.1-1-0.2-1.6-0.1c-1,0.2-2,0.7-2.8,1.5c-0.9,0.8-1.5,1.9-1.9,3.1v0.1c-0.3,1-0.3,1.9-0.2,3
	c0,0.3,0.1,0.6,0.3,0.9v0.1c0.5,1.2,1.3,2,2.5,2.5c1.2,0.6,2.6,0.7,4.1,0.5c0.3-0.1,0.5-0.1,0.8-0.2c0.3-0.1,0.5-0.1,0.8-0.2
	c1.4-0.5,2.5-1.4,3.6-2.7c1-1.3,2-2.8,2.8-4.5c0.8-1.7,1.6-3.6,2.2-5.6s1.3-4.1,1.9-6.1c0.6-2.1,1.3-4.1,1.9-6.1
	c0.7-1.9,1.4-3.7,2.1-5.2c0.3-0.5,0.6-1,1-1.5c0.4-0.5,0.7-0.9,1.2-1.3c0.9-0.7,1.8-1.2,2.8-1.4c0.3-0.1,0.6,0,0.9,0.2
	c0.3,0.2,0.4,0.5,0.5,0.8c0.1,0.3,0,0.6-0.2,0.8c-0.2,0.3-0.5,0.4-0.8,0.5C666.8,169.3,666.3,169.6,665.7,170.1z M675.3,167.2
	c1.1,1.1,1.8,2.2,2.3,3.6c0.5,1.3,0.7,2.7,0.6,4.1v0.1c-0.1,1.7-0.5,3.3-1.3,5c-0.8,1.6-2,3.1-3.6,4.4c-1.6,1.3-3.6,2.2-5.9,2.9
	c1.5,1.1,2.5,2.5,3,4.3c0.5,1.8,0.7,3.8,0.7,5.8c0,1.2-0.1,2.4-0.2,3.6c-0.1,1.2-0.2,2.3-0.4,3.4c-0.1,0.8-0.1,1.5-0.2,2.2
	c-0.1,0.7-0.1,1.2-0.2,1.8v0.2h0.1c0,0.7,0.1,1.3,0.2,1.9c0.1,0.6,0.3,1.1,0.6,1.6c0.3,0.4,0.7,0.7,1.1,1c0.4,0.2,1,0.4,1.7,0.4h0.1
	c0.3,0,0.6,0.1,0.8,0.4c0.2,0.2,0.4,0.5,0.4,0.9c0,0.3-0.1,0.6-0.4,0.8c-0.2,0.2-0.5,0.4-0.8,0.4h-0.1c-1.2,0-2.1-0.3-2.9-0.7
	c-0.7-0.4-1.4-1-1.8-1.7c-0.4-0.7-0.7-1.4-0.9-2.2c-0.2-0.8-0.3-1.7-0.3-2.5v-0.2c0-0.6,0.1-1.3,0.2-2c0.1-0.7,0.1-1.4,0.2-2.2
	c0.1-1.1,0.3-2.2,0.4-3.3s0.2-2.3,0.2-3.4c0-1.2-0.1-2.4-0.2-3.5c-0.2-1.1-0.5-2.1-1-3c-0.5-0.9-1.2-1.6-2.1-2.1
	c-0.9-0.5-2-0.8-3.5-0.8h-0.1h-0.1h-0.1h-0.1h-0.1l-0.1-0.1h-0.1h-0.1l-0.1-0.1h-0.1l-0.1-0.1h-0.1v-0.1c0,0-0.1,0-0.1-0.1h-0.1
	l-0.1-0.1l-0.1-0.1v-0.1c0,0-0.1,0-0.1,0c0,0,0,0-0.1,0c0,0,0-0.1-0.1-0.1l-0.1-0.1v-0.1l-0.1-0.1v-0.1v-0.1v-0.1v-0.1v-0.1v-0.1
	v-0.1l0.1-0.1v-0.1v-0.1l0.1-0.1v-0.1h0.1v-0.1c0,0,0-0.1,0.1-0.1l0.1-0.1V186l0.1-0.1c0,0,0.1,0,0.1-0.1h0.1c0,0,0-0.1,0.1-0.1
	c0,0,0.1-0.1,0.1-0.1v-0.1h0.1c0,0,0-0.1,0.1-0.1h0.1v-0.1h0.1h0.1c2.2-0.1,4.1-0.4,5.7-1c1.6-0.6,3-1.3,4.2-2.2
	c1.3-1.1,2.3-2.2,3-3.6c0.7-1.3,1-2.6,1.1-4v-0.1c0-1.1-0.1-2.2-0.5-3.2c-0.4-1-1-2-1.8-2.8c-0.8-0.8-1.9-1.5-3.1-2
	c-1.2-0.5-2.7-0.8-4.4-0.9H666h-0.6c-2.2,0-4.2,0.4-6,1.2c-1.8,0.8-3.4,1.9-4.7,3.4c-1.4,1.5-2.4,3.4-3.2,5.5
	c-0.8,2.1-1.2,4.6-1.3,7.3c0,0.1,0,0.2,0,0.4c0,0.1,0,0.3,0,0.5c0,0.3-0.1,0.6-0.3,0.8c-0.2,0.2-0.5,0.3-0.8,0.3
	c-0.3,0-0.6-0.1-0.8-0.3s-0.4-0.5-0.4-0.8c0-0.1,0-0.3,0-0.5c0-0.2,0-0.4,0.1-0.6c0.1-3,0.5-5.7,1.4-8.1c0.9-2.4,2.1-4.4,3.6-6.2
	c1.5-1.8,3.4-3.1,5.5-4c2.1-0.9,4.4-1.4,6.9-1.4c0.1,0,0.2,0,0.2,0c0.1,0,0.2,0,0.4,0h0.2c2,0.1,3.8,0.4,5.3,1.1
	C673,165.3,674.3,166.1,675.3,167.2z"/>
<path class="st2" d="M698.8,191c0.3,0.1,0.5,0.4,0.6,0.7c0.1,0.3,0.1,0.6,0,0.9c-1.1,2.3-2.2,4.2-3.5,5.7c-1.2,1.5-2.6,2.7-3.9,3.5
	c-1.4,0.9-2.8,1.5-4.2,1.8c-1.4,0.3-2.8,0.5-4.2,0.4h-0.1h-0.1c-1-0.1-1.9-0.3-2.8-0.5c-0.9-0.3-1.6-0.7-2.2-1.4
	c-0.7-0.6-1.2-1.4-1.5-2.3c-0.4-0.9-0.5-2-0.5-3.2v-0.1v-0.1c0-0.7,0.1-1.5,0.3-2.2c0.1-0.8,0.3-1.6,0.5-2.4c0,0,0-0.1,0-0.1
	s0,0,0-0.1c0.4-1.2,0.8-2.4,1.3-3.5c0.6-1.4,1.3-2.8,2.2-4.1c0.8-1.3,1.7-2.4,2.5-3.3c0.8-0.8,1.7-1.5,2.7-1.9
	c0.9-0.5,1.9-0.8,2.9-0.8c1.2,0,2.2,0.3,3,0.8c0.8,0.5,1.3,1.3,1.6,2.3c0.1,0.4,0.1,0.8,0.1,1.3c0,0.5-0.1,0.9-0.3,1.4
	c-0.2,0.7-0.6,1.4-1,2.1c-0.5,0.7-1,1.3-1.6,1.8c-0.7,0.6-1.5,1.2-2.4,1.6c-0.9,0.5-1.7,0.9-2.7,1.3c-1.3,0.5-2.5,1-3.6,1.4
	c-1.1,0.4-2,0.6-2.7,0.8c-0.2,0.6-0.3,1.2-0.4,1.8c-0.1,0.6-0.2,1.2-0.2,1.7v0.1c0,1.7,0.4,3,1.3,3.8c0.4,0.4,0.9,0.7,1.5,0.9
	c0.6,0.2,1.3,0.3,2,0.4h0.1c1.2,0,2.4-0.1,3.6-0.4c1.2-0.3,2.4-0.8,3.6-1.5c1.2-0.7,2.3-1.8,3.4-3.1c1.1-1.3,2.1-3,3-5.1
	c0.1-0.3,0.4-0.5,0.7-0.6C698.2,190.9,698.5,190.9,698.8,191z M680.7,189.1c-0.1,0.2-0.2,0.4-0.2,0.6c-0.1,0.2-0.2,0.4-0.2,0.6
	c0.6-0.2,1.3-0.4,2.1-0.7c0.8-0.3,1.6-0.6,2.4-1c0.8-0.4,1.6-0.8,2.4-1.2c0.8-0.4,1.5-0.9,2.1-1.4c0.9-0.8,1.6-1.7,1.9-2.8
	c0.2-0.6,0.2-1.1,0.1-1.5c-0.1-0.4-0.3-0.7-0.6-0.9c-0.4-0.3-1-0.4-1.7-0.4c-0.6,0-1.3,0.2-1.9,0.5c-0.3,0.2-0.7,0.4-1,0.7
	c-0.3,0.3-0.7,0.5-1,0.9c-0.8,0.8-1.6,1.8-2.3,3C681.9,186.6,681.3,187.8,680.7,189.1z"/>
<path class="st2" d="M721.4,191c0.3,0.1,0.5,0.3,0.6,0.6c0.1,0.3,0.1,0.6,0,0.9c-0.9,2.1-1.9,3.9-2.8,5.5c-1,1.6-2,2.9-3.1,4.1
	c-1.1,1.2-2.2,2.2-3.4,3c-1.2,0.8-2.4,1.5-3.7,2c-0.5,0.2-1,0.4-1.4,0.6c-0.5,0.2-1,0.3-1.5,0.5l-0.7,1.9c-0.4,1.1-0.8,2.2-1.2,3.3
	c-0.4,1.1-0.9,2.1-1.5,2.9c-0.7,1-1.4,1.8-2.4,2.4c-0.9,0.6-2,0.9-3.3,1c-0.2,0-0.4,0-0.6,0c-0.2,0-0.4,0-0.6-0.1
	c-0.9-0.1-1.6-0.3-2.3-0.6s-1.2-0.7-1.6-1.2c-0.4-0.5-0.8-1.1-1-1.7c-0.2-0.6-0.3-1.2-0.4-1.8c0-0.4,0-0.6,0.1-0.8
	c0.1-1.2,0.4-2.2,1-2.9c0.5-0.7,1.2-1.3,2.1-1.8c0.8-0.4,1.8-0.8,2.9-1c1.1-0.3,2.3-0.5,3.6-0.7c0.7-0.1,1.4-0.3,2.1-0.4
	c0.7-0.1,1.4-0.3,2.2-0.5c0.3-0.8,0.6-1.6,0.8-2.4c0.3-0.8,0.5-1.5,0.8-2.3c-0.8,0.8-1.6,1.4-2.5,1.9c-0.9,0.5-1.9,0.7-2.9,0.7
	c-1.6,0-2.7-0.7-3.5-1.9c-0.4-0.5-0.6-1.2-0.8-1.9c-0.1-0.7-0.2-1.6-0.2-2.4c0-0.8,0.2-1.7,0.4-2.8c0.2-1.1,0.5-2.3,0.9-3.5
	c0.4-1.2,0.8-2.5,1.4-3.8c0.5-1.3,1.1-2.5,1.8-3.6c1-1.7,2.2-3.1,3.5-4.2c1.3-1.1,2.7-1.7,4.2-1.8h0.5c0.7,0.1,1.4,0.3,2.1,0.6
	c0.6,0.3,1.2,0.8,1.7,1.3c0.3,0.4,0.6,0.8,0.8,1.2c0.2-0.4,0.3-0.8,0.5-1.2c0.1-0.4,0.2-0.7,0.4-1l0.1-0.1v-0.1
	c0.1-0.3,0.3-0.5,0.6-0.7c0.3-0.1,0.6-0.1,0.9,0c0.3,0.1,0.5,0.3,0.7,0.6c0.1,0.3,0.2,0.6,0.1,0.9l-0.1,0.1v0.1
	c-0.3,0.6-0.5,1.4-0.9,2.2c-0.3,0.9-0.7,1.8-1,2.8c-0.4,1-0.7,1.9-1.1,2.9s-0.7,1.9-1,2.7c-0.4,1.2-0.9,2.5-1.4,3.9
	c-0.5,1.3-1,2.8-1.5,4.3c-0.4,1.1-0.8,2.2-1.2,3.3c-0.4,1.1-0.7,2.2-1.2,3.3c0.2-0.1,0.4-0.1,0.5-0.2c0.2-0.1,0.4-0.1,0.5-0.2
	c1.1-0.5,2.2-1.1,3.3-1.8c1-0.7,2.1-1.6,3-2.6c1-1.1,2-2.3,2.9-3.7c0.9-1.4,1.8-3.1,2.6-5.1c0.1-0.3,0.3-0.5,0.6-0.6
	C720.9,190.9,721.1,190.9,721.4,191z M703.4,208.6c-0.5,0.1-1,0.2-1.5,0.3c-0.5,0.1-1,0.2-1.5,0.3c-1,0.2-2,0.4-2.9,0.5
	c-0.9,0.2-1.7,0.4-2.4,0.7c-0.7,0.3-1.2,0.7-1.6,1.2c-0.4,0.5-0.7,1.1-0.7,1.9v0.5c0.1,0.8,0.3,1.5,0.8,2c0.6,0.6,1.4,1,2.5,1.1
	c0.1,0,0.3,0.1,0.4,0.1s0.3,0,0.5,0c0.9,0,1.6-0.3,2.2-0.7c0.6-0.4,1.2-1,1.6-1.6c0.5-0.8,1-1.6,1.3-2.6c0.4-1,0.8-2,1.1-3
	L703.4,208.6z M700.6,201.7c1.1,0,2.1-0.4,3.1-1.3c0.9-0.9,1.8-2,2.7-3.4c0.8-1.4,1.6-2.9,2.3-4.5c0.7-1.6,1.3-3.1,1.9-4.5
	c0.5-1.2,0.9-2.3,1.3-3.1v-0.4c0-1.2-0.3-2.2-1-3c-0.5-0.7-1.3-1-2.2-1.1c-0.1,0-0.2-0.1-0.3-0.1c-1.1,0-2.1,0.5-3.1,1.4
	c-1,0.9-1.9,2.1-2.7,3.5c-0.6,1.1-1.2,2.2-1.7,3.3c-0.5,1.2-0.9,2.3-1.3,3.5c-0.3,1.1-0.6,2.2-0.8,3.2c-0.2,1-0.3,1.9-0.3,2.5
	c-0.1,1.4,0.1,2.4,0.5,3.1C699.4,201.4,699.9,201.7,700.6,201.7z"/>
<path class="st2" d="M744.1,191c0.3,0.1,0.5,0.3,0.6,0.6c0.1,0.3,0.1,0.6,0,0.9c-0.9,2.1-1.9,3.9-2.8,5.5c-1,1.6-2,2.9-3.1,4.1
	c-1.1,1.2-2.2,2.2-3.4,3c-1.2,0.8-2.4,1.5-3.7,2c-0.5,0.2-1,0.4-1.4,0.6c-0.5,0.2-1,0.3-1.5,0.5l-0.7,1.9c-0.4,1.1-0.8,2.2-1.2,3.3
	c-0.4,1.1-0.9,2.1-1.5,2.9c-0.7,1-1.4,1.8-2.4,2.4c-0.9,0.6-2,0.9-3.3,1c-0.2,0-0.4,0-0.6,0c-0.2,0-0.4,0-0.6-0.1
	c-0.9-0.1-1.6-0.3-2.3-0.6c-0.7-0.3-1.2-0.7-1.6-1.2c-0.4-0.5-0.8-1.1-1-1.7c-0.2-0.6-0.3-1.2-0.4-1.8c0-0.4,0-0.6,0.1-0.8
	c0.1-1.2,0.4-2.2,1-2.9c0.5-0.7,1.2-1.3,2.1-1.8c0.8-0.4,1.8-0.8,2.9-1c1.1-0.3,2.3-0.5,3.6-0.7c0.7-0.1,1.4-0.3,2.1-0.4
	c0.7-0.1,1.4-0.3,2.2-0.5c0.3-0.8,0.6-1.6,0.8-2.4c0.3-0.8,0.5-1.5,0.8-2.3c-0.8,0.8-1.6,1.4-2.5,1.9c-0.9,0.5-1.9,0.7-2.9,0.7
	c-1.6,0-2.7-0.7-3.5-1.9c-0.4-0.5-0.6-1.2-0.8-1.9c-0.1-0.7-0.2-1.6-0.2-2.4c0-0.8,0.2-1.7,0.4-2.8c0.2-1.1,0.5-2.3,0.9-3.5
	c0.4-1.2,0.8-2.5,1.4-3.8c0.5-1.3,1.1-2.5,1.8-3.6c1-1.7,2.2-3.1,3.5-4.2c1.3-1.1,2.7-1.7,4.2-1.8h0.5c0.7,0.1,1.4,0.3,2.1,0.6
	c0.6,0.3,1.2,0.8,1.7,1.3c0.3,0.4,0.6,0.8,0.8,1.2c0.2-0.4,0.3-0.8,0.5-1.2c0.1-0.4,0.2-0.7,0.4-1l0.1-0.1v-0.1
	c0.1-0.3,0.3-0.5,0.6-0.7c0.3-0.1,0.6-0.1,0.9,0c0.3,0.1,0.5,0.3,0.7,0.6c0.1,0.3,0.2,0.6,0.1,0.9l-0.1,0.1v0.1
	c-0.3,0.6-0.5,1.4-0.9,2.2c-0.3,0.9-0.7,1.8-1,2.8c-0.4,1-0.7,1.9-1.1,2.9s-0.7,1.9-1,2.7c-0.4,1.2-0.9,2.5-1.4,3.9
	c-0.5,1.3-1,2.8-1.5,4.3c-0.4,1.1-0.8,2.2-1.2,3.3c-0.4,1.1-0.7,2.2-1.2,3.3c0.2-0.1,0.4-0.1,0.5-0.2c0.2-0.1,0.4-0.1,0.5-0.2
	c1.1-0.5,2.2-1.1,3.3-1.8c1-0.7,2.1-1.6,3-2.6c1-1.1,2-2.3,2.9-3.7c0.9-1.4,1.8-3.1,2.6-5.1c0.1-0.3,0.3-0.5,0.6-0.6
	C743.5,190.9,743.8,190.9,744.1,191z M726.1,208.6c-0.5,0.1-1,0.2-1.5,0.3c-0.5,0.1-1,0.2-1.5,0.3c-1,0.2-2,0.4-2.9,0.5
	c-0.9,0.2-1.7,0.4-2.4,0.7c-0.7,0.3-1.2,0.7-1.6,1.2c-0.4,0.5-0.7,1.1-0.7,1.9v0.5c0.1,0.8,0.3,1.5,0.8,2c0.6,0.6,1.4,1,2.5,1.1
	c0.1,0,0.3,0.1,0.4,0.1c0.1,0,0.3,0,0.5,0c0.9,0,1.6-0.3,2.2-0.7c0.6-0.4,1.2-1,1.6-1.6c0.5-0.8,1-1.6,1.3-2.6c0.4-1,0.8-2,1.1-3
	L726.1,208.6z M723.3,201.7c1.1,0,2.1-0.4,3.1-1.3c0.9-0.9,1.8-2,2.7-3.4c0.8-1.4,1.6-2.9,2.3-4.5c0.7-1.6,1.3-3.1,1.9-4.5
	c0.5-1.2,0.9-2.3,1.3-3.1v-0.4c0-1.2-0.3-2.2-1-3c-0.5-0.7-1.3-1-2.2-1.1c-0.1,0-0.2-0.1-0.3-0.1c-1.1,0-2.1,0.5-3.1,1.4
	c-1,0.9-1.9,2.1-2.7,3.5c-0.6,1.1-1.2,2.2-1.7,3.3c-0.5,1.2-0.9,2.3-1.3,3.5c-0.3,1.1-0.6,2.2-0.8,3.2c-0.2,1-0.3,1.9-0.3,2.5
	c-0.1,1.4,0.1,2.4,0.5,3.1C722,201.4,722.6,201.7,723.3,201.7z"/>
<path class="st2" d="M754.3,191c0.3,0.1,0.5,0.3,0.6,0.6c0.1,0.3,0.1,0.6,0,0.9c-0.5,1.1-1.1,2.3-1.7,3.6c-0.6,1.3-1.3,2.5-2.1,3.6
	c-0.8,1.2-1.8,2.3-2.8,3.1c-1.1,0.8-2.2,1.2-3.5,1.2h-0.1c-0.7,0-1.4-0.1-1.9-0.4c-0.5-0.3-0.9-0.7-1.3-1.2
	c-0.3-0.4-0.5-0.9-0.6-1.4c-0.1-0.5-0.2-1-0.2-1.6v-0.2c0-0.8,0.2-2,0.6-3.4c0.2-0.7,0.4-1.4,0.6-2.1c0.2-0.7,0.4-1.5,0.7-2.2
	c0.1-0.3,0.2-0.7,0.4-1.3c0.2-0.6,0.5-1.3,0.8-2.1c0.3-0.8,0.6-1.7,0.9-2.7c0.3-0.9,0.7-1.9,1-2.8c0-0.1,0.1-0.3,0.2-0.5
	c0.1-0.2,0.2-0.5,0.3-0.8l0.9-2.5c0.1-0.3,0.3-0.5,0.5-0.7c0.3-0.1,0.6-0.2,0.9-0.1c0.3,0.1,0.5,0.3,0.7,0.5
	c0.1,0.3,0.2,0.6,0.1,0.9l-0.9,2.6l-0.5,1.4c-0.4,1.1-0.8,2.2-1.1,3.1c-0.3,0.9-0.6,1.7-0.9,2.4c-0.3,0.7-0.5,1.3-0.7,1.9
	c-0.2,0.5-0.3,1-0.5,1.4c-0.3,0.8-0.5,1.5-0.7,2.2c-0.2,0.7-0.4,1.4-0.6,2c-0.1,0.6-0.3,1.2-0.4,1.6c-0.1,0.5-0.1,0.9-0.1,1.3v0.1
	c0,0.3,0,0.6,0.1,1c0.1,0.3,0.2,0.6,0.3,0.8c0.3,0.4,0.7,0.5,1.2,0.5h0.1c0.8,0,1.6-0.3,2.4-0.9c0.7-0.6,1.4-1.4,2.1-2.4
	c0.7-1.1,1.4-2.2,1.9-3.4c0.6-1.2,1.1-2.4,1.6-3.4c0.1-0.3,0.4-0.5,0.7-0.6C753.7,190.9,754,190.9,754.3,191z M750.6,175.3
	c-0.5,0-1-0.2-1.3-0.5c-0.4-0.4-0.6-0.8-0.6-1.3c0-0.5,0.2-0.9,0.6-1.3c0.4-0.4,0.8-0.5,1.3-0.5c0.5,0,0.9,0.2,1.3,0.5
	c0.4,0.4,0.5,0.8,0.5,1.3c0,0.5-0.2,0.9-0.5,1.3C751.6,175.2,751.2,175.3,750.6,175.3z"/>
<path class="st2" d="M775.7,191c0.3,0.1,0.5,0.3,0.6,0.6c0.1,0.3,0.1,0.6,0,0.9c-0.1,0.2-0.1,0.4-0.2,0.5c-0.1,0.2-0.1,0.4-0.2,0.5
	c-0.1,0.1-0.2,0.3-0.2,0.4c-0.1,0.1-0.2,0.3-0.2,0.5c-0.4,0.7-0.8,1.4-1.2,2.1c-0.4,0.7-0.9,1.3-1.5,1.9c-0.6,0.6-1.3,1.1-2.1,1.5
	c-0.8,0.4-1.7,0.5-2.7,0.5c-0.5,0-1.1-0.1-1.5-0.2c-0.9-0.3-1.7-0.7-2.4-1.3c-1,1.4-2.2,2.6-3.5,3.5c-1.3,1-2.6,1.5-3.9,1.5
	c-1.5,0-2.6-0.4-3.3-1.2c-0.7-0.8-1.2-1.8-1.3-3c-0.2-1.2-0.1-2.6,0.2-4.1c0.3-1.5,0.7-3,1.2-4.5c0.5-1.5,1-2.9,1.6-4.2
	c0.6-1.3,1.1-2.4,1.6-3.2c1-1.7,2.2-3.1,3.5-4.2c1.3-1.1,2.7-1.7,4.2-1.7h0.1c0.8,0,1.6,0.2,2.3,0.5c0.7,0.3,1.3,0.7,1.8,1.3
	c0.4,0.5,0.8,1.1,1,1.9c0.3,0.7,0.4,1.6,0.3,2.6c0,0.9-0.1,1.8-0.3,2.9c-0.2,1-0.5,2.1-0.9,3.3c-0.4,1.1-0.8,2.3-1.3,3.4
	s-1.1,2.2-1.7,3.3c0.4,0.5,0.9,0.9,1.6,1c0.4,0.1,0.7,0.1,0.9,0.1c0.7,0,1.3-0.1,1.8-0.4c0.5-0.3,1-0.6,1.4-1c0.5-0.5,0.9-1,1.3-1.6
	c0.4-0.6,0.7-1.2,1-1.8c0.1-0.1,0.1-0.3,0.2-0.4c0.1-0.1,0.1-0.3,0.2-0.5c0.1-0.1,0.1-0.3,0.2-0.5c0.1-0.2,0.1-0.3,0.2-0.5
	c0.1-0.3,0.3-0.5,0.6-0.6C775.1,190.9,775.4,190.9,775.7,191z M763.9,191c0.3,0.1,0.5,0.2,0.7,0.5c0.2,0.3,0.2,0.6,0.1,0.9
	c-0.1,0.2-0.1,0.4-0.2,0.7c0,0.2-0.1,0.4-0.1,0.6c0.8-1.6,1.5-3.3,2-5c0.5-1.7,0.7-3.2,0.8-4.4c0-1.2-0.2-2.2-0.8-2.8
	c-0.3-0.3-0.6-0.6-1-0.7c-0.4-0.2-0.9-0.3-1.4-0.3c-1.1,0-2.1,0.4-3,1.3c-0.9,0.9-1.8,2-2.6,3.4c-0.4,0.6-0.8,1.4-1.3,2.4
	c-0.5,1-0.9,2.2-1.4,3.4c-0.5,1.2-0.8,2.5-1.2,3.8c-0.3,1.3-0.5,2.4-0.5,3.5c0,1,0.1,1.9,0.5,2.5c0.4,0.7,1,1,1.9,1
	c1,0,2.1-0.5,3.1-1.4s2.1-2.1,3-3.3c-0.3-0.7-0.4-1.6-0.4-2.6c0-0.9,0.1-1.8,0.4-2.6c0.1-0.3,0.2-0.6,0.5-0.7
	C763.3,190.9,763.6,190.9,763.9,191z"/>
<path class="st3" d="M224.8,211.8c5.8-5.3,11.8-10.7,15.1-17.9c4.9-10.7,2.6-24.4-5.5-32.8c-6.7-7-16.3-9.9-24.8-14.5
	c-3.9-2.1-7.5-4.7-11.5-6.4c-10.2-4.5-21.7-3.8-32.8-3c-1.1,0.1-2.2,0.2-3.2,0.5c-1,0.4-1.8,1-2.7,1.5c-5.8,3.4-12.8,3.4-19.5,3.9
	c-5.6,0.4-11.2,1.3-16.6,2.7c-3.3,0.8-6.7,1.9-9.4,4.2c-1.9,1.6-3.3,3.7-5,5.5c-2.4,2.5-5.4,4.4-7.4,7.3c-3.4,4.9-2.9,11.5-4.7,17.3
	c-1.2,4-3.5,7.7-4.6,11.7c-1.9,7.1-0.2,14.6,1.6,21.8c0.7,2.8,1.7,6,4.3,7.1c1,0.4,2.2,0.5,3.2,0.9c2.6,1.1,3.5,4.4,5.2,6.8
	c2.2,3.1,9.4,8.6,12.6,10.4c10.2,5.6,8.8,10.1,23.9,17.6c10.6,5.2,23.9,12.8,37.8,4.9c4.3-2.5,7.4-12.5,10.9-16.5
	c5.2-6.2,7.7-8.7,13.4-14.4C211.5,224,218.1,217.8,224.8,211.8z"/>
<path class="st4" d="M151.5,260.4l15.4,4.2l7.9-0.9c0,0,8.6,0.1,13.7-14.9s0,0,0,0s12.3-15.3,22.8-24.7c0.5-0.4,1.1-0.8,1.5-1.2
	l23-22.2c0,0,12.7-13.6,3.6-32.4c0,0-18.5,44.3-52.8,63.9"/>
<path class="st5" d="M111.6,227.2c0,0,39.9,33.6,54.7,28.8c0,0,6.4,3.9,17.8-3.1c0,0,9.6-12.1-8.5-15.9l-7.1,0.5
	c0,0-54.5-17.4-59.6-22.6c0,0-15.4-14.7-9.5-31.6C99.3,183.2,88.4,207.2,111.6,227.2z"/>
<path class="st6" d="M185.7,251.3c0.6-1.9,0.7-3.9,0.4-5.7c-0.3-1.9-1.3-3.5-2.8-4.6c-1.4-1.2-3.3-1.6-5.1-2
	c-0.9-0.1-1.9-0.2-2.8-0.3l-2.9,0l0.4-0.1c-0.7,0.2-0.8,0.2-1.2,0.2c-0.3,0-0.6,0-0.9,0c-0.6,0-1.1-0.1-1.7-0.2
	c-1.1-0.1-2.2-0.3-3.2-0.6c-2.1-0.4-4.2-1-6.3-1.6c-4.1-1.2-8.2-2.6-12.2-4c-8-3-15.9-6.2-23.7-9.7c-2-0.9-3.9-1.7-5.8-2.6l-2.9-1.3
	l-0.7-0.3c-0.3-0.1-0.5-0.3-0.8-0.4c-0.5-0.3-1-0.6-1.4-0.9c-3.8-2.4-7-5.5-9.5-9.1c-2.5-3.6-4.1-7.9-4.6-12.2
	c-0.5-4.3,0.1-8.7,1.2-12.8c-0.6,4.2-0.8,8.5,0,12.6c0.8,4.1,2.5,7.9,5.1,11.2c2.5,3.3,5.6,6,9.1,8.1c0.4,0.2,0.9,0.5,1.3,0.7
	c0.2,0.1,0.4,0.2,0.6,0.3l0.7,0.3l2.9,1.2l5.8,2.5c3.9,1.7,7.8,3.3,11.7,4.9c3.9,1.6,7.8,3.2,11.8,4.7c3.9,1.6,7.9,3,11.9,4.3
	c2,0.6,4,1.3,6,1.8c1,0.3,2,0.5,3,0.7c0.5,0.1,1,0.2,1.5,0.2c0.2,0,0.5,0,0.7,0c0.2,0,0.6,0,0.4,0l0.4-0.1l3,0.2c1,0.1,2,0.3,3,0.5
	c2,0.5,4,1.2,5.5,2.7c1.6,1.4,2.5,3.4,2.7,5.4C186.9,247.5,186.4,249.5,185.7,251.3z"/>
<path class="st6" d="M111.6,227.2c5.5,3.9,10.9,7.6,16.5,11.2c5.6,3.6,11.2,7,17.1,10c5.8,3,11.9,5.6,18.2,7.1
	c3.2,0.7,6.4,1.2,9.6,0.9c3.2-0.2,6.4-1.1,9.3-2.8c-2.5,2.3-5.8,3.7-9.1,4.3c-3.4,0.6-6.9,0.4-10.2-0.1c-6.8-1.1-13.1-3.7-19.1-6.7
	c-3-1.6-5.9-3.2-8.7-5c-2.8-1.8-5.6-3.7-8.3-5.7C121.3,236.3,116.2,232,111.6,227.2z"/>
<path class="st6" d="M103.8,171.3c-1.4,3.1-2.1,6.5-2.1,9.9c-0.1,3.4,0.5,6.7,1.6,9.9c0.7,1.6,1.2,3.1,2.1,4.6
	c0.7,1.5,1.8,2.9,2.7,4.2c1,1.4,2.2,2.6,3.3,3.9l3.7,3.5l0,0l0.1,0.1c1.5,1.7,3.6,3.2,5.6,4.6c2.1,1.3,4.2,2.6,6.4,3.7
	c4.4,2.2,8.9,4.2,13.6,5.9c2.3,0.9,4.7,1.6,7,2.4c2.4,0.7,4.7,1.5,7.1,2.1c2.4,0.6,4.8,1.3,7.2,1.9l7.2,1.7l-0.1,0
	c2.6,0.2,5.1,0.8,7.6,1.6c2.4,0.8,4.8,2,6.8,3.6c2,1.6,3.6,3.8,4.4,6.2c0.9,2.4,0.9,5.1,0.5,7.6c0.2-2.5,0.1-5.1-0.9-7.4
	c-0.9-2.4-2.6-4.3-4.5-5.8c-2-1.5-4.3-2.6-6.7-3.3c-2.4-0.7-4.9-1.2-7.3-1.4l0,0l0,0l-7.3-1.6c-2.4-0.6-4.8-1.2-7.2-1.8
	c-2.4-0.7-4.8-1.4-7.2-2.1c-2.4-0.8-4.8-1.5-7.1-2.4c-4.7-1.6-9.3-3.7-13.7-6c-4.4-2.4-8.8-4.9-12.4-8.7l0.1,0.1
	c-1.2-1.2-2.5-2.4-3.7-3.6c-1.1-1.4-2.3-2.6-3.2-4.1c-1-1.4-2-2.9-2.7-4.4c-0.9-1.5-1.4-3.2-2.1-4.8c-1-3.3-1.5-6.8-1.3-10.2
	C101.4,177.8,102.2,174.3,103.8,171.3z"/>
<path class="st6" d="M190.4,245.6c0.2-1.9,0.3-3.9-0.2-5.8c-0.4-1.9-1.2-3.7-2.3-5.2c-1.1-1.5-2.7-2.8-4.3-3.6l0,0
	c-4.5-1.4-7.8-4.9-11.1-7.8c-3.4-2.9-6.9-5.7-10.5-8.2c-3.7-2.5-7.5-4.8-11.4-6.9c-3.9-2.1-8-3.9-12.1-5.5l0.1,0
	c-3.7-1-7.3-2.2-10.7-4c-1.7-0.8-3.3-1.9-4.9-2.9c-1.5-1.1-3.1-2.2-4.5-3.5c-2.9-2.4-5.6-5.2-7.9-8.2c-2.3-3-4.4-6.2-6-9.6l0,0l0,0
	c-0.6-2.1-1-4.4-0.5-6.6c0.5-2.2,1.6-4.2,2.9-5.9c1.4-1.7,3.1-3.1,4.8-4.3c1.8-1.2,3.7-2.3,5.7-3.1c-2,0.9-3.8,2-5.5,3.3
	c-1.7,1.3-3.3,2.7-4.6,4.4c-1.3,1.7-2.2,3.6-2.6,5.7c-0.4,2.1,0,4.2,0.6,6.1l0,0c1.7,3.3,3.8,6.4,6.1,9.3c2.4,2.9,5,5.5,7.9,7.9
	c1.4,1.2,3,2.2,4.5,3.3c1.6,0.9,3.1,2,4.8,2.7c3.3,1.8,6.8,2.9,10.4,3.8l0.1,0l0,0c4.3,1.5,8.3,3.5,12.3,5.6c4,2.1,7.8,4.5,11.5,7.1
	c3.7,2.6,7.2,5.4,10.5,8.4c1.7,1.5,3.2,3.1,4.9,4.5c1.7,1.4,3.6,2.6,5.6,3.3l0,0l0,0c1.9,0.9,3.4,2.3,4.6,3.9
	c1.2,1.6,1.9,3.6,2.2,5.5c0.4,2,0.2,4,0,5.9"/>
<path class="st6" d="M122.6,153c-0.8,1.2-1,2.7-1.1,4.1c0,1.4,0.3,2.8,0.8,4.2c0.9,2.7,2.5,5.1,4.1,7.4c1.7,2.3,3.6,4.4,5.7,6.4
	c2,2,4.2,3.8,6.4,5.7l0,0l17.1,12c5.7,4,11.3,8.1,17,12.1l4.3,3c1.4,1,2.8,2,4.2,3.1c2.7,2.3,5.1,4.9,7.3,7.7c2.1,2.8,3.8,6,4.8,9.4
	c0.9,3.4,1,7.1-0.2,10.4c0.9-3.4,0.7-7-0.4-10.2c-1.1-3.3-2.9-6.3-5-9c-2.1-2.7-4.6-5.1-7.3-7.3c-2.7-2-5.7-4-8.5-6
	c-5.7-4-11.4-8-17.1-12l-17-12.2l0,0l0,0c-2.2-1.9-4.3-3.8-6.3-5.9c-2-2.1-3.9-4.3-5.6-6.6c-1.6-2.4-3.1-4.9-3.9-7.8
	c-0.4-1.4-0.7-2.9-0.6-4.3C121.4,155.7,121.7,154.2,122.6,153z"/>
<path class="st6" d="M196.3,237.4c1.2-4.3,0.8-8.8-0.4-13c-1.2-4.2-3.4-8.1-6.1-11.5c-1.3-1.8-2.9-3.3-4.3-4.9
	c-1.5-1.6-3.2-3-4.9-4.4c-1.8-1.3-3.5-2.7-5.3-3.9l-5.6-3.5l0.1,0c-4.5-2-8.5-4.6-12.3-7.6c-3.7-3-7.2-6.4-10.2-10.2
	c-3-3.8-5.6-7.8-7.6-12.2c-2.1-4.3-3.5-8.9-4.6-13.5l1.1,3.4c0.4,1.1,0.7,2.3,1.2,3.4c0.9,2.2,1.8,4.4,3,6.5
	c2.1,4.2,4.8,8.2,7.8,11.8c0.8,0.9,1.5,1.8,2.3,2.7l2.5,2.5l2.6,2.4c0.9,0.8,1.8,1.5,2.7,2.3c3.7,2.9,7.7,5.4,12,7.4l0.1,0l0,0
	l5.6,3.6c1.8,1.3,3.6,2.7,5.3,4c1.7,1.5,3.4,3,4.9,4.6c1.5,1.7,3.1,3.3,4.3,5.2c2.6,3.6,4.8,7.6,5.9,12c0.5,2.2,0.9,4.4,0.8,6.7
	C197.3,233.1,197,235.3,196.3,237.4z"/>
<path class="st6" d="M199,233.5c0.4-3.5,0.5-6.9,0.3-10.4c-0.2-3.5-0.6-6.9-1.4-10.2c-0.9-3.3-2.2-6.5-3.9-9.4
	c-1.8-2.9-4.1-5.4-6.8-7.4l0.1,0.1c-4.7-2.4-9.1-5-13.4-8c-4.3-3-8.3-6.2-12.1-9.8c-1.9-1.8-3.7-3.7-5.3-5.7c-1.7-2-3.2-4.1-4.6-6.3
	c-2.7-4.4-4.6-9.4-5.1-14.6c0.8,5.1,2.9,9.9,5.8,14.2c2.8,4.3,6.3,8.1,10.1,11.6c3.7,3.5,7.8,6.7,12.1,9.6c4.3,2.9,8.6,5.6,13.2,7.9
	l0.1,0l0,0c2.8,2.2,5.3,4.8,7.1,7.9c1.8,3.1,3,6.5,3.7,9.9c0.7,3.4,1.1,6.9,1.1,10.4C200,226.6,199.7,230,199,233.5z"/>
<path class="st6" d="M155.6,152.5c3.3,1.1,6.5,2.7,9.5,4.5c3,1.8,5.9,3.9,8.5,6.2c2.7,2.3,5.2,4.7,7.4,7.5c2.3,2.7,4.3,5.6,6.1,8.6
	l0-0.1c1.5,2.1,3.2,4.2,4.8,6.2c0.8,1,1.7,2,2.6,2.9c0.9,0.9,1.9,1.8,2.9,2.2l0.1,0.1l0.1,0.1c2.5,2.3,4.4,5,6,7.9
	c1.5,2.9,2.7,6.1,3.2,9.3c0.2,0.8,0.2,1.6,0.3,2.4c0.1,0.8,0.2,1.6,0.2,2.5l0,2.5l-0.2,2.4l-0.1,1.2c-0.1,0.4-0.2,0.8-0.2,1.2
	l-0.5,2.4c-0.4,1.6-1,3.1-1.4,4.7c0.4-1.6,0.8-3.1,1.1-4.7l0.4-2.4c0.1-0.4,0.1-0.8,0.2-1.2l0.1-1.2l0.1-2.4l-0.1-2.4
	c0-0.8-0.1-1.6-0.2-2.4c-0.1-0.8-0.2-1.6-0.4-2.4c-0.6-3.1-1.9-6.1-3.4-8.9c-1.5-2.8-3.5-5.4-5.8-7.4l0.2,0.1
	c-1.5-0.6-2.4-1.6-3.4-2.5c-1-1-1.9-1.9-2.7-3c-1.7-2-3.3-4.2-4.9-6.3l0,0l0,0c-1.8-2.9-3.7-5.9-5.9-8.5c-2.2-2.7-4.6-5.2-7.1-7.6
	c-2.5-2.4-5.3-4.5-8.2-6.4C161.8,155.6,158.8,153.9,155.6,152.5z"/>
<path class="st6" d="M212.1,218.9c2.1-5.3,2.7-11.1,1.8-16.6c-0.9-5.5-3.3-10.7-7-14.9c-1.8-2.1-3.8-4.1-6-5.8l-1.6-1.3
	c-0.6-0.5-1.1-0.9-1.7-1.4c-1.1-1-2.1-2-3.1-3c-1.9-2.1-3.6-4.5-5-7c-1.4-2.5-2.4-5.2-2.8-8.1c0.7,2.8,1.9,5.3,3.4,7.7
	c1.5,2.4,3.3,4.6,5.3,6.6c1,1,2,1.9,3.1,2.9c0.5,0.5,1.1,0.9,1.6,1.3l1.7,1.3c2.3,1.7,4.4,3.7,6.3,5.9c3.7,4.4,6.3,9.9,7,15.7
	c0.3,2.9,0.3,5.8-0.3,8.6C214.3,213.6,213.5,216.4,212.1,218.9z"/>
<path class="st6" d="M216.6,215.9c0.5-2.3,0.9-4.5,1.1-6.8c0.2-2.3,0.3-4.6,0.1-6.9c-0.3-4.5-1.3-9-3.3-13.1c-0.5-1-1.1-2-1.6-3
	c-0.6-1-1.3-1.8-2-2.7c-0.7-0.9-1.5-1.7-2.3-2.5c-0.4-0.4-0.8-0.8-1.2-1.3l-1.1-1.3c-2.9-3.6-5.7-7.6-6.6-12.2
	c0.7,2.2,1.9,4.2,3.2,6.1c1.3,1.9,2.7,3.7,4.3,5.4l1.2,1.2l1.2,1.2c0.8,0.9,1.7,1.6,2.4,2.6c0.7,1,1.5,1.9,2.1,2.9
	c0.6,1,1.2,2,1.7,3.1c2,4.3,3,9,3.1,13.7C219,206.8,218.3,211.5,216.6,215.9z"/>
<path class="st6" d="M210.1,155.8c4.6,0.6,9.1,2.2,13.2,4.5c2.1,1.2,4,2.6,5.8,4.2c1.8,1.6,3.3,3.5,4.7,5.5c1.3,2.1,2.3,4.3,2.9,6.7
	c0.6,2.4,0.8,4.8,0.6,7.2c-0.3,4.8-1.9,9.3-4.3,13.3c1.2-4.5,2-9,1.9-13.4c-0.2-4.4-1.3-8.6-3.7-12.3c-2.3-3.7-5.5-6.7-9.2-9.3
	C218.4,159.7,214.4,157.6,210.1,155.8z"/>
<path class="st6" d="M228.3,201.1c0-1.7-0.1-3.4-0.2-5c-0.1-1.7-0.2-3.3-0.5-5c-0.5-3.3-1-6.6-2-9.7c-1-3.1-2.3-6.2-4-9
	c-1.8-2.8-4.1-5.1-6.7-7.2c1.4,0.8,3,1.6,4.2,2.8c1.4,1.1,2.4,2.4,3.5,3.7c2,2.8,3.4,5.9,4.4,9.2c1,3.3,1.5,6.6,1.7,10
	C228.9,194.4,228.8,197.8,228.3,201.1z"/>
<path class="st6" d="M200.8,157c2.4,0.8,4.7,2.3,6.3,4.4c0.4,0.5,0.8,1.1,1,1.7c0.3,0.6,0.6,1.1,0.9,1.7c0.6,1.1,1.3,2.2,2,3.3
	l4.2,6.4l2.1,3.2c0.7,1.1,1.4,2.2,2,3.4c2.4,4.7,3.7,9.8,4,15c0.2,5.2-0.4,10.4-2.1,15.3c0.6-2.5,1-5,1.1-7.6
	c0.2-2.5,0.1-5.1-0.1-7.6c-0.5-5-1.8-10-4.1-14.4c-0.6-1.1-1.2-2.2-1.9-3.3c-0.7-1-1.4-2.1-2.1-3.2c-1.4-2.2-2.7-4.4-4-6.6
	c-0.6-1.1-1.3-2.3-1.8-3.4c-0.3-0.6-0.6-1.2-0.8-1.8c-0.2-0.6-0.5-1.1-0.9-1.6C205.2,159.7,203.1,158.1,200.8,157z"/>
</svg>
