<?xml version="1.0" encoding="iso-8859-1"?>
<!-- Generator: Adobe Illustrator 19.0.0, SVG Export Plug-In . SVG Version: 6.00 Build 0)  -->
<svg version="1.1" id="Layer_1" xmlns="http://www.w3.org/2000/svg" xmlns:xlink="http://www.w3.org/1999/xlink" x="0px" y="0px"
	 viewBox="0 0 512.002 512.002" style="enable-background:new 0 0 512.002 512.002;" xml:space="preserve">
<path style="fill:#8D6A59;" d="M379.157,468.166h-0.474c7.143-46.831-14.873-72.149-42.354-72.149
	c-27.482,0-80.327,72.149-80.327,72.149v36.334h140.493c5.246,0,9.499-4.253,9.499-9.499
	C405.992,480.181,393.978,468.166,379.157,468.166z"/>
<path style="opacity:0.15;enable-background:new    ;" d="M379.157,468.166h-0.474c7.143-46.831-14.873-72.149-42.354-72.149
	c-27.482,0-80.327,72.149-80.327,72.149v36.334h140.493c5.246,0,9.499-4.253,9.499-9.499
	C405.992,480.181,393.978,468.166,379.157,468.166z"/>
<path style="fill:#8D6A59;" d="M132.845,468.166h0.474c-7.143-46.831,14.873-72.149,42.354-72.149s80.328,72.149,80.328,72.149
	v36.334H115.508c-5.246,0-9.499-4.253-9.499-9.499C106.009,480.181,118.024,468.166,132.845,468.166z"/>
<path style="opacity:0.15;enable-background:new    ;" d="M132.845,468.166h0.474c-7.143-46.831,14.873-72.149,42.354-72.149
	s80.328,72.149,80.328,72.149v36.334H115.508c-5.246,0-9.499-4.253-9.499-9.499C106.009,480.181,118.024,468.166,132.845,468.166z"
	/>
<g transform="matrix(0.921 -0.3896 0.3896 0.921 -28.09 72.838)">
	
		<ellipse transform="matrix(2.541732e-006 1 -1 2.541732e-006 271.2165 -59.8809)" style="fill:#8D6A59;" cx="165.549" cy="105.668" rx="104.728" ry="46.511"/>
	
		<ellipse transform="matrix(2.541732e-006 1 -1 2.541732e-006 271.2165 -59.8808)" style="opacity:0.15;enable-background:new    ;" cx="165.549" cy="105.668" rx="58.846" ry="22.418"/>
</g>
<ellipse transform="matrix(-0.3896 0.921 -0.921 -0.3896 578.7439 -172.2843)" style="fill:#8D6A59;" cx="346.465" cy="105.646" rx="104.73" ry="46.512"/>
<ellipse transform="matrix(-0.3896 0.921 -0.921 -0.3896 578.7439 -172.2843)" style="opacity:0.15;enable-background:new    ;" cx="346.465" cy="105.646" rx="58.847" ry="22.418"/>
<path style="fill:#8D6A59;" d="M373.716,221.533c0-71.168-52.703-103.003-117.715-103.003s-117.715,31.836-117.715,103.003
	c0,30.393,11.286,53.711,28.566,70.457c7.003,6.786,8.7,17.467,4.101,26.066c-10.209,19.091-15.832,44.27-15.832,76.011
	c0,84.905,48.771,110.434,100.88,110.434s100.88-25.53,100.88-110.434c0-31.74-5.623-56.92-15.832-76.011
	c-4.599-8.599-2.902-19.28,4.101-26.066C362.43,275.244,373.716,251.926,373.716,221.533z"/>
<g>
	<path style="fill:#E8A8C2;" d="M191.28,246.751h-20.777c-4.143,0-7.5-3.357-7.5-7.5s3.357-7.5,7.5-7.5h20.777
		c4.143,0,7.5,3.357,7.5,7.5C198.78,243.394,195.423,246.751,191.28,246.751z"/>
	<path style="fill:#E8A8C2;" d="M341.497,246.751h-20.776c-4.143,0-7.5-3.357-7.5-7.5s3.357-7.5,7.5-7.5h20.776
		c4.143,0,7.5,3.357,7.5,7.5S345.64,246.751,341.497,246.751z"/>
</g>
<path style="fill:#8D6A59;" d="M363.135,355.102l-6.614,7.647c-11.103,12.836-23.934,24.067-38.125,33.372l0,0
	c-13.397,8.784-31.379,5.044-40.162-8.353l0,0c-8.784-13.397-5.045-31.379,8.353-40.162l4.828-3.166
	c10.989-7.205,20.925-15.902,29.521-25.841l0,0c12.119-14.01,34.274-12.537,44.431,2.954l0,0
	C372.201,331.978,371.29,345.673,363.135,355.102z"/>
<path style="opacity:0.15;enable-background:new    ;" d="M363.135,355.102l-6.614,7.647
	c-11.103,12.836-23.934,24.067-38.125,33.372l0,0c-13.397,8.784-31.379,5.044-40.162-8.353l0,0
	c-8.784-13.397-5.045-31.379,8.353-40.162l4.828-3.166c10.989-7.205,20.925-15.902,29.521-25.841l0,0
	c12.119-14.01,34.274-12.537,44.431,2.954l0,0C372.201,331.978,371.29,345.673,363.135,355.102z"/>
<path style="fill:#8D6A59;" d="M148.866,355.102l6.614,7.647c11.103,12.836,23.934,24.067,38.125,33.372l0,0
	c13.398,8.784,31.379,5.044,40.162-8.353l0,0c8.784-13.397,5.045-31.379-8.353-40.162l-4.828-3.166
	c-10.989-7.205-20.925-15.902-29.521-25.841l0,0c-12.119-14.01-34.274-12.537-44.431,2.954l0,0
	C139.801,331.978,140.711,345.673,148.866,355.102z"/>
<path style="opacity:0.15;enable-background:new    ;" d="M148.866,355.102l6.614,7.647c11.103,12.836,23.934,24.067,38.125,33.372
	l0,0c13.398,8.784,31.379,5.044,40.162-8.353l0,0c8.784-13.397,5.045-31.379-8.353-40.162l-4.828-3.166
	c-10.989-7.205-20.925-15.902-29.521-25.841l0,0c-12.119-14.01-34.274-12.537-44.431,2.954l0,0
	C139.801,331.978,140.711,345.673,148.866,355.102z"/>
<path d="M318.753,222.225c4.143,0,7.5-3.357,7.5-7.5c0-2.678,2.179-4.856,4.857-4.856c2.678,0,4.856,2.179,4.856,4.856
	c0,4.143,3.357,7.5,7.5,7.5s7.5-3.357,7.5-7.5c0-10.949-8.907-19.856-19.856-19.856s-19.857,8.907-19.857,19.856
	C311.253,218.867,314.61,222.225,318.753,222.225z M387.035,461.578c2.571-28.602-5.655-51.914-22.683-64.172
	c0.017-1.107,0.029-2.218,0.029-3.34c0-9.45-0.506-18.583-1.503-27.205l5.929-6.854c0.001,0,0.001,0,0.001,0
	c10.295-11.903,11.459-29.408,2.83-42.567c-5.609-8.553-14.382-14.119-24.373-15.59c0.739-1.658,1.772-3.185,3.104-4.476
	c20.18-19.555,30.847-45.78,30.847-75.843c0-18.548-3.496-35.303-10.275-49.838c9.59-13.032,18.277-28.483,25.258-44.989
	c11.298-26.708,17.297-53.898,16.893-76.564c-0.441-24.783-8.58-41.77-22.918-47.835c-14.335-6.064-32.197-0.072-50.288,16.872
	c-16.545,15.496-31.878,38.738-43.174,65.446c-4.055,9.585-7.43,19.266-10.092,28.873c-9.676-1.625-19.905-2.467-30.618-2.467
	c-10.715,0-20.943,0.842-30.62,2.467c-2.661-9.603-6.036-19.285-10.091-28.873c-11.297-26.708-26.63-49.95-43.174-65.446
	c-18.091-16.946-35.95-22.935-50.288-16.871S99.352,25.358,98.91,50.142c-0.404,22.666,5.595,49.856,16.893,76.564
	c6.981,16.507,15.668,31.957,25.258,44.989c-6.78,14.535-10.276,31.291-10.276,49.838c0,30.062,10.667,56.286,30.848,75.844
	c1.332,1.29,2.365,2.817,3.104,4.475c-9.991,1.471-18.764,7.036-24.374,15.59c-8.629,13.162-7.464,30.667,2.832,42.567l5.929,6.855
	c-0.997,8.622-1.503,17.754-1.503,27.204c0,1.122,0.012,2.233,0.029,3.34c-17.028,12.257-25.253,35.57-22.683,64.172
	c-15.148,3.569-26.458,17.201-26.458,33.423c0,9.373,7.626,16.999,16.999,16.999h280.986c9.373,0,16.999-7.626,16.999-16.999
	C413.492,478.779,402.183,465.147,387.035,461.578z M359.093,325.665c4.974,7.584,4.303,17.672-1.63,24.531l-6.615,7.646
	c-10.649,12.313-22.952,23.081-36.564,32.007c-9.917,6.504-23.276,3.726-29.779-6.193c-6.503-9.917-3.725-23.276,6.193-29.779
	l4.828-3.165c11.573-7.588,22.03-16.742,31.082-27.207c3.917-4.529,9.464-7.055,15.389-7.055c0.462,0,0.927,0.015,1.393,0.046
	C349.829,316.926,355.554,320.267,359.093,325.665z M310.525,90.468c22.32-52.77,56.814-81.536,73.805-74.348
	c8.423,3.563,13.439,16.061,13.765,34.288c0.367,20.614-5.212,45.635-15.71,70.453c-5.581,13.197-12.301,25.631-19.69,36.516
	c-2.091-2.991-4.352-5.856-6.786-8.587c6.747-8.608,13.051-19.536,18.099-31.472c12.843-30.365,16.381-65.106-1.709-72.761
	c-18.089-7.645-40.556,19.089-53.398,49.451c-3.637,8.596-6.432,17.269-8.273,25.538c-3.027-1.053-6.15-1.989-9.332-2.85
	C303.75,107.981,306.836,99.188,310.525,90.468z M345.004,138.37c-0.371-0.303-0.736-0.61-1.113-0.908
	c-5.804-4.592-12.227-8.591-19.173-12.015c1.596-8.142,4.31-16.876,7.997-25.594c12.994-30.718,29.753-43.175,33.74-41.479
	c3.987,1.687,6.73,22.385-6.262,53.102C355.87,121.698,350.597,130.997,345.004,138.37z M129.617,120.862
	c-10.498-24.818-16.077-49.839-15.71-70.453c0.325-18.229,5.342-30.727,13.765-34.288c16.989-7.184,51.484,21.579,73.805,74.348
	c3.689,8.723,6.776,17.516,9.23,26.231c-3.182,0.861-6.305,1.797-9.332,2.85c-1.841-8.267-4.636-16.94-8.273-25.538
	c-12.843-30.364-35.305-57.104-53.399-49.45c-18.089,7.652-14.552,42.395-1.708,72.76c5.049,11.936,11.353,22.864,18.099,31.472
	c-2.433,2.731-4.695,5.596-6.786,8.587C141.918,146.492,135.198,134.058,129.617,120.862z M187.282,125.447
	c-6.946,3.424-13.369,7.423-19.173,12.015c-0.376,0.298-0.742,0.605-1.113,0.908c-5.593-7.373-10.865-16.672-15.19-26.894
	c-12.992-30.719-10.25-51.415-6.264-53.101c3.999-1.7,20.75,10.765,33.742,41.478C182.974,108.573,185.687,117.307,187.282,125.447z
	 M152.908,325.665c3.539-5.398,9.263-8.74,15.704-9.169c0.467-0.031,0.932-0.046,1.393-0.046c5.925,0,11.472,2.525,15.389,7.055
	c9.052,10.465,19.509,19.619,31.082,27.206l4.828,3.167c9.917,6.502,12.695,19.86,6.192,29.778
	c-6.502,9.918-19.86,12.698-29.778,6.193c-13.613-8.926-25.916-19.694-36.565-32.007l-6.614-7.646
	C148.605,343.337,147.935,333.25,152.908,325.665z M115.508,497.001c-1.103,0-1.999-0.897-1.999-1.999
	c0-10.662,8.674-19.336,19.336-19.336h0.475c2.187,0,4.265-0.954,5.69-2.613c1.425-1.658,2.055-3.857,1.725-6.018
	c-3.19-20.913-0.154-38.567,8.173-49.944c3.516,30.049,14.256,53.398,32.071,69.583c4.287,3.895,8.953,7.325,13.956,10.327
	L115.508,497.001L115.508,497.001z M162.62,394.066c0-4.31,0.118-8.538,0.339-12.675c8.199,7.761,17.071,14.796,26.535,21.002
	c6.157,4.037,13.095,5.967,19.96,5.966c11.904,0,23.587-5.803,30.588-16.479c5.347-8.155,7.197-17.904,5.212-27.451
	c-1.985-9.547-7.569-17.749-15.725-23.096l-4.828-3.167c-10.411-6.825-19.818-15.061-27.961-24.475
	c-4.385-5.069-9.95-8.676-16.104-10.609c-0.994-6.23-3.961-12.019-8.566-16.48c-17.442-16.903-26.286-38.796-26.286-65.071
	c0-31.373,10.643-55.701,31.632-72.308c19.179-15.175,46.352-23.195,78.584-23.195c32.23,0,59.405,8.021,78.584,23.195
	c20.989,16.607,31.631,40.935,31.631,72.308c0,26.277-8.844,48.169-26.285,65.07c-4.603,4.46-7.569,10.246-8.565,16.471
	c-6.156,1.934-11.719,5.548-16.105,10.619c-8.143,9.414-17.55,17.649-27.961,24.476l-4.828,3.165
	c-8.155,5.348-13.739,13.55-15.726,23.097c-1.985,9.547-0.135,19.296,5.212,27.451c7.002,10.678,18.683,16.479,30.588,16.479
	c6.864,0,13.805-1.93,19.961-5.966c9.464-6.206,18.336-13.241,26.535-21.002c0.221,4.137,0.339,8.365,0.339,12.675
	c0,46.958-16.201,102.934-93.381,102.934S162.62,441.025,162.62,394.066z M396.494,497.001H317.07
	c5.003-3.002,9.669-6.432,13.956-10.327c17.815-16.185,28.556-39.533,32.07-69.583c8.327,11.378,11.363,29.033,8.173,49.944
	c-0.33,2.161,0.3,4.359,1.725,6.018c1.425,1.659,3.503,2.613,5.689,2.613h0.475c10.662,0,19.336,8.674,19.336,19.336
	C398.492,496.104,397.596,497.001,396.494,497.001z M180.892,194.868c-10.949,0-19.856,8.907-19.856,19.856
	c0,4.143,3.357,7.5,7.5,7.5c4.143,0,7.5-3.357,7.5-7.5c0-2.678,2.179-4.856,4.856-4.856c2.678,0,4.856,2.179,4.856,4.856
	c0,4.143,3.357,7.5,7.5,7.5s7.5-3.357,7.5-7.5C200.748,203.775,191.841,194.868,180.892,194.868z M287.76,215.149
	c0-4.143-3.358-7.5-7.5-7.5c-4.143,0-7.5,3.357-7.5,7.5c0,2.553-2.077,4.63-4.63,4.63c-2.553,0-4.63-2.077-4.63-4.63
	c0-4.143-3.357-7.5-7.5-7.5s-7.5,3.357-7.5,7.5c0,2.553-2.077,4.63-4.63,4.63c-2.553,0-4.63-2.077-4.63-4.63
	c0-4.143-3.357-7.5-7.5-7.5c-4.143,0-7.5,3.357-7.5,7.5c0,10.824,8.806,19.63,19.63,19.63c4.574,0,8.789-1.573,12.13-4.206
	c3.341,2.633,7.556,4.206,12.13,4.206C278.954,234.779,287.76,225.974,287.76,215.149z"/>
<g>
</g>
<g>
</g>
<g>
</g>
<g>
</g>
<g>
</g>
<g>
</g>
<g>
</g>
<g>
</g>
<g>
</g>
<g>
</g>
<g>
</g>
<g>
</g>
<g>
</g>
<g>
</g>
<g>
</g>
</svg>
