<?xml version="1.0" encoding="iso-8859-1"?>
<!-- Generator: Adobe Illustrator 19.0.0, SVG Export Plug-In . SVG Version: 6.00 Build 0)  -->
<svg version="1.1" id="Capa_1" xmlns="http://www.w3.org/2000/svg" xmlns:xlink="http://www.w3.org/1999/xlink" x="0px" y="0px"
	 viewBox="0 0 512 512" style="enable-background:new 0 0 512 512;" xml:space="preserve">
<path style="fill:#994C0F;" d="M455.799,273.399c-1.199,1.201-2.098,2.401-2.999,3.9c-4.799,8.401-13.801,13.801-24,13.801
	c-15.3,0-27.9-12.599-27.9-28.2c0-8.399-6.601-15-15-15c-8.401,0-15,6.601-15,15c0,15.601-12.601,28.2-28.2,28.2
	c-15.601,0-28.2-12.599-28.2-28.2c0-8.399-6.601-15-15-15c-8.401,0-15,6.601-15,15c0,15.601-12.599,28.2-28.2,28.2H256
	c-15.3-0.3-27.599-12.599-27.599-28.2c0-8.399-6.601-15-15-15c-8.401,0-15,6.601-15,15c0,15.601-12.601,28.2-28.2,28.2
	c-15.601,0-28.2-12.599-28.2-28.2c0-8.399-6.601-15-15-15c-8.401,0-15,6.601-15,15c0,15.601-12.599,28.2-28.2,28.2
	c-10.201,0-19.801-5.7-24.3-14.7c-0.3-0.901-0.901-1.8-1.5-2.401L31,286.599V361l35.099,30H436.9l44.1-30v-72.601L455.799,273.399z"
	/>
<path style="fill:#713708;" d="M436.901,391H256v-99.901h0.3c15.601,0,28.2-12.599,28.2-28.2c0-8.399,6.599-15,15-15
	c8.399,0,15,6.601,15,15c0,15.601,12.599,28.2,28.2,28.2c15.599,0,28.2-12.599,28.2-28.2c0-8.399,6.599-15,15-15
	c8.399,0,15,6.601,15,15c0,15.601,12.599,28.2,27.9,28.2c10.199,0,19.2-5.4,24-13.801c0.901-1.5,1.8-2.699,2.999-3.9l25.201,15V361
	L436.901,391z"/>
<path style="fill:#FEA832;" d="M31,196v90.599l1.5,3.001c9.6,19.2,29.7,31.5,51.301,31.5c17.1,0,32.401-7.5,43.2-19.2
	c10.8,11.7,26.1,19.2,43.2,19.2s32.399-7.5,43.2-19.2C223.9,313.6,238.9,321.1,256,321.1h0.3c17.1,0,32.401-7.5,43.2-19.2
	c10.8,11.7,26.1,19.2,43.2,19.2s32.399-7.5,43.2-19.2c10.499,11.7,25.8,19.2,42.9,19.2c21,0,40.199-11.1,50.4-29.399l1.8-3.301V196
	H31z"/>
<path style="fill:#FE9923;" d="M481,196v92.399l-1.8,3.301c-10.201,18.3-29.399,29.399-50.4,29.399c-17.1,0-32.401-7.5-42.9-19.2
	c-10.801,11.7-26.1,19.2-43.2,19.2s-32.401-7.5-43.2-19.2c-10.8,11.7-26.1,19.2-43.2,19.2H256V196H481z"/>
<path style="fill:#FEDB41;" d="M480.099,190.6C455.501,125.799,417.1,80.499,350.2,61.599c-3.3-0.899-6.601-0.899-9.901,0.601
	l-84.3,33.6l-215.7,86.4c-6.599,2.401-10.499,9.6-9,16.5C32.5,205.899,38.8,211,46,211h420
	C476.499,211,483.701,200.499,480.099,190.6z"/>
<path style="fill:#FCBF29;" d="M466,211H256V95.799l84.3-33.6c3.3-1.5,6.601-1.5,9.901-0.601
	c66.899,18.9,105.3,64.2,129.899,129.001C483.701,200.499,476.499,211,466,211z"/>
<path style="fill:#FF4C5B;" d="M31,361v75c0,8.399,6.599,15,15,15h420c8.401,0,15-6.601,15-15v-75H31z"/>
<path style="fill:#FC1939;" d="M256,361h225v75c0,8.399-6.599,15-15,15H256V361z"/>
<path style="fill:#1BD9DE;" d="M16,437c0,41.4,33.6,75,75,75h330c41.4,0,75-33.6,75-75H16z"/>
<path style="fill:#1DE8F1;" d="M512,436c0,8.399-7.599,15-16,15H16c-8.401,0-16-6.601-16-15c0-8.401,7.599-15,16-15h480
	C504.401,421,512,427.599,512,436z"/>
<path style="fill:#14B7BF;" d="M496,437c0,41.4-33.6,75-75,75H256v-75H496z"/>
<path style="fill:#1BD9DE;" d="M512,436c0,8.399-7.599,15-16,15H256v-30h240C504.401,421,512,427.599,512,436z"/>
<path style="fill:#FF4C5B;" d="M271,31c-5.099,0-10.201,0.599-15,2.1c-25.8,6.599-45,30-45,57.9s19.2,51.299,45,57.9
	c4.799,1.5,9.901,2.1,15,2.1c32.999,0,60-27.001,60-60C331,57.999,303.999,31,271,31z"/>
<path style="fill:#994C0F;" d="M277.599,58.5c-7.5,3.6-16.199,0.599-20.099-6.901l-15-30c-3.6-7.2-0.599-16.199,6.901-20.099
	C251.499,0.599,253.599,0,256,0c5.4,0,10.8,2.999,13.5,8.399l15,30C288.1,45.599,285.099,54.6,277.599,58.5z"/>
<g>
</g>
<g>
</g>
<g>
</g>
<g>
</g>
<g>
</g>
<g>
</g>
<g>
</g>
<g>
</g>
<g>
</g>
<g>
</g>
<g>
</g>
<g>
</g>
<g>
</g>
<g>
</g>
<g>
</g>
</svg>
