<?xml version="1.0" encoding="UTF-8" ?>
<!DOCTYPE svg PUBLIC "-//W3C//DTD SVG 1.1//EN" "http://www.w3.org/Graphics/SVG/1.1/DTD/svg11.dtd">
<svg width="128pt" height="128pt" viewBox="0 0 128 128" version="1.1" xmlns="http://www.w3.org/2000/svg">
<g id="#2e2e30ff">
<path fill="#2e2e30" opacity="1.00" d=" M 51.42 27.43 C 56.73 25.42 62.49 26.15 68.04 26.02 C 76.03 25.86 84.08 30.05 87.87 37.21 C 91.59 38.44 95.57 39.01 99.03 40.95 C 106.48 44.75 111.67 52.50 112.29 60.85 C 116.45 63.89 120.42 67.34 123.22 71.73 C 127.97 78.86 129.15 88.30 126.20 96.35 C 124.36 101.15 118.63 103.00 113.92 101.97 C 107.31 100.58 101.58 96.80 95.90 93.35 C 90.32 96.36 83.84 95.75 78.07 93.71 C 74.15 97.77 68.63 100.19 62.96 99.99 C 57.75 100.04 53.15 97.05 49.55 93.55 C 43.84 95.45 37.28 96.74 31.82 93.37 C 26.48 96.65 21.05 100.03 14.91 101.58 C 11.76 102.31 8.09 102.80 5.32 100.73 C 1.40 98.43 0.51 93.61 0.00 89.48 L 0.00 84.74 C 0.78 74.71 7.48 66.36 15.50 60.82 C 16.13 52.15 21.74 44.18 29.60 40.52 C 32.85 38.84 36.57 38.43 39.95 37.15 C 42.46 32.66 46.53 29.08 51.42 27.43 M 43.05 48.06 C 45.39 60.10 48.18 72.07 50.76 84.06 C 51.66 90.73 58.50 95.44 65.03 94.75 C 71.00 94.40 76.52 89.62 77.12 83.56 C 79.65 72.33 82.02 61.06 84.47 49.81 C 86.02 43.35 82.83 35.91 76.65 33.19 C 70.80 30.42 64.17 31.42 57.91 31.28 C 49.37 31.39 41.74 39.40 43.05 48.06 M 20.77 59.97 C 19.46 68.85 25.93 75.96 29.36 83.54 C 32.23 90.07 40.63 91.77 46.74 88.98 C 45.77 85.77 45.22 82.46 44.46 79.19 C 42.39 69.83 40.38 60.45 38.35 51.07 C 37.71 48.46 37.88 45.76 37.98 43.10 C 29.52 44.54 21.83 51.21 20.77 59.97 M 89.77 43.28 C 89.96 45.80 90.05 48.36 89.49 50.84 C 87.33 61.02 85.03 71.16 82.92 81.35 C 82.31 83.89 81.76 86.46 81.07 88.98 C 87.05 91.70 95.61 90.19 98.24 83.60 L 98.41 83.60 C 100.73 79.19 103.11 74.81 105.38 70.38 C 108.24 64.57 107.62 57.31 103.96 52.00 C 100.83 47.09 95.34 44.36 89.77 43.28 M 5.24 88.34 C 5.30 91.59 5.81 96.67 9.99 96.97 C 16.42 96.95 22.10 93.19 27.44 90.00 C 25.80 87.80 24.53 85.38 23.20 82.99 C 20.70 77.65 17.15 72.74 15.82 66.91 C 9.32 71.93 4.40 79.87 5.24 88.34 M 111.92 66.89 C 110.63 72.94 106.87 77.98 104.30 83.50 C 103.09 85.74 101.86 87.96 100.32 89.99 C 104.69 92.75 109.28 95.37 114.31 96.67 C 116.58 97.21 119.64 97.38 121.05 95.12 C 122.30 92.87 122.74 90.12 122.43 87.58 C 123.29 79.36 118.17 71.75 111.92 66.89 Z" />
</g>
<g id="#cb9963ff">
<path fill="#cb9963" opacity="1.00" d=" M 43.05 48.06 C 41.74 39.40 49.37 31.39 57.91 31.28 C 64.17 31.42 70.80 30.42 76.65 33.19 C 82.83 35.91 86.02 43.35 84.47 49.81 C 82.02 61.06 79.65 72.33 77.12 83.56 C 68.79 87.07 59.22 87.19 50.76 84.06 C 48.18 72.07 45.39 60.10 43.05 48.06 Z" />
<path fill="#cb9963" opacity="1.00" d=" M 20.77 59.97 C 21.83 51.21 29.52 44.54 37.98 43.10 C 37.88 45.76 37.71 48.46 38.35 51.07 C 40.38 60.45 42.39 69.83 44.46 79.19 C 44.47 79.65 44.49 80.57 44.50 81.02 C 39.61 82.60 34.47 83.24 29.36 83.54 C 25.93 75.96 19.46 68.85 20.77 59.97 Z" />
<path fill="#cb9963" opacity="1.00" d=" M 89.77 43.28 C 95.34 44.36 100.83 47.09 103.96 52.00 C 107.62 57.31 108.24 64.57 105.38 70.38 C 103.11 74.81 100.73 79.19 98.41 83.60 L 98.24 83.60 C 93.07 83.41 87.95 82.58 82.92 81.35 C 85.03 71.16 87.33 61.02 89.49 50.84 C 90.05 48.36 89.96 45.80 89.77 43.28 Z" />
<path fill="#cb9963" opacity="1.00" d=" M 5.24 88.34 C 4.40 79.87 9.32 71.93 15.82 66.91 C 17.15 72.74 20.70 77.65 23.20 82.99 C 19.19 85.49 15.29 88.50 10.59 89.56 C 8.70 90.06 6.91 89.11 5.24 88.34 Z" />
<path fill="#cb9963" opacity="1.00" d=" M 111.92 66.89 C 118.17 71.75 123.29 79.36 122.43 87.58 C 120.72 88.45 119.06 89.96 117.00 89.67 C 112.23 89.03 108.28 85.97 104.30 83.50 C 106.87 77.98 110.63 72.94 111.92 66.89 Z" />
</g>
<g id="#8e6c46ff">
<path fill="#8e6c46" opacity="1.00" d=" M 44.46 79.19 C 45.22 82.46 45.77 85.77 46.74 88.98 C 40.63 91.77 32.23 90.07 29.36 83.54 C 34.47 83.24 39.61 82.60 44.50 81.02 C 44.49 80.57 44.47 79.65 44.46 79.19 Z" />
<path fill="#8e6c46" opacity="1.00" d=" M 82.92 81.35 C 87.95 82.58 93.07 83.41 98.24 83.60 C 95.61 90.19 87.05 91.70 81.07 88.98 C 81.76 86.46 82.31 83.89 82.92 81.35 Z" />
<path fill="#8e6c46" opacity="1.00" d=" M 10.59 89.56 C 15.29 88.50 19.19 85.49 23.20 82.99 C 24.53 85.38 25.80 87.80 27.44 90.00 C 22.10 93.19 16.42 96.95 9.99 96.97 C 5.81 96.67 5.30 91.59 5.24 88.34 C 6.91 89.11 8.70 90.06 10.59 89.56 Z" />
<path fill="#8e6c46" opacity="1.00" d=" M 100.32 89.99 C 101.86 87.96 103.09 85.74 104.30 83.50 C 108.28 85.97 112.23 89.03 117.00 89.67 C 119.06 89.96 120.72 88.45 122.43 87.58 C 122.74 90.12 122.30 92.87 121.05 95.12 C 119.64 97.38 116.58 97.21 114.31 96.67 C 109.28 95.37 104.69 92.75 100.32 89.99 Z" />
<path fill="#8e6c46" opacity="1.00" d=" M 50.76 84.06 C 59.22 87.19 68.79 87.07 77.12 83.56 C 76.52 89.62 71.00 94.40 65.03 94.75 C 58.50 95.44 51.66 90.73 50.76 84.06 Z" />
</g>
</svg>
