<?xml version="1.0" encoding="iso-8859-1"?>
<!-- Generator: Adobe Illustrator 17.1.0, SVG Export Plug-In . SVG Version: 6.00 Build 0)  -->
<!DOCTYPE svg PUBLIC "-//W3C//DTD SVG 1.1//EN" "http://www.w3.org/Graphics/SVG/1.1/DTD/svg11.dtd">
<svg version="1.1" id="Capa_1" xmlns="http://www.w3.org/2000/svg" xmlns:xlink="http://www.w3.org/1999/xlink" x="0px" y="0px"
	 viewBox="0 0 445.55 445.55" style="enable-background:new 0 0 445.55 445.55;" xml:space="preserve">
<path d="M417.43,219.133c0.861-2.238,0.89-4.712,0.078-6.969c-8.266-23.02-24.792-41.869-46.532-53.077
	c-13.503-6.962-28.298-10.598-43.318-10.716c-0.185-2.668-0.371-4.251-0.417-4.616c-0.29-2.328-1.39-4.48-3.105-6.079
	c-27.615-25.73-63.612-39.9-101.361-39.9s-73.746,14.17-101.361,39.9c-1.716,1.599-2.815,3.751-3.105,6.079
	c-0.03,0.236-0.22,1.821-0.409,4.615c-15.022,0.116-29.82,3.754-43.325,10.716c-21.741,11.208-38.268,30.058-46.533,53.077
	c-0.812,2.258-0.783,4.73,0.078,6.969c-18.231,25.72-29.818,61.964-27.916,88.48c1.093,15.233,8.398,27.948,20.044,34.886
	c5.871,3.497,12.548,5.274,19.241,5.274c4.869,0,9.748-0.941,14.329-2.844c10.373-4.31,17.88-12.986,20.597-23.804
	c3.297-13.129,9.116-21.828,13.986-27.19c6.105,1.875,12.682,2.809,19.373,2.809c11.52,0,23.359-2.73,33.631-8.025
	c1.102-0.568,2.185-1.17,3.256-1.794c0.401,0.619,0.864,1.197,1.394,1.715c20.634,20.159,47.88,31.261,76.72,31.261
	s56.086-11.102,76.72-31.261c0.53-0.518,0.993-1.097,1.394-1.716c1.071,0.624,2.155,1.227,3.257,1.795
	c10.271,5.296,22.109,8.025,33.63,8.025c6.69,0,13.269-0.934,19.374-2.809c4.87,5.361,10.689,14.06,13.986,27.19
	c2.717,10.818,10.224,19.495,20.597,23.804c4.582,1.904,9.459,2.844,14.329,2.844c6.693-0.001,13.371-1.777,19.241-5.274
	c11.646-6.938,18.951-19.653,20.044-34.886C447.247,281.097,435.661,244.853,417.43,219.133z M55.016,316.253
	c-1.59,6.333-6.24,9.113-8.871,10.206c-5.071,2.108-10.925,1.679-15.661-1.143c-8.144-4.851-9.968-14.07-10.331-19.134
	c-1.338-18.654,6.303-45.168,18.289-66.047c7.219,12.62,18.294,28.783,33.453,42.283C64.131,291.626,58.272,303.287,55.016,316.253z
	 M222.775,299.9c-22.914,0-44.601-8.571-61.291-24.178c-6.004-14.702-10.971-29.772-14.773-44.828
	c-1.352-5.354-6.791-8.598-12.143-7.247c-5.355,1.353-8.6,6.79-7.247,12.145c2.725,10.79,6.021,21.582,9.83,32.253
	c-1.585,1.052-3.22,2.027-4.91,2.898c-11.654,6.009-25.954,7.496-37.667,3.981c-26.207-18.314-41.709-49.295-46.327-59.566
	c6.915-16.619,19.401-30.197,35.494-38.493c10.566-5.448,22.129-8.322,33.87-8.483c0.271,9.279,1.109,20.891,3.096,34.363
	c0.806,5.464,5.89,9.236,11.351,8.434c5.464-0.806,9.24-5.889,8.434-11.352c-3.651-24.76-3.108-42.792-2.633-50.059
	c23.506-20.657,53.512-31.99,84.917-31.99c31.403,0,61.405,11.329,84.91,31.984c0.855,13.43,1.866,63.55-23.619,125.961
	C267.374,291.329,245.689,299.9,222.775,299.9z M425.397,306.183c-0.363,5.064-2.188,14.283-10.331,19.134
	c-4.734,2.821-10.591,3.25-15.661,1.143c-2.631-1.093-7.281-3.872-8.871-10.206c-3.257-12.97-9.117-24.634-16.885-33.842
	c3.808-3.393,7.523-7.089,11.114-11.082c3.693-4.107,3.357-10.429-0.749-14.122c-4.107-3.693-10.429-3.358-14.122,0.749
	c-6.022,6.697-12.38,12.399-18.915,16.968c-11.712,3.514-26.011,2.026-37.665-3.982c-1.687-0.87-3.319-1.843-4.901-2.892
	c15.057-42.117,18.939-77.532,19.566-99.667c11.729,0.167,23.279,3.039,33.835,8.482c16.094,8.296,28.581,21.876,35.495,38.499
	c-1.801,4.023-5.258,11.202-10.35,19.509c-2.886,4.709-1.408,10.866,3.301,13.751c1.631,1,3.435,1.476,5.216,1.476
	c3.364,0,6.65-1.697,8.536-4.776c1.097-1.79,2.125-3.531,3.086-5.21C419.089,260.995,426.736,287.522,425.397,306.183z"/>
<g>
</g>
<g>
</g>
<g>
</g>
<g>
</g>
<g>
</g>
<g>
</g>
<g>
</g>
<g>
</g>
<g>
</g>
<g>
</g>
<g>
</g>
<g>
</g>
<g>
</g>
<g>
</g>
<g>
</g>
</svg>
