<?xml version="1.0" encoding="iso-8859-1"?>
<!-- Generator: Adobe Illustrator 19.0.0, SVG Export Plug-In . SVG Version: 6.00 Build 0)  -->
<svg version="1.1" id="Capa_1" xmlns="http://www.w3.org/2000/svg" xmlns:xlink="http://www.w3.org/1999/xlink" x="0px" y="0px"
	 viewBox="0 0 114 114" style="enable-background:new 0 0 114 114;" xml:space="preserve">
<g id="_x30_202-croissant">
	<g>
		<path style="fill-rule:evenodd;clip-rule:evenodd;" d="M113.11,38.664c-0.591-0.758-0.634-2.062-1.265-2.78
			c-0.215-1.218-1.049-1.817-1.264-3.034c-0.907-0.778-1.493-1.878-2.275-2.781c-0.231-1.453-1.671-1.699-2.023-3.033
			c0.286-0.811,0.514-1.677,0.506-2.781c-0.357-1.75-0.896-3.318-1.012-5.309c-0.832-1.359-0.715-3.667-1.517-5.056
			c-0.518-3.78-2.154-6.442-3.539-9.354c-0.865-0.652-1.623-1.411-2.275-2.276c-0.836-0.682-1.926-1.108-2.781-1.77
			c-2.662-0.763-6.062-0.459-9.101-0.252C84.607,1.65,83.48,3.893,82.52,6.304c-1.423,1.948-2.124,4.618-2.528,7.585
			c0.363,3.851,0.999,7.427,2.023,10.618c-2.104,1.688-3.598,3.984-5.309,6.066c-0.6,1.339-0.577,3.299-1.517,4.298
			c-0.415,1.608-1.154,2.891-1.518,4.55c-0.306,1.212-0.344,2.69-0.506,4.046c-0.196,1.63,0.376,2.489,0.253,4.045
			c-1.974,0.217-3.371,1.01-5.562,1.011c-1.561,0.882-3.413,1.475-4.804,2.527c-1.586,0.943-2.801,2.256-4.297,3.287
			c-3.944,4.314-7.197,9.32-9.607,15.169c-2.625,0.324-4.261,1.638-6.573,2.275c-2.14,0.81-4.529,1.368-7.078,1.77
			c-2.293-0.188-3.923,0.291-6.067,0.253c-0.299,0.459-1.317,0.198-1.769,0.505c-0.457,0.386-0.774,0.911-1.77,0.759
			c-1.415-0.187-2.053-1.15-3.792-1.012c-0.986-0.615-2.064-1.138-3.539-1.264c-3.191,0.098-5.676,0.897-8.596,1.264
			c-1.814,0.083-3.127,0.059-4.298,0.253c-1.065,0.115-1.164,1.196-2.022,1.518c-0.146,1.034-1.164,1.195-1.264,2.275
			c-1.037,1.323-1.576,3.144-2.023,5.056C0.281,89.554,2.555,93.6,5.919,96.556c2.53,1.094,4.678,2.571,7.331,3.54
			c0.933,0.921,2.356,1.353,3.539,2.022c1.467,0.387,2.086,1.622,3.792,1.77c1.828,0.059,3.505-0.035,4.804-0.506
			c0.016,1.754,0.801,2.738,1.265,4.045c1.862,2.014,4.714,3.038,7.331,4.298c2.559,1.402,6.225,1.696,9.606,2.274
			c4.587-0.216,9.562-0.044,13.146-1.264c0.043-0.295,0.4-0.274,0.759-0.252c0.745-0.857,2.028-1.176,2.528-2.276
			c0.937-0.747,1.812-1.558,2.781-2.275c0.812-0.872,1.312-2.058,2.021-3.033c1.464,1.654,3.139,3.098,5.056,4.298
			c1.967,0.562,4.117,0.939,6.826,0.758c0.676-0.25,1.333-0.521,2.274-0.505c1.64-1.058,3.561-1.834,5.057-3.033
			c1.706-1.075,2.773-2.79,4.551-3.793c0.444-0.903,1.791-0.905,2.275-1.77c1.032-0.4,1.549-1.315,2.527-1.77
			c1.28-1.501,2.729-2.834,4.045-4.298c4.943-6.097,9.216-12.863,11.124-21.994v-3.286c-0.272-0.907-0.636-1.724-0.758-2.782
			c-0.751-1.439-1.863-2.518-2.529-4.044c1.207-0.31,2.333-0.7,3.034-1.517c1.427-1.945,2.387-4.355,3.792-6.32
			c0.288-2.24,1.235-3.821,1.517-6.068C113.708,45.142,113.587,41.726,113.11,38.664z M25.385,92.765
			c-0.168,1.516,0.229,2.467,0.253,3.791c-1.492,0.446-2.729,1.147-4.045,1.771c-0.927-0.001-1.854,0-2.78,0
			c-3.331-1.221-5.664-3.438-8.596-5.057c-0.812-0.89-1.53-1.818-2.275-2.78c-0.686-0.887-1.435-1.807-2.023-2.781
			c-0.347-4.055,0.623-6.793,2.023-9.102c0.185-0.235,0.46-0.383,0.759-0.505h7.583c3.162,0.715,6.848,0.905,10.366,1.263
			C26.213,83.816,25.96,88.453,25.385,92.765z M87.828,6.304c0.817-0.278,1.509-0.682,2.275-1.011
			c1.987,0.372,3.779,0.938,6.32,0.758c3.745,4.85,4.6,12.591,6.32,19.467c-4.655-1.245-9.18-2.618-15.422-2.276
			c-1.396-3.07-2.06-6.872-2.023-11.376C85.866,9.735,86.743,7.916,87.828,6.304z M59.514,99.338
			c-1.1,3.029-1.491,6.768-3.792,8.595c-0.892-0.119-0.831-1.19-1.012-2.022c-0.548-0.378-0.589-1.265-1.517-1.263
			c-1.625-0.278-1.815,0.88-2.528,1.517c-0.41,1.598,1.242,2.167,0.758,3.033h-8.849c-3.672-0.794-6.509-2.423-9.353-4.045
			c-1.233-2.391-2.357-4.889-3.033-7.838c-0.209-6.36,0.223-12.078,1.769-16.685c3.814-2.169,8.536-3.43,14.663-3.286
			c1.153-0.279,2.439-0.426,3.286-1.012c0.332-0.088,0.397-0.444,0.759-0.505c0.204,0.048,0.252,0.253,0.505,0.253
			c0.26,1.931,1.42,2.961,1.771,4.803c0.722,1.469,1.611,2.771,2.023,4.551c1.716,2.666,2.627,6.137,4.297,8.848
			C59.086,96.225,59.689,97.392,59.514,99.338z M93.137,89.731c-0.468,0.374-0.378,1.307-1.264,1.263
			c0.033-1.736,0.731-2.807,2.529-2.779C94.313,89.052,93.645,89.31,93.137,89.731z M102.491,75.574
			c-0.466-0.546-0.272-1.75-0.759-2.275c-0.185-0.741-0.767-1.088-1.264-1.517c-4.745-1.091-5.64,4.724-2.781,6.32
			c1.299,0.202,1.921-0.271,2.781-0.507c0.038-0.467,0.856-0.154,1.012-0.505c0.141-0.525,0.394-0.536,0.758-0.253
			c-0.016,2.428-1.68,3.209-2.528,4.803c-1.071,1.289-2.081,2.639-3.033,4.045c-1.024-0.239-1.726-0.803-3.034-0.758
			c-1.636,0.134-2.455,1.084-3.539,1.77c0.185,0.689-0.503,0.509-0.506,1.012c-0.35,0.154-0.038,0.974-0.505,1.012
			c-0.167,1.852,0.164,3.206,0.505,4.55c-0.418,1.183-1.587,1.614-2.527,2.275c-0.7,0.816-1.867,1.166-2.528,2.023
			c-1.81,1.223-3.574,2.492-5.562,3.539c-1.836,0.27-3.439,0.774-5.561,0.758c-0.595,0.007-0.744-0.435-1.517-0.252
			c-0.527-0.399-1.029-0.824-1.77-1.012c-1.561-1.811-3.039-3.702-4.045-6.067c-0.665-1.021-0.975-2.396-1.769-3.286
			c-0.558-1.045-0.909-2.293-1.77-3.033c-0.335-1.352-1.175-2.197-1.77-3.287c-0.593-1.008-1.001-2.202-1.771-3.033
			c-0.914-2.373-2.176-4.396-3.033-6.826c0.107-0.529-0.174-0.669-0.253-1.012c-0.081-2.277,0.214-4.933-0.253-6.825
			c0.069-0.825,0.822-1.511,1.264-2.022c0.509-0.59,0.925-1.287,1.771-1.518c0.92-1.185,1.903-2.308,2.78-3.538
			c3.329-2.235,5.881-5.243,9.102-7.585c1.346-0.256,2.568-0.634,3.792-1.011h0.505c2.201,1.423,5.374,1.873,7.332,3.538
			c2.477,0.473,4.414,1.486,6.32,2.529c2.215,0.65,4.005,1.725,5.814,2.78c1.891,0.975,3.612,2.118,5.057,3.539
			c1.502,1.364,3.262,2.468,4.298,4.298C104.23,70.883,103.692,73.603,102.491,75.574z M101.228,74.056
			c0.012,0.856-0.589,1.098-1.012,1.518c-0.443-0.231-0.879-0.471-0.759-1.265C100.21,74.323,100.74,73.566,101.228,74.056z
			 M109.065,47.512c-0.325,3.291-1.872,5.845-3.034,7.837c-1.03,0.402-1.973,0.892-3.033,1.264
			c-1.148,0.286-2.646,0.221-3.792,0.506c-1.57-0.452-2.573-1.473-4.045-2.023c-1.327-0.695-2.728-1.316-4.046-2.021
			c-1.432-0.59-3.075-0.97-4.298-1.77c-0.912-0.098-1.686-0.336-2.274-0.759c-0.913-0.099-1.688-0.335-2.275-0.758
			c-0.845,0.001-0.67-1.017-1.265-1.265c-0.059-0.782-0.703-0.982-1.011-1.517c-0.156-0.688-0.501-1.185-1.012-1.517
			c-0.127-0.631-0.478-1.039-0.758-1.517c0.125-0.887,0.377-1.646,0.253-2.78c0.541-2.577,2.007-4.229,2.78-6.573
			c1.588-1.53,2.023-4.213,3.793-5.563c0.408,0.071,0.435-0.238,0.758-0.252h0.506c-0.047-0.216,0.099-0.238,0.253-0.253
			c3.048,0.399,4.972,0.359,8.09,0c2.759,0.505,5.372,1.079,7.584,2.022c0.113,0.049-0.017,0.239,0.253,0.253
			c0.171,0.009,1.007,0.542,1.264,0.759c0.712,0.597,1.57,1.582,2.528,2.275c-0.041,0.293,0.056,0.449,0.253,0.505
			C108.318,37.491,109.539,42.703,109.065,47.512z M103.503,45.995c0.147,0.526,0.531,0.817,0.758,1.265
			c1.54,0.191,2.214-0.483,2.022-2.022C105.443,44.315,103.584,44.326,103.503,45.995z M105.272,52.315
			c-0.157-2.139-4.244-2.464-4.298,0c0.381,1.306,1.12,2.252,3.034,2.023c0.248-0.342,0.675-0.505,1.012-0.758
			C104.81,52.865,105.376,52.924,105.272,52.315z M91.62,66.978c0.671,1.182,0.951,2.757,2.781,2.781
			c1.314-0.203,1.858-1.176,2.022-2.528c-0.05-1.131-0.792-1.567-1.264-2.275C93.016,64.666,91.91,65.415,91.62,66.978z
			 M85.048,67.989c0.224,0.872,0.855,1.335,1.517,1.77c1.006-0.26,1.939-0.59,2.022-1.77C88.659,65.353,85.056,65.639,85.048,67.989
			z M91.368,75.32c-1.012,0.085-2.517-0.324-2.528,0.76c-0.415-0.042-0.415,1.559,0,1.516c0.23,0.443,0.086,1.262,0.506,1.518
			c0.265,1.167,1.22,1.645,2.78,1.517c0.056-0.196,0.212-0.293,0.506-0.253c0.562-0.616,0.554-1.805,0.505-3.033
			C92.6,76.617,92.043,75.91,91.368,75.32z M82.773,83.916c0.761-0.418,1.262-1.098,1.769-1.769
			c1.027-4.273-3.584-6.084-5.309-3.287C79.237,81.72,80.248,83.576,82.773,83.916z M69.12,90.994
			c0.666,1.357,1.722,2.324,3.54,2.529c1.456-0.25,1.597-0.346,2.275-1.265c0.216-0.293,0.71-0.832,0.758-1.011
			c0.431-1.623-0.146-3.748-1.012-4.551C71.298,85.654,68.825,87.533,69.12,90.994z M72.154,89.731
			c-0.497-0.683,0.155-1.903,1.264-1.77C73.528,89.081,72.997,89.562,72.154,89.731z M77.463,91.501
			c0.184,2.345,1.252,3.804,2.781,4.803c5.228,1.128,6.271-5.862,3.792-8.595C80.952,86.43,77.623,88.279,77.463,91.501z
			 M80.75,92.765c-0.1-1.027,0.093-1.763,1.011-1.771C81.993,91.353,81.977,93.083,80.75,92.765z M46.368,99.338
			c-2.048-0.277-2.475,1.065-2.275,3.034c0.776,0.908,1.44,1.93,3.033,2.022c0.507-0.421,1.176-0.68,1.265-1.517
			C48.047,101.366,47.403,100.158,46.368,99.338z M53.952,100.854c-0.083,1.677,1.499,2.488,2.78,2.023
			C58.073,100.716,54.519,98.251,53.952,100.854z M41.818,104.14c-0.231-0.443-0.47-0.878-1.265-0.758
			c-2.239,0.352-0.204,3.888,1.012,3.034C42.552,106.272,42.503,104.586,41.818,104.14z"/>
	</g>
</g>
<g>
</g>
<g>
</g>
<g>
</g>
<g>
</g>
<g>
</g>
<g>
</g>
<g>
</g>
<g>
</g>
<g>
</g>
<g>
</g>
<g>
</g>
<g>
</g>
<g>
</g>
<g>
</g>
<g>
</g>
</svg>
