<?xml version="1.0" encoding="iso-8859-1"?>
<!-- Generator: Adobe Illustrator 19.0.0, SVG Export Plug-In . SVG Version: 6.00 Build 0)  -->
<svg version="1.1" id="Capa_1" xmlns="http://www.w3.org/2000/svg" xmlns:xlink="http://www.w3.org/1999/xlink" x="0px" y="0px"
	 viewBox="0 0 512 512" style="enable-background:new 0 0 512 512;" xml:space="preserve">
<g>
	<path style="fill:#368B4C;" d="M419.445,38.765c-10.753-3.867-19.474-3.739-26.436-1.641l8.785-13.027
		c2.442-3.622,1.486-8.537-2.135-10.978c-3.621-2.443-8.536-1.487-10.979,2.134l-8.633,12.802
		c-0.733-7.154-3.906-15.163-11.398-23.547c-1.994-2.232-5.554-2.034-7.304,0.394c-6.53,9.057-18.151,30.704,2.627,49.342
		l10.882,7.389c25.206,12.515,40.997-6.47,46.965-15.949C423.412,43.151,422.262,39.777,419.445,38.765z"/>
	<path style="fill:#368B4C;" d="M140.215,32.642c-2.671-1.352-5.923,0.109-6.668,3.007c-2.846,11.062-1.913,19.734,0.824,26.471
		l-13.781-7.529c-3.834-2.091-8.637-0.682-10.732,3.149c-2.094,3.834-0.683,8.638,3.149,10.732l13.549,7.401
		c-7.054,1.397-14.732,5.304-22.38,13.544c-2.036,2.194-1.508,5.719,1.073,7.236c9.628,5.659,32.272,15.215,48.893-7.227
		l6.335-11.52C170.577,51.65,150.208,37.701,140.215,32.642z"/>
</g>
<path style="fill:#C70024;" d="M385.909,139.028c-30.59,21.458-58.48,25.697-75.372,25.792c-10.618,0.063-19.971-6.991-22.85-17.209
	c-4.355-15.448-4.84-31.612-3.986-44.93c1.097-17.188,4.387-29.62,4.387-29.62c7.202-30.822,41.672-47.145,65.545-31.054
	l18.242,12.305l18.242,12.305c8.109,5.473,13.212,13.476,15.406,22.375C409.781,106.307,403.022,127.017,385.909,139.028z"/>
<path style="fill:#FF0C38;" d="M405.521,88.994c-2.583,11.061-9.174,21.627-19.613,28.945c-30.59,21.458-58.48,25.697-75.372,25.792
	c-10.618,0.063-19.971-6.991-22.85-17.209c-2.235-7.919-3.448-16.017-3.986-23.841c1.097-17.188,4.387-29.62,4.387-29.62
	c7.202-30.822,41.672-47.145,65.545-31.054l18.242,12.305l18.242,12.305C398.225,72.091,403.328,80.094,405.521,88.994z"/>
<ellipse transform="matrix(-0.8291 -0.5591 0.5591 -0.8291 543.8283 322.7124)" cx="321.236" cy="78.24" rx="5.436" ry="10.744"/>
<ellipse transform="matrix(-0.8291 -0.5591 0.5591 -0.8291 515.3485 388.9565)" cx="317.12" cy="115.715" rx="5.436" ry="10.744"/>
<ellipse transform="matrix(-0.8291 -0.5591 0.5591 -0.8291 598.9997 353.8045)" cx="353.573" cy="85.354" rx="5.436" ry="10.744"/>
<ellipse transform="matrix(-0.8291 -0.5591 0.5591 -0.8291 559.5434 426.8364)" cx="345.007" cy="127.901" rx="5.436" ry="10.744"/>
<ellipse transform="matrix(-0.8291 -0.5591 0.5591 -0.8291 631.6374 412.2399)" cx="378.823" cy="109.584" rx="5.436" ry="10.744"/>
<path style="fill:#C70024;" d="M254.197,156.685c-34.291,13.244-74.265,6.559-74.265,6.559
	c-28.428-3.901-47.071-31.201-40.048-55.106c0.728-2.467,1.729-4.893,3.026-7.265l10.555-19.307l10.545-19.318
	c13.803-25.275,51.974-26.657,72.483-2.552c19.803,23.261,27.975,45.805,31.212,62.445c0.717,3.712,1.192,7.128,1.497,10.197
	C270.256,142.893,264.098,152.868,254.197,156.685z"/>
<path style="fill:#FF0C38;" d="M267.704,122.142c-2.351,6.042-7.16,11.008-13.508,13.455c-34.291,13.244-74.265,6.559-74.265,6.559
	c-20.14-2.763-35.387-17.282-40.048-34.017c0.728-2.467,1.729-4.893,3.026-7.265l10.555-19.307l10.545-19.318
	c13.803-25.275,51.974-26.657,72.483-2.552C256.295,82.958,264.467,105.502,267.704,122.142z"/>
<ellipse transform="matrix(-0.4794 0.8776 -0.8776 -0.4794 383.113 32.2143)" cx="182.002" cy="129.741" rx="5.436" ry="10.744"/>
<ellipse transform="matrix(-0.4794 0.8776 -0.8776 -0.4794 439.4238 0.0283)" cx="219.704" cy="130.35" rx="5.436" ry="10.744"/>
<ellipse transform="matrix(-0.4794 0.8776 -0.8776 -0.4794 360.3021 -19.9769)" cx="186.076" cy="96.879" rx="5.436" ry="10.744"/>
<ellipse transform="matrix(-0.4794 0.8776 -0.8776 -0.4794 428.1587 -51.0815)" cx="229.23" cy="101.454" rx="5.436" ry="10.744"/>
<ellipse transform="matrix(-0.4794 0.8776 -0.8776 -0.4794 368.474 -79.5965)" cx="207.846" cy="69.493" rx="5.436" ry="10.744"/>
<path style="fill:#FF728B;" d="M439.327,270.31v238.739H45.067c-9.311,0-16.861-7.55-16.861-16.871V237.506h378.327
	C424.649,237.506,439.327,252.195,439.327,270.31z"/>
<rect x="28.207" y="279.725" style="fill:#FFA5B5;" width="411.121" height="183.464"/>
<path style="fill:#FFB655;" d="M512,215.985v272.671c0,11.262-9.132,20.393-20.393,20.393h-52.28l0.011-231.874
	c0-21.912-17.757-39.669-39.668-39.669H36.336c-10.038,0-19.117-4.06-25.697-10.639C4.07,220.297,0,211.219,0,201.18
	c0-0.316,0-0.633,0.011-0.949c0.506-19.623,16.565-35.377,36.315-35.377H460.87C489.108,164.854,512,187.746,512,215.985z"/>
<polyline style="fill:#FFDAAA;" points="28.207,324.339 439.331,324.339 439.331,421.231 28.207,421.231 "/>
<g>
	<path style="fill:#FF0C38;" d="M76.128,380.77l25.906-28.316c1.957-2.138,5.287-2.257,7.39-0.26l35.546,33.738
		c3.559,3.377,0.866,9.351-4.023,8.92l-61.451-5.422C75.22,389.052,73.232,383.938,76.128,380.77z"/>
	<path style="fill:#FF0C38;" d="M318.741,360.323l14.483,30.192c1.238,2.58,4.333,3.668,6.913,2.431l44.495-21.344
		c4.603-2.208,3.576-9.039-1.472-9.796l-58.978-8.849C320.07,352.341,316.943,356.575,318.741,360.323z"/>
	<path style="fill:#FF0C38;" d="M267.085,357.693L260.25,390.6c-0.651,3.133-3.956,4.933-6.94,3.779l-52.771-20.389
		c-4.813-1.859-4.247-8.844,0.802-9.903l59.606-12.518C264.603,350.801,267.845,354.036,267.085,357.693z"/>
</g>
<path style="fill:#FFA733;" d="M477.435,255.063v253.986h-38.108l0.011-231.874c0-21.912-17.757-39.669-39.668-39.669H36.336
	c-10.038,0-19.117-4.06-25.697-10.639C4.07,220.297,0,211.219,0,201.18c0-0.316,0-0.633,0.011-0.949h422.593
	C452.761,200.231,477.435,224.905,477.435,255.063z"/>
<g>
</g>
<g>
</g>
<g>
</g>
<g>
</g>
<g>
</g>
<g>
</g>
<g>
</g>
<g>
</g>
<g>
</g>
<g>
</g>
<g>
</g>
<g>
</g>
<g>
</g>
<g>
</g>
<g>
</g>
</svg>
