<?xml version="1.0" encoding="UTF-8" standalone="no"?>
<!-- Created with Inkscape (http://www.inkscape.org/) -->

<svg
   xmlns:dc="http://purl.org/dc/elements/1.1/"
   xmlns:cc="http://creativecommons.org/ns#"
   xmlns:rdf="http://www.w3.org/1999/02/22-rdf-syntax-ns#"
   xmlns:svg="http://www.w3.org/2000/svg"
   xmlns="http://www.w3.org/2000/svg"
   xmlns:sodipodi="http://sodipodi.sourceforge.net/DTD/sodipodi-0.dtd"
   xmlns:inkscape="http://www.inkscape.org/namespaces/inkscape"
   width="210mm"
   height="297mm"
   version="1.1"
   viewBox="0 0 210 297"
   id="svg56"
   sodipodi:docname="prazzels.svg"
   inkscape:version="0.92.2 (5c3e80d, 2017-08-06)">
  <defs
     id="defs60">
    <clipPath
       clipPathUnits="userSpaceOnUse"
       id="clipPath64">
      <ellipse
         style="fill:#ffe680;fill-opacity:0.41860465;stroke-width:0.25811207"
         id="ellipse66"
         cx="92.961403"
         cy="156.76282"
         rx="44.51252"
         ry="44.493237" />
    </clipPath>
  </defs>
  <sodipodi:namedview
     pagecolor="#ffffff"
     bordercolor="#666666"
     borderopacity="1"
     objecttolerance="10"
     gridtolerance="10"
     guidetolerance="10"
     inkscape:pageopacity="0"
     inkscape:pageshadow="2"
     inkscape:window-width="958"
     inkscape:window-height="1008"
     id="namedview58"
     showgrid="false"
     inkscape:zoom="0.5"
     inkscape:cx="286.83025"
     inkscape:cy="642.70236"
     inkscape:window-x="-7"
     inkscape:window-y="0"
     inkscape:window-maximized="0"
     inkscape:current-layer="svg56" />
  <metadata
     id="metadata36">
    <rdf:RDF>
      <cc:Work
         rdf:about="">
        <dc:format>image/svg+xml</dc:format>
        <dc:type
           rdf:resource="http://purl.org/dc/dcmitype/StillImage" />
        <dc:title />
      </cc:Work>
    </rdf:RDF>
  </metadata>
  <g
     id="g54"
     transform="matrix(3.3599854,0,0,3.3523523,-207.39894,-377.68119)"
     style="stroke-width:0.26458001"
     clip-path="url(#clipPath64)">
    <path
       d="m 46.793,156.77 v -46.699 h 93.133 v 93.398 H 46.793 Z"
       id="path38"
       inkscape:connector-curvature="0"
       style="fill:#fefefd" />
    <path
       d="m 86.391,200.95 c -7.1859,-1.1679 -13.623,-3.8025 -19.621,-8.0309 -2.721,-1.9182 -8.0406,-7.2378 -9.9588,-9.9588 -7.8916,-11.195 -10.405,-24.759 -6.9745,-37.646 2.074,-7.7922 5.7823,-14.173 11.642,-20.033 4.6278,-4.6278 9.3379,-7.7669 14.946,-9.9608 14.394,-5.631 29.974,-3.7011 42.733,5.2936 2.721,1.9182 8.0406,7.2378 9.9588,9.9588 4.4693,6.34 7.2436,13.419 8.1753,20.861 0.44557,3.5591 0.18441,10.598 -0.52125,14.049 -1.1917,5.8278 -3.9923,12.323 -7.3644,17.08 -2.2998,3.2443 -7.4438,8.3916 -10.645,10.652 -4.7715,3.3693 -11.236,6.1559 -17.08,7.3628 -3.5064,0.72407 -11.87,0.92731 -15.289,0.37154 z m 9.0341,-25.63 c -0.0509,-0.35706 -0.27156,-0.56163 -0.60568,-0.56163 -0.60538,0 -0.88976,0.88824 -0.38438,1.2006 0.5295,0.32725 1.0775,-0.0264 0.99006,-0.63895 z m -8.7957,0.0744 c 0.09857,-0.15949 -0.01347,-0.48266 -0.24897,-0.71816 -0.39452,-0.39452 -0.46184,-0.39452 -0.85636,0 -0.50009,0.50009 -0.28431,1.0081 0.42818,1.0081 0.27386,0 0.57858,-0.13049 0.67715,-0.28997 z m 16.388,-0.90066 c 0,-0.34732 -0.20457,-0.55822 -0.5953,-0.61371 -0.48834,-0.0694 -0.59531,0.0409 -0.59531,0.61371 0,0.57279 0.10697,0.68307 0.59531,0.61372 0.39073,-0.0555 0.5953,-0.26639 0.5953,-0.61372 z m -0.51786,0.15058 c -0.0837,-0.13547 -0.0511,-0.30882 0.0726,-0.38524 0.12365,-0.0764 0.22481,0.0344 0.22481,0.2463 0,0.44613 -0.0834,0.48511 -0.29738,0.13894 z m -18.547,-1.3173 c 0.25569,-0.41372 -0.15162,-1.0822 -0.6594,-1.0822 -0.59708,0 -0.83496,0.34542 -0.62132,0.90217 0.17389,0.45315 1.0369,0.57448 1.2807,0.18004 z m -0.91129,-0.55304 c 0,-0.14552 0.11906,-0.26458 0.26458,-0.26458 0.14552,0 0.26458,0.11906 0.26458,0.26458 0,0.14552 -0.11906,0.26458 -0.26458,0.26458 -0.14552,0 -0.26458,-0.11906 -0.26458,-0.26458 z m 8.1285,-0.0322 c 0.40647,-0.40647 0.1237,-1.0261 -0.46826,-1.0261 -0.58332,0 -0.88242,0.41257 -0.68052,0.93871 0.17571,0.45789 0.73568,0.50048 1.1488,0.0874 z m 7.6988,-0.69807 c 0.0635,-0.44529 -0.0477,-0.59261 -0.44741,-0.59261 -0.63328,0 -0.93387,0.40022 -0.71972,0.95827 0.22632,0.58979 1.0684,0.32596 1.1671,-0.36566 z m -29.104,-2.5108 c -0.05549,-0.39075 -0.26639,-0.59532 -0.61372,-0.59532 -0.34732,0 -0.55822,0.20457 -0.61371,0.59532 -0.06936,0.48833 0.04093,0.59531 0.61371,0.59531 0.57279,0 0.68307,-0.10698 0.61372,-0.59531 z m -0.46054,-0.0882 c 0.0127,-0.30822 0.07539,-0.37092 0.15985,-0.15985 0.07643,0.19099 0.06703,0.4192 -0.02089,0.50712 -0.08792,0.0879 -0.15045,-0.0684 -0.13896,-0.34727 z m 10.959,-1.3045 c 0,-0.34357 -0.20613,-0.55482 -0.59531,-0.61009 -0.43842,-0.0623 -0.59531,0.0481 -0.59531,0.41892 0,0.27691 0.08349,0.58696 0.18554,0.68901 0.35098,0.35098 1.0051,0.027 1.0051,-0.49784 z m -0.66146,-0.12867 c 0,-0.14552 0.11906,-0.26458 0.26458,-0.26458 0.14552,0 0.26458,0.11906 0.26458,0.26458 0,0.14552 -0.11906,0.26458 -0.26458,0.26458 -0.14552,0 -0.26458,-0.11906 -0.26458,-0.26458 z m -5.0792,-0.3644 c -0.05095,-0.35706 -0.27156,-0.56164 -0.60568,-0.56164 -0.60538,0 -0.88977,0.88824 -0.38438,1.2006 0.5295,0.32724 1.0775,-0.0264 0.99006,-0.63895 z m 29.421,-0.17746 c 0,-0.59708 -0.34541,-0.83496 -0.90216,-0.62132 -0.49896,0.19148 -0.56299,1.0695 -0.09,1.2344 0.53799,0.18766 0.99218,-0.093 0.99218,-0.61313 z m 6.8314,0.23186 c -0.0971,-0.65985 -0.4515,-0.84234 -0.983,-0.50615 -0.5163,0.32657 -0.15925,1.0807 0.51167,1.0807 0.42009,0 0.53521,-0.14035 0.47133,-0.57458 z m 7.9375,-0.0207 c -0.0555,-0.39074 -0.26639,-0.59531 -0.61372,-0.59531 -0.34732,0 -0.55822,0.20457 -0.61371,0.59531 -0.0694,0.48834 0.0409,0.59531 0.61371,0.59531 0.57279,0 0.68307,-0.10697 0.61372,-0.59531 z m -31.305,-0.8599 c 0,-0.78797 -1.0328,-0.70925 -1.1457,0.0873 -0.07266,0.51298 0.01619,0.60183 0.52917,0.52917 0.41099,-0.0582 0.61649,-0.26372 0.61649,-0.61649 z m -17.643,-1.1272 c 0.06876,-0.48194 -0.04242,-0.59261 -0.59531,-0.59261 -0.48287,0 -0.67986,0.14055 -0.67986,0.48507 0,1.0255 1.1306,1.1209 1.2752,0.10754 z m 45.508,0 c 0.0688,-0.48194 -0.0424,-0.59261 -0.59531,-0.59261 -0.48287,0 -0.67986,0.14055 -0.67986,0.48507 0,1.0255 1.1306,1.1209 1.2752,0.10754 z m -19.584,-0.95701 c -0.0509,-0.35706 -0.27156,-0.56164 -0.60567,-0.56164 -0.60539,0 -0.88977,0.88825 -0.38438,1.2006 0.52949,0.32725 1.0774,-0.0264 0.99005,-0.63895 z m -18.733,-0.27805 c 0,-0.40615 -0.71662,-0.75936 -1.0822,-0.53341 -0.27488,0.16988 -0.32385,1.0045 -0.07363,1.2548 0.2525,0.25251 1.1558,-0.31126 1.1558,-0.72134 z m -0.89879,0.15739 c -0.07495,-0.12127 0.03185,-0.22049 0.23733,-0.22049 0.20548,0 0.31228,0.0992 0.23733,0.22049 -0.07495,0.12126 -0.18174,0.22048 -0.23733,0.22048 -0.05558,0 -0.16238,-0.0992 -0.23733,-0.22048 z m 33.31,-0.70556 c 0,-0.34733 -0.20457,-0.55822 -0.59531,-0.61371 -0.48833,-0.0694 -0.59531,0.0409 -0.59531,0.61371 0,0.57279 0.10698,0.68307 0.59531,0.61371 0.39074,-0.0555 0.59531,-0.26638 0.59531,-0.61371 z m -24.834,0 c 0.25358,-0.66083 -0.08627,-1.1627 -0.68188,-1.0069 -0.52239,0.13661 -0.73904,0.85734 -0.36896,1.2274 0.31105,0.31106 0.8938,0.18879 1.0508,-0.22048 z m 17.294,-0.90297 c 0,-0.12259 -0.17861,-0.3711 -0.39688,-0.55226 -0.59466,-0.49353 -1.2815,0.12953 -0.90937,0.8249 0.21631,0.40417 0.37336,0.4495 0.78819,0.22749 0.28493,-0.15249 0.51806,-0.37755 0.51806,-0.50013 z m 11.329,-2.6055 c 0.0635,-0.44529 -0.0477,-0.59261 -0.44742,-0.59261 -0.63327,0 -0.93386,0.40021 -0.71971,0.95826 0.22632,0.5898 1.0684,0.32596 1.1671,-0.36565 z m -0.59671,0.0141 c -0.14358,-0.37709 -0.1132,-0.40748 0.14812,-0.14812 0.18082,0.17948 0.26211,0.39297 0.18065,0.47444 -0.0815,0.0815 -0.22941,-0.0654 -0.32877,-0.32632 z m -38.564,-0.41213 c 0.1053,-0.54678 -0.6585,-0.91522 -1.0616,-0.5121 -0.40312,0.40313 -0.03468,1.1669 0.5121,1.0616 0.25343,-0.0488 0.50072,-0.29609 0.54952,-0.54952 z m 18.146,0.1784 c 0.21504,-0.56039 -0.0251,-0.90215 -0.63401,-0.90215 -0.27387,0 -0.56488,0.10832 -0.6467,0.24071 -0.25292,0.40923 0.14923,1.0822 0.6467,1.0822 0.2599,0 0.54521,-0.18934 0.63401,-0.42075 z m -0.7663,-0.37298 c 0.0899,-0.14552 0.21602,-0.26459 0.2802,-0.26459 0.0642,0 0.11667,0.11907 0.11667,0.26459 0,0.14552 -0.12609,0.26458 -0.2802,0.26458 -0.15411,0 -0.20661,-0.11906 -0.11667,-0.26458 z m -22.49,-1.988 c 0,-0.34388 -0.20619,-0.55482 -0.59648,-0.61024 -0.57954,-0.0823 -0.61878,0.0557 -0.34922,1.2286 0.01081,0.0471 0.22802,0.0454 0.48268,-0.004 0.25564,-0.0492 0.46302,-0.32455 0.46302,-0.61471 z m 48.246,-0.25118 c 0.10518,-0.54262 -0.40177,-0.95271 -0.92807,-0.75074 -0.44743,0.17169 -0.46462,1.0498 -0.024,1.226 0.51907,0.20763 0.8519,0.0415 0.95206,-0.47529 z m -20.774,-0.25502 c 0.0797,-0.20764 -0.0326,-0.52484 -0.24956,-0.70487 -0.31753,-0.26354 -0.47531,-0.24647 -0.80933,0.0876 -0.2282,0.2282 -0.33426,0.54539 -0.23569,0.70488 0.25725,0.41623 1.1237,0.35763 1.2946,-0.0876 z m -1.1466,-0.12559 c 0,-0.27475 0.5033,-0.6725 0.65238,-0.51556 0.0484,0.051 -0.0786,0.24616 -0.28219,0.4338 -0.2036,0.18764 -0.37019,0.22443 -0.37019,0.0818 z m -6.2177,-1.7495 c 0,-0.34357 -0.20614,-0.55482 -0.59532,-0.61009 -0.43841,-0.0623 -0.59531,0.0481 -0.59531,0.41892 0,0.27691 0.0835,0.58696 0.18554,0.68901 0.35098,0.35098 1.0051,0.027 1.0051,-0.49784 z m -0.49256,0.004 c 0.0838,-0.21828 0.19909,-0.39687 0.25628,-0.39687 0.0572,0 0.10398,0.17859 0.10398,0.39687 0,0.21828 -0.11532,0.39688 -0.25628,0.39688 -0.14095,0 -0.18774,-0.1786 -0.10398,-0.39688 z m 11.454,0.16708 c 0.30348,-0.56709 0.1334,-0.82854 -0.53903,-0.82854 -0.63618,0 -0.88111,0.46767 -0.49107,0.93763 0.4278,0.51547 0.71195,0.48538 1.0301,-0.10909 z m -27.101,-0.69262 c 0,-0.60538 -0.88824,-0.88976 -1.2006,-0.38438 -0.32724,0.52949 0.02639,1.0775 0.63895,0.99006 0.35706,-0.051 0.56164,-0.27157 0.56164,-0.60568 z m -0.92604,-0.004 c 0,-0.24254 0.12799,-0.39831 0.28443,-0.34617 0.15644,0.0522 0.28443,0.20792 0.28443,0.34617 0,0.13824 -0.12799,0.29401 -0.28443,0.34616 -0.15644,0.0522 -0.28443,-0.10363 -0.28443,-0.34616 z m 42.344,-0.0133 c 0.2808,-0.33834 0.26564,-0.48491 -0.0866,-0.83716 -0.59903,-0.59903 -1.3698,-0.005 -0.96787,0.74594 0.32574,0.60867 0.60499,0.63283 1.0545,0.0912 z m -23.039,-2.3564 c 0.39664,-0.47793 0.14192,-0.93763 -0.51955,-0.93763 -0.27387,0 -0.57475,0.12428 -0.66862,0.27618 -0.17544,0.28387 0.31185,1.0467 0.66862,1.0467 0.10988,0 0.34368,-0.17338 0.51955,-0.38529 z m 6.8392,-1.5368 c 0.1053,-0.54678 -0.6585,-0.91522 -1.0616,-0.5121 -0.4031,0.40312 -0.0347,1.1669 0.5121,1.0616 0.25343,-0.0488 0.50072,-0.29609 0.54952,-0.54952 z m -22.969,-0.99665 c 0,-0.62404 -0.6997,-0.98533 -1.1112,-0.57378 -0.4115,0.41155 -0.05027,1.1112 0.57378,1.1112 0.36385,0 0.53747,-0.17362 0.53747,-0.53747 z m 41.143,-0.38857 c 0,-0.78797 -1.0328,-0.70924 -1.1457,0.0873 -0.0727,0.51298 0.0162,0.60183 0.52917,0.52917 0.41099,-0.0582 0.61649,-0.26371 0.61649,-0.61649 z m -46.302,-0.53278 c 0,-0.34357 -0.20613,-0.55482 -0.59531,-0.61009 -0.43842,-0.0623 -0.59531,0.0481 -0.59531,0.41892 0,0.27691 0.08349,0.58696 0.18554,0.68901 0.35098,0.35098 1.0051,0.027 1.0051,-0.49784 z m -0.79375,0.13591 c 0.08994,-0.14552 0.21603,-0.26458 0.2802,-0.26458 0.06417,0 0.11668,0.11906 0.11668,0.26458 0,0.14553 -0.12609,0.26459 -0.2802,0.26459 -0.15411,0 -0.20661,-0.11906 -0.11668,-0.26459 z m 18.076,-0.46572 c 0.06353,-0.44529 -0.04769,-0.59261 -0.4474,-0.59261 -0.63328,0 -0.93387,0.40021 -0.71972,0.95827 0.22632,0.58979 1.0685,0.32595 1.1671,-0.36566 z m -0.60241,0.21942 c -0.08373,-0.13546 -0.05106,-0.30882 0.07258,-0.38523 0.12364,-0.0764 0.2248,0.0344 0.2248,0.2463 0,0.44613 -0.08343,0.48511 -0.29738,0.13893 z m 24.69,-0.37071 c 0.21676,-0.26118 0.19507,-0.48385 -0.0837,-0.8599 -0.35421,-0.47778 -0.40292,-0.48116 -0.83268,-0.0577 -0.37771,0.37215 -0.39774,0.5205 -0.11607,0.8599 0.41695,0.50238 0.65251,0.51555 1.0325,0.0577 z m -15.441,-1.8929 c 0,-0.60539 -0.88824,-0.88977 -1.2006,-0.38438 -0.32725,0.52949 0.0264,1.0774 0.63895,0.99005 0.35706,-0.0509 0.56163,-0.27156 0.56163,-0.60567 z m -22.225,-1.8593 c 0,-0.34356 -0.20614,-0.55481 -0.59531,-0.61009 -0.43842,-0.0623 -0.59531,0.0482 -0.59531,0.41893 0,0.27691 0.08349,0.58696 0.18554,0.689 0.35098,0.35098 1.0051,0.027 1.0051,-0.49784 z m 41.889,-2.1819 c 0.0635,-0.44529 -0.0477,-0.59261 -0.44741,-0.59261 -0.63328,0 -0.93387,0.40022 -0.71972,0.95827 0.22632,0.58979 1.0684,0.32596 1.1671,-0.36566 z m -0.79562,0.0204 c 0.191,-0.0764 0.4192,-0.067 0.50712,0.0209 0.0879,0.0879 -0.0683,0.15045 -0.34727,0.13896 -0.30822,-0.0127 -0.37091,-0.0754 -0.15985,-0.15985 z m -44.231,-0.21613 c 0.08376,-0.21828 0.08179,-0.58061 -0.0044,-0.80516 -0.12328,-0.32128 -0.27028,-0.34748 -0.68976,-0.12298 -0.59673,0.31936 -0.70705,0.94614 -0.20236,1.1498 0.56921,0.22968 0.73947,0.18758 0.89651,-0.22165 z m 40.048,-0.93873 c 0,-0.59708 -0.34541,-0.83497 -0.90217,-0.62132 -0.49896,0.19147 -0.56299,1.0695 -0.09,1.2344 0.53799,0.18767 0.99219,-0.093 0.99219,-0.61312 z m -16.452,-0.31804 c -0.0555,-0.39074 -0.26639,-0.59531 -0.61372,-0.59531 -0.34732,0 -0.55822,0.20457 -0.61371,0.59531 -0.0694,0.48833 0.0409,0.59531 0.61371,0.59531 0.57279,0 0.68307,-0.10698 0.61372,-0.59531 z m 7.3238,-1.9219 c 0,-0.34356 -0.20613,-0.55481 -0.59531,-0.61009 -0.43842,-0.0623 -0.59531,0.0482 -0.59531,0.41893 0,0.27691 0.0835,0.58696 0.18553,0.689 0.35098,0.35098 1.0051,0.027 1.0051,-0.49784 z m -0.83785,0.004 c 0,-0.21828 0.0992,-0.39688 0.22049,-0.39688 0.12127,0 0.22049,0.1786 0.22049,0.39688 0,0.21828 -0.0992,0.39687 -0.22049,0.39687 -0.12127,0 -0.22049,-0.17859 -0.22049,-0.39687 z m -24.298,-0.92641 c 0,-0.75423 -0.8351,-1.074 -1.0874,-0.41643 -0.24072,0.6273 0.09988,1.2608 0.62362,1.16 0.2929,-0.0564 0.46382,-0.3304 0.46382,-0.74353 z m 8.8746,0.38359 c 0.28042,-0.33788 0.26729,-0.48326 -0.0745,-0.82505 -0.48061,-0.48062 -0.99485,-0.26715 -0.99485,0.41297 0,0.86684 0.52427,1.0689 1.0694,0.41208 z m 24.812,-2.0372 c -0.0555,-0.39074 -0.26639,-0.59531 -0.61372,-0.59531 -0.34732,0 -0.55822,0.20457 -0.61371,0.59531 -0.0694,0.48834 0.0409,0.59531 0.61371,0.59531 0.57279,0 0.68307,-0.10697 0.61372,-0.59531 z m -18.649,-0.0468 c 0.18567,-0.48385 -0.48859,-1.0514 -1.0109,-0.851 -0.41208,0.15813 -0.5359,0.74009 -0.22385,1.0521 0.31321,0.31321 1.0857,0.18738 1.2348,-0.20114 z m 12.479,-0.54851 c 0,-0.78797 -1.0328,-0.70924 -1.1456,0.0873 -0.0727,0.51298 0.0162,0.60183 0.52916,0.52917 0.411,-0.0582 0.61649,-0.26371 0.61649,-0.61649 z m -7.0611,-0.20228 c 0.10531,-0.54678 -0.65849,-0.91522 -1.0616,-0.5121 -0.40312,0.40313 -0.0347,1.1669 0.5121,1.0616 0.25343,-0.0488 0.50072,-0.29609 0.54952,-0.54952 z m -1.0087,0.0856 c 0,-0.13693 0.1177,-0.32171 0.26156,-0.41061 0.14998,-0.0927 0.19433,0.0135 0.10398,0.24896 -0.17589,0.45837 -0.36554,0.54224 -0.36554,0.16165 z m -13.361,-0.94165 c 0,-0.61141 -0.89153,-0.88082 -1.2099,-0.36564 -0.27548,0.44574 0.23685,1.075 0.78872,0.96867 0.23166,-0.0446 0.42121,-0.31598 0.42121,-0.60303 z"
       id="path40"
       inkscape:connector-curvature="0"
       style="fill:#f0daa3" />
    <path
       d="m 89.656,201.18 c -8.4312,-0.8247 -14.973,-3.1 -21.46,-7.4643 -20.384,-13.713 -25.878,-41.23 -12.288,-61.54 10.245,-15.311 28.406,-22.722 46.387,-18.929 12.6,2.6576 23.655,10.973 29.902,22.492 4.0188,7.4112 5.8914,16.543 5.1003,24.871 -0.40742,4.2888 -0.87947,6.5838 -2.1278,10.345 -5.5139,16.613 -20.577,28.571 -37.973,30.144 -2.5722,0.23258 -5.657,0.26604 -7.5406,0.0818 z m 5.793,-25.323 c 0.39739,-0.47884 0.0946,-1.2242 -0.49725,-1.2242 -0.73272,0 -1.2032,0.70216 -0.79784,1.1906 0.41053,0.49466 0.90183,0.50738 1.2951,0.0335 z m -9.0081,-0.13544 c 0.58962,-0.37366 0.25023,-1.221 -0.48905,-1.221 -0.42996,0 -0.68705,0.17053 -0.75001,0.49746 -0.08244,0.42811 0.32946,0.94965 0.75001,0.94965 0.07276,0 0.29284,-0.10174 0.48905,-0.22609 z m 16.553,-0.90107 c 0.41335,-0.6553 -0.43497,-1.4794 -1.0217,-0.99242 -0.49277,0.40895 -0.52346,0.85021 -0.0894,1.2843 0.38923,0.38923 0.7394,0.29722 1.111,-0.2919 z m -19.05,-1.5875 c 0.41335,-0.6553 -0.43497,-1.4794 -1.0217,-0.99243 -0.49277,0.40896 -0.52346,0.85022 -0.08935,1.2843 0.38923,0.38923 0.7394,0.29722 1.111,-0.2919 z m 7.4696,-0.5879 c 0.18172,-0.47354 -0.3427,-1.1873 -0.87235,-1.1873 -0.45049,0 -0.73468,0.64442 -0.52508,1.1906 0.19799,0.51596 1.1991,0.51354 1.3974,-0.003 z m 7.6729,-0.26458 c 0.18171,-0.47354 -0.3427,-1.1873 -0.87236,-1.1873 -0.45048,0 -0.73468,0.64442 -0.52507,1.1906 0.19799,0.51595 1.1991,0.51354 1.3974,-0.003 z m -29.302,-2.3444 c 0.65699,-0.79162 -0.42799,-1.7889 -1.1551,-1.0617 -0.48763,0.48764 -0.50361,0.69099 -0.08703,1.1076 0.41849,0.41849 0.87066,0.4018 1.2422,-0.0458 z m 10.564,-1.953 c 0.10769,-0.75837 -0.63772,-1.0805 -1.1997,-0.51853 -0.56198,0.56197 -0.23984,1.3074 0.51854,1.1997 0.38416,-0.0545 0.62665,-0.29703 0.6812,-0.6812 z m -5.8011,0.10087 c 0.43481,-0.52392 0.07236,-1.2242 -0.63363,-1.2242 -0.33266,0 -0.67917,0.19368 -0.77001,0.43041 -0.18531,0.48291 0.26333,1.1571 0.77001,1.1571 0.18264,0 0.46778,-0.1635 0.63363,-0.36334 z m 36.407,-0.16346 c 0.21589,-0.68019 -0.0297,-1.0607 -0.68462,-1.0607 -0.57942,0 -0.90821,0.58068 -0.67415,1.1906 0.22131,0.57675 1.1631,0.4867 1.3588,-0.12992 z m 7.7781,0.16346 c 0.65699,-0.79162 -0.428,-1.7889 -1.1551,-1.0617 -0.48763,0.48763 -0.50361,0.69099 -0.087,1.1076 0.41849,0.41848 0.87066,0.4018 1.2422,-0.0458 z m -14.693,-0.29812 c 0.22597,-0.58889 -0.0877,-1.1906 -0.62077,-1.1906 -0.25766,0 -0.61668,0.1786 -0.79783,0.39688 -0.40539,0.48847 0.0651,1.1906 0.79783,1.1906 0.25765,0 0.537,-0.17859 0.62077,-0.39687 z m -16.543,-0.89882 c 0.1076,-0.75776 -0.41194,-1.1439 -1.0672,-0.7932 -0.55469,0.29686 -0.61439,0.78762 -0.15205,1.25 0.48885,0.48885 1.1185,0.25298 1.2193,-0.45675 z m -17.55,-0.82334 c 0.33114,-0.53579 -0.15696,-1.3206 -0.82135,-1.3206 -0.69334,0 -1.0554,0.53604 -0.80423,1.1906 0.17102,0.44567 1.3712,0.54159 1.6256,0.12992 z m 45.375,-0.12992 c 0.26278,-0.31664 0.26278,-0.47712 0,-0.79375 -0.70379,-0.84802 -1.8814,-0.22145 -1.4918,0.79375 0.0838,0.21828 0.37958,0.39687 0.65737,0.39687 0.27779,0 0.65329,-0.17859 0.83445,-0.39687 z m -19.582,-0.79039 c 0.42267,-0.50928 0.15593,-1.194 -0.46515,-1.194 -0.74547,0 -1.1417,0.52254 -0.83327,1.0989 0.31576,0.59002 0.85492,0.62952 1.2984,0.0951 z m -18.674,-0.30148 c 0.21002,-0.54729 -0.28695,-1.1571 -0.943,-1.1571 -0.56481,0 -0.88896,0.5871 -0.65737,1.1906 0.20419,0.53211 1.3929,0.5072 1.6004,-0.0335 z m 32.352,-0.38565 c 0.37057,-0.37057 0.1475,-1.2194 -0.37296,-1.4192 -0.7547,-0.28961 -1.5306,0.95368 -0.95463,1.5297 0.27085,0.27084 1.0076,0.20952 1.3276,-0.1105 z m -24.655,-1.036 c 0,-0.52524 -0.15014,-0.67872 -0.72911,-0.74532 -0.47547,-0.0547 -0.78445,0.0604 -0.8882,0.33073 -0.28404,0.7402 0.10624,1.2499 0.8882,1.1599 0.57896,-0.0666 0.72911,-0.22008 0.72911,-0.74533 z m 16.933,-0.52916 c 0,-0.49587 -0.1581,-0.68382 -0.63154,-0.75075 -0.76722,-0.10848 -1.1461,0.41286 -0.78732,1.0833 0.39815,0.74394 1.4189,0.50472 1.4189,-0.33253 z m 11.643,-2.119 c 0.29116,-0.47111 -0.15208,-1.3206 -0.68906,-1.3206 -0.57749,0 -0.90567,0.58152 -0.67193,1.1906 0.17184,0.44782 1.1092,0.5373 1.361,0.12992 z m -39.171,-0.72652 c 0.21016,-0.54768 -0.4854,-1.2432 -1.0331,-1.0331 -0.66396,0.25479 -0.82337,0.99983 -0.29637,1.3852 0.5426,0.39676 1.0986,0.2495 1.3295,-0.3521 z m 18.135,-0.31044 c 0,-0.55305 -0.59241,-0.87341 -1.1906,-0.64385 -0.47102,0.18075 -0.5214,0.92366 -0.0918,1.3533 0.41527,0.41528 1.2824,-0.0644 1.2824,-0.70945 z m -23.416,-2.1357 c 0,-0.868 -1.0593,-1.0951 -1.3173,-0.28237 -0.23163,0.72979 0.05536,1.1237 0.74692,1.0251 0.41031,-0.0585 0.57035,-0.26689 0.57035,-0.74274 z m 48.395,0.0988 c 0.1853,-0.48292 -0.26333,-1.1571 -0.77002,-1.1571 -0.18264,0 -0.4803,0.17859 -0.66146,0.39687 -0.26278,0.31664 -0.26278,0.47712 0,0.79375 0.43532,0.52453 1.2244,0.50604 1.4315,-0.0335 z m -20.878,-0.62793 c 0,-0.48491 -0.15921,-0.68406 -0.5965,-0.74616 -0.65011,-0.0923 -1.0194,0.47509 -0.75591,1.1616 0.0956,0.24918 0.39812,0.38153 0.75591,0.33073 0.43729,-0.0621 0.5965,-0.26126 0.5965,-0.74617 z m -7.276,-1.7281 c 0,-0.81949 -0.6872,-1.1377 -1.2473,-0.57756 -0.56013,0.56012 -0.24193,1.2473 0.57756,1.2473 0.54023,0 0.66976,-0.12952 0.66976,-0.66976 z m 10.98,-0.12399 c 0,-0.48491 -0.1592,-0.68407 -0.5965,-0.74616 -0.65011,-0.0923 -1.0194,0.47509 -0.75591,1.1616 0.0956,0.24919 0.39812,0.38154 0.75591,0.33073 0.43729,-0.0621 0.5965,-0.26125 0.5965,-0.74616 z m -27.538,0.36857 c 0.54853,-0.21049 0.53991,-1.3237 -0.0119,-1.5354 -0.84967,-0.32605 -1.4911,0.72707 -0.83959,1.3786 0.37104,0.37103 0.31863,0.36138 0.85148,0.1569 z m 41.826,-1.1623 c 0,-0.48491 -0.15921,-0.68407 -0.5965,-0.74616 -0.65011,-0.0923 -1.0194,0.47509 -0.75591,1.1616 0.0956,0.24919 0.39812,0.38154 0.75591,0.33073 0.43729,-0.0621 0.5965,-0.26125 0.5965,-0.74616 z m -23.019,-2.3812 c 0,-0.48491 -0.15921,-0.68407 -0.5965,-0.74616 -0.65011,-0.0923 -1.0194,0.47509 -0.75591,1.1616 0.0956,0.24919 0.39812,0.38154 0.75591,0.33073 0.43729,-0.0621 0.5965,-0.26125 0.5965,-0.74616 z m 6.8463,-0.85493 c 0.2219,-0.35237 0.1874,-0.55912 -0.14956,-0.89608 -0.79262,-0.79261 -1.9752,0.24328 -1.2606,1.1043 0.4114,0.4957 1.0238,0.40529 1.4102,-0.20819 z m -23.171,-0.78549 c 0.46338,-0.46338 0.38896,-0.94855 -0.19329,-1.2602 -0.72626,-0.38869 -1.4556,0.34061 -1.0669,1.0669 0.31161,0.58226 0.79678,0.65668 1.2602,0.19329 z m 41.196,-0.74445 c 0,-0.48115 -0.16021,-0.68059 -0.59649,-0.74254 -0.71981,-0.10221 -1.0622,0.57902 -0.58191,1.1578 0.49572,0.59731 1.1784,0.35677 1.1784,-0.41521 z m -46.222,-0.75778 c -0.09557,-0.82413 -0.92185,-0.95355 -1.3745,-0.21529 -0.23357,0.38091 -0.19373,0.5526 0.19532,0.84172 0.69583,0.51711 1.2761,0.20886 1.1792,-0.62643 z m 17.514,-0.14155 c 0,-0.51483 -0.72078,-1.0338 -1.1873,-0.85474 -0.48202,0.18496 -0.53591,1.4004 -0.06951,1.5676 0.46158,0.16551 1.2568,-0.28553 1.2568,-0.71286 z m 23.945,-0.68455 c 0,-0.48491 -0.15921,-0.68407 -0.59651,-0.74616 -0.6501,-0.0923 -1.0194,0.47509 -0.75591,1.1616 0.0956,0.24919 0.39813,0.38154 0.75591,0.33073 0.4373,-0.0621 0.59651,-0.26125 0.59651,-0.74616 z m -15.897,-0.68977 c 0.54853,-0.21049 0.53991,-1.3237 -0.0119,-1.5354 -0.84967,-0.32606 -1.4911,0.72707 -0.83959,1.3785 0.37104,0.37104 0.31863,0.36138 0.85149,0.1569 z m -21.732,-2.2868 c 0.16551,-0.46159 -0.28553,-1.2568 -0.71286,-1.2568 -0.51483,0 -1.0337,0.72078 -0.85474,1.1872 0.18497,0.48202 1.4004,0.53592 1.5676,0.0695 z m 41.944,-2.6637 c -0.11047,-0.77599 -1.1407,-0.92179 -1.519,-0.21496 -0.21665,0.40482 -0.18591,0.6229 0.13276,0.94157 0.57009,0.57009 1.5013,0.082 1.3862,-0.72661 z m -44.979,-0.52916 c -0.13917,-0.97757 -1.7756,-0.85807 -1.7979,0.13129 -0.0022,0.0987 0.18281,0.3664 0.4112,0.59479 0.57056,0.57056 1.5019,0.0829 1.3867,-0.72608 z m 39.833,-0.0482 c 0.22598,-0.58889 -0.0877,-1.1906 -0.62076,-1.1906 -0.25765,0 -0.61668,0.17859 -0.79784,0.39687 -0.40539,0.48847 0.0651,1.1906 0.79784,1.1906 0.25766,0 0.53699,-0.1786 0.62076,-0.39688 z m -16.528,-0.23104 c 0.43481,-0.52392 0.0724,-1.2242 -0.63363,-1.2242 -0.33266,0 -0.67916,0.19369 -0.77,0.43042 -0.18531,0.48291 0.26333,1.1571 0.77,1.1571 0.18265,0 0.46778,-0.1635 0.63363,-0.36333 z m 7.3843,-2.5147 c -0.0956,-0.82412 -0.92185,-0.95354 -1.3745,-0.21528 -0.23356,0.38091 -0.19372,0.5526 0.19532,0.84172 0.69583,0.51711 1.2761,0.20886 1.1792,-0.62644 z m -25.111,-0.39568 c 0.44396,-0.53494 0.0666,-1.2242 -0.67024,-1.2242 -0.75509,0 -1.0859,0.63504 -0.62205,1.194 0.40792,0.49152 0.89987,0.50301 1.2923,0.0302 z m 8.8914,-0.43041 c 0,-0.48491 -0.15921,-0.68407 -0.5965,-0.74616 -0.65011,-0.0923 -1.0194,0.47508 -0.75591,1.1616 0.09562,0.24918 0.39812,0.38153 0.75591,0.33073 0.43728,-0.0621 0.5965,-0.26125 0.5965,-0.74616 z m 24.963,-1.4377 c 0.13336,-0.70219 -0.67579,-1.2686 -1.3198,-0.92397 -0.49154,0.26306 -0.66126,1.0465 -0.30408,1.4037 0.3764,0.37641 1.5258,0.0369 1.6239,-0.47972 z m -19.053,0.14697 c 0.5152,-0.32656 0.27312,-1.4633 -0.33639,-1.5796 -0.70205,-0.13394 -1.2687,0.67523 -0.92397,1.3194 0.28421,0.53105 0.69821,0.61652 1.2604,0.2602 z m 12.842,-0.62252 c 0.22191,-0.35237 0.1874,-0.55911 -0.14956,-0.89607 -0.79262,-0.79262 -1.9752,0.24327 -1.2606,1.1043 0.4114,0.49571 1.0238,0.40529 1.4101,-0.20819 z m -7.1437,-0.26458 c 0.22191,-0.35237 0.1874,-0.55912 -0.14956,-0.89608 -0.79261,-0.79261 -1.9752,0.24328 -1.2606,1.1043 0.4114,0.4957 1.0238,0.40529 1.4102,-0.20819 z m -14.526,-0.63099 c 0.48334,-0.48334 0.4304,-0.86983 -0.17114,-1.2493 -0.92509,-0.58354 -1.7432,0.57559 -0.95948,1.3594 0.4203,0.4203 0.61964,0.40089 1.1306,-0.11009 z"
       id="path42"
       inkscape:connector-curvature="0"
       style="fill:#fdc727" />
    <path
       d="M 82.982,185.54 C 67.834,170.367 67.468,169.976 67.296,168.794 c -0.2169,-1.4924 0.50622,-3.6247 0.95795,-2.8248 0.28223,0.49977 1.4225,0.63192 1.6919,0.19607 0.2456,-0.39739 -0.11726,-1.3206 -0.51906,-1.3206 -0.19231,0 -0.33617,-0.14883 -0.3197,-0.33073 0.01647,-0.1819 -0.28069,-1.2832 -0.66035,-2.4474 -0.37966,-1.1642 -0.76758,-2.4789 -0.86203,-2.9215 -0.15934,-0.74677 -0.11856,-0.80407 0.56481,-0.79375 0.61116,0.009 0.73654,-0.10087 0.73654,-0.64671 0,-0.73683 -0.84795,-1.0873 -1.2107,-0.50034 -0.48268,0.78098 -0.64083,-0.27943 -0.62963,-4.2218 0.01223,-4.3067 0.214,-5.4853 1.4945,-8.7297 0.42103,-1.0668 0.66642,-1.3809 1.0088,-1.2914 1.0515,0.27498 1.8434,-1.0815 0.92985,-1.5928 -0.30513,-0.17076 0.03815,-0.63649 1.5555,-2.1104 2.1525,-2.0909 4.7124,-3.5544 7.2539,-4.1473 1.4757,-0.34425 1.551,-0.33649 1.7869,0.18417 0.44779,0.98839 0.88031,0.88205 1.7923,-0.44066 0.31116,-0.45129 0.51643,-0.46739 2.6426,-0.20732 3.2227,0.3942 4.4798,0.79919 4.3245,1.3932 -0.19113,0.73091 0.42239,1.3846 1.0982,1.1701 0.31633,-0.1004 0.57515,-0.36681 0.57515,-0.59202 0,-0.36719 0.0659,-0.3663 0.63811,0.009 0.59345,0.38884 0.71232,0.37747 1.6981,-0.1625 1.0501,-0.57517 1.0653,-0.57581 1.6263,-0.0681 0.67933,0.61478 1.4739,0.27234 1.4408,-0.62097 -0.024,-0.64725 0.17451,-0.72695 2.6911,-1.0805 2.1403,-0.30066 5.5365,-0.004 7.6833,0.67132 1.2736,0.40059 1.3578,0.48083 1.324,1.2609 -0.0315,0.72801 0.0582,0.84393 0.71118,0.91874 0.57254,0.0656 0.78063,-0.0419 0.88989,-0.45968 l 0.1426,-0.54531 0.82991,0.56341 c 0.45645,0.30988 6.4556,6.1717 13.331,13.026 9.244,9.2154 12.502,12.621 12.502,13.07 0,1.1803 -0.84776,4.7234 -1.8493,7.729 -0.90969,2.7299 -2.752,6.7264 -4.2689,9.2604 -2.099,3.5065 -6.1584,8.1894 -9.1853,10.596 -0.63157,0.50219 -1.4055,1.1346 -1.7198,1.4053 -0.49513,0.42648 -2.3084,1.6673 -4.0174,2.7492 -3.3171,2.0998 -9.9896,4.6849 -14.149,5.4817 -1.2369,0.23695 -2.4931,0.48085 -2.7915,0.542 -0.42671,0.0875 -3.854,-3.2058 -16.053,-15.425 z m 12.467,-9.6817 c 0.39739,-0.47884 0.0946,-1.2242 -0.49725,-1.2242 -0.73272,0 -1.2032,0.70216 -0.79784,1.1906 0.41053,0.49466 0.90183,0.50738 1.2951,0.0335 z m -9.0081,-0.13544 c 0.58962,-0.37366 0.25023,-1.221 -0.48905,-1.221 -0.42996,0 -0.68705,0.17053 -0.75001,0.49746 -0.08244,0.42811 0.32946,0.94965 0.75001,0.94965 0.07276,0 0.29284,-0.10174 0.48905,-0.22609 z m 16.553,-0.90107 c 0.41335,-0.6553 -0.43497,-1.4794 -1.0217,-0.99242 -0.49277,0.40895 -0.52346,0.85021 -0.0894,1.2843 0.38923,0.38923 0.7394,0.29722 1.111,-0.2919 z m -19.05,-1.5875 c 0.41335,-0.6553 -0.43497,-1.4794 -1.0217,-0.99243 -0.49277,0.40896 -0.52346,0.85022 -0.08935,1.2843 0.38923,0.38923 0.7394,0.29722 1.111,-0.2919 z m 7.4696,-0.5879 c 0.18172,-0.47354 -0.3427,-1.1873 -0.87235,-1.1873 -0.45049,0 -0.73468,0.64442 -0.52508,1.1906 0.19799,0.51596 1.1991,0.51354 1.3974,-0.003 z m 7.6729,-0.26458 c 0.18171,-0.47354 -0.3427,-1.1873 -0.87236,-1.1873 -0.45048,0 -0.73468,0.64442 -0.52507,1.1906 0.19799,0.51595 1.1991,0.51354 1.3974,-0.003 z m -29.302,-2.3444 c 0.65699,-0.79162 -0.42799,-1.7889 -1.1551,-1.0617 -0.48763,0.48764 -0.50361,0.69099 -0.08703,1.1076 0.41849,0.41849 0.87066,0.4018 1.2422,-0.0458 z m 10.564,-1.953 c 0.10769,-0.75837 -0.63772,-1.0805 -1.1997,-0.51853 -0.56198,0.56197 -0.23984,1.3074 0.51854,1.1997 0.38416,-0.0545 0.62665,-0.29703 0.6812,-0.6812 z m -5.8011,0.10087 c 0.43481,-0.52392 0.07236,-1.2242 -0.63363,-1.2242 -0.33266,0 -0.67917,0.19368 -0.77001,0.43041 -0.18531,0.48291 0.26333,1.1571 0.77001,1.1571 0.18264,0 0.46778,-0.1635 0.63363,-0.36334 z m 36.407,-0.16346 c 0.21589,-0.68019 -0.0297,-1.0607 -0.68462,-1.0607 -0.57942,0 -0.90821,0.58068 -0.67415,1.1906 0.22131,0.57675 1.1631,0.4867 1.3588,-0.12992 z m 7.7781,0.16346 c 0.65699,-0.79162 -0.428,-1.7889 -1.1551,-1.0617 -0.48763,0.48763 -0.50361,0.69099 -0.087,1.1076 0.41849,0.41848 0.87066,0.4018 1.2422,-0.0458 z m -14.693,-0.29812 c 0.22597,-0.58889 -0.0877,-1.1906 -0.62077,-1.1906 -0.25766,0 -0.61668,0.1786 -0.79783,0.39688 -0.40539,0.48847 0.0651,1.1906 0.79783,1.1906 0.25765,0 0.537,-0.17859 0.62077,-0.39687 z m -16.543,-0.89882 c 0.1076,-0.75776 -0.41194,-1.1439 -1.0672,-0.7932 -0.55469,0.29686 -0.61439,0.78762 -0.15205,1.25 0.48885,0.48885 1.1185,0.25298 1.2193,-0.45675 z m 27.824,-0.95326 c 0.26278,-0.31664 0.26278,-0.47712 0,-0.79375 -0.70379,-0.84802 -1.8814,-0.22145 -1.4918,0.79375 0.0838,0.21828 0.37958,0.39687 0.65737,0.39687 0.27779,0 0.65329,-0.17859 0.83445,-0.39687 z m -19.582,-0.79039 c 0.42267,-0.50928 0.15593,-1.194 -0.46515,-1.194 -0.74547,0 -1.1417,0.52254 -0.83327,1.0989 0.31576,0.59002 0.85492,0.62952 1.2984,0.0951 z m -18.674,-0.30148 c 0.21002,-0.54729 -0.28695,-1.1571 -0.943,-1.1571 -0.56481,0 -0.88896,0.5871 -0.65737,1.1906 0.20419,0.53211 1.3929,0.5072 1.6004,-0.0335 z m 32.352,-0.38565 c 0.37057,-0.37057 0.1475,-1.2194 -0.37296,-1.4192 -0.7547,-0.28961 -1.5306,0.95368 -0.95463,1.5297 0.27085,0.27084 1.0076,0.20952 1.3276,-0.1105 z m -24.655,-1.036 c 0,-0.52524 -0.15014,-0.67872 -0.72911,-0.74532 -0.47547,-0.0547 -0.78445,0.0604 -0.8882,0.33073 -0.28404,0.7402 0.10624,1.2499 0.8882,1.1599 0.57896,-0.0666 0.72911,-0.22008 0.72911,-0.74533 z m 16.933,-0.52916 c 0,-0.49587 -0.1581,-0.68382 -0.63154,-0.75075 -0.76722,-0.10848 -1.1461,0.41286 -0.78732,1.0833 0.39815,0.74394 1.4189,0.50472 1.4189,-0.33253 z m 11.643,-2.119 c 0.29116,-0.47111 -0.15208,-1.3206 -0.68906,-1.3206 -0.57749,0 -0.90567,0.58152 -0.67193,1.1906 0.17184,0.44782 1.1092,0.5373 1.361,0.12992 z m -39.171,-0.72652 c 0.21016,-0.54768 -0.4854,-1.2432 -1.0331,-1.0331 -0.66396,0.25479 -0.82337,0.99983 -0.29637,1.3852 0.5426,0.39676 1.0986,0.2495 1.3295,-0.3521 z m 18.135,-0.31044 c 0,-0.55305 -0.59241,-0.87341 -1.1906,-0.64385 -0.47102,0.18075 -0.5214,0.92366 -0.0918,1.3533 0.41527,0.41528 1.2824,-0.0644 1.2824,-0.70945 z m 24.979,-2.0369 c 0.1853,-0.48292 -0.26333,-1.1571 -0.77002,-1.1571 -0.18264,0 -0.4803,0.17859 -0.66146,0.39687 -0.26278,0.31664 -0.26278,0.47712 0,0.79375 0.43532,0.52453 1.2244,0.50604 1.4315,-0.0335 z m -20.878,-0.62793 c 0,-0.48491 -0.15921,-0.68406 -0.5965,-0.74616 -0.65011,-0.0923 -1.0194,0.47509 -0.75591,1.1616 0.0956,0.24918 0.39812,0.38153 0.75591,0.33073 0.43729,-0.0621 0.5965,-0.26126 0.5965,-0.74617 z m -7.276,-1.7281 c 0,-0.81949 -0.6872,-1.1377 -1.2473,-0.57756 -0.56013,0.56012 -0.24193,1.2473 0.57756,1.2473 0.54023,0 0.66976,-0.12952 0.66976,-0.66976 z m 10.98,-0.12399 c 0,-0.48491 -0.1592,-0.68407 -0.5965,-0.74616 -0.65011,-0.0923 -1.0194,0.47509 -0.75591,1.1616 0.0956,0.24919 0.39812,0.38154 0.75591,0.33073 0.43729,-0.0621 0.5965,-0.26125 0.5965,-0.74616 z m -27.538,0.36857 c 0.54853,-0.21049 0.53991,-1.3237 -0.0119,-1.5354 -0.84967,-0.32605 -1.4911,0.72707 -0.83959,1.3786 0.37104,0.37103 0.31863,0.36138 0.85148,0.1569 z m 41.826,-1.1623 c 0,-0.48491 -0.15921,-0.68407 -0.5965,-0.74616 -0.65011,-0.0923 -1.0194,0.47509 -0.75591,1.1616 0.0956,0.24919 0.39812,0.38154 0.75591,0.33073 0.43729,-0.0621 0.5965,-0.26125 0.5965,-0.74616 z m -23.019,-2.3812 c 0,-0.48491 -0.15921,-0.68407 -0.5965,-0.74616 -0.65011,-0.0923 -1.0194,0.47509 -0.75591,1.1616 0.0956,0.24919 0.39812,0.38154 0.75591,0.33073 0.43729,-0.0621 0.5965,-0.26125 0.5965,-0.74616 z m 6.8463,-0.85493 c 0.2219,-0.35237 0.1874,-0.55912 -0.14956,-0.89608 -0.79262,-0.79261 -1.9752,0.24328 -1.2606,1.1043 0.4114,0.4957 1.0238,0.40529 1.4102,-0.20819 z m -23.171,-0.78549 c 0.46338,-0.46338 0.38896,-0.94855 -0.19329,-1.2602 -0.72626,-0.38869 -1.4556,0.34061 -1.0669,1.0669 0.31161,0.58226 0.79678,0.65668 1.2602,0.19329 z m 41.196,-0.74445 c 0,-0.48115 -0.16021,-0.68059 -0.59649,-0.74254 -0.71981,-0.10221 -1.0622,0.57902 -0.58191,1.1578 0.49572,0.59731 1.1784,0.35677 1.1784,-0.41521 z m -46.222,-0.75778 c -0.09557,-0.82413 -0.92185,-0.95355 -1.3745,-0.21529 -0.23357,0.38091 -0.19373,0.5526 0.19532,0.84172 0.69583,0.51711 1.2761,0.20886 1.1792,-0.62643 z m 17.514,-0.14155 c 0,-0.51483 -0.72078,-1.0338 -1.1873,-0.85474 -0.48202,0.18496 -0.53591,1.4004 -0.06951,1.5676 0.46158,0.16551 1.2568,-0.28553 1.2568,-0.71286 z m 23.945,-0.68455 c 0,-0.48491 -0.15921,-0.68407 -0.59651,-0.74616 -0.6501,-0.0923 -1.0194,0.47509 -0.75591,1.1616 0.0956,0.24919 0.39813,0.38154 0.75591,0.33073 0.4373,-0.0621 0.59651,-0.26125 0.59651,-0.74616 z m -15.897,-0.68977 c 0.54853,-0.21049 0.53991,-1.3237 -0.0119,-1.5354 -0.84967,-0.32606 -1.4911,0.72707 -0.83959,1.3785 0.37104,0.37104 0.31863,0.36138 0.85149,0.1569 z m -21.732,-2.2868 c 0.16551,-0.46159 -0.28553,-1.2568 -0.71286,-1.2568 -0.51483,0 -1.0337,0.72078 -0.85474,1.1872 0.18497,0.48202 1.4004,0.53592 1.5676,0.0695 z m 41.944,-2.6637 c -0.11047,-0.77599 -1.1407,-0.92179 -1.519,-0.21496 -0.21665,0.40482 -0.18591,0.6229 0.13276,0.94157 0.57009,0.57009 1.5013,0.082 1.3862,-0.72661 z m -5.1459,-0.57741 c 0.22598,-0.58889 -0.0877,-1.1906 -0.62076,-1.1906 -0.25765,0 -0.61668,0.17859 -0.79784,0.39687 -0.40539,0.48847 0.0651,1.1906 0.79784,1.1906 0.25766,0 0.53699,-0.1786 0.62076,-0.39688 z m -16.528,-0.23104 c 0.43481,-0.52392 0.0724,-1.2242 -0.63363,-1.2242 -0.33266,0 -0.67916,0.19369 -0.77,0.43042 -0.18531,0.48291 0.26333,1.1571 0.77,1.1571 0.18265,0 0.46778,-0.1635 0.63363,-0.36333 z m 7.3843,-2.5147 c -0.0956,-0.82412 -0.92185,-0.95354 -1.3745,-0.21528 -0.23358,0.38091 -0.19372,0.5526 0.19532,0.84172 0.69583,0.51711 1.2761,0.20886 1.1792,-0.62644 z m -25.111,-0.39568 c 0.44396,-0.53494 0.0666,-1.2242 -0.67024,-1.2242 -0.75509,0 -1.0859,0.63504 -0.62205,1.194 0.40792,0.49152 0.89987,0.50301 1.2923,0.0302 z m 8.8914,-0.43041 c 0,-0.48491 -0.15921,-0.68407 -0.5965,-0.74616 -0.65011,-0.0923 -1.0194,0.47508 -0.75591,1.1616 0.09562,0.24918 0.39812,0.38153 0.75591,0.33073 0.43728,-0.0621 0.5965,-0.26125 0.5965,-0.74616 z m 18.753,-1.9133 c 0.2219,-0.35237 0.18739,-0.55911 -0.14956,-0.89607 -0.79262,-0.79262 -1.9752,0.24327 -1.2606,1.1043 0.4114,0.49571 1.0238,0.40529 1.4102,-0.20819 z"
       id="path44"
       inkscape:connector-curvature="0"
       style="fill:#c6a067" />
    <path
       d="M 82.838,185.4 C 69.024,171.573 67.431,169.893 67.431,169.148 c 0,-0.87701 1.1005,-2.458 1.7109,-2.458 0.18753,0 0.48918,-0.17859 0.67034,-0.39687 0.24591,-0.29631 0.90781,-0.39743 2.6121,-0.39904 2.8427,-0.003 6.4332,-0.38872 9.0296,-0.97077 1.0914,-0.24466 2.1822,-0.41781 2.424,-0.38475 0.24177,0.0331 0.5178,-0.0665 0.6134,-0.22116 0.0956,-0.15469 0.58848,-0.45451 1.0953,-0.66627 0.81091,-0.33882 0.88698,-0.44944 0.63406,-0.92203 -0.35871,-0.67026 -0.27072,-0.67398 -3.3743,0.14247 -1.4206,0.37372 -3.6546,0.74636 -4.9642,0.82809 -6.1408,0.3832 -7.7044,0.51965 -8.1101,0.70772 -0.35134,0.16291 -0.54081,-0.0744 -0.96534,-1.209 -0.29051,-0.77647 -0.66644,-1.9456 -0.83538,-2.5981 -0.16895,-0.65247 -0.36912,-1.3993 -0.44483,-1.6597 -0.11289,-0.3882 -0.02323,-0.44464 0.4984,-0.31372 0.78456,0.19691 1.3728,-0.41971 1.13,-1.1846 -0.18813,-0.59275 -1.1558,-0.73948 -1.6457,-0.24954 -0.46907,0.46907 -0.72799,-3.4611 -0.38691,-5.873 0.56862,-4.0208 1.8729,-6.8922 4.3986,-9.6831 1.854,-2.0487 3.0991,-2.864 3.8006,-2.4886 0.60657,0.32463 1.2802,-0.10421 1.415,-0.90078 0.19694,-1.164 5.8343,-2.2252 9.2769,-1.7464 4.1378,0.57551 7.4225,2.2491 10.256,5.2256 2.0704,2.1745 3.7545,5.2894 4.3418,8.0302 0.23224,1.0839 0.37662,1.4263 0.39046,0.92604 0.0876,-3.1632 -2.0353,-7.9682 -4.8144,-10.897 l -1.804,-1.9012 2.068,-0.64896 c 1.1374,-0.35693 2.9145,-0.73218 3.949,-0.8339 1.5864,-0.15597 1.9063,-0.11916 2.0422,0.23506 0.18646,0.48591 1.4063,0.57076 1.5604,0.10853 0.29064,-0.87196 6.111,1.2953 8.2718,3.0801 2.3268,1.9219 2.3126,1.9038 1.9527,2.4801 -0.44513,0.71274 0.13711,1.4639 0.97221,1.2543 0.49044,-0.12308 0.7052,0.0892 1.39,1.3739 0.82599,1.5497 1.8889,4.9376 1.9266,6.1406 0.0115,0.36673 0.0804,0.51949 0.1532,0.33947 0.1934,-0.47844 -0.34971,-3.6946 -0.95436,-5.6516 -0.2879,-0.93172 -0.95004,-2.4084 -1.4715,-3.2815 -0.80283,-1.3444 0.72353,0.0822 9.9659,9.3144 l 10.914,10.902 -0.47091,2.4595 c -2.3016,12.021 -9.6881,22.772 -20.175,29.363 -3.0187,1.8973 -5.6395,3.1357 -9.1868,4.341 -2.7749,0.94283 -7.0896,1.9612 -8.3092,1.9612 -0.62222,0 -3.1448,-2.4097 -16.144,-15.422 z m 12.822,-9.6174 c 0.21888,-0.57039 -0.25115,-1.287 -0.84416,-1.287 -0.25932,0 -0.59272,0.19218 -0.74088,0.42706 -0.40421,0.64081 -0.0306,1.2927 0.74088,1.2927 0.38369,0 0.75018,-0.18791 0.84416,-0.43283 z m -8.928,-0.21171 c 0.38107,-0.45916 -0.05782,-1.4721 -0.63783,-1.4721 -0.68955,0 -1.227,0.77858 -0.9258,1.3413 0.32214,0.60193 1.1174,0.66847 1.5636,0.13083 z m 16.286,-1.0716 c 0,-0.9381 -0.82626,-1.2568 -1.3613,-0.52501 -0.4712,0.64439 0.0128,1.5071 0.78391,1.3973 0.44624,-0.0635 0.57741,-0.26169 0.57741,-0.87232 z m -18.937,-1.1577 c 0.34422,-0.64318 -0.22168,-1.4537 -0.92093,-1.3191 -0.53385,0.10281 -0.7935,0.78372 -0.5454,1.4302 0.20863,0.54368 1.1542,0.47197 1.4663,-0.11119 z m 7.1203,-0.26896 c 0.19463,-0.12337 0.31369,-0.5085 0.26458,-0.85585 -0.1073,-0.75889 -1.1941,-0.88584 -1.6326,-0.19069 -0.50413,0.79921 0.521,1.5834 1.368,1.0465 z m 7.7054,-0.41634 c 0.4982,-0.60029 0.22655,-1.3356 -0.4934,-1.3356 -0.83461,0 -1.3074,0.7344 -0.83737,1.3007 0.4334,0.52222 0.91583,0.53487 1.3308,0.0349 z m -28.911,-2.6945 c 0.21888,-0.57038 -0.25115,-1.287 -0.84416,-1.287 -0.25932,0 -0.59272,0.19217 -0.74088,0.42706 -0.40421,0.6408 -0.03059,1.2927 0.74088,1.2927 0.38369,0 0.75018,-0.18791 0.84416,-0.43284 z m 10.419,-1.3091 c 0.47086,-0.56735 -0.0033,-1.3007 -0.84099,-1.3007 -0.46547,0 -0.65622,0.16686 -0.72192,0.63154 -0.14133,0.99953 0.91381,1.4513 1.5629,0.6692 z m -5.6565,-0.54295 c 0.21888,-0.57038 -0.25115,-1.287 -0.84416,-1.287 -0.25932,0 -0.59272,0.19217 -0.74088,0.42706 -0.40421,0.6408 -0.03059,1.2927 0.74088,1.2927 0.38369,0 0.75018,-0.18791 0.84416,-0.43284 z m 29.451,-0.60241 c 0,-0.72694 -0.7355,-1.2476 -1.279,-0.90543 -0.62662,0.39459 -0.71085,1.1856 -0.16848,1.5822 0.58267,0.42606 1.4474,0.0217 1.4474,-0.67678 z m 6.7973,0.60241 c 0.21888,-0.57038 -0.25115,-1.287 -0.84416,-1.287 -0.25932,0 -0.59271,0.19217 -0.74087,0.42706 -0.40421,0.6408 -0.0306,1.2927 0.74087,1.2927 0.38369,0 0.75018,-0.18791 0.84416,-0.43284 z m 7.9657,-0.13816 c 0.13208,-0.69708 -1.5639,-2.7906 -2.7418,-3.3845 -0.8693,-0.43831 -1.5806,-0.54239 -3.7067,-0.54239 -2.3444,0 -2.6669,-0.0576 -2.9614,-0.52917 -0.39152,-0.62691 -1.3353,-0.70021 -1.5576,-0.12097 -0.12375,0.32249 -0.41364,0.37279 -1.3808,0.23959 -2.3496,-0.32361 -4.5738,-0.91699 -4.9874,-1.3305 -0.22916,-0.22917 -0.64902,-0.35591 -0.93302,-0.28165 -0.66495,0.17389 -1.5081,-0.19265 -3.6636,-1.5928 -1.6311,-1.0594 -2.4727,-1.9957 -3.5283,-3.9251 -0.37851,-0.69185 -0.41219,-0.70884 -0.26229,-0.1323 0.37697,1.45 1.8606,3.8 3.1058,4.9196 1.4751,1.3262 4.2506,2.7263 6.7257,3.3927 2.0562,0.55361 6.8322,1.2007 8.9127,1.2076 1.0841,0.004 1.7165,0.14076 2.0531,0.44537 0.4162,0.37665 0.57983,0.39023 1.1333,0.094 0.5511,-0.29493 0.74662,-0.28086 1.3204,0.0951 0.39988,0.26202 0.67345,0.68958 0.67345,1.0525 0,0.33619 0.0848,0.6961 0.18854,0.7998 0.34107,0.34107 1.5248,0.042 1.6098,-0.40676 z m -31.331,-0.8131 c 0.39685,-0.6331 -0.35017,-1.3862 -1.1296,-1.1388 -0.54834,0.17404 -0.78092,1.1541 -0.37112,1.5639 0.31229,0.31229 1.1953,0.0621 1.5007,-0.42512 z m 8.284,-1.9592 c 0.21888,-0.57038 -0.25115,-1.287 -0.84416,-1.287 -0.25932,0 -0.59271,0.19217 -0.74087,0.42706 -0.40421,0.6408 -0.0306,1.2927 0.74087,1.2927 0.38369,0 0.75018,-0.18791 0.84416,-0.43284 z m 17.269,-4.1847 c 0.55096,-0.66386 0.22358,-1.3356 -0.65091,-1.3356 -0.5467,0 -0.81444,0.14505 -0.87812,0.47573 -0.10505,0.54548 0.38804,1.2441 0.87812,1.2441 0.18265,0 0.47556,-0.17288 0.65091,-0.38417 z m -39.158,-0.52916 c 0.55096,-0.66387 0.22358,-1.3356 -0.65091,-1.3356 -0.5467,0 -0.81444,0.14505 -0.87812,0.47573 -0.10505,0.54548 0.38804,1.2441 0.87812,1.2441 0.18264,0 0.47555,-0.17287 0.65091,-0.38416 z m 18.231,-0.072 c 0.56342,-1.0068 -0.7987,-1.9066 -1.5379,-1.0159 -0.23406,0.28204 -0.24002,0.5207 -0.0231,0.92604 0.35544,0.66415 1.212,0.71348 1.561,0.0899 z m 24.853,-2.2426 c 0.79221,-0.7922 -0.10726,-2.0425 -1.0784,-1.499 -0.76525,0.42825 -0.40616,1.8165 0.46985,1.8165 0.16008,0 0.43392,-0.14287 0.60854,-0.3175 z m -20.594,-0.72246 c 0.20635,-0.38557 0.17156,-0.61259 -0.14188,-0.92604 -0.52165,-0.52164 -0.76253,-0.52154 -1.2846,5.3e-4 -0.49901,0.49901 -0.5167,0.70038 -0.0983,1.1188 0.47645,0.47645 1.2165,0.38263 1.5248,-0.19329 z m -7.409,-1.4609 c 0.17705,-0.21334 0.24019,-0.63199 0.14198,-0.94143 -0.25866,-0.81497 -1.5531,-0.63166 -1.6759,0.23735 -0.13765,0.97348 0.91094,1.4548 1.534,0.70408 z m 11.132,-0.1619 c 0.21693,-0.40534 0.21098,-0.64401 -0.0231,-0.92605 -0.74218,-0.89427 -2.124,-0.0857 -1.5825,0.92605 0.16075,0.30034 0.52201,0.54607 0.80281,0.54607 0.2808,0 0.64206,-0.24573 0.8028,-0.54607 z m -27.243,-0.40214 c 0.25212,-0.30379 0.27142,-0.54032 0.07018,-0.8599 -0.39458,-0.62662 -1.1856,-0.71085 -1.5822,-0.16848 -0.73439,1.0043 0.71426,1.9896 1.512,1.0284 z m 41.37,-0.26131 c 0.22867,-0.22867 0.41577,-0.51783 0.41577,-0.64256 0,-0.12473 -0.1871,-0.41388 -0.41577,-0.64256 -0.22868,-0.22867 -0.51783,-0.41577 -0.64256,-0.41577 -0.25763,0 -1.0583,0.7492 -1.0583,0.99025 0,0.24203 0.84829,1.1264 1.0804,1.1264 0.11257,0 0.39177,-0.18709 0.62045,-0.41577 z m -23.046,-2.4434 c 0.39093,-0.43199 0.39343,-0.53375 0.026,-1.0583 -0.22359,-0.31921 -0.51033,-0.58039 -0.63721,-0.58039 -0.29697,0 -1.0622,0.76245 -1.0622,1.0583 0,0.28258 0.75955,1.0583 1.0362,1.0583 0.11257,0 0.39931,-0.21507 0.63721,-0.47793 z m 6.8927,-1.4353 c 0.2219,-0.35237 0.1874,-0.55912 -0.14956,-0.89608 -0.79262,-0.79261 -1.9752,0.24328 -1.2606,1.1043 0.4114,0.4957 1.0238,0.40529 1.4102,-0.20819 z m -12.14,-4.6462 c 0.46588,-1.1363 0.38262,-1.7318 -0.16548,-1.1837 -0.34909,0.34909 -1.2922,4.1605 -1.2613,5.0973 0.01199,0.3638 0.2332,-0.11245 0.49155,-1.0583 0.25835,-0.94589 0.67922,-2.2308 0.93528,-2.8552 z m -10.845,3.4132 c 0,-0.88919 -0.7827,-1.3439 -1.3451,-0.78146 -0.65893,0.65894 -0.25637,1.5993 0.64025,1.4956 0.5442,-0.0629 0.70489,-0.22575 0.70489,-0.71415 z m 41.244,-0.09 c 0.39684,-0.6331 -0.35017,-1.3862 -1.1296,-1.1388 -0.54834,0.17403 -0.78091,1.1541 -0.37112,1.5639 0.31229,0.31229 1.1953,0.0622 1.5007,-0.42512 z m -46.384,-0.35787 c 0.47002,-0.56634 -0.0028,-1.3007 -0.83737,-1.3007 -0.64781,0 -0.94876,0.60394 -0.66693,1.3384 0.1948,0.50765 1.0699,0.48575 1.5043,-0.0376 z m 17.312,-0.77157 c 0,-0.66063 -0.1061,-0.79375 -0.63262,-0.79375 -0.84694,0 -1.3111,0.73425 -0.8304,1.3135 0.19711,0.23751 0.60692,0.39632 0.9107,0.35291 0.41976,-0.06 0.55232,-0.26941 0.55232,-0.87266 z m 24.047,-0.008 c 0.46525,-0.46525 0.30879,-1.086 -0.36456,-1.4464 -0.33927,-0.18157 -0.58087,-0.12039 -0.89491,0.22662 -0.53214,0.588 -0.53336,0.68957 -0.0144,1.2085 0.51982,0.51982 0.76315,0.52197 1.2739,0.0113 z m -15.43,-1.602 c 0.25212,-0.30378 0.27142,-0.54032 0.0702,-0.85989 -0.39459,-0.62662 -1.1856,-0.71086 -1.5822,-0.16848 -0.73439,1.0043 0.71426,1.9896 1.512,1.0284 z m -22.254,-1.8172 c 0.53267,-0.64182 0.07981,-1.512 -0.73752,-1.4171 -0.78562,0.0912 -1.0707,0.80702 -0.56432,1.4172 0.40624,0.48948 0.89559,0.48948 1.3018,-2e-5 z m 36.735,-3.1083 c 0.46387,-0.46387 0.38785,-1.2137 -0.15235,-1.5028 -1.0485,-0.56113 -1.9457,0.9367 -0.91922,1.5346 0.60109,0.35011 0.69245,0.3474 1.0716,-0.0317 z m -16.169,-0.6445 c 0.21888,-0.57039 -0.25115,-1.287 -0.84416,-1.287 -0.59301,0 -1.063,0.71657 -0.84416,1.287 0.2172,0.566 1.4711,0.566 1.6883,0 z m 7.2151,-1.8034 c 0.17704,-0.21333 0.24018,-0.63198 0.14197,-0.94142 -0.25867,-0.81498 -1.5531,-0.63166 -1.6759,0.23735 -0.13764,0.97348 0.91094,1.4548 1.534,0.70407 z m -16.28,-0.82534 c 0.22868,-0.22868 0.41577,-0.51783 0.41577,-0.64256 0,-0.2763 -0.7569,-1.0583 -1.0243,-1.0583 -0.3411,0 -0.82777,0.62223 -0.82777,1.0583 0,0.43607 0.48667,1.0583 0.82777,1.0583 0.10602,0 0.37987,-0.1871 0.60854,-0.41577 z"
       id="path46"
       inkscape:connector-curvature="0"
       style="fill:#d58500" />
    <path
       d="m 89.391,177.8 c -2.9072,-0.27905 -5.3834,-0.8654 -7.9012,-1.871 -2.0642,-0.82439 -5.5225,-2.8304 -6.1193,-3.5495 -0.25554,-0.30791 -0.94029,-0.39977 -2.98,-0.39977 h -2.6482 l -1.1558,-1.1558 c -0.7615,-0.76149 -1.1558,-1.3864 -1.1558,-1.8318 0,-0.7373 1.1634,-2.3041 1.7109,-2.3041 0.18753,0 0.48918,-0.17859 0.67034,-0.39687 0.24591,-0.29631 0.90781,-0.39743 2.6121,-0.39904 2.8427,-0.003 6.4332,-0.38872 9.0296,-0.97077 1.0914,-0.24466 2.1822,-0.41781 2.424,-0.38475 0.24177,0.0331 0.5178,-0.0665 0.6134,-0.22116 0.0956,-0.15469 0.59628,-0.45777 1.1126,-0.67351 0.91011,-0.38026 0.92623,-0.4114 0.52781,-1.0195 -0.38762,-0.59159 -0.37546,-0.64342 0.21419,-0.91208 l 0.62516,-0.28484 -0.75296,-1.8005 c -0.83852,-2.0051 -1.5892,-5.3006 -1.5892,-6.9767 0,-1.2983 0.59419,-3.7892 1.3747,-5.7631 0.42687,-1.0795 0.48229,-1.4618 0.23411,-1.6152 -0.25209,-0.15581 -0.23079,-0.42679 0.0948,-1.206 0.23097,-0.55279 0.35084,-1.0742 0.26638,-1.1586 -0.31085,-0.31085 -4.1417,-0.34355 -5.3517,-0.0457 -0.68669,0.16904 -1.8042,0.68219 -2.4834,1.1403 -1.3203,0.89062 -2.9813,3.1491 -3.2646,4.439 -0.14344,0.65309 -0.27317,0.76089 -0.76663,0.63704 -0.74184,-0.18619 -1.3235,0.45283 -1.0879,1.1952 0.10647,0.33547 0.39968,0.54186 0.76978,0.54186 0.51331,0 0.58139,0.11184 0.48167,0.79127 -0.35694,2.432 1.0414,8.6084 2.4565,10.85 0.36393,0.57649 0.66168,1.1148 0.66168,1.1963 0,0.0815 -0.50602,0.14627 -1.1245,0.14398 -1.8974,-0.007 -6.6564,0.39671 -7.0947,0.60187 -0.33181,0.15534 -0.55242,-0.21489 -1.112,-1.8662 -0.38395,-1.133 -0.81312,-2.5063 -0.95371,-3.0518 -0.24413,-0.94728 -0.22895,-0.98516 0.33791,-0.84288 0.7579,0.19022 1.3232,-0.45248 1.0779,-1.2254 -0.15094,-0.47556 -0.32696,-0.54844 -1.0437,-0.43212 l -0.86215,0.13991 -0.15499,-1.8488 c -0.30525,-3.641 0.54585,-7.7647 2.2034,-10.676 0.9389,-1.6489 3.4117,-4.4073 4.6209,-5.1547 0.69418,-0.42903 1.0284,-0.49827 1.4126,-0.29267 0.60657,0.32463 1.2802,-0.10421 1.415,-0.90078 0.11465,-0.67765 1.986,-1.3185 5.0351,-1.7242 7.1312,-0.94899 14.214,2.8419 17.383,9.3044 2.3021,4.6943 2.3503,9.1861 0.15196,14.157 l -0.64302,1.454 -1.0985,-0.61543 c -1.5239,-0.85373 -3.0009,-2.3467 -3.805,-3.8463 -0.37372,-0.69689 -0.60297,-0.96941 -0.50945,-0.60561 0.37102,1.4433 1.8569,3.7985 3.1039,4.9196 1.4751,1.3262 4.2506,2.7263 6.7257,3.3927 2.0562,0.55361 6.8322,1.2007 8.9127,1.2076 1.0841,0.004 1.7165,0.14076 2.0531,0.44537 0.4162,0.37665 0.57983,0.39023 1.1333,0.094 0.54927,-0.29396 0.74579,-0.2814 1.3022,0.0832 0.37897,0.24831 0.69087,0.73867 0.7396,1.1628 0.0611,0.5315 0.25133,0.75708 0.6911,0.81944 0.48646,0.069 0.57284,0.20019 0.43548,0.66146 -0.29158,0.97913 -0.90282,1.7694 -1.7843,2.3068 -0.68412,0.41713 -1.335,0.51573 -3.4096,0.51653 -1.5761,5.3e-4 -2.6333,0.11297 -2.7437,0.29162 -0.39883,0.64532 -4.241,2.9062 -6.2787,3.6948 -4.1358,1.6003 -9.8161,2.3074 -14.74,1.8348 z m 6.2681,-2.0197 c 0.21888,-0.57039 -0.25115,-1.287 -0.84416,-1.287 -0.25932,0 -0.59272,0.19218 -0.74088,0.42706 -0.40421,0.64081 -0.0306,1.2927 0.74088,1.2927 0.38369,0 0.75018,-0.18791 0.84416,-0.43283 z m -8.928,-0.21171 c 0.38107,-0.45916 -0.05782,-1.4721 -0.63783,-1.4721 -0.68955,0 -1.227,0.77858 -0.9258,1.3413 0.32214,0.60193 1.1174,0.66847 1.5636,0.13083 z m 16.286,-1.0716 c 0,-0.9381 -0.82626,-1.2568 -1.3613,-0.52501 -0.4712,0.64439 0.0128,1.5071 0.78391,1.3973 0.44624,-0.0635 0.57741,-0.26169 0.57741,-0.87232 z m -18.937,-1.1577 c 0.34422,-0.64318 -0.22168,-1.4537 -0.92093,-1.3191 -0.53385,0.10281 -0.7935,0.78372 -0.5454,1.4302 0.20863,0.54368 1.1542,0.47197 1.4663,-0.11119 z m 7.1203,-0.26896 c 0.19463,-0.12337 0.31369,-0.5085 0.26458,-0.85585 -0.1073,-0.75889 -1.1941,-0.88584 -1.6326,-0.19069 -0.50413,0.79921 0.521,1.5834 1.368,1.0465 z m 7.7054,-0.41634 c 0.4982,-0.60029 0.22655,-1.3356 -0.4934,-1.3356 -0.83461,0 -1.3074,0.7344 -0.83737,1.3007 0.4334,0.52222 0.91583,0.53487 1.3308,0.0349 z m -28.911,-2.6945 c 0.21888,-0.57038 -0.25115,-1.287 -0.84416,-1.287 -0.25932,0 -0.59272,0.19217 -0.74088,0.42706 -0.40421,0.6408 -0.03059,1.2927 0.74088,1.2927 0.38369,0 0.75018,-0.18791 0.84416,-0.43284 z m 26.347,-0.31876 c 0.3568,-0.14106 -0.005,-0.41944 -1.5162,-1.1673 l -1.9847,-0.98207 -1.8358,0.92132 c -1.0097,0.50673 -1.9943,0.9332 -2.188,0.9477 -0.1937,0.0145 -0.0545,0.1217 0.30929,0.23821 0.81843,0.26211 6.574,0.29573 7.2154,0.0422 z m -15.928,-0.99037 c 0.47086,-0.56735 -0.0033,-1.3007 -0.84099,-1.3007 -0.46547,0 -0.65622,0.16686 -0.72192,0.63154 -0.14133,0.99953 0.91381,1.4513 1.5629,0.6692 z m -5.6565,-0.54295 c 0.21888,-0.57038 -0.25115,-1.287 -0.84416,-1.287 -0.25932,0 -0.59272,0.19217 -0.74088,0.42706 -0.40421,0.6408 -0.03059,1.2927 0.74088,1.2927 0.38369,0 0.75018,-0.18791 0.84416,-0.43284 z m 29.451,-0.60241 c 0,-0.72694 -0.7355,-1.2476 -1.279,-0.90543 -0.62662,0.39459 -0.71085,1.1856 -0.16848,1.5822 0.58267,0.42606 1.4474,0.0217 1.4474,-0.67678 z m 6.7973,0.60241 c 0.21888,-0.57038 -0.25115,-1.287 -0.84416,-1.287 -0.25932,0 -0.59271,0.19217 -0.74087,0.42706 -0.40421,0.6408 -0.0306,1.2927 0.74087,1.2927 0.38369,0 0.75018,-0.18791 0.84416,-0.43284 z m -23.365,-0.95126 c 0.39685,-0.6331 -0.35017,-1.3862 -1.1296,-1.1388 -0.54834,0.17404 -0.78092,1.1541 -0.37112,1.5639 0.31229,0.31229 1.1953,0.0621 1.5007,-0.42512 z m 8.284,-1.9592 c 0.21888,-0.57038 -0.25115,-1.287 -0.84416,-1.287 -0.25932,0 -0.59271,0.19217 -0.74087,0.42706 -0.40421,0.6408 -0.0306,1.2927 0.74087,1.2927 0.38369,0 0.75018,-0.18791 0.84416,-0.43284 z m -21.889,-4.7138 c 0.55096,-0.66387 0.22358,-1.3356 -0.65091,-1.3356 -0.5467,0 -0.81444,0.14505 -0.87812,0.47573 -0.10505,0.54548 0.38804,1.2441 0.87812,1.2441 0.18264,0 0.47555,-0.17287 0.65091,-0.38416 z m 18.231,-0.072 c 0.56342,-1.0068 -0.7987,-1.9066 -1.5379,-1.0159 -0.23406,0.28204 -0.24002,0.5207 -0.0231,0.92604 0.35544,0.66415 1.212,0.71348 1.561,0.0899 z m 4.2591,-2.965 c 0.20635,-0.38557 0.17156,-0.61259 -0.14188,-0.92604 -0.52165,-0.52164 -0.76253,-0.52154 -1.2846,5.3e-4 -0.49901,0.49901 -0.5167,0.70038 -0.0983,1.1188 0.47645,0.47645 1.2165,0.38263 1.5248,-0.19329 z m -7.409,-1.4609 c 0.17705,-0.21334 0.24019,-0.63199 0.14198,-0.94143 -0.25866,-0.81497 -1.5531,-0.63166 -1.6759,0.23735 -0.13765,0.97348 0.91094,1.4548 1.534,0.70408 z m 11.132,-0.1619 c 0.21694,-0.40534 0.21099,-0.64401 -0.0231,-0.92605 -0.74218,-0.89427 -2.124,-0.0857 -1.5825,0.92605 0.16075,0.30034 0.52201,0.54607 0.80281,0.54607 0.2808,0 0.64206,-0.24573 0.8028,-0.54607 z m -27.243,-0.40214 c 0.25212,-0.30379 0.27142,-0.54032 0.07018,-0.8599 -0.39458,-0.62662 -1.1856,-0.71085 -1.5822,-0.16848 -0.73439,1.0043 0.71426,1.9896 1.512,1.0284 z m 20.09,-3.433 c 0,-0.91317 -0.10032,-1.4088 -0.26459,-1.3073 -0.14552,0.0899 -0.26458,0.75181 -0.26458,1.4708 0,0.71901 0.11906,1.3073 0.26458,1.3073 0.14553,0 0.26459,-0.66187 0.26459,-1.4708 z m -1.7662,0.72831 c 0.39093,-0.43199 0.39343,-0.53375 0.026,-1.0583 -0.22359,-0.31921 -0.51033,-0.58039 -0.63721,-0.58039 -0.29697,0 -1.0622,0.76245 -1.0622,1.0583 0,0.28258 0.75955,1.0583 1.0362,1.0583 0.11257,0 0.39931,-0.21507 0.63721,-0.47793 z m 6.8927,-1.4353 c 0.2219,-0.35237 0.1874,-0.55912 -0.14956,-0.89608 -0.79262,-0.79261 -1.9752,0.24328 -1.2606,1.1043 0.4114,0.4957 1.0238,0.40529 1.4102,-0.20819 z m -28.127,-1.6808 c 0.47002,-0.56634 -0.0028,-1.3007 -0.83737,-1.3007 -0.64781,0 -0.94876,0.60394 -0.66693,1.3384 0.1948,0.50765 1.0699,0.48575 1.5043,-0.0376 z m 17.312,-0.77157 c 0,-0.66063 -0.1061,-0.79375 -0.63262,-0.79375 -0.84694,0 -1.3111,0.73425 -0.8304,1.3135 0.19711,0.23751 0.60692,0.39632 0.9107,0.35291 0.41976,-0.06 0.55232,-0.26941 0.55232,-0.87266 z m 8.6174,-1.6097 c 0.25212,-0.30378 0.27142,-0.54032 0.0702,-0.85989 -0.39459,-0.62662 -1.1856,-0.71086 -1.5822,-0.16849 -0.73439,1.0043 0.71426,1.9896 1.512,1.0284 z m -22.254,-1.8172 c 0.53267,-0.64182 0.07981,-1.512 -0.73752,-1.4171 -0.78562,0.0912 -1.0707,0.80702 -0.56432,1.4172 0.40624,0.48948 0.89559,0.48948 1.3018,-2e-5 z m 20.566,-3.7528 c 0.21888,-0.57039 -0.25115,-1.287 -0.84416,-1.287 -0.59301,0 -1.063,0.71657 -0.84416,1.287 0.2172,0.566 1.4711,0.566 1.6883,0 z m -9.0651,-2.6288 c 0.22868,-0.22868 0.41577,-0.51783 0.41577,-0.64256 0,-0.2763 -0.7569,-1.0583 -1.0243,-1.0583 -0.3411,0 -0.82777,0.62223 -0.82777,1.0583 0,0.43607 0.48667,1.0583 0.82777,1.0583 0.10602,0 0.37987,-0.1871 0.60854,-0.41577 z m 30.446,25.27 c -0.29104,-0.11598 -1.7209,-0.21924 -3.1775,-0.22947 -2.394,-0.0168 -2.6817,-0.072 -2.9958,-0.57494 -0.23315,-0.37333 -0.54183,-0.51918 -0.93838,-0.44337 -0.57737,0.11037 -0.57149,0.073 0.25639,-1.6265 1.3227,-2.7153 1.8292,-5.2035 1.8219,-8.9505 -0.005,-2.8086 0.0532,-3.2612 0.43858,-3.3835 0.7028,-0.22306 0.79457,-0.87858 0.20547,-1.4677 -0.45668,-0.45668 -0.60659,-0.48663 -0.96306,-0.19244 -0.30735,0.25365 -0.45028,0.26508 -0.52541,0.042 -0.0568,-0.16853 -0.45504,-0.83758 -0.88505,-1.4868 -0.93647,-1.4138 -2.3896,-2.4723 -4.1014,-2.9874 -1.4409,-0.43365 -4.5209,-0.5016 -5.5199,-0.12178 -0.60508,0.23005 -0.7219,0.16773 -1.1158,-0.59531 -0.24197,-0.46875 -1.2069,-1.6472 -2.1443,-2.6189 l -1.7043,-1.7666 2.0753,-0.65126 c 1.1414,-0.35819 2.9217,-0.73448 3.9563,-0.8362 1.5864,-0.15597 1.9063,-0.11916 2.0422,0.23506 0.18646,0.48591 1.4063,0.57076 1.5604,0.10853 0.29065,-0.87196 6.111,1.2953 8.2718,3.0801 2.3268,1.9219 2.3126,1.9038 1.9527,2.4801 -0.44512,0.71274 0.13712,1.4639 0.97221,1.2543 0.49044,-0.12308 0.70521,0.0892 1.39,1.3739 2.4824,4.6574 2.7508,11.009 0.718,16.985 -0.83619,2.4585 -0.9501,2.6285 -1.5904,2.3733 z m -2.5241,-3.2781 c 0.55097,-0.66386 0.22358,-1.3356 -0.6509,-1.3356 -0.5467,0 -0.81445,0.14505 -0.87812,0.47573 -0.10505,0.54548 0.38804,1.2441 0.87812,1.2441 0.18264,0 0.47556,-0.17288 0.6509,-0.38417 z m 3.9264,-2.8438 c 0.79221,-0.7922 -0.10726,-2.0425 -1.0784,-1.499 -0.76525,0.42825 -0.40616,1.8165 0.46985,1.8165 0.16008,0 0.43392,-0.14287 0.60854,-0.3175 z m -2.7441,-3.0087 c 0.22867,-0.22867 0.41577,-0.51783 0.41577,-0.64256 0,-0.12473 -0.1871,-0.41388 -0.41577,-0.64256 -0.22868,-0.22867 -0.51783,-0.41577 -0.64256,-0.41577 -0.25763,0 -1.0583,0.7492 -1.0583,0.99025 0,0.24203 0.84829,1.1264 1.0804,1.1264 0.11257,0 0.39177,-0.18709 0.62045,-0.41577 z m 2.1041,-5.2017 c 0.39684,-0.6331 -0.35016,-1.3862 -1.1296,-1.1388 -0.54834,0.17403 -0.78091,1.1541 -0.37112,1.5639 0.31229,0.31229 1.1953,0.0622 1.5007,-0.42512 z m -5.9745,-7.6646 c 0.46387,-0.46387 0.38785,-1.2137 -0.15235,-1.5028 -1.0485,-0.56113 -1.9457,0.9367 -0.91921,1.5346 0.60109,0.35011 0.69244,0.3474 1.0716,-0.0317 z m -8.9534,-2.4479 c 0.17705,-0.21333 0.24019,-0.63198 0.14197,-0.94142 -0.25866,-0.81498 -1.5531,-0.63166 -1.6759,0.23735 -0.13764,0.97348 0.91094,1.4548 1.534,0.70407 z"
       id="path48"
       inkscape:connector-curvature="0"
       style="fill:#976719" />
    <path
       d="m 87.694,177.53 c -4.1045,-0.64391 -8.9743,-2.5989 -11.503,-4.6178 -0.63894,-0.51015 -1.1152,-0.93387 -1.0583,-0.9416 0.05686,-0.008 0.81776,-0.0714 1.6909,-0.14147 2.8603,-0.22958 7.0875,-0.94219 9.2525,-1.5598 1.5567,-0.44407 2.5312,-0.56994 3.6459,-0.47095 0.83675,0.0743 1.521,0.20966 1.5205,0.30078 -0.001,0.21855 -3.1411,1.4993 -5.2149,2.1271 -1.3991,0.42354 -1.6895,0.4426 -1.9506,0.12798 -0.44739,-0.53906 -1.2125,-0.45217 -1.6614,0.18868 -0.21509,0.30708 -0.78739,0.64448 -1.2718,0.74978 l -0.8807,0.19146 1.0583,0.45737 c 0.58208,0.25155 1.5941,0.5973 2.249,0.76834 0.65484,0.17104 1.3462,0.52079 1.5364,0.77723 0.38358,0.51728 1.2467,0.62173 1.5175,0.18362 0.09607,-0.15544 0.37098,-0.2033 0.61093,-0.10635 0.34944,0.14119 2.7801,0.34921 7.58,0.64872 0.35614,0.0222 5.6686,-0.98922 6.1342,-1.1679 0.20296,-0.0779 0.58666,-0.006 0.85267,0.16045 0.61012,0.38102 1.3569,0.1073 1.5318,-0.56144 0.0776,-0.29691 0.45557,-0.58333 0.89789,-0.68048 1.4228,-0.31249 1.0194,-0.56732 -1.768,-1.1171 -2.2596,-0.44565 -2.9006,-0.67862 -3.4255,-1.245 -0.52752,-0.56921 -0.74081,-0.64596 -1.1647,-0.41911 -0.40602,0.2173 -0.85268,0.1218 -2.0532,-0.43897 l -1.5343,-0.71668 0.92604,-0.0847 c 2.277,-0.20833 2.2741,-0.29045 -0.0514,-1.4853 l -2.1975,-1.129 -0.87502,0.47632 c -0.48126,0.26197 -0.96366,0.47631 -1.072,0.47631 -0.27161,0 -2.5433,-2.231 -3.3181,-3.2587 -0.34929,-0.46329 -0.89307,-1.3066 -1.2084,-1.8741 -0.57322,-1.0315 -0.52178,-1.2469 0.37268,-1.5605 0.13703,-0.048 -0.07053,-0.85365 -0.46124,-1.7902 -0.72658,-1.7417 -1.5188,-4.5341 -1.4936,-5.2642 0.0078,-0.22409 0.31194,0.60049 0.67598,1.8324 0.36405,1.2319 0.98264,2.8292 1.3747,3.5494 1.0176,1.8697 4.0125,4.9713 6.0317,6.2465 4.5278,2.8596 11.048,4.4117 19.026,4.5294 3.6696,0.0541 4.7763,-0.22009 5.4881,-1.36 0.38119,-0.61038 0.72714,-0.67902 0.72714,-0.14427 0,0.60489 -1.3559,2.0455 -2.2942,2.4375 -0.48836,0.20405 -1.7955,0.3609 -3.0076,0.3609 -2.119,0 -2.1634,0.0139 -3.8211,1.1968 -2.2438,1.6012 -5.2158,2.9419 -8.3081,3.7481 -2.1214,0.55303 -3.2937,0.67866 -7.0429,0.75471 -2.4739,0.0502 -5.2022,-0.0193 -6.063,-0.15429 z M 68.502,161.795 c -0.4434,-1.3842 -0.80617,-2.7009 -0.80617,-2.926 0,-0.69056 0.4774,-0.15883 0.67284,0.74942 0.10141,0.47127 0.52729,1.6175 0.9464,2.5471 0.87092,1.9318 0.90864,2.1462 0.37756,2.1462 -0.25277,0 -0.66059,-0.86204 -1.1906,-2.5167 z m 47.227,2.0537 c 1.0582,-2.4497 2.0393,-5.4309 2.3464,-7.1301 0.28466,-1.575 0.37735,-1.8134 0.3911,-1.0059 0.0416,2.4448 -1.77,8.599 -2.5314,8.599 -0.28664,0 -0.34731,-0.13626 -0.20615,-0.46302 z m -48.393,-7.2655 c -0.08925,-0.3332 -0.14999,-1.0225 -0.13496,-1.5318 0.02212,-0.74994 0.07244,-0.65419 0.26462,0.50347 0.2431,1.4645 0.16119,2.1141 -0.12965,1.0284 z m 24.866,-6.3927 c -0.29791,-1.187 -2.7337,-3.5422 -4.5694,-4.4183 l -1.7088,-0.81552 0.55864,-0.94684 c 0.66987,-1.1353 0.51481,-1.2913 -1.5388,-1.5479 -4.0418,-0.50499 -7.9106,1.6923 -9.2885,5.2754 -0.28785,0.74848 -0.52956,1.157 -0.53714,0.90778 -0.03519,-1.1566 1.1704,-3.5238 2.468,-4.846 1.8973,-1.9333 3.734,-2.5961 6.7786,-2.4461 2.6077,0.12847 4.3597,0.86761 5.963,2.5157 2.0135,2.0697 3.103,4.9205 2.3991,6.2773 l -0.3612,0.69621 z m 17.301,-3.5991 c -0.36784,-0.88803 -2.1975,-2.6702 -3.3568,-3.2697 -1.4796,-0.76512 -3.8953,-1.0984 -5.701,-0.78646 -1.4377,0.24834 -1.7059,0.22944 -1.9982,-0.14081 -0.55101,-0.69788 1.1923,-1.1611 3.9217,-1.0421 1.987,0.0866 2.4662,0.21114 3.9531,1.027 1.7347,0.95188 3.0636,2.4718 3.6619,4.1879 0.36341,1.0425 -0.0502,1.0633 -0.48065,0.0242 z"
       id="path50"
       inkscape:connector-curvature="0"
       style="fill:#754902" />
    <path
       d="m 88.673,177.51 c -4.3545,-0.50695 -10.018,-2.6396 -12.491,-4.7033 l -0.90622,-0.75631 2.3614,-0.19093 c 3.1204,-0.2523 6.4305,-0.82954 8.7114,-1.5192 1.7886,-0.54078 3.7452,-0.64989 4.1783,-0.23299 0.2203,0.21206 -3.0945,1.6055 -5.0719,2.1321 -0.82448,0.21956 -1.2399,0.22664 -1.442,0.0246 -0.44951,-0.44952 -1.2022,-0.33133 -1.5623,0.24532 -0.21864,0.3501 -0.61702,0.52916 -1.1773,0.52916 -2.0154,0 -0.98319,0.84843 2.1647,1.7793 0.7276,0.21517 1.5434,0.62529 1.813,0.91138 0.32564,0.34566 0.63631,0.45135 0.92604,0.31503 0.5187,-0.24405 1.2379,-0.23109 5.5954,0.10076 1.819,0.13853 3.4859,0.16306 3.7042,0.0545 0.21828,-0.10855 1.4581,-0.33463 2.7552,-0.5024 1.2971,-0.16776 2.5698,-0.41818 2.8282,-0.55649 0.30291,-0.16212 0.52813,-0.15721 0.63383,0.0138 0.26741,0.43267 1.1348,0.30261 1.5068,-0.22593 0.19015,-0.27019 0.88151,-0.73093 1.5364,-1.0239 1.3574,-0.60721 1.5944,-0.4846 -2.4768,-1.281 -1.6528,-0.32334 -2.5424,-0.64203 -3.0152,-1.0802 -0.76277,-0.70692 -0.73944,-0.70006 -1.3384,-0.39339 -0.48034,0.24594 -3.1976,-0.84331 -2.7673,-1.1093 0.57708,-0.35666 3.0107,-0.19421 4.6779,0.31226 1.7103,0.51957 5.372,1.1351 9.012,1.5149 l 1.5786,0.16471 -0.91719,0.7753 c -1.3853,1.171 -5.9396,3.3144 -8.3255,3.9182 -3.9318,0.99506 -8.3162,1.2702 -12.492,0.78409 z m 0.65507,-10.877 c -1.5219,-1.5234 -3.1119,-3.7692 -3.1119,-4.3956 0,-0.14042 0.20141,-0.3326 0.44758,-0.42706 0.31394,-0.12047 0.64145,0.0883 1.0969,0.69929 0.35714,0.47908 1.5744,1.7741 2.705,2.8778 l 2.0557,2.0067 -1.53,0.9038 z m -19.911,-2.5871 c -0.31648,-0.51208 -1.4575,-4.0666 -1.4387,-4.4819 0.01038,-0.22918 0.25053,0.26792 0.53367,1.1046 0.28314,0.83673 0.74646,1.9338 1.0296,2.4379 0.28314,0.50411 0.4084,0.98231 0.27836,1.0627 -0.13004,0.0804 -0.31137,0.0249 -0.40295,-0.1233 z m 46.432,0.0239 c 0,-0.13029 0.34449,-1.053 0.76553,-2.0505 0.42105,-0.9975 0.92058,-2.5177 1.1101,-3.3782 0.18951,-0.86048 0.38698,-1.4373 0.43882,-1.2818 0.21494,0.64486 -1.689,6.9473 -2.0988,6.9473 -0.1186,0 -0.21566,-0.10659 -0.21566,-0.23687 z m -23.926,-14.601 c -0.67627,-1.4005 -2.4987,-3.0465 -4.2718,-3.8583 -0.78948,-0.36143 -1.4354,-0.71387 -1.4354,-0.78319 0,-0.3186 0.83102,-1.6872 1.0245,-1.6872 0.53763,0 2.0088,0.93849 2.9305,1.8694 1.5673,1.583 2.4394,3.2484 2.3438,4.4758 l -0.081,1.0407 z"
       id="path52"
       inkscape:connector-curvature="0"
       style="fill:#623a00" />
  </g>
</svg>
