<?xml version="1.0" encoding="UTF-8" standalone="no"?>
<!-- Created with Inkscape (http://www.inkscape.org/) -->

<svg
   xmlns:dc="http://purl.org/dc/elements/1.1/"
   xmlns:cc="http://creativecommons.org/ns#"
   xmlns:rdf="http://www.w3.org/1999/02/22-rdf-syntax-ns#"
   xmlns:svg="http://www.w3.org/2000/svg"
   xmlns="http://www.w3.org/2000/svg"
   xmlns:sodipodi="http://sodipodi.sourceforge.net/DTD/sodipodi-0.dtd"
   xmlns:inkscape="http://www.inkscape.org/namespaces/inkscape"
   version="1.1"
   id="svg10"
   width="453.33334"
   height="132"
   viewBox="0 0 453.33334 132"
   sodipodi:docname="scrittaalfa.svg"
   inkscape:version="0.92.2 (5c3e80d, 2017-08-06)">
  <metadata
     id="metadata16">
    <rdf:RDF>
      <cc:Work
         rdf:about="">
        <dc:format>image/svg+xml</dc:format>
        <dc:type
           rdf:resource="http://purl.org/dc/dcmitype/StillImage" />
        <dc:title />
      </cc:Work>
    </rdf:RDF>
  </metadata>
  <defs
     id="defs14" />
  <sodipodi:namedview
     pagecolor="#ffffff"
     bordercolor="#666666"
     borderopacity="1"
     objecttolerance="10"
     gridtolerance="10"
     guidetolerance="10"
     inkscape:pageopacity="0"
     inkscape:pageshadow="2"
     inkscape:window-width="1920"
     inkscape:window-height="1017"
     id="namedview12"
     showgrid="false"
     inkscape:zoom="1.9466911"
     inkscape:cx="280.47479"
     inkscape:cy="-2.8721967"
     inkscape:window-x="-8"
     inkscape:window-y="-8"
     inkscape:window-maximized="1"
     inkscape:current-layer="svg10" />
  <path
     style="fill:#e57c26;fill-opacity:1;stroke-width:1.33333337"
     d="m 49.431544,72.986307 c 0,-0.825 1.7,-1.5 3.77777,-1.5 5.70001,0 6.16093,-1.57462 1.56007,-5.32964 -4.70108,-3.83684 -4.44562,-6.76716 0.79824,-9.15642 4.09653,-1.86651 5.86392,-1.92094 5.86392,-0.1806 0,0.73333 -1.12654,1.33333 -2.50341,1.33333 -3.18085,0 -6.9526,4.16796 -4.51443,4.98866 0.90685,0.30525 3.00685,1.66897 4.66667,3.03049 2.69895,2.2139 2.80461,2.69276 0.99998,4.53174 -2.58168,2.6308 -10.64881,4.3599 -10.64881,2.28244 z m 16.04532,-0.77872 c -2.22791,-2.68447 -0.60849,-9.05755 3.40084,-13.38369 3.80352,-4.10407 6.36916,-3.82268 6.99209,0.76685 0.42838,3.15619 0.39271,3.16885 -1.58423,0.56223 l -2.02248,-2.66667 -2.07287,2.66667 c -5.65998,7.28132 -3.67602,12.98341 3.59328,10.32747 l 4.31471,-1.57644 -3.14771,2.62448 c -3.73306,3.11254 -7.24512,3.36429 -9.47363,0.6791 z m 16.84357,1.0565 c -1.93022,-1.93021 -0.46297,-16.44444 1.66237,-16.44444 1.00246,0 0.87078,15.68907 -0.14017,16.70002 -0.34832,0.34832 -1.03331,0.23331 -1.5222,-0.25558 z m 16.10037,0.029 c -0.93752,-1.47026 1.0085,-14.91569 2.353486,-16.26068 0.87736,-0.87737 0.67097,4.40837 -0.46025,11.78719 -0.507886,3.31289 -1.355776,5.31635 -1.893236,4.47349 z m 10.469406,-5.37768 c -2.43467,-7.14536 -2.71665,-11.0958 -0.792,-11.0958 0.73333,0 1.34152,1.35 1.35154,3 0.0241,3.9706 1.41017,9 2.48034,9 0.46981,0 2.48506,-2.7 4.47834,-6 3.37151,-5.58177 6.35645,-7.7732 6.35645,-4.66667 0,0.73333 -0.47323,1.33333 -1.05162,1.33333 -0.57839,0 -3.05163,3.3 -5.49608,7.33334 -2.44446,4.03333 -4.61483,7.33333 -4.82305,7.33333 -0.20822,0 -1.33498,-2.80688 -2.50392,-6.23752 z m 16.19726,5.37768 c -0.93753,-1.47026 1.0085,-14.91569 2.35349,-16.26068 0.87736,-0.87737 0.67097,4.40837 -0.46025,11.78719 -0.50789,3.31289 -1.35578,5.31635 -1.89324,4.47349 z m 10.15573,-1.1502 c -0.42423,-1.10552 -0.37822,-4.10552 0.10226,-6.66666 0.69186,-3.6879 0.44495,-4.65662 -1.18684,-4.65662 -1.13322,0 -2.06041,-0.6 -2.06041,-1.33334 0,-0.73333 1.15233,-1.33333 2.56072,-1.33333 1.76113,0 2.83507,-1.24901 3.43928,-4 0.4832,-2.2 1.44231,-4 2.13135,-4 0.68904,0 0.87632,1.5 0.41617,3.33333 -0.73223,2.91744 -0.40268,3.33334 2.64127,3.33334 1.91284,0 3.47788,0.6 3.47788,1.33333 0,0.73333 -1.73003,1.33333 -3.8445,1.33333 -2.85977,0 -4.05041,0.76841 -4.64845,3 -2.04673,7.63732 0.14732,11.47897 4.22628,7.4 1.19075,-1.19074 1.6,-1.20274 1.6,-0.0469 0,1.62983 -4.11925,4.31358 -6.62085,4.31358 -0.80456,0 -1.80994,-0.90452 -2.23416,-2.01004 z m 13.84428,1.1502 c -0.93754,-1.47026 1.00849,-14.91569 2.35348,-16.26068 0.87736,-0.87737 0.67097,4.40837 -0.46026,11.78719 -0.50788,3.31289 -1.35577,5.31635 -1.89322,4.47349 z m 42.0918,-10.10143 c 0.71052,-10.54265 2.78273,-18.28604 4.44793,-16.62084 0.35544,0.35545 -0.0211,3.1244 -0.8366,6.15324 -0.81559,3.02883 -1.61408,8.74845 -1.77443,12.71026 -0.16034,3.96181 -0.81557,7.69424 -1.45605,8.29429 -0.66183,0.62004 -0.82623,-3.92844 -0.38085,-10.53695 z m 8.35576,9.30399 c -1.31938,-2.92499 1.68808,-24.72319 3.57161,-25.88728 0.95096,-0.58772 1.06787,1.01264 0.36579,5.00704 -0.56755,3.22898 -1.44978,9.77086 -1.96052,14.53753 -0.62735,5.85497 -1.2687,7.91272 -1.97688,6.34272 z m 62.16317,0.0573 c -0.88,-0.88 -1.6,-3.27053 -1.6,-5.31229 0,-4.78687 6.68957,-12.54253 9.79168,-11.35214 3.3398,1.2816 2.68741,3.49772 -2.45835,8.35079 -2.56666,2.42068 -4.66666,5.04153 -4.66666,5.82411 0,2.20347 5.5071,1.6789 8.22834,-0.78378 1.34108,-1.21366 2.43832,-1.54769 2.43832,-0.74228 0,1.8976 -5.31653,5.61559 -8.03001,5.61559 -1.15683,0 -2.82332,-0.72 -3.70332,-1.6 z m 5.74073,-10.40817 c 1.33139,-1.47116 2.02806,-3.06749 1.54816,-3.54738 -0.9723,-0.97231 -6.22222,3.32699 -6.22222,5.09554 0,1.94649 2.15845,1.23156 4.67406,-1.54816 z m 12.63884,9.30333 c -2.21745,-4.14335 -3.32706,-15.96183 -1.49862,-15.96183 0.89502,0 1.52744,2.32785 1.53946,5.66667 0.0343,9.49034 1.8294,10.19503 6.07939,2.3864 l 3.76013,-6.90858 1.77704,6.09442 c 0.97739,3.35194 2.21807,6.09443 2.75708,6.09443 0.53902,0 2.04554,-3 3.34782,-6.66667 1.30229,-3.66667 2.94312,-6.66667 3.64629,-6.66667 1.643,0 1.77868,-0.59156 -1.98175,8.64025 -1.78633,4.38547 -3.89209,8.18831 -4.67945,8.45077 -0.78736,0.26245 -2.33108,-1.67566 -3.43049,-4.30692 -1.0994,-2.63125 -2.27868,-4.7841 -2.6206,-4.7841 -0.34192,0 -1.84606,2.4 -3.34254,5.33334 -1.49648,2.93333 -2.98756,5.33333 -3.31352,5.33333 -0.32596,0 -1.24406,-1.21718 -2.04024,-2.70484 z m 23.40714,1.45788 c -0.42387,-0.68584 1.14452,-1.43584 3.48529,-1.66667 5.38113,-0.53066 6.17689,-2.74107 1.82523,-5.07001 -1.85015,-0.99017 -3.3639,-2.8649 -3.3639,-4.16606 0,-2.48435 4.72135,-6.51697 7.63002,-6.51697 3.17706,0 1.72322,2.07436 -2.63002,3.75252 l -4.33333,1.67048 4.34535,3.62184 c 5.22393,4.35411 5.41578,6.02845 0.92525,8.07448 -4.10681,1.87118 -6.84852,1.97565 -7.88389,0.30038 z m 17.02769,-9.71431 c 0.71052,-10.54265 2.78273,-18.28604 4.44793,-16.62084 0.35544,0.35545 -0.0211,3.1244 -0.8366,6.15324 -0.81558,3.02883 -1.61408,8.74845 -1.77442,12.71026 -0.16035,3.96181 -0.81558,7.69424 -1.45606,8.29429 -0.66182,0.62004 -0.82622,-3.92844 -0.38085,-10.53695 z m 9.1856,9.36127 c -0.88,-0.88 -1.6,-3.27053 -1.6,-5.31229 0,-4.78687 6.68957,-12.54253 9.79168,-11.35214 3.3398,1.2816 2.68742,3.49772 -2.45835,8.35079 -2.56666,2.42068 -4.66666,5.04153 -4.66666,5.82411 0,2.20347 5.5071,1.6789 8.22835,-0.78378 1.34108,-1.21366 2.43832,-1.54768 2.43832,-0.74228 0,1.89761 -5.31654,5.61559 -8.03002,5.61559 -1.15683,0 -2.82332,-0.72 -3.70332,-1.6 z m 5.74073,-10.40817 c 1.33139,-1.47116 2.02806,-3.06749 1.54816,-3.54738 -0.9723,-0.97231 -6.22222,3.32699 -6.22222,5.09554 0,1.94649 2.15845,1.23156 4.67406,-1.54816 z m 11.80563,10.00173 c -0.42346,-1.10354 -0.52512,-4.10354 -0.22588,-6.66666 0.37506,-3.21259 0.006,-4.66023 -1.18821,-4.66023 -2.7214,0 -2.02376,-2.27942 0.9344,-3.053 1.5644,-0.4091 2.66667,-1.81869 2.66667,-3.41015 0,-1.49204 0.68698,-3.13739 1.52665,-3.65633 1.0538,-0.65129 1.31756,0.15028 0.85156,2.58798 -0.57604,3.01334 -0.21313,3.5315 2.47335,3.5315 4.34112,0 3.97865,2.39196 -0.44118,2.91144 -2.81914,0.33134 -3.83906,1.39096 -4.75182,4.93674 -1.42562,5.53808 0.20534,7.69872 4.19829,5.56176 1.75959,-0.9417 2.80981,-1.0054 2.80981,-0.17043 0,1.45227 -4.27213,4.09382 -6.62085,4.09382 -0.80456,0 -1.80932,-0.90289 -2.23279,-2.00644 z m 14.66667,0 c -0.42347,-1.10354 -0.52512,-4.10354 -0.22588,-6.66666 0.37505,-3.21259 0.006,-4.66023 -1.18821,-4.66023 -2.7214,0 -2.02376,-2.27942 0.9344,-3.053 1.5644,-0.4091 2.66666,-1.81869 2.66666,-3.41015 0,-1.49204 0.68699,-3.13739 1.52666,-3.65633 1.0538,-0.65129 1.31756,0.15028 0.85156,2.58798 -0.57604,3.01334 -0.21314,3.5315 2.47334,3.5315 4.34112,0 3.97866,2.39196 -0.44117,2.91144 -2.81915,0.33134 -3.83907,1.39096 -4.75183,4.93674 -1.42561,5.53808 0.20535,7.69872 4.1983,5.56176 1.75958,-0.9417 2.80981,-1.0054 2.80981,-0.17043 0,1.45227 -4.27213,4.09382 -6.62085,4.09382 -0.80456,0 -1.80932,-0.90289 -2.23279,-2.00644 z m 14.45364,0.40644 c -0.88,-0.88 -1.6,-3.27053 -1.6,-5.31229 0,-4.78687 6.68957,-12.54253 9.79168,-11.35214 3.3398,1.2816 2.68741,3.49772 -2.45835,8.35079 -2.56666,2.42068 -4.66666,5.04153 -4.66666,5.82411 0,2.20347 5.5071,1.6789 8.22834,-0.78378 1.34108,-1.21366 2.43832,-1.54768 2.43832,-0.74228 0,1.89761 -5.31653,5.61559 -8.03001,5.61559 -1.15683,0 -2.82332,-0.72 -3.70332,-1.6 z m 5.74073,-10.40817 c 1.33139,-1.47116 2.02806,-3.06749 1.54816,-3.54738 -0.9723,-0.97231 -6.22222,3.32699 -6.22222,5.09554 0,1.94649 2.15845,1.23156 4.67406,-1.54816 z m 9.9926,4.16555 c 0,-4.54352 0.65582,-8.40531 1.51788,-8.9381 1.09218,-0.675 1.25522,0.51826 0.58132,4.25464 l -0.93657,5.19275 4.18243,-5 c 4.33994,-5.18831 7.98828,-6.52251 7.98828,-2.92131 0,1.14328 -0.64442,1.68042 -1.43204,1.19364 -2.08362,-1.28775 -7.62462,4.43262 -8.60138,8.87982 -1.52885,6.96082 -3.29992,5.53242 -3.29992,-2.66144 z m -349.497866,5.17598 c -1.16,-2.90333 1.18539,-20.23667 2.96482,-21.91115 1.12189,-1.05572 1.2425,0.29566 0.46805,5.24449 -0.5738,3.66666 -1.40114,9.36666 -1.83853,12.66666 -0.44098,3.3271 -1.15124,5.10904 -1.59434,4 z m 127.266866,-0.78786 c -0.44769,-1.16665 0.14743,-4.13728 1.32248,-6.6014 4.79637,-10.0581 14.10936,-10.76317 12.26437,-0.92851 -0.49265,2.62609 -0.22889,5.26582 0.62951,6.30014 1.08176,1.30343 1.07897,2.0265 -0.0107,2.69975 -0.86317,0.53347 -1.79532,-0.25637 -2.22025,-1.8813 -0.91357,-3.49468 -2.02013,-3.52386 -5.08777,-0.13415 -2.90494,3.20992 -5.78775,3.43789 -6.89767,0.54547 z m 8.29467,-4.0735 c 3.6056,-3.89051 4.3413,-8.47197 1.36045,-8.47197 -2.27328,0 -7.42412,6.84951 -7.42412,9.87249 0,3.13892 2.36232,2.59329 6.06367,-1.40052 z m 29.03866,4.0735 c -0.44769,-1.16665 0.14743,-4.13728 1.32248,-6.6014 4.79638,-10.0581 14.10936,-10.76317 12.26438,-0.92851 -0.49266,2.62609 -0.2289,5.26582 0.6295,6.30014 1.08176,1.30343 1.07898,2.0265 -0.0107,2.69975 -0.86318,0.53347 -1.79532,-0.25637 -2.22026,-1.8813 -0.91357,-3.49468 -2.02013,-3.52386 -5.08777,-0.13415 -2.90493,3.20992 -5.78775,3.43789 -6.89767,0.54547 z m 8.29467,-4.0735 c 3.6056,-3.89051 4.34131,-8.47197 1.36045,-8.47197 -2.27328,0 -7.42412,6.84951 -7.42412,9.87249 0,3.13892 2.36232,2.59329 6.06367,-1.40052 z m 23.26967,4.38079 c 0,-5.13161 1.82349,-14.04053 2.75589,-13.46428 0.58769,0.36321 0.72952,2.74939 0.31519,5.30262 -0.95319,5.8738 -0.0573,5.8674 3.41892,-0.0244 3.99514,-6.77128 8.17666,-5.7266 8.17666,2.0428 0,1.37025 0.97706,3.03814 2.17123,3.70644 1.48445,0.83074 1.69532,1.50919 0.66667,2.14494 -2.36115,1.45927 -3.79462,-0.13525 -4.76323,-5.2984 -1.11636,-5.95071 -3.12655,-5.43643 -7.17456,1.8355 -3.08411,5.54034 -5.56677,7.21491 -5.56677,3.75481 z m 175.33333,-0.1074 c 0,-1.14328 0.6,-2.07869 1.33334,-2.07869 0.73333,0 1.33333,0.56459 1.33333,1.25464 0,0.69006 -0.6,1.62546 -1.33333,2.07869 -0.73334,0.45323 -1.33334,-0.11136 -1.33334,-1.25464 z M 85.438164,65.227327 c -0.0128,-3.06344 6.13963,-8.89269 8.44993,-8.00614 1.21557,0.46645 2.21011,1.4481 2.21011,2.18143 0,0.73333 -0.99593,0.95116 -2.21319,0.48405 -1.48832,-0.57112 -3.23296,0.42517 -5.32671,3.04185 -1.71244,2.14012 -3.1165,3.17459 -3.12014,2.29881 z m 330.807766,-6.40768 c 0.40608,-3.66667 1.28896,-7.23667 1.96198,-7.93334 1.78854,-1.85143 1.34985,2.98353 -0.8408,9.26667 l -1.8595,5.33333 z m -314.1137,-7.27829 c -0.55092,-0.8914 -0.34395,-2.27845 0.45993,-3.08233 2.0482,-2.0482 3.34578,-0.30749 1.81278,2.43183 -0.93287,1.66694 -1.53755,1.84001 -2.27271,0.6505 z m 26.66667,0 c -0.55092,-0.8914 -0.34395,-2.27845 0.45993,-3.08233 2.04819,-2.0482 3.34578,-0.30749 1.81278,2.43183 -0.93287,1.66694 -1.53755,1.84001 -2.27271,0.6505 z m 23.99999,0 c -0.55091,-0.8914 -0.34393,-2.27845 0.45995,-3.08233 2.04818,-2.0482 3.34577,-0.30749 1.81277,2.43183 -0.93287,1.66694 -1.53756,1.84001 -2.27272,0.6505 z"
     id="path251"
     inkscape:connector-curvature="0"
     sodipodi:nodetypes="ssccsssscssscsccsccscsscccsccscscsscsccscssccssscscsssccssccccccsccccscccsccssscscsssccsccscsccscscccscscccsssscccccccccccssscscsssccscccscscsscscsscccscscssccssscssscscsssccscscscssccscssscccccccccccsscccccccscccsscssccsccscssssscsccscccscccscscccccccccc" />
  <text
     xml:space="preserve"
     style="font-style:normal;font-weight:normal;font-size:40px;line-height:1.25;font-family:sans-serif;letter-spacing:0px;word-spacing:0px;fill:#000000;fill-opacity:1;stroke:none"
     x="409.5076"
     y="65.486305"
     id="text5636"><tspan
       sodipodi:role="line"
       id="tspan5634"
       x="409.5076"
       y="100.87693" /></text>
</svg>
